<svg version="1.2" xmlns="http://www.w3.org/2000/svg" viewBox="0 0 38 44" width="38" height="44">
  <style>
    .s0 { fill: #161616 }
    #head      { transform-box: fill-box; transform-origin: 50% 100%; }
    #left-arm  { transform-box: fill-box; transform-origin: 100% 0%; }
    #right-arm { transform-box: fill-box; transform-origin: 0%   0%; }
    #body      { transform-box: fill-box; transform-origin: 50%  50%; }
    #legs      { transform-box: fill-box; transform-origin: 50%  0%; }
  </style>
  <g id="head">
    <path fill-rule="evenodd" class="s0" d="m22.79 2.82q0.11 0 0.2 0.05 0.11 0.05 0.19 0.13 0.14 0.14 0.23 0.31 0.22 0.4 0.32 0.84 0.13 0.56 0.15 1.14 0.06 1.43 0 2.87-0.03 0.75-0.11 1.5-0.04 0.34-0.1 0.68-0.05 0.31-0.1 0.63 0-0.04 0.01-0.07-0.07 0.65-0.05 1.3 0.02 0.52 0.09 1.05 0.07 0.6 0.1 1.22 0.03 0.57 0.1 1.14 0-0.01 0-0.03 0.05 0.34 0.12 0.67 0.06 0.29 0.13 0.57 0.07 0.3 0.12 0.6 0.05 0.29 0.1 0.57 0.11 0.66 0.24 1.3 0.1 0.48 0.15 0.96 0.02 0.26 0.03 0.54 0.02 0.21-0.03 0.41-0.04 0.13-0.11 0.25-0.08 0.12-0.17 0.23-0.17 0.21-0.36 0.4-0.4 0.36-0.81 0.71-0.36 0.32-0.77 0.57-0.42 0.25-0.88 0.43-0.52 0.21-1.05 0.36-0.3 0.08-0.6 0.15-0.33 0.07-0.65 0.12-0.34 0.06-0.68 0.08-0.3 0.01-0.6 0-0.68-0.02-1.34-0.12-0.7-0.12-1.4-0.25-0.36-0.07-0.71-0.15-0.24-0.06-0.48-0.16 0.01 0 0.02 0.01-0.03-0.01-0.06-0.03 0 0 0 0-0.17-0.07-0.33-0.16-0.18-0.12-0.36-0.26-0.35-0.29-0.66-0.65-0.3-0.31-0.54-0.68-0.26-0.45-0.44-0.95-0.15-0.36-0.22-0.75-0.03-0.19-0.04-0.39-0.01-0.51 0.04-1 0.06-0.63 0.13-1.26 0.07-0.49 0.13-0.98 0.06-0.74 0.13-1.47 0.04-0.4 0.1-0.8 0.06-0.3 0.15-0.59 0.2-0.66 0.5-1.29 0.14-0.29 0.31-0.57 0.17-0.28 0.35-0.53 0.88-1.24 1.79-2.44 0.24-0.31 0.47-0.64 0.18-0.28 0.35-0.57 0.27-0.5 0.49-1.02-0.02 0.03-0.03 0.06 0.03-0.07 0.06-0.14-0.01 0.03-0.02 0.06c0.21-0.52 0.4-1.06 0.62-1.57q0.15-0.35 0.33-0.69 0.1-0.21 0.25-0.4c0.14-0.19 0.29-0.4 0.52-0.49q0.15-0.06 0.3-0.03 0.18 0.05 0.27 0.21 0.25 0.39 0.46 0.79 0.27 0.48 0.52 0.98 0.08-0.06 0.18-0.08 0.13-0.03 0.27-0.02 0.21 0.03 0.4 0.09 0.21 0.07 0.41 0.16-0.03-0.01-0.06-0.03 0.17 0.08 0.35 0.15 0.05-0.11 0.1-0.22-0.01 0.02-0.02 0.05 0.2-0.49 0.39-1 0.17-0.43 0.36-0.87-0.01 0.01-0.02 0.02 0.08-0.17 0.15-0.33 0.08-0.22 0.2-0.41c0.08-0.12 0.19-0.24 0.34-0.26q0.04-0.01 0.08-0.01zm-0.29 1.17q0.01-0.03 0.02-0.06-0.03 0.09-0.07 0.17 0.01-0.03 0.02-0.06-0.21 0.54-0.43 1.09-0.16 0.43-0.35 0.86-0.04 0.11-0.1 0.21c-0.07 0.12-0.19 0.21-0.34 0.19q-0.06-0.01-0.11-0.03-0.06-0.02-0.11-0.04-0.06-0.03-0.13-0.06-0.08-0.04-0.17-0.07 0.01 0 0.02 0.01-0.05-0.03-0.1-0.05 0.02 0.01 0.04 0.02 0 0 0 0 0 0 0 0 0.01 0 0.01 0-0.3-0.13-0.62-0.19-0.05 0-0.1 0 0 0 0 0-0.03 0.01-0.05 0.03-0.12 0.11-0.22 0.23-0.05 0.07-0.09 0.14-0.02 0.05-0.03 0.1c-0.03 0.13-0.18 0.2-0.31 0.17-0.13-0.04-0.21-0.18-0.17-0.31q0.06-0.22 0.19-0.4-0.02-0.02-0.04-0.05-0.29-0.57-0.59-1.12-0.12-0.21-0.25-0.43-0.07-0.12-0.14-0.24-0.03 0.01-0.05 0.02-0.1 0.1-0.18 0.21c-0.28 0.38-0.47 0.8-0.65 1.22q0.01-0.02 0.03-0.05c-0.21 0.48-0.38 0.97-0.58 1.46q0-0.01 0-0.01-0.14 0.35-0.31 0.69-0.18 0.39-0.41 0.75-0.27 0.43-0.58 0.83-0.34 0.44-0.67 0.89-0.59 0.79-1.16 1.61-0.27 0.36-0.48 0.75-0.2 0.37-0.37 0.76 0.01-0.03 0.03-0.06-0.32 0.74-0.46 1.53 0.01-0.04 0.01-0.07-0.1 0.76-0.16 1.53-0.07 0.72-0.16 1.43-0.05 0.4-0.09 0.8-0.05 0.39-0.07 0.77-0.05 0.53-0.01 1.06 0.05 0.31 0.17 0.59 0.08 0.24 0.17 0.46-0.01-0.01-0.01-0.02 0.1 0.24 0.24 0.48 0.1 0.15 0.21 0.3-0.01 0-0.01-0.01 0.01 0.01 0.02 0.02 0 0.01 0.01 0.02 0 0 0-0.01 0.42 0.55 0.95 0.99 0.24 0.18 0.52 0.31-0.02-0.01-0.05-0.02 0.03 0.01 0.06 0.02 0 0 0 0 0.04 0.02 0.08 0.04-0.02-0.02-0.05-0.02 0.13 0.05 0.25 0.08 0.17 0.05 0.34 0.09 0.33 0.07 0.65 0.13 0.69 0.13 1.37 0.24-0.01 0-0.01 0 0.01 0 0.02 0 0.01 0 0.01 0 0 0-0.01 0 0.56 0.07 1.11 0.09 0.28 0.01 0.55 0 0.26-0.01 0.52-0.05-0.02 0-0.03 0 1.28-0.18 2.48-0.68 0 0.01-0.01 0.01 0.31-0.13 0.6-0.3 0.27-0.15 0.52-0.34 0 0.01 0 0.01 0.01-0.01 0.02-0.02 0.01-0.01 0.03-0.02-0.01 0-0.01 0.01 0.25-0.21 0.49-0.43 0.23-0.2 0.46-0.4 0.23-0.22 0.43-0.47 0.07-0.1 0.13-0.21 0.02-0.05 0.03-0.1 0.01-0.26-0.01-0.51-0.02-0.23-0.05-0.46-0.09-0.61-0.22-1.22-0.07-0.34-0.12-0.69-0.05-0.32-0.11-0.63-0.06-0.32-0.14-0.63-0.07-0.31-0.13-0.62-0.13-0.68-0.18-1.37-0.04-0.67-0.09-1.33-0.08-0.58-0.12-1.17-0.02-0.35-0.01-0.7 0-0.33 0.03-0.65 0.05-0.34 0.1-0.68 0.06-0.3 0.1-0.61-0.01 0.04-0.01 0.07 0.08-0.63 0.11-1.27 0.03-0.67 0.04-1.35 0.01-0.68-0.01-1.36 0-0.58-0.07-1.17 0.01 0.03 0.01 0.07-0.06-0.48-0.23-0.93-0.08-0.2-0.2-0.37-0.04-0.04-0.08-0.08-0.01 0-0.02-0.01-0.1 0.16-0.16 0.33-0.08 0.16-0.14 0.32zm-8.26 19.36q0 0 0 0 0 0 0 0 0 0 0 0zm0 0q0 0 0.01 0.01-0.01-0.01-0.01-0.01zm-1.52-1.34q0.01 0.01 0.01 0.01 0 0-0.01-0.01zm7.99-15.83q0 0-0.01-0.01 0.01 0.01 0.01 0.01z"/>
    <path fill-rule="evenodd" class="s0" d="m17.83 7.48q0.04 0 0.07 0.01 0.04 0.01 0.08 0.03 0.05 0 0.11 0.02 0.08 0.02 0.15 0.05c0.1 0.06 0.19 0.15 0.21 0.27q0.02 0.15 0.02 0.31 0.01 0.16 0.03 0.33 0.03 0.19 0.02 0.38-0.01 0.15-0.03 0.29-0.04 0.27-0.16 0.52 0.01-0.01 0.01-0.02-0.09 0.21-0.22 0.39-0.17 0.23-0.38 0.41-0.11 0.09-0.22 0.16-0.11 0.06-0.22 0.11-0.25 0.11-0.51 0.15-0.15 0.02-0.3-0.02-0.17-0.04-0.28-0.17-0.07-0.08-0.11-0.19-0.02-0.08-0.03-0.16-0.01-0.17 0.04-0.32 0.09-0.25 0.24-0.46 0.15-0.22 0.31-0.44-0.01 0.03-0.03 0.06 0.16-0.22 0.33-0.43c0.19-0.26 0.4-0.53 0.53-0.83q-0.01 0.01-0.02 0.03 0.06-0.15 0.12-0.3 0.03-0.09 0.12-0.15 0.06-0.03 0.12-0.03zm-0.76 1.95q-0.02 0.02-0.03 0.03 0 0 0 0-0.01 0.02-0.02 0.03-0.01 0.01-0.02 0.02 0.01 0 0.01 0-0.24 0.28-0.4 0.6-0.02 0.07-0.04 0.15 0 0.04 0.01 0.08 0 0.01 0 0.03 0.01 0 0.01 0.01 0.02 0.01 0.04 0.01 0.06 0.01 0.11 0-0.02 0.01-0.04 0.01 0.03 0 0.06-0.01 0.01 0 0.01 0 0 0-0.01 0 0.02 0 0.04 0-0.02 0-0.05 0 0 0 0 0 0.18-0.04 0.35-0.11 0 0-0.01 0 0.16-0.07 0.3-0.17 0.16-0.13 0.29-0.3 0.12-0.15 0.21-0.34 0 0 0 0 0 0-0.01 0 0.09-0.21 0.13-0.44 0 0.02 0 0.04 0.01-0.11 0.01-0.22 0-0.18-0.02-0.35-0.02-0.15-0.02-0.31-0.01-0.07-0.01-0.14-0.04 0.1-0.08 0.2-0.04 0.08-0.08 0.15-0.09 0.15-0.19 0.3-0.27 0.37-0.55 0.73z"/>
    <path fill-rule="evenodd" class="s0" d="m21.83 7.8q0.15 0.01 0.23 0.13 0.01 0.03 0.02 0.06 0.1 0.05 0.14 0.16 0.04 0.13 0.08 0.26 0.02 0.09 0.02 0.18 0 0.09-0.02 0.17-0.03 0.18-0.08 0.36-0.04 0.19-0.1 0.37-0.14 0.32-0.33 0.6-0.2 0.3-0.5 0.52-0.22 0.16-0.48 0.24-0.18 0.06-0.36 0.06-0.18 0-0.34-0.07c-0.21-0.09-0.32-0.3-0.31-0.52q0.01-0.17 0.06-0.33 0.06-0.16 0.14-0.31 0.13-0.26 0.31-0.5 0.17-0.23 0.38-0.44 0.24-0.22 0.47-0.44 0.1-0.11 0.21-0.21 0.17-0.13 0.35-0.25 0.05-0.04 0.11-0.04zm-0.09 0.64q-0.12 0.1-0.22 0.21-0.11 0.11-0.22 0.21-0.27 0.22-0.48 0.48 0-0.01 0-0.01-0.01 0.02-0.03 0.04 0 0 0 0 0 0 0 0-0.24 0.31-0.42 0.68-0.04 0.1-0.07 0.22 0 0.05 0 0.1 0 0 0 0.01 0.01 0 0.01 0 0 0 0.01 0.01 0.04 0.01 0.07 0.02 0.06 0 0.12 0 0.12-0.02 0.23-0.06 0.17-0.08 0.32-0.19 0.13-0.11 0.24-0.24 0.22-0.29 0.36-0.62-0.02 0.03-0.03 0.06 0.07-0.2 0.11-0.4 0.05-0.16 0.08-0.31 0-0.04 0-0.08-0.02-0.08-0.04-0.16-0.02 0.01-0.04 0.03zm-0.95 0.93q0 0.01-0.01 0.01 0.01 0 0.01-0.01zm0 0q0 0 0 0 0 0 0 0z"/>
    <path class="s0" d="m20.97 9.66c-0.18 0.1-0.2 0.36-0.21 0.55 0 0.14 0.12 0.25 0.25 0.25q0.13 0 0.2-0.1 0.12-0.07 0.12-0.21 0-0.04 0-0.07 0.04-0.1 0.03-0.2 0-0.15-0.13-0.23-0.06-0.03-0.12-0.03-0.08 0-0.14 0.04z"/>
    <path class="s0" d="m17.37 9.57q-0.21 0.02-0.29 0.21-0.09 0.18-0.11 0.38c-0.01 0.13 0.12 0.25 0.25 0.25q0.1 0 0.18-0.08 0.01-0.01 0.02-0.02 0.09 0.05 0.2 0.02c0.13-0.03 0.2-0.17 0.17-0.3q-0.02-0.09-0.06-0.17-0.04-0.07-0.09-0.13c-0.06-0.08-0.14-0.16-0.26-0.16q0 0-0.01 0z"/>
    <path class="s0" d="m18.76 9.15q-0.14 0.56-0.36 1.1 0.01-0.01 0.01-0.01-0.01 0.02-0.01 0.03-0.01 0.02-0.02 0.03 0.01-0.01 0.01-0.01-0.12 0.26-0.28 0.49-0.17 0.28-0.35 0.53-0.02 0.02-0.03 0.03-0.23 0.29-0.48 0.56-0.23 0.26-0.43 0.53-0.37 0.47-0.83 0.85-0.26 0.19-0.54 0.36-0.11 0.07-0.23 0.15-0.14 0.09-0.28 0.19-0.09 0.06-0.15 0.14-0.08 0.11-0.13 0.23-0.07 0.2-0.1 0.4c-0.01 0.1-0.02 0.22 0.02 0.32q0.04 0.12 0.15 0.19 0.11 0.06 0.24 0.07-0.02-0.01-0.04-0.01 0.08 0.01 0.16 0.02 0.08-0.01 0.16-0.02 0.14-0.03 0.29-0.07 0.29-0.08 0.58-0.2-0.06 0.18-0.07 0.38-0.01 0.19 0.1 0.35 0.12 0.17 0.31 0.2 0.3 0.03 0.58-0.07 0.32-0.11 0.61-0.29 0.22-0.15 0.42-0.33 0.02 0.07 0.04 0.14 0.07 0.23 0.23 0.41c0.18 0.2 0.44 0.33 0.71 0.32 0.26 0 0.5-0.13 0.67-0.31q0.2-0.21 0.3-0.49 0.05-0.16 0.07-0.33 0.01-0.15-0.01-0.3-0.04-0.3-0.1-0.6-0.05-0.24-0.1-0.47-0.05-0.29-0.09-0.58-0.04-0.32-0.11-0.63c-0.03-0.13-0.18-0.21-0.3-0.18-0.14 0.04-0.21 0.18-0.18 0.31 0.09 0.4 0.13 0.81 0.2 1.21q0.06 0.3 0.12 0.6 0.04 0.17 0.06 0.34 0-0.01 0-0.02 0 0.02 0 0.05 0.01 0.01 0.01 0.01 0 0-0.01-0.01 0.02 0.14 0 0.27-0.01 0.11-0.04 0.2-0.05 0.11-0.12 0.2 0.01-0.01 0.02-0.02-0.01 0.01-0.02 0.02-0.01 0.02-0.02 0.03 0.01-0.01 0.02-0.02-0.06 0.06-0.12 0.12-0.05 0.04-0.1 0.06-0.07 0.03-0.13 0.04-0.04 0-0.09 0-0.05-0.01-0.1-0.03-0.04-0.02-0.07-0.04-0.07-0.05-0.12-0.11 0 0 0 0-0.06-0.08-0.1-0.17-0.02-0.06-0.03-0.12-0.01-0.16 0.02-0.32 0.01-0.05 0.02-0.11c0.02-0.11 0.05-0.22-0.01-0.32q-0.05-0.09-0.15-0.12-0.14-0.02-0.25 0.07-0.05 0.05-0.08 0.1-0.03 0.04-0.07 0.08 0.01-0.01 0.02-0.02-0.21 0.29-0.5 0.52-0.25 0.19-0.54 0.32-0.18 0.06-0.37 0.1-0.04 0-0.09 0 0 0 0 0 0-0.01-0.01-0.01 0-0.05 0.01-0.1-0.01 0.01-0.01 0.02 0-0.01 0.01-0.02 0-0.02 0-0.05 0 0.03 0 0.05 0.01-0.11 0.05-0.2 0.08-0.17 0.19-0.32-0.01 0-0.01 0.01 0-0.01 0.01-0.01 0.01-0.02 0.03-0.04-0.01 0.01-0.02 0.03 0.1-0.12 0.21-0.23 0.07-0.04 0.13-0.09 0.07-0.05 0.12-0.11 0.05-0.05 0.07-0.12 0.02-0.07 0-0.13-0.02-0.1-0.11-0.15-0.09-0.05-0.2-0.03-0.05 0.01-0.1 0.05-0.07 0.06-0.14 0.11-0.04 0.04-0.08 0.08-0.05 0.03-0.1 0.06-0.21 0.12-0.43 0.21 0.01-0.01 0.02-0.01-0.31 0.13-0.62 0.22-0.22 0.08-0.45 0.12-0.04 0-0.07 0 0-0.01 0-0.02 0 0.01 0 0.01 0 0 0-0.01 0-0.03 0-0.06 0 0.03 0 0.05 0.02-0.16 0.08-0.31 0.01-0.02 0.03-0.04 0.02-0.03 0.05-0.06 0.16-0.11 0.32-0.21 0.17-0.11 0.34-0.22 0.41-0.24 0.75-0.57 0.18-0.18 0.34-0.36 0.19-0.24 0.37-0.47c0.26-0.32 0.56-0.61 0.81-0.94q-0.02 0.03-0.04 0.05 0.21-0.28 0.4-0.58 0.18-0.26 0.31-0.54 0.26-0.62 0.42-1.27c0.04-0.13-0.04-0.27-0.17-0.3q-0.04-0.01-0.07-0.01c-0.11 0-0.21 0.07-0.24 0.18z"/>
    <path class="s0" d="m27.77 11.28q-0.07 0.14-0.08 0.31-0.01 0.08-0.01 0.16-0.03 0.22-0.05 0.44 0 0 0 0 0 0 0 0 0 0 0 0-0.01 0.03-0.01 0.06-0.03 0.21-0.05 0.42-0.02 0.18-0.03 0.35-0.14-0.07-0.26-0.17-0.09-0.07-0.18-0.15-0.13-0.11-0.3-0.13c-0.22-0.02-0.41 0.13-0.51 0.31-0.09 0.18-0.07 0.39-0.04 0.58q0.03 0.21 0.13 0.4c0.13 0.26 0.33 0.46 0.53 0.66q0.16 0.14 0.31 0.3 0.08 0.09 0.17 0.18 0.04 0.04 0.08 0.07-0.06 0.26-0.12 0.52-0.07 0.33-0.11 0.66-0.05 0.43-0.05 0.86 0 0.38-0.05 0.76 0 0 0 0-0.08 0.52-0.19 1.03-0.15 0.6-0.29 1.21-0.12 0.6-0.26 1.2-0.13 0.6-0.36 1.17 0.01-0.03 0.02-0.06-0.11 0.26-0.24 0.51-0.14 0.26-0.27 0.52c-0.22 0.39-0.48 0.76-0.71 1.14q-0.28 0.48-0.53 0.98c-0.11 0.21-0.21 0.42-0.35 0.61q-0.08 0.1-0.17 0.19-0.11 0.11-0.22 0.22c-0.09 0.11-0.09 0.26 0 0.36 0.1 0.09 0.27 0.1 0.36 0 0.15-0.17 0.32-0.33 0.46-0.52q0.14-0.18 0.24-0.39 0.33-0.65 0.7-1.28 0.25-0.4 0.5-0.8 0.22-0.37 0.4-0.75 0.21-0.39 0.37-0.79 0.17-0.46 0.28-0.94 0.08-0.37 0.16-0.74 0.09-0.4 0.17-0.81 0.09-0.37 0.18-0.75 0.09-0.35 0.15-0.71 0.13-0.61 0.15-1.23 0-0.29 0.01-0.58 0.02-0.28 0.06-0.55 0 0.03-0.01 0.06 0.05-0.33 0.13-0.65 0.04-0.19 0.08-0.38c0.02-0.1 0.03-0.21-0.04-0.31q-0.12-0.14-0.26-0.27-0.15-0.16-0.3-0.31-0.21-0.19-0.4-0.4-0.1-0.13-0.17-0.28-0.04-0.13-0.06-0.26 0 0 0.01 0-0.02-0.08-0.01-0.16 0-0.02 0-0.03 0.01-0.02 0.03-0.04 0 0 0-0.01 0 0.01 0 0.01 0.09 0.07 0.18 0.14 0.12 0.1 0.26 0.18 0.12 0.08 0.25 0.14 0.06 0.02 0.12 0.04 0.13 0.02 0.24-0.03c0.18-0.09 0.2-0.32 0.23-0.51q0.01-0.18 0.03-0.37 0.01-0.11 0.02-0.21 0.01-0.05 0.01-0.1 0-0.01 0-0.01 0.01-0.02 0.01-0.03 0-0.01 0-0.03 0.01-0.02 0.01-0.03 0-0.06 0.01-0.11 0.02-0.11 0.03-0.22 0.01-0.1 0.02-0.2 0.06 0.1 0.1 0.21 0.1 0.25 0.14 0.51 0-0.01 0-0.03 0 0.02 0 0.05 0.01 0.01 0.01 0.01 0 0-0.01-0.01 0.02 0.27 0.05 0.55 0 0.12 0.06 0.23 0.05 0.08 0.16 0.12 0.07 0.01 0.15 0 0.05-0.02 0.11-0.06 0.05-0.04 0.1-0.08 0.06-0.06 0.12-0.11 0.13-0.09 0.28-0.16-0.03 0.02-0.06 0.03 0.07-0.03 0.14-0.05-0.01 0.03-0.02 0.06 0.01-0.01 0.01-0.02 0 0.01-0.01 0.03-0.01 0.01-0.01 0.03 0-0.01 0-0.02-0.07 0.15-0.16 0.29-0.11 0.2-0.22 0.4-0.24 0.45-0.44 0.92 0-0.01 0.01-0.01-0.05 0.1-0.12 0.2c-0.09 0.11-0.18 0.2-0.2 0.34q-0.02 0.18 0 0.36 0.04 0.46 0.03 0.91-0.01 0.56-0.08 1.12-0.04 0.49-0.1 0.99 0.01-0.04 0.01-0.07-0.08 0.49-0.17 0.99c-0.09 0.45-0.12 0.91-0.22 1.35q-0.15 0.63-0.36 1.25c-0.15 0.43-0.28 0.86-0.45 1.28q0.01-0.02 0.02-0.04-0.17 0.37-0.37 0.72-0.24 0.43-0.5 0.86-0.33 0.59-0.63 1.18-0.21 0.4-0.46 0.77 0.01-0.01 0.01-0.01-0.01 0.01-0.01 0.02-0.01 0-0.01 0 0 0 0 0.01 0-0.01 0.01-0.01-0.02 0.03-0.04 0.05 0.01-0.02 0.03-0.04 0 0 0 0-0.33 0.4-0.68 0.77-0.16 0.17-0.29 0.35-0.13 0.17-0.25 0.35 0 0 0 0-0.07 0.07-0.07 0.17 0 0.11 0.07 0.18 0.08 0.07 0.18 0.07c0.06 0 0.14-0.02 0.18-0.07q0.16-0.22 0.32-0.45 0.2-0.24 0.41-0.46 0.28-0.3 0.52-0.61 0.09-0.12 0.17-0.24 0.12-0.19 0.23-0.4 0.31-0.58 0.63-1.17 0.23-0.4 0.47-0.81 0.21-0.37 0.4-0.74 0.22-0.46 0.38-0.94 0.06-0.21 0.13-0.43 0.08-0.23 0.16-0.46 0.17-0.54 0.3-1.09 0.04-0.23 0.07-0.46 0.05-0.32 0.09-0.63 0.11-0.56 0.2-1.11 0.08-0.59 0.13-1.19 0.07-0.68 0.07-1.37 0-0.25-0.02-0.51-0.02-0.17-0.02-0.34 0-0.01 0-0.01 0 0 0 0 0.09-0.1 0.17-0.22 0.08-0.12 0.13-0.25 0.01-0.03 0.02-0.06 0.19-0.44 0.43-0.85 0.1-0.18 0.2-0.36 0.11-0.19 0.19-0.4 0.05-0.12 0.03-0.25-0.01-0.07-0.03-0.13-0.04-0.1-0.1-0.17-0.05-0.05-0.11-0.08-0.09-0.05-0.2-0.05-0.08 0-0.15 0.02-0.08 0.01-0.15 0.04-0.16 0.07-0.31 0.16-0.02 0.01-0.04 0.03-0.01-0.21-0.05-0.41-0.05-0.36-0.23-0.7-0.09-0.21-0.27-0.37-0.12-0.12-0.3-0.12-0.21 0.02-0.32 0.2z"/>

    <path class="s0" d="m19.71 18.38q-0.07 0.08-0.07 0.17-0.05 0.64-0.09 1.27-0.01 0.11-0.02 0.22-0.02 0.1 0 0.2 0.04 0.15 0.19 0.2 0.14 0.03 0.27-0.05 0.08-0.04 0.14-0.09 0.12-0.09 0.22-0.18 0.28-0.24 0.52-0.5 0.13-0.13 0.25-0.26 0.1-0.09 0.18-0.2 0.07-0.1 0.1-0.23c0.05-0.13-0.05-0.27-0.17-0.3q-0.1-0.03-0.19 0.02-0.09 0.06-0.12 0.15-0.01 0.02-0.02 0.05-0.01 0.03-0.03 0.05 0.01-0.01 0.02-0.02-0.01 0.01-0.02 0.02-0.01 0.02-0.02 0.03 0.01-0.01 0.02-0.02-0.17 0.18-0.35 0.36-0.22 0.23-0.46 0.45 0.01-0.13 0.02-0.26 0.02-0.4 0.05-0.8 0-0.03 0.01-0.05 0-0.03 0-0.06c0-0.13-0.12-0.25-0.25-0.25q-0.11 0.01-0.18 0.08z"/>
    <path class="s0" d="m14.28 17.41c-0.07 0.11-0.03 0.27 0.09 0.34q0.15 0.07 0.3 0.14 0.1 0.03 0.21 0.04 0.47 0.06 0.94 0.05 0.17 0.01 0.34 0 0.29 0 0.58 0.01 0.53 0.01 1.05 0.08-0.04-0.01-0.07-0.02 0.66 0.11 1.31 0.29 0.66 0.18 1.33 0.34 0.47 0.1 0.93 0.26 0.19 0.07 0.37 0.13 0.13 0.06 0.27 0.11 0.06 0.02 0.14 0.04c0.13 0.04 0.27-0.04 0.3-0.17 0.04-0.13-0.04-0.28-0.17-0.31q-0.12-0.04-0.24-0.08-0.17-0.07-0.35-0.14-0.35-0.13-0.71-0.23-0.47-0.11-0.95-0.22-0.49-0.13-0.98-0.27-0.52-0.14-1.06-0.22-0.54-0.07-1.08-0.09-0.47-0.01-0.93-0.01-0.45 0.01-0.89-0.03-0.1-0.01-0.2-0.04-0.09-0.04-0.19-0.09-0.06-0.04-0.12-0.04-0.14 0-0.22 0.13z"/>
    <path class="s0" d="m16.73 17.57q0 0 0 0-0.01 0.02-0.03 0.04-0.25 0.34-0.51 0.68 0.01 0 0.01 0-0.01 0-0.01 0.01-0.02 0.02-0.03 0.04 0.01-0.01 0.01-0.03-0.16 0.21-0.34 0.42-0.09 0.1-0.18 0.19 0-0.01 0-0.01-0.03-0.54-0.06-1.09c-0.01-0.13-0.11-0.25-0.25-0.25-0.13 0-0.26 0.12-0.25 0.25q0.04 0.7 0.08 1.4 0 0.07 0.02 0.14 0.02 0.08 0.08 0.14 0.06 0.06 0.15 0.08 0.13 0.03 0.25-0.03c0.13-0.07 0.25-0.18 0.35-0.29q0.13-0.13 0.24-0.28 0.13-0.15 0.25-0.3 0.29-0.37 0.57-0.75 0 0 0 0 0 0 0.01-0.01 0.01-0.02 0.03-0.04-0.01 0.01-0.01 0.01 0.05-0.06 0.08-0.14c0.04-0.13-0.05-0.27-0.18-0.31q-0.03-0.01-0.06-0.01-0.15 0.01-0.22 0.14z"/>
  </g>
  <g id="body">
    <path class="s0" d="m20.84 24.87c-0.07 0.12-0.02 0.26 0.09 0.34q0.17 0.11 0.34 0.23 0.05 0.04 0.09 0.08 0.25 0.36 0.47 0.74 0.18 0.3 0.31 0.61 0.33 0.84 0.56 1.72 0.12 0.48 0.22 0.96 0.1 0.49 0.17 0.98-0.01-0.04-0.02-0.07 0.08 0.52 0.11 1.05 0.01 0.26 0 0.52c-0.01 0.14 0.12 0.25 0.25 0.25 0.14 0 0.24-0.11 0.25-0.25q0.01-0.22 0-0.45-0.02-0.47-0.08-0.94-0.06-0.53-0.16-1.06-0.11-0.55-0.26-1.1-0.23-0.98-0.62-1.91-0.23-0.48-0.52-0.92c-0.12-0.2-0.23-0.42-0.42-0.57q-0.21-0.16-0.43-0.3-0.06-0.04-0.12-0.04-0.15 0.01-0.23 0.13z"/>
    <path class="s0" d="m20.54 33.22q-0.01 0.7-0.04 1.4-0.01 0.48-0.03 0.95-0.02 0.55-0.04 1.09-0.01 0.28-0.03 0.56-0.03 0.06-0.04 0.14-0.02 0.15-0.03 0.3 0 0.07 0.01 0.13 0.01 0.07 0.04 0.14 0.06 0.09 0.16 0.11c0.07 0.03 0.18 0.01 0.24-0.06q0.06-0.07 0.08-0.16 0.02-0.13 0.02-0.26 0.02-0.24 0.03-0.49 0.03-0.64 0.06-1.28 0.05-1.28 0.07-2.57c0-0.13-0.11-0.25-0.25-0.25-0.14 0-0.25 0.12-0.25 0.25z"/>
    <path class="s0" d="m18.21 27.77q-0.22 0-0.45 0.03-0.62 0.07-1.22 0.2-0.55 0.11-1.08 0.24-0.41 0.09-0.81 0.24-0.18 0.07-0.36 0.14-0.26 0.11-0.53 0.18-0.1 0.01-0.21 0 0.03 0 0.07 0.01-0.17-0.03-0.31-0.09 0.03 0.01 0.06 0.03-0.11-0.05-0.21-0.11-0.03-0.03-0.06-0.07-0.07-0.1-0.14-0.21c-0.07-0.12-0.22-0.16-0.34-0.09-0.12 0.07-0.17 0.23-0.09 0.34q0.09 0.16 0.2 0.3 0.13 0.15 0.31 0.24c0.21 0.1 0.46 0.17 0.7 0.16 0.24-0.02 0.48-0.13 0.7-0.21q0.21-0.08 0.41-0.16 0.47-0.17 0.96-0.27 0.55-0.13 1.1-0.23 0.34-0.07 0.68-0.13-0.03 0.01-0.07 0.01 0.2-0.02 0.39-0.03 0.2-0.03 0.4-0.02-0.01 0-0.02 0 0.01 0 0.02 0 0.02 0 0.04 0-0.02 0-0.03 0 0.21 0.04 0.42 0.13-0.02-0.01-0.03-0.01 0.15 0.06 0.29 0.16 0.13 0.09 0.26 0.18 0.16 0.11 0.32 0.22 0.19 0.14 0.41 0.21 0.1 0.03 0.21 0.04 0.1 0.01 0.2 0.01 0.21-0.01 0.41-0.09 0.13-0.05 0.26-0.11 0.16-0.09 0.29-0.21 0.12-0.04 0.16-0.16c0.04-0.13-0.04-0.28-0.18-0.31q-0.11-0.02-0.22 0.03-0.05 0.03-0.09 0.07-0.03 0.02-0.06 0.05 0.01-0.01 0.02-0.01-0.01 0.01-0.03 0.02-0.01 0.01-0.02 0.01 0.01 0 0.02-0.01-0.11 0.08-0.23 0.13-0.14 0.05-0.28 0.08-0.11 0.01-0.22 0-0.09-0.01-0.18-0.05-0.13-0.07-0.26-0.16-0.17-0.12-0.33-0.23-0.11-0.08-0.22-0.15-0.18-0.12-0.37-0.2-0.3-0.13-0.64-0.14-0.01 0-0.02 0z"/>
  </g>
  <g id="right-arm">
    <path class="s0" d="m21.77 32.43q0.06 1.57 0.13 3.15 0.03 0.65 0.06 1.3 0.01 0.16 0.02 0.3c0.01 0.11 0.01 0.27 0.11 0.34q0.05 0.05 0.11 0.07 0.1 0.02 0.19-0.03 0.11-0.06 0.14-0.18 0.04-0.13-0.05-0.23-0.02-0.24-0.03-0.47-0.02-0.58-0.05-1.16-0.07-1.55-0.13-3.09c0-0.14-0.11-0.25-0.25-0.25-0.13 0-0.25 0.11-0.25 0.25z"/>
    <path class="s0" d="m21.84 23.26q-0.09 0.03-0.15 0.11-0.05 0.1-0.02 0.19 0.03 0.1 0.11 0.15 0 0 0 0 0 0-0.01-0.01 0.27 0.22 0.51 0.48 0.24 0.24 0.46 0.51 0 0-0.01-0.01 0.1 0.12 0.17 0.25 0.1 0.18 0.19 0.36-0.01-0.02-0.02-0.03 0.17 0.4 0.3 0.82 0.12 0.44 0.18 0.88 0.06 0.51 0.22 0.99 0.16 0.42 0.36 0.83-0.01-0.02-0.02-0.04 0.1 0.24 0.17 0.49 0.1 0.41 0.17 0.83 0-0.02 0-0.04 0.04 0.33 0.06 0.67 0.01 0.21 0.02 0.42 0.01 0.09 0.02 0.18 0.02 0.06 0.04 0.1c0.02 0.04 0.08 0.1 0.12 0.12q0.06 0.03 0.13 0.03 0.07 0.01 0.12-0.01 0.05-0.02 0.09-0.03 0.04-0.02 0.09-0.03 0.05-0.01 0.1 0 0.07 0.01 0.14 0.03 0.04 0.02 0.07 0.04 0.01 0.01 0.03 0.03 0 0 0.01 0.01 0 0.01 0 0.02 0 0.01 0 0.02-0.01 0.03-0.02 0.06-0.03 0.07-0.07 0.14-0.04 0.03-0.08 0.07-0.04 0.03-0.09 0.05-0.07 0.03-0.14 0.04-0.11 0.01-0.19 0.08-0.05 0.05-0.07 0.12-0.02 0.11 0.03 0.2 0.03 0.05 0.08 0.09 0.02 0.02 0.05 0.05 0.01 0.02 0.03 0.05 0.01 0.05 0.02 0.11 0.01 0.06 0 0.12-0.01 0.06-0.03 0.11-0.03 0.06-0.06 0.11-0.04 0.04-0.07 0.07-0.05 0.03-0.09 0.05-0.04 0.01-0.07 0.02-0.02 0-0.05 0-0.05-0.01-0.11-0.03-0.05-0.02-0.09-0.05-0.08-0.07-0.14-0.14 0.01 0.01 0.02 0.03-0.01-0.02-0.02-0.03 0 0 0 0 0 0 0 0 0 0 0-0.01 0 0.01 0 0.01-0.02-0.05-0.06-0.08-0.14-0.12-0.3-0.04c-0.1 0.06-0.15 0.17-0.12 0.28q0.01 0.03 0.02 0.05 0 0.02 0 0.03-0.03 0.16-0.08 0.31-0.06 0.13-0.15 0.25 0 0.01-0.01 0.01-0.01-0.01-0.01-0.02-0.04-0.12-0.07-0.24-0.02-0.17-0.02-0.35-0.01-0.18 0-0.35 0.01-0.05 0.03-0.09 0 0 0 0.01 0.1-0.23 0.22-0.46c0.06-0.12 0.04-0.27-0.09-0.34-0.11-0.06-0.28-0.03-0.34 0.09q-0.09 0.18-0.18 0.36-0.1 0.18-0.13 0.37-0.02 0.24-0.01 0.47 0.01 0.23 0.05 0.45 0.03 0.18 0.11 0.35 0.05 0.1 0.14 0.18 0.13 0.11 0.3 0.12c0.21 0 0.37-0.19 0.48-0.36q0.12-0.18 0.18-0.39 0.1 0.06 0.21 0.08 0.23 0.07 0.45-0.02 0.08-0.03 0.16-0.07 0.08-0.06 0.16-0.13c0.18-0.17 0.27-0.42 0.28-0.66q0-0.17-0.05-0.33-0.01-0.02-0.02-0.04 0.15-0.07 0.27-0.21c0.14-0.16 0.26-0.38 0.24-0.6q-0.03-0.29-0.27-0.45-0.11-0.08-0.24-0.11-0.14-0.04-0.28-0.04-0.09-0.01-0.18 0.01 0-0.21-0.02-0.43-0.05-0.56-0.16-1.11-0.04-0.24-0.11-0.48-0.07-0.19-0.15-0.37-0.14-0.33-0.29-0.67 0.02 0.03 0.03 0.06-0.17-0.4-0.24-0.82-0.06-0.41-0.14-0.83-0.08-0.37-0.21-0.73-0.12-0.38-0.3-0.74-0.24-0.46-0.61-0.84c-0.25-0.26-0.5-0.52-0.78-0.74q-0.06-0.03-0.12-0.03-0.04 0-0.08 0.01z"/>
    <path class="s0" d="m22.82 30.38q-0.03 0.14-0.04 0.28 0 0.13-0.01 0.25-0.01 0.05-0.02 0.09-0.13 0.23-0.27 0.46-0.11 0.19-0.22 0.39-0.24 0.45-0.49 0.9c-0.06 0.12-0.02 0.27 0.09 0.34 0.12 0.07 0.28 0.03 0.34-0.09q0.17-0.3 0.33-0.61 0.13-0.24 0.27-0.47 0.15-0.28 0.32-0.55 0.1-0.17 0.14-0.36 0.02-0.21 0.02-0.42 0.01-0.03 0.02-0.08c0.02-0.13-0.04-0.27-0.17-0.3q-0.04-0.01-0.07-0.01c-0.11 0-0.22 0.07-0.24 0.18z"/>
  </g>
  <g id="left-arm">
    <path class="s0" d="m13.05 24.92q-0.1 0.03-0.15 0.12-0.22 0.52-0.45 1.04-0.2 0.42-0.39 0.86 0.01-0.03 0.02-0.06-0.05 0.11-0.09 0.22 0.01-0.02 0.02-0.04-0.03 0.06-0.05 0.11 0 0 0-0.01-0.15 0.33-0.32 0.65-0.17 0.34-0.34 0.68-0.2 0.36-0.4 0.73-0.31 0.58-0.57 1.19 0.01-0.03 0.03-0.06-0.25 0.55-0.34 1.14c-0.05 0.4-0.09 0.8-0.03 1.21q-0.01-0.03-0.01-0.07 0.04 0.25 0.1 0.5 0.06 0.26 0.1 0.53 0-0.03-0.01-0.06 0.02 0.11 0.03 0.23 0-0.01 0-0.03 0.02 0.18 0.05 0.34 0.04 0.18 0.12 0.33 0.06 0.15 0.17 0.26 0.14 0.15 0.31 0.26 0.46 0.32 1 0.51 0.33 0.11 0.68 0.21 0.35 0.11 0.7 0.21 0.35 0.11 0.7 0.21 0.4 0.1 0.8 0.19 0.34 0.08 0.7 0.12 0.38 0.03 0.76 0.01 0.16-0.01 0.32-0.03 0.18-0.03 0.36-0.06 0.37-0.07 0.73-0.17 0.61-0.18 1.17-0.48 0.34-0.18 0.66-0.4 0.38-0.25 0.74-0.51c0.27-0.19 0.53-0.41 0.81-0.58 0.12-0.07 0.16-0.22 0.09-0.34-0.07-0.12-0.22-0.16-0.34-0.09q-0.19 0.11-0.36 0.25-0.38 0.28-0.77 0.56-0.21 0.14-0.42 0.28-0.2 0.14-0.41 0.26-0.37 0.22-0.75 0.38-0.38 0.15-0.79 0.25-0.45 0.11-0.91 0.17-0.49 0.03-0.97-0.01 0.01 0 0.02 0.01-0.01-0.01-0.03-0.01-0.02 0-0.03 0 0.01 0 0.02 0-0.44-0.07-0.87-0.19-0.24-0.05-0.49-0.12-0.26-0.08-0.52-0.15-0.45-0.14-0.91-0.27-0.43-0.13-0.85-0.3-0.32-0.15-0.61-0.36-0.11-0.09-0.21-0.2-0.05-0.06-0.08-0.14-0.07-0.22-0.1-0.45 0 0.02 0.01 0.04-0.01-0.02-0.01-0.04 0 0 0 0.01 0-0.02 0-0.04 0-0.02 0-0.03 0 0.01 0 0.01-0.04-0.29-0.1-0.57-0.06-0.27-0.12-0.54 0.01 0.02 0.01 0.04 0-0.02-0.01-0.03 0 0 0 0.01 0-0.01 0-0.03 0-0.02 0-0.04 0 0.02 0 0.03-0.03-0.49 0.04-0.98-0.01 0.03-0.01 0.07 0.08-0.55 0.29-1.06 0 0 0 0.01 0.01-0.03 0.03-0.07-0.01 0.01-0.01 0.02 0.25-0.57 0.54-1.12 0.2-0.37 0.39-0.73 0.18-0.34 0.34-0.67 0.19-0.36 0.35-0.72 0 0.01-0.01 0.02 0.06-0.12 0.11-0.24-0.01 0.02-0.03 0.05 0.01-0.03 0.03-0.06 0 0.01 0 0.01 0-0.01 0-0.02 0.01-0.02 0.02-0.04 0 0.01-0.01 0.02 0.18-0.39 0.36-0.77 0.21-0.5 0.43-1 0.05-0.09 0.03-0.19-0.03-0.1-0.12-0.15-0.06-0.03-0.12-0.03-0.04 0-0.07 0z"/>
    <path class="s0" d="m13.22 23.35q-0.47 0.36-0.92 0.73-0.18 0.15-0.35 0.29c-0.2 0.18-0.37 0.4-0.54 0.6q-0.31 0.36-0.58 0.76-0.25 0.4-0.44 0.83c-0.24 0.54-0.36 1.13-0.46 1.71q-0.08 0.45-0.18 0.9-0.05 0.26-0.13 0.5 0-0.01 0-0.02-0.05 0.12-0.12 0.21-0.02 0.02-0.03 0.05-0.02 0-0.03 0-0.11 0.02-0.21 0.04-0.13 0.04-0.25 0.09-0.3 0.12-0.57 0.3-0.29 0.19-0.51 0.44-0.17 0.17-0.28 0.38-0.1 0.18-0.02 0.38 0.09 0.14 0.26 0.19 0.12 0.03 0.24 0.03 0.1 0.01 0.2 0.01 0.15 0 0.31 0-0.05 0.07-0.1 0.14-0.18 0.23-0.29 0.5 0.01-0.03 0.03-0.06c-0.09 0.19-0.18 0.45-0.06 0.64q0.1 0.17 0.29 0.22 0.17 0.02 0.34-0.03 0.1-0.02 0.19-0.07 0.12-0.05 0.23-0.1 0.05 0.13 0.19 0.21 0.19 0.1 0.4 0.03 0.18-0.08 0.34-0.19c0.11-0.07 0.16-0.22 0.09-0.34-0.07-0.12-0.23-0.16-0.34-0.09q-0.11 0.07-0.22 0.13 0.02-0.12 0.04-0.23c0.01-0.13-0.08-0.25-0.2-0.28-0.12-0.04-0.24 0.04-0.32 0.12q-0.06 0.07-0.14 0.14 0.01-0.01 0.03-0.02-0.02 0.01-0.04 0.02 0 0.01-0.01 0.02 0-0.01 0.01-0.01-0.09 0.06-0.2 0.11-0.11 0.05-0.22 0.08 0.02-0.07 0.04-0.14 0.01-0.02 0.01-0.03 0.09-0.17 0.2-0.33 0.15-0.21 0.3-0.4 0.02-0.03 0.04-0.05 0.06-0.07 0.1-0.17 0.02-0.08 0-0.15c-0.03-0.07-0.09-0.16-0.18-0.18-0.15-0.02-0.29 0-0.44 0.01q-0.18 0-0.36 0-0.11 0-0.22-0.01 0 0 0.01-0.01-0.01 0.01-0.01 0.01 0 0 0 0 0.21-0.25 0.48-0.46 0.24-0.17 0.53-0.29-0.01 0-0.01 0 0.17-0.07 0.35-0.1-0.01 0-0.02 0c0.12-0.02 0.23-0.04 0.32-0.12q0.11-0.11 0.19-0.25c0.13-0.21 0.19-0.45 0.25-0.69q0.14-0.65 0.25-1.3 0.12-0.66 0.37-1.29 0.11-0.25 0.24-0.49 0.09-0.15 0.17-0.29 0.08-0.12 0.17-0.24 0 0-0.01 0.01 0.01-0.01 0.02-0.03 0.01-0.01 0.02-0.02 0 0.01-0.01 0.02 0.19-0.24 0.38-0.46 0.15-0.19 0.31-0.36 0.13-0.15 0.27-0.26 0.58-0.49 1.16-0.94 0.08-0.08 0.08-0.18 0-0.1-0.08-0.17-0.07-0.08-0.17-0.08-0.11 0.01-0.18 0.08z"/>
    <path class="s0" d="m15.48 33.92c0 0.13 0.11 0.25 0.25 0.25 0.14 0 0.25-0.12 0.25-0.25 0-0.14-0.11-0.25-0.25-0.25-0.14 0-0.25 0.11-0.25 0.25z"/>
  </g>
  <g id="legs">
    <path class="s0" d="m22.81 36.82q-0.24 0.01-0.46 0.07c-0.14 0.03-0.21 0.18-0.18 0.31 0.04 0.13 0.18 0.21 0.31 0.17q0.07-0.02 0.15-0.03-0.01 0-0.02 0 0.46-0.05 0.92 0.02 0.15 0.03 0.3 0.08 0.05 0.02 0.09 0.05 0.01 0.01 0.02 0.02 0.01 0.01 0.02 0.03 0.01 0.02 0.01 0.04 0 0.01 0 0.03 0 0.02-0.01 0.05-0.02 0.03-0.04 0.06-0.06 0.07-0.13 0.12-0.2 0.15-0.43 0.26-0.22 0.08-0.46 0.12 0.03-0.01 0.07-0.01c-0.15 0.02-0.31 0.01-0.4 0.15-0.06 0.1-0.04 0.24 0.04 0.32q0.07 0.06 0.15 0.1 0.04 0.03 0.07 0.07 0.01 0.02 0.02 0.04 0.01 0.01 0.01 0.02-0.01 0.01-0.02 0.02-0.07 0.04-0.14 0.07-0.08 0.03-0.17 0.04-0.08 0.01-0.16 0-0.07-0.01-0.13-0.04-0.05-0.02-0.1-0.05-0.04-0.04-0.08-0.09-0.02-0.06-0.05-0.12-0.08-0.13-0.23-0.13c-0.08-0.01-0.19 0.04-0.22 0.12-0.03 0.06-0.03 0.08-0.04 0.13q0 0.05 0.01 0.09 0 0.02 0.01 0.04-0.08 0.18-0.2 0.34-0.07 0.08-0.16 0.16-0.07 0.05-0.15 0.1-0.17 0.12-0.35 0.21 0.01 0 0.01 0-0.01 0-0.02 0.01-0.02 0.01-0.04 0.01 0.01 0 0.03-0.01-0.12 0.05-0.25 0.07-0.02 0-0.05 0-0.02 0-0.05-0.01-0.02-0.01-0.05-0.03 0 0 0-0.01 0.03-0.16 0.1-0.31 0 0 0 0 0.02-0.05 0.05-0.1 0.03-0.03 0.07-0.05 0.1-0.07 0.15-0.19 0.04-0.15-0.07-0.26c-0.1-0.1-0.26-0.1-0.37-0.02q-0.09 0.07-0.15 0.16 0 0-0.01 0.01-0.23 0.14-0.47 0.26-0.09 0.04-0.19 0.07-0.09 0.03-0.18 0.04-0.11 0.01-0.21 0-0.08-0.01-0.15-0.03-0.01-0.01-0.03-0.01 0-0.01 0-0.01 0 0 0-0.01 0-0.01 0-0.03 0.01-0.06 0.03-0.12 0.04-0.06 0.08-0.12 0.1-0.11 0.21-0.21 0.19-0.2 0.41-0.36-0.01 0-0.01 0 0.02-0.02 0.05-0.04-0.01 0.01-0.01 0.01 0.2-0.14 0.43-0.24-0.03 0.01-0.06 0.02 0.21-0.09 0.42-0.15 0.09 0 0.18 0c0.13 0.01 0.25-0.12 0.25-0.25 0-0.14-0.12-0.24-0.25-0.25q-0.06 0-0.12 0-0.09-0.01-0.18 0.01-0.27 0.08-0.51 0.19-0.26 0.12-0.48 0.29-0.25 0.2-0.47 0.41-0.17 0.15-0.31 0.34c-0.12 0.17-0.19 0.39-0.15 0.6q0.05 0.24 0.27 0.36c0.13 0.08 0.31 0.1 0.45 0.11q0.25 0 0.48-0.06 0.13-0.04 0.25-0.1-0.01 0.1 0.01 0.2 0.04 0.16 0.17 0.24 0.13 0.1 0.28 0.14 0.17 0.03 0.35-0.01 0.27-0.06 0.51-0.2 0.15-0.09 0.3-0.2 0.1-0.07 0.2-0.15 0.13-0.12 0.22-0.27 0.06-0.08 0.1-0.16 0.16 0.1 0.33 0.14 0.2 0.04 0.39 0.02 0.17-0.03 0.32-0.1 0.14-0.06 0.25-0.15c0.14-0.11 0.19-0.29 0.16-0.46q-0.01-0.1-0.06-0.18 0.28-0.09 0.54-0.24c0.3-0.16 0.61-0.41 0.64-0.77q0.01-0.08-0.01-0.16-0.02-0.09-0.06-0.17-0.09-0.18-0.26-0.28-0.08-0.05-0.18-0.08-0.07-0.02-0.14-0.04-0.18-0.04-0.36-0.06-0.27-0.03-0.55-0.03-0.05 0-0.1 0z"/>
    <path class="s0" d="m13.76 35.7c-0.14 0.03-0.21 0.17-0.18 0.3q0.15 0.7 0.29 1.39c0.04 0.19 0.08 0.4 0.21 0.56 0.09 0.1 0.26 0.09 0.35 0q0.07-0.08 0.08-0.18-0.01-0.09-0.06-0.15 0 0 0 0 0.01 0 0.01 0.01 0-0.01-0.01-0.02-0.07-0.21-0.11-0.43-0.14-0.66-0.28-1.31c-0.02-0.11-0.13-0.18-0.24-0.18q-0.03 0-0.06 0.01z"/>
    <path class="s0" d="m15.23 35.98c-0.13 0.04-0.21 0.18-0.17 0.31q0.12 0.44 0.25 0.88 0.06 0.18 0.11 0.36 0.02 0.07 0.04 0.13-0.01 0.12 0.07 0.21 0.03 0.03 0.07 0.05 0.09 0.06 0.19 0.03 0.13-0.04 0.18-0.18 0.01-0.11-0.02-0.22-0.05-0.17-0.1-0.34-0.16-0.53-0.31-1.05c-0.04-0.11-0.14-0.18-0.25-0.18q-0.03 0-0.06 0z"/>
    <path class="s0" d="m15.93 37.38c-0.14 0.03-0.21 0.19-0.18 0.31q0.03 0.09 0.11 0.15 0.1 0.05 0.2 0.02 0.04 0 0.08-0.01 0.12-0.01 0.24 0 0.08 0.02 0.16 0.04 0.05 0.03 0.09 0.05 0.02 0.02 0.04 0.04 0.01 0.02 0.02 0.04 0.01 0.03 0.02 0.07 0 0.03 0 0.06-0.02 0.1-0.05 0.19-0.04 0.07-0.08 0.13-0.03 0.03-0.06 0.06-0.05 0.03-0.11 0.06-0.05 0.02-0.09 0.03-0.07 0-0.15-0.01 0.01 0 0.03 0.01-0.02-0.01-0.03-0.01-0.02 0-0.04 0 0.01 0 0.03 0-0.11-0.02-0.23-0.04c-0.09 0-0.21 0.02-0.29 0.09q-0.11 0.13-0.08 0.3 0.04 0.13 0.06 0.25 0.01 0.02 0.01 0.05-0.01 0.04-0.03 0.08 0 0.01-0.01 0.02-0.02 0.02-0.05 0.05-0.01 0-0.02 0.01-0.05 0.02-0.1 0.03-0.13 0.01-0.26-0.01 0 0 0 0 0 0 0 0-0.01 0-0.03 0 0.01 0 0.01 0-0.12-0.02-0.24-0.06-0.02-0.01-0.04-0.03-0.02-0.02-0.04-0.04 0-0.01-0.01-0.02-0.02-0.05-0.03-0.11-0.01-0.08 0-0.16 0.01-0.05-0.01-0.11-0.02-0.06-0.06-0.11-0.08-0.07-0.18-0.07c-0.1-0.01-0.19 0.07-0.25 0.14q-0.06 0.06-0.12 0.13-0.22 0.21-0.46 0.4 0 0 0.01-0.01-0.01 0.01-0.02 0.02-0.02 0.01-0.03 0.02 0.01 0 0.01-0.01-0.14 0.11-0.3 0.18-0.06 0.02-0.12 0.03-0.03 0.01-0.07 0.01 0 0-0.01 0 0-0.02 0-0.04 0.03-0.16 0.09-0.31-0.01 0.03-0.03 0.06 0.09-0.18 0.22-0.35-0.01 0.01-0.01 0.01 0.04-0.05 0.08-0.1c0.05-0.08 0.05-0.2 0-0.28-0.08-0.15-0.24-0.13-0.38-0.13q-0.26 0.02-0.52 0 0.01 0 0.02 0-0.02 0-0.04-0.01-0.01 0-0.03 0 0.01 0 0.02 0 0 0-0.01 0 0.01 0 0.02 0-0.07-0.01-0.14-0.03 0.09-0.09 0.19-0.17 0.14-0.09 0.29-0.16 0.26-0.09 0.53-0.13 0.08-0.01 0.17-0.01 0.05 0 0.1 0 0.08 0.01 0.16 0.01 0.2 0.02 0.4 0.01c0.14-0.01 0.25-0.1 0.25-0.25 0-0.13-0.11-0.26-0.25-0.25q-0.19 0.01-0.38 0-0.19-0.02-0.37-0.02-0.12 0-0.24 0.03-0.12 0.02-0.24 0.05-0.14 0.03-0.26 0.08-0.19 0.07-0.36 0.17-0.17 0.11-0.31 0.26-0.05 0.05-0.1 0.11-0.12 0.13-0.15 0.3 0 0.13 0.07 0.24 0.1 0.13 0.26 0.18 0.14 0.05 0.29 0.07-0.01 0-0.02 0 0.17 0.02 0.35 0.03-0.06 0.12-0.1 0.25-0.05 0.16-0.07 0.34-0.01 0.12 0.03 0.23 0.06 0.15 0.21 0.24c0.17 0.1 0.39 0.08 0.57 0.02q0.3-0.1 0.53-0.31 0.18-0.13 0.34-0.28 0.11 0.22 0.33 0.32 0.15 0.08 0.32 0.1 0.18 0.03 0.35 0.03c0.22 0.01 0.45-0.07 0.6-0.24q0.17-0.2 0.18-0.46 0-0.07-0.01-0.14 0.09 0.01 0.19 0.01 0.21-0.01 0.39-0.11c0.22-0.11 0.36-0.32 0.44-0.55q0.08-0.19 0.06-0.38 0-0.07-0.01-0.13-0.02-0.09-0.06-0.17c-0.05-0.12-0.16-0.2-0.26-0.27q-0.11-0.08-0.24-0.12-0.13-0.03-0.27-0.04-0.05-0.01-0.09-0.01-0.18 0.01-0.34 0.04z"/>
  </g>
</svg>