<svg version="1.2" xmlns="http://www.w3.org/2000/svg" viewBox="0 0 64 72" width="64" height="72">
  <style>
    .s0 { fill: #161616 }

    /* Animation pivot helpers — each group rotates around its anatomical joint */
    #head      { transform-box: fill-box; transform-origin: 50% 100%; }
    #left-arm  { transform-box: fill-box; transform-origin: 100% 0%; }
    #right-arm { transform-box: fill-box; transform-origin: 0%   0%; }
    #body      { transform-box: fill-box; transform-origin: 50%  50%; }
    #legs      { transform-box: fill-box; transform-origin: 50%  0%; }
  </style>

  <!-- ═══ HEAD (13 paths) ═══ -->
  <g id="head">
    <path id="&lt;Compound Path&gt;" fill-rule="evenodd" class="s0" d="m33.58 8.98q1.04 0 2.08 0.05 0.19 0.02 0.25 0.19 0.03 0.01 0.07 0.02c0.27 0.07 0.51 0.19 0.77 0.29q-0.03-0.01-0.07-0.02 0.62 0.26 1.29 0.36-0.01 0-0.01 0 0.43 0.04 0.86 0.04 0.46 0.02 0.92 0.06 0.47 0.05 0.94 0.1 0.22 0.02 0.43 0.06 0.23 0.04 0.45 0.09 0.24 0.06 0.47 0.16 0.22 0.09 0.43 0.2 0.4 0.18 0.73 0.44 0.18 0.14 0.33 0.29 0.18 0.2 0.36 0.4 0.32 0.36 0.6 0.78 0.31 0.46 0.56 0.97 0.12 0.25 0.24 0.49 0.08 0.17 0.15 0.33 0.19 0.41 0.36 0.82 0.16 0.35 0.3 0.71 0.12 0.31 0.24 0.62 0.15 0.4 0.29 0.81 0.15 0.46 0.3 0.93 0.22 0.68 0.43 1.36 0.25 0.82 0.51 1.64 0.28 0.83 0.57 1.66 0.26 0.76 0.52 1.52 0.1 0.33 0.2 0.66 0.08 0.26 0.16 0.52 0.05 0.13 0.08 0.25 0.12 0.43 0.23 0.86 0.07 0.26 0.14 0.51 0.04 0.12 0.06 0.24 0.2 0.88 0.39 1.76 0.05 0.24 0.09 0.47 0.1 0.54 0.19 1.08 0.07 0.36 0.12 0.71 0.04 0.34 0.09 0.67 0.07 0.58 0.14 1.16 0.03 0.2 0.04 0.42 0.05 0.58 0.09 1.16 0.02 0.24 0.03 0.49 0.02 0.8 0.01 1.6-0.01 0.58-0.03 1.16 0 0.25-0.01 0.49-0.05 1-0.11 2-0.04 0.74-0.11 1.47-0.04 0.51-0.08 1.03-0.05 0.7-0.14 1.4-0.13 1.13-0.35 2.25-0.21 1.1-0.53 2.17c-0.41 1.37-0.98 2.71-1.81 3.89q-0.32 0.46-0.69 0.89-0.35 0.42-0.73 0.82-0.66 0.7-1.45 1.27-0.65 0.46-1.36 0.83-0.32 0.17-0.64 0.34-0.38 0.2-0.77 0.39-0.4 0.19-0.79 0.38-0.14 0.06-0.28 0.12-0.26 0.1-0.51 0.21-0.35 0.13-0.7 0.23-0.39 0.13-0.79 0.22-0.13 0.04-0.26 0.07-0.2 0.03-0.4 0.07-0.39 0.07-0.77 0.13-0.38 0.06-0.77 0.12-0.89 0.13-1.78 0.27-0.36 0.06-0.71 0.12-0.35 0.07-0.69 0.14-0.52 0.13-1.04 0.26-0.33 0.08-0.64 0.17-0.37 0.1-0.73 0.22-0.49 0.15-0.98 0.3-0.8 0.25-1.6 0.49-0.29 0.09-0.59 0.17-0.48 0.13-0.96 0.26-0.32 0.08-0.64 0.15-0.45 0.1-0.91 0.2-0.1 0.02-0.2 0.04-0.25 0.04-0.5 0.09-0.43 0.08-0.86 0.15-0.22 0.03-0.45 0.06-0.29 0.04-0.57 0.07-0.56 0.05-1.13 0.07-0.28 0.01-0.56 0.02-0.19 0-0.38 0-0.16-0.01-0.31-0.02-0.58-0.03-1.15-0.06-0.7-0.04-1.39-0.14-1.22-0.17-2.41-0.51-0.99-0.29-1.92-0.73-1-0.46-1.86-1.15-0.43-0.35-0.82-0.76-0.38-0.41-0.73-0.86-0.68-0.86-1.14-1.86-0.18-0.4-0.33-0.82-0.09-0.25-0.16-0.52-0.09-0.27-0.15-0.55-0.09-0.46-0.18-0.91-0.02-0.1-0.03-0.21-0.03-0.26-0.06-0.53-0.03-0.17-0.05-0.35-0.01-0.21-0.02-0.43-0.03-0.34-0.04-0.69-0.01-0.31-0.01-0.63-0.01-0.15-0.01-0.31 0.01-0.42 0.01-0.84 0.02-0.79 0.05-1.6 0.01-0.41 0.03-0.81 0.02-0.31 0.04-0.63 0.04-0.52 0.08-1.04 0.04-0.36 0.08-0.72 0.04-0.35 0.09-0.7 0.07-0.49 0.15-0.99 0.06-0.4 0.14-0.8 0.05-0.3 0.11-0.59 0.17-0.82 0.35-1.63 0.11-0.49 0.22-0.98 0.09-0.35 0.19-0.7 0.09-0.36 0.19-0.72 0.14-0.48 0.28-0.95 0.22-0.74 0.46-1.47 0.49-1.5 0.93-3.01 0.46-1.53 0.89-3.06 0.21-0.79 0.43-1.58 0.15-0.56 0.31-1.12 0.07-0.24 0.15-0.48 0.17-0.52 0.34-1.04 0.11-0.29 0.23-0.58 0.12-0.3 0.24-0.6 0.05-0.12 0.1-0.24 0.17-0.38 0.35-0.75 0.13-0.31 0.29-0.61 0.25-0.45 0.5-0.9 0.17-0.3 0.37-0.6 0.14-0.22 0.28-0.45 0.05-0.07 0.09-0.15 0.31-0.43 0.63-0.87 0.17-0.24 0.35-0.46 0.21-0.26 0.41-0.52 0.09-0.12 0.18-0.23 0.27-0.3 0.54-0.59 0.22-0.26 0.45-0.51 0.36-0.36 0.72-0.71 0.12-0.13 0.24-0.24 0.1-0.1 0.21-0.18 0.38-0.35 0.77-0.7 0.27-0.24 0.55-0.47 0.29-0.25 0.58-0.48 0.38-0.3 0.75-0.6 0.23-0.19 0.47-0.37 0.42-0.31 0.84-0.61 0.22-0.17 0.44-0.32 0.43-0.28 0.85-0.56 0.39-0.25 0.8-0.48 0.46-0.26 0.94-0.49 1.03-0.48 2.13-0.77 1.06-0.26 2.15-0.4 1.18-0.18 2.37-0.19zm4.39 0.89q0.02 0.01 0.05 0.01-0.03 0-0.05-0.01zm-6.66-0.22q0.01 0 0.02 0-0.99 0.12-1.96 0.36-0.9 0.23-1.76 0.57 0.02-0.01 0.04-0.02-0.56 0.24-1.09 0.52-0.57 0.31-1.11 0.66-0.43 0.28-0.85 0.56-0.3 0.21-0.59 0.42-0.35 0.26-0.71 0.52-0.46 0.36-0.92 0.73-0.35 0.28-0.69 0.57-0.36 0.3-0.72 0.61-0.27 0.25-0.55 0.5-0.17 0.15-0.33 0.3-0.42 0.41-0.83 0.83-0.11 0.09-0.21 0.2-0.19 0.22-0.38 0.43-0.32 0.34-0.62 0.7-0.36 0.45-0.71 0.9-0.19 0.27-0.38 0.54-0.13 0.17-0.25 0.35-0.05 0.06-0.09 0.13-0.2 0.32-0.4 0.64-0.15 0.21-0.27 0.43-0.2 0.35-0.39 0.7-0.13 0.22-0.24 0.44-0.27 0.58-0.54 1.16-0.22 0.55-0.44 1.09-0.16 0.42-0.29 0.85-0.15 0.43-0.28 0.87-0.18 0.65-0.36 1.3-0.25 0.88-0.49 1.77-0.27 0.97-0.56 1.95-0.23 0.8-0.47 1.6-0.26 0.84-0.53 1.68-0.27 0.82-0.53 1.64-0.1 0.35-0.21 0.71-0.1 0.33-0.19 0.66-0.21 0.76-0.4 1.53-0.19 0.82-0.37 1.66-0.09 0.44-0.18 0.89-0.08 0.43-0.16 0.86-0.13 0.76-0.24 1.53-0.02 0.27-0.06 0.54-0.04 0.29-0.06 0.59-0.05 0.6-0.1 1.2-0.02 0.25-0.03 0.5-0.01 0.37-0.03 0.74-0.02 0.55-0.04 1.11-0.01 0.56-0.02 1.12 0 0.57 0.02 1.14 0.02 0.59 0.06 1.17 0.02 0.24 0.06 0.48 0.03 0.23 0.06 0.46 0.09 0.45 0.18 0.91 0.08 0.39 0.2 0.78 0.15 0.47 0.34 0.92-0.01-0.01-0.02-0.03 0.24 0.54 0.55 1.05 0.29 0.46 0.61 0.9 0.39 0.5 0.84 0.95 0.37 0.38 0.79 0.71 0.48 0.37 1.01 0.66 0.53 0.29 1.11 0.54-0.02-0.01-0.03-0.02 0.93 0.39 1.91 0.63 0.89 0.22 1.8 0.36 0 0 0 0 0.01 0 0.02 0 0.03 0.01 0.05 0.01 0 0-0.01 0 0.66 0.08 1.33 0.13 0.5 0.02 1 0.05 0.18 0 0.36 0.01 0.39 0.02 0.79 0 1.02-0.04 2.04-0.17-0.01 0-0.02 0 0.74-0.11 1.47-0.25 0.5-0.09 0.99-0.21 0.37-0.08 0.73-0.16 0.17-0.04 0.34-0.09 0.4-0.12 0.8-0.23 0.2-0.05 0.4-0.11 0.76-0.23 1.52-0.46 0.8-0.26 1.61-0.5 0.32-0.09 0.63-0.18 0.11-0.03 0.22-0.06 0.47-0.11 0.93-0.23 0.35-0.07 0.69-0.14 0.35-0.07 0.7-0.13 0.89-0.14 1.79-0.27 0.73-0.1 1.45-0.23 0.4-0.07 0.79-0.16 0.26-0.06 0.51-0.13 0.14-0.03 0.27-0.07 0.25-0.08 0.5-0.16 0.13-0.04 0.26-0.09 0.39-0.16 0.78-0.32 0 0-0.01 0.01 0.4-0.19 0.79-0.38 0.38-0.19 0.77-0.39 0.4-0.21 0.79-0.42 0.74-0.4 1.42-0.9 0 0 0 0 0.01-0.01 0.02-0.02 0.01-0.01 0.01-0.01 0 0 0 0c0.82-0.65 1.52-1.42 2.17-2.24q0.46-0.6 0.84-1.27 0.38-0.68 0.68-1.4-0.01 0.03-0.02 0.06c0.7-1.71 1.09-3.52 1.34-5.35q0 0.01 0 0.01 0.06-0.51 0.12-1.04 0.05-0.38 0.08-0.75 0.02-0.38 0.05-0.75 0.05-0.57 0.09-1.13 0.03-0.29 0.05-0.59 0.04-0.89 0.09-1.78 0.03-0.65 0.04-1.31 0.01-0.44 0.03-0.88 0-0.31-0.01-0.63-0.01-0.45-0.01-0.9 0-0.08-0.01-0.16-0.02-0.24-0.04-0.48-0.03-0.51-0.07-1.01-0.02-0.22-0.05-0.44-0.11-0.83-0.21-1.66 0 0.02 0 0.04-0.17-1-0.35-2-0.07-0.36-0.16-0.72-0.12-0.57-0.25-1.15-0.07-0.28-0.15-0.56-0.13-0.51-0.27-1.02-0.09-0.31-0.19-0.61-0.13-0.43-0.26-0.86-0.13-0.39-0.26-0.77-0.1-0.29-0.2-0.57-0.26-0.78-0.53-1.55-0.15-0.46-0.29-0.91-0.12-0.4-0.25-0.8-0.24-0.78-0.49-1.56-0.13-0.43-0.27-0.85-0.11-0.31-0.22-0.63-0.13-0.37-0.28-0.74-0.16-0.4-0.32-0.8 0.01 0.03 0.02 0.06-0.24-0.58-0.51-1.15-0.17-0.37-0.36-0.73-0.18-0.35-0.4-0.69-0.16-0.25-0.34-0.49 0.01 0.01 0.01 0.01-0.01-0.01-0.02-0.03-0.01 0-0.01-0.01-0.24-0.3-0.5-0.57-0.2-0.2-0.41-0.39-0.45-0.29-0.94-0.52 0.01 0.01 0.01 0.01-0.14-0.07-0.29-0.12-0.14-0.04-0.28-0.07-0.27-0.07-0.55-0.11-0.59-0.07-1.18-0.12-0.61-0.05-1.24-0.06-0.28 0-0.55-0.04-0.32-0.05-0.63-0.14-0.31-0.09-0.61-0.21-0.22-0.09-0.44-0.19-0.24-0.09-0.49-0.14-0.17-0.01-0.34 0-0.08 0.01-0.16 0.04c-0.13 0.05-0.28-0.05-0.31-0.17q0-0.03-0.01-0.05-0.63-0.02-1.27-0.02-1.14 0.02-2.27 0.17zm-3.7 0.93q-0.01 0.01-0.02 0.01 0.01 0 0.02-0.01zm-13.06 49.85q0.01 0 0.03 0.01-0.02-0.01-0.03-0.01zm26.61-3.17q-0.02 0.01-0.05 0.02 0.03-0.01 0.05-0.02zm3.77-2.09q0-0.01 0.01-0.01 0 0-0.01 0.01zm0.03-0.03q0.01 0 0.02-0.01-0.01 0-0.02 0.01zm5.01-10.19q-0.01 0.03-0.01 0.05 0-0.02 0.01-0.05zm-8.05-34.08q-0.02-0.01-0.05-0.02 0.03 0.01 0.05 0.02zm-23.63 50.54q-0.02 0-0.04-0.01-0.01 0-0.02 0 0.03 0 0.06 0.01z"/>
    <path id="last" class="s0" d="m35.04 20.18q-0.21 0.02-0.4 0.12-0.16 0.08-0.31 0.19-0.2 0.15-0.39 0.32-0.18 0.2-0.33 0.4-0.24 0.29-0.5 0.54-0.24 0.23-0.46 0.46-0.27 0.31-0.51 0.63-0.26 0.32-0.51 0.64 0 0 0 0.01-0.02 0.02-0.04 0.04 0.01-0.01 0.01-0.01-0.29 0.36-0.65 0.67-0.36 0.3-0.7 0.62-0.24 0.24-0.46 0.49-0.15 0.18-0.31 0.36-0.15 0.16-0.28 0.35-0.12 0.17-0.23 0.35-0.18 0.24-0.26 0.53c-0.04 0.14 0.04 0.28 0.17 0.31 0.13 0.04 0.28-0.04 0.31-0.17q0.02-0.09 0.05-0.16-0.01 0.03-0.02 0.06 0.21-0.4 0.48-0.77 0.1-0.11 0.2-0.23 0.17-0.19 0.34-0.38 0.2-0.23 0.42-0.44 0.12-0.11 0.25-0.22 0.34-0.27 0.65-0.58 0.17-0.17 0.32-0.35 0.13-0.15 0.25-0.32 0 0 0 0.01 0-0.01 0.01-0.02 0.01-0.01 0.02-0.03 0 0.01-0.01 0.02 0.18-0.23 0.37-0.46 0.2-0.26 0.4-0.5c0.22-0.25 0.47-0.47 0.7-0.71q0.19-0.2 0.36-0.4 0.1-0.13 0.2-0.25 0.15-0.18 0.34-0.34 0 0.01-0.01 0.02 0.02-0.02 0.04-0.03 0-0.01 0.01-0.01 0.18-0.14 0.38-0.23 0.07-0.03 0.15-0.04 0.05 0 0.1 0 0.08 0.02 0.16 0.05 0.13 0.06 0.24 0.14 0.14 0.12 0.26 0.26 0.34 0.47 0.62 0.98 0.16 0.3 0.37 0.57 0.18 0.21 0.4 0.38 0.23 0.18 0.43 0.38 0.2 0.18 0.38 0.37 0.3 0.29 0.6 0.59 0.18 0.2 0.36 0.42 0.17 0.17 0.36 0.31 0.19 0.14 0.36 0.31 0.17 0.18 0.33 0.38-0.01-0.01-0.01-0.01 0.1 0.15 0.18 0.32 0.09 0.27 0.14 0.55 0.04 0.17 0.09 0.33 0.03 0.15 0.14 0.25 0.07 0.07 0.17 0.07 0.11 0 0.18-0.07 0.07-0.07 0.07-0.18 0.01-0.1-0.07-0.17-0.04-0.13-0.07-0.26-0.04-0.17-0.08-0.34-0.03-0.16-0.09-0.31-0.1-0.29-0.3-0.54-0.19-0.25-0.42-0.47-0.21-0.19-0.44-0.35-0.22-0.19-0.4-0.42-0.31-0.34-0.64-0.66-0.15-0.15-0.3-0.3-0.28-0.28-0.58-0.52-0.24-0.19-0.44-0.42-0.19-0.27-0.35-0.56-0.16-0.27-0.32-0.54-0.18-0.28-0.39-0.53-0.18-0.19-0.4-0.32-0.27-0.18-0.59-0.19-0.05 0-0.1 0.01z"/>
    <path id="&lt;Compound Path&gt;" fill-rule="evenodd" class="s0" d="m25.86 21.38q0.08 0 0.17 0 0.35 0 0.7 0.03 0.3 0.03 0.59 0.05c0.31 0.01 0.61 0 0.91 0.04q0.4 0.05 0.79 0.13 0.21 0.04 0.42 0.07 0.15 0 0.26 0.1c0.09 0.09 0.11 0.26 0.03 0.37q-0.05 0.06-0.11 0.12-0.07 0.07-0.15 0.12-0.54 0.35-1.17 0.49-0.45 0.09-0.9 0.13-0.33 0.02-0.67 0.04-0.32 0.03-0.65 0.07-0.35 0.04-0.72 0.09-0.29 0.04-0.58 0.06-0.56 0.02-1.12 0.02-0.24 0-0.48-0.01-0.26-0.01-0.51-0.06-0.41-0.08-0.81-0.18-0.45-0.12-0.92-0.2-0.22-0.04-0.43-0.09-0.14-0.03-0.27-0.07-0.03-0.01-0.05-0.02-0.06 0.02-0.12 0.05-0.09 0.05-0.19 0.03-0.1-0.03-0.15-0.12c-0.06-0.11-0.04-0.29 0.09-0.34q0.08-0.04 0.16-0.08 0 0.01-0.01 0.01 0.22-0.09 0.43-0.18 0.17-0.07 0.34-0.12 0.32-0.11 0.65-0.2 0.52-0.12 1.06-0.16 0.57-0.04 1.15-0.08 0.56-0.03 1.13-0.07 0.56-0.04 1.13-0.04zm-5.88 0.84q0.03-0.01 0.05-0.02-0.02 0.01-0.05 0.02zm2.16-0.12q-0.37 0.05-0.72 0.14-0.21 0.06-0.41 0.13 0.29 0.05 0.58 0.11c0.47 0.11 0.94 0.24 1.43 0.31q0.44 0.03 0.89 0.02 0.6 0.01 1.2-0.05 0.38-0.04 0.75-0.09 0.36-0.05 0.71-0.08 0.54-0.04 1.09-0.09-0.01 0-0.01 0 0.55-0.05 1.06-0.25 0 0-0.01 0.01 0.14-0.06 0.28-0.14-0.06-0.01-0.11-0.02-0.28-0.05-0.54-0.09 0 0 0 0-0.32-0.04-0.64-0.04-0.3-0.01-0.6-0.03-0.27-0.02-0.54-0.04-0.21-0.02-0.42-0.02-0.4-0.01-0.8 0.01-0.44 0.02-0.89 0.05-0.4 0.03-0.81 0.05-0.44 0.03-0.87 0.06-0.31 0.01-0.62 0.05zm6.19-0.09q-0.04-0.01-0.07-0.01 0.03 0 0.07 0.01z"/>
    <path id="&lt;Compound Path&gt;" fill-rule="evenodd" class="s0" d="m43.83 20.24q0.1-0.01 0.19 0 0.17 0.01 0.33 0.02 0.34 0.03 0.69 0.08 0.31 0.05 0.63 0.12 0.15 0.02 0.29 0.06 0.1 0.03 0.19 0.1 0.08 0.04 0.13 0.12 0.05 0.1 0.03 0.21-0.04 0.13-0.16 0.21-0.1 0.07-0.2 0.11-0.13 0.06-0.26 0.12-0.28 0.13-0.58 0.21-0.84 0.22-1.68 0.41-0.42 0.11-0.85 0.2-0.48 0.11-0.98 0.13-0.21 0.01-0.42 0.02-0.25 0.02-0.51 0.01-0.35-0.03-0.7-0.07-0.29-0.03-0.57-0.12-0.27-0.11-0.53-0.21c-0.11-0.03-0.19-0.13-0.18-0.25-0.04-0.11-0.01-0.27 0.1-0.32q0.35-0.16 0.7-0.3 0 0-0.01 0 0.07-0.03 0.15-0.06-0.01 0-0.02 0 0.11-0.04 0.22-0.09 0.06-0.02 0.13-0.05 0.15-0.04 0.3-0.08 0.4-0.1 0.81-0.19 0.37-0.09 0.75-0.17 0.4-0.07 0.81-0.12 0.51-0.09 1.02-0.1 0.09 0 0.18 0zm-4.22 0.8q0 0.01-0.01 0.01 0.01 0 0.01-0.01zm3.25-0.23q0.01 0 0.01 0-0.41 0.04-0.81 0.11-0.38 0.08-0.75 0.17-0.43 0.09-0.86 0.2-0.16 0.04-0.32 0.09-0.15 0.05-0.3 0.11 0 0 0 0-0.06 0.03-0.12 0.05 0.01 0 0.02 0-0.08 0.03-0.16 0.06 0.02-0.01 0.04-0.02-0.09 0.04-0.17 0.08 0.03 0.01 0.06 0.03 0.24 0.08 0.49 0.11-0.02 0-0.03 0 0.18 0.02 0.37 0.04 0.25 0.03 0.52 0.03 0.32-0.01 0.64-0.02 0.27-0.01 0.53-0.04 0.52-0.08 1.02-0.22 0.49-0.12 0.98-0.23 0.18-0.04 0.36-0.09 0.25-0.06 0.49-0.12 0.28-0.07 0.55-0.19-0.02 0.01-0.04 0.02 0.06-0.02 0.11-0.05-0.06-0.01-0.11-0.02-0.27-0.06-0.55-0.1-0.18-0.02-0.37-0.03-0.24-0.03-0.47-0.04-0.24-0.01-0.48 0-0.33 0.02-0.65 0.07zm-3.03 0.68q-0.01 0.01-0.02 0.01 0.01 0 0.02-0.01zm-0.4-0.37q0.03-0.01 0.05-0.02-0.02 0.01-0.05 0.02zm0.19 0.46q-0.01 0-0.01 0 0 0 0.01 0z"/>
    <path id="&lt;Path&gt;" class="s0" d="m42.19 20.44c-0.12 0.07-0.17 0.23-0.09 0.34q0.02 0.04 0.03 0.07 0.05 0.13 0.08 0.27 0.01 0.1 0 0.2-0.01 0.07-0.04 0.15 0 0.01-0.01 0.01-0.03 0.04-0.07 0.07-0.04 0.04-0.1 0.06-0.03 0.01-0.07 0.02-0.05 0.01-0.1 0-0.01 0-0.03 0 0-0.01 0-0.01-0.02-0.02-0.03-0.04 0.01 0 0.01 0.01-0.01-0.01-0.01-0.02-0.01-0.01-0.01-0.03-0.03-0.09-0.06-0.18-0.03-0.09-0.04-0.19 0.01 0.03 0.02 0.06-0.02-0.09-0.02-0.19 0.01-0.01 0.03-0.03c0.09-0.1 0.09-0.25 0-0.35-0.1-0.09-0.26-0.1-0.35 0q-0.12 0.1-0.16 0.25c-0.04 0.16 0 0.33 0.02 0.49q0.03 0.16 0.1 0.32 0.03 0.09 0.08 0.17 0.07 0.12 0.19 0.18 0.15 0.07 0.32 0.07 0.22-0.01 0.41-0.11 0.12-0.07 0.21-0.17 0.05-0.06 0.1-0.12 0.05-0.1 0.08-0.22 0.03-0.13 0.04-0.27 0-0.08-0.01-0.16-0.03-0.3-0.18-0.56-0.08-0.12-0.22-0.12-0.06 0-0.12 0.03z"/>
    <path id="&lt;Path&gt;" class="s0" d="m25.13 21.49c-0.21 0.21-0.33 0.5-0.34 0.79q0 0.06 0.01 0.11 0.01 0.04 0.03 0.08 0.02 0.07 0.05 0.14 0.05 0.1 0.11 0.19 0.05 0.06 0.1 0.12c0.09 0.1 0.22 0.15 0.34 0.21q0.05 0.01 0.09 0.01 0.09 0.02 0.17 0 0.13-0.02 0.23-0.08 0.13-0.08 0.21-0.2 0.07-0.1 0.11-0.2 0.07-0.14 0.09-0.28 0.03-0.15 0-0.31 0-0.06-0.02-0.12-0.03-0.1-0.07-0.21c-0.04-0.13-0.17-0.21-0.3-0.17-0.13 0.03-0.23 0.18-0.18 0.31q0.05 0.14 0.09 0.28 0 0.03 0 0.06-0.02 0.11-0.06 0.22-0.03 0.07-0.08 0.14-0.01 0.02-0.03 0.04-0.03 0.01-0.06 0.03-0.01 0-0.01 0-0.04-0.01-0.07-0.02-0.04-0.02-0.08-0.05-0.02-0.02-0.04-0.04-0.06-0.1-0.11-0.21-0.01-0.03-0.02-0.06 0-0.01 0-0.01 0.02-0.11 0.06-0.22 0.03-0.07 0.08-0.14 0.02-0.03 0.05-0.05c0.1-0.1 0.1-0.26 0-0.36q-0.08-0.07-0.18-0.07-0.1 0-0.17 0.07z"/>
    <path id="&lt;Path&gt;" class="s0" d="m24.69 18.38q-0.45 0.02-0.88 0.13-0.56 0.16-1.09 0.41-0.26 0.12-0.49 0.29-0.31 0.21-0.61 0.44-0.2 0.14-0.38 0.28-0.21 0.15-0.4 0.32-0.12 0.11-0.24 0.23-0.22 0.23-0.42 0.5-0.04 0.09-0.02 0.19 0.03 0.1 0.11 0.15 0.1 0.05 0.2 0.02 0.09-0.02 0.15-0.11 0.03-0.04 0.06-0.09 0.19-0.23 0.4-0.43 0.16-0.15 0.34-0.29 0.26-0.2 0.53-0.4 0.24-0.19 0.49-0.35 0.19-0.14 0.4-0.26 0.17-0.08 0.35-0.16-0.02 0.01-0.03 0.02 0.6-0.27 1.24-0.37-0.03 0.01-0.06 0.01 0.26-0.03 0.54-0.03 0.23 0 0.46 0.02 0.32 0.04 0.63 0.13 0.31 0.09 0.61 0.22-0.02-0.01-0.04-0.02 0.41 0.18 0.79 0.41 0.17 0.1 0.34 0.21 0.17 0.11 0.33 0.23-0.01-0.01-0.02-0.02 0.01 0.01 0.03 0.02 0.01 0.01 0.02 0.02-0.01-0.01-0.02-0.01 0.2 0.16 0.38 0.33c0.1 0.1 0.26 0.1 0.36 0 0.09-0.1 0.09-0.26 0-0.35q-0.22-0.22-0.46-0.4-0.12-0.09-0.25-0.17-0.13-0.09-0.27-0.18-0.52-0.32-1.08-0.57-0.33-0.13-0.67-0.22-0.35-0.1-0.71-0.14-0.17-0.01-0.34-0.01-0.14 0-0.28 0z"/>
    <path id="&lt;Path&gt;" class="s0" d="m44.68 22.41q-0.18 0.21-0.37 0.41-0.14 0.16-0.3 0.29-0.18 0.14-0.39 0.24 0.03-0.01 0.06-0.03-0.45 0.2-0.92 0.3-0.41 0.09-0.82 0.16-0.36 0.04-0.72 0 0.01 0 0.01 0.01 0-0.01-0.01-0.01-0.03 0-0.05 0 0.01 0 0.03 0-0.28-0.05-0.54-0.16 0.03 0.01 0.05 0.02-0.17-0.08-0.34-0.17-0.07-0.03-0.13-0.07-0.16-0.11-0.31-0.23-0.04-0.04-0.08-0.08c-0.1-0.09-0.26-0.09-0.36 0-0.09 0.1-0.09 0.26 0 0.36q0.16 0.14 0.33 0.27 0.14 0.1 0.3 0.19 0.31 0.16 0.64 0.28c0.39 0.12 0.82 0.13 1.22 0.08q0 0-0.01 0 0.34-0.04 0.68-0.12 0.28-0.05 0.56-0.12 0.14-0.05 0.28-0.1 0.25-0.08 0.48-0.2 0.23-0.12 0.42-0.28 0.15-0.13 0.28-0.27 0.18-0.21 0.36-0.42 0.07-0.07 0.07-0.17 0-0.11-0.07-0.18-0.08-0.07-0.18-0.08-0.1 0-0.17 0.08z"/>
    <path id="&lt;Path&gt;" class="s0" d="m42.44 17.6q-0.19 0.01-0.38 0.02-0.5 0.04-0.99 0.2-0.2 0.07-0.4 0.18-0.16 0.09-0.32 0.21 0.01 0 0.01 0-0.01 0-0.01 0.01-0.02 0.01-0.04 0.03 0-0.01 0.01-0.01-0.17 0.13-0.33 0.27-0.18 0.14-0.34 0.29-0.17 0.16-0.31 0.36-0.09 0.13-0.18 0.27-0.06 0.09-0.11 0.18-0.04 0.07-0.06 0.14-0.05 0.13-0.09 0.26c-0.03 0.13 0.04 0.27 0.18 0.31 0.13 0.03 0.27-0.05 0.31-0.18q0.02-0.12 0.07-0.24 0.09-0.18 0.21-0.35 0.05-0.08 0.11-0.15 0.17-0.21 0.37-0.38 0.24-0.2 0.48-0.39 0.23-0.18 0.49-0.3-0.03 0.02-0.06 0.03 0.42-0.17 0.87-0.22 0 0-0.01 0 0.18-0.02 0.36-0.03 0.19-0.02 0.37-0.01 0.16 0.03 0.31 0.09 0 0-0.01 0 0.21 0.09 0.4 0.2 0.25 0.14 0.49 0.31 0.2 0.17 0.37 0.37 0.05 0.07 0.09 0.13c0.08 0.12 0.22 0.17 0.35 0.09 0.11-0.06 0.17-0.23 0.09-0.34q-0.12-0.17-0.26-0.33-0.21-0.23-0.47-0.41-0.23-0.15-0.47-0.28-0.24-0.14-0.49-0.24-0.2-0.08-0.4-0.09-0.05-0.01-0.1-0.01-0.06 0-0.11 0.01z"/>
    <path id="&lt;Path&gt;" class="s0" d="m29.85 12.71q-0.31 0.03-0.62 0.06-0.1 0.01-0.2 0.02-0.02 0.01-0.04 0.01-0.07 0.01-0.14 0.02-0.08 0.01-0.16 0.02-0.03 0-0.06 0.01-0.13 0.02-0.26 0.03c-0.06 0.01-0.12 0.07-0.15 0.12q-0.05 0.09-0.02 0.19 0.03 0.1 0.11 0.15 0.09 0.05 0.2 0.03 0.11-0.02 0.22-0.03 0 0 0.01 0 0.05-0.01 0.11-0.02 0.08-0.01 0.16-0.02 0.03 0 0.06-0.01-0.01 0-0.02 0 0.01 0 0.02 0 0.01 0 0.01 0 0 0 0.01 0 0 0 0.01 0 0 0-0.01 0 0.38-0.05 0.76-0.08 0.1 0 0.17-0.07 0.07-0.07 0.08-0.18c0-0.12-0.11-0.25-0.24-0.25q-0.01 0-0.01 0z"/>
    <path id="&lt;Path&gt;" class="s0" d="m37.8 11.78q-0.25 0.04-0.5 0.08 0.01 0 0.01 0-0.5 0.06-0.99 0.1-0.54 0.04-1.08 0.11-0.51 0.09-1 0.21-0.62 0.14-1.23 0.27c-0.14 0.03-0.21 0.18-0.18 0.3 0.04 0.14 0.18 0.21 0.31 0.18q0.62-0.13 1.23-0.27 0.52-0.12 1.04-0.21 0.61-0.06 1.22-0.12 0.66-0.06 1.31-0.17 0.09-0.02 0.14-0.11 0.06-0.1 0.03-0.19-0.03-0.1-0.11-0.16-0.06-0.03-0.12-0.03-0.04 0-0.08 0.01z"/>
    <path id="&lt;Path&gt;" class="s0" d="m40.04 13.18q-0.43 0.1-0.87 0.17 0.04-0.01 0.07-0.01c-0.55 0.05-1.1 0.09-1.65 0.19q-0.45 0.08-0.9 0.18-0.34 0.07-0.69 0.14-0.79 0.15-1.59 0.32c-0.53 0.12-1.05 0.27-1.6 0.34q0.03 0 0.07-0.01-0.68 0.09-1.37 0.13-0.74 0.02-1.47 0.01c-0.14 0-0.25 0.11-0.25 0.25 0 0.13 0.11 0.25 0.25 0.25q0.53 0 1.06 0 0.53 0 1.05-0.06 0.5-0.05 1.01-0.12 0.5-0.08 1-0.22 0.98-0.22 1.98-0.41 0.45-0.09 0.91-0.19 0.3-0.06 0.6-0.12 0.23-0.04 0.46-0.07-0.01 0-0.01 0 0.01 0 0.03 0 0.02 0 0.03 0-0.01 0-0.01 0 0.49-0.05 0.99-0.1 0.52-0.06 1.03-0.19c0.14-0.03 0.21-0.18 0.18-0.31-0.03-0.11-0.14-0.18-0.25-0.18q-0.03 0-0.06 0.01z"/>
    <path id="&lt;Path&gt;" class="s0" d="m33.37 16.54q-0.29 0.05-0.57 0.1 0.01 0 0.02 0-0.01 0-0.03 0-0.58 0.06-1.16 0.08-0.54 0.03-1.07 0.04-0.49 0-0.98 0-0.24 0-0.48 0.01-0.28 0.02-0.57 0.06 0.02 0 0.03 0-0.18 0.02-0.37 0.05 0.01 0 0.01 0-0.04 0-0.09 0.01 0.02-0.01 0.04-0.01-0.27 0.04-0.55 0.07 0.01 0 0.01 0-0.05 0.01-0.1 0.02-0.1 0-0.17 0.07-0.07 0.07-0.08 0.18 0.01 0.1 0.08 0.17 0.07 0.07 0.17 0.08 0.12-0.02 0.23-0.03-0.01 0-0.02 0 0.26-0.03 0.52-0.07-0.01 0-0.02 0 0.17-0.02 0.34-0.04-0.02 0-0.04 0 0.07-0.01 0.15-0.02 0.26-0.03 0.53-0.04 0.29-0.01 0.58-0.01 0.54 0.01 1.09-0.01 0.61-0.01 1.21-0.05 0.33-0.02 0.66-0.05 0.38-0.05 0.76-0.13c0.13-0.02 0.21-0.18 0.17-0.3q-0.02-0.1-0.11-0.15-0.06-0.04-0.12-0.04-0.04 0-0.07 0.01z"/>
  </g>

  <!-- ═══ BODY (12 paths) ═══ -->
  <g id="body">
    <path id="&lt;Path&gt;" class="s0" d="m32.37 41.09c-0.12 0.07-0.16 0.22-0.09 0.34q0.4 0.77 0.8 1.53 0.14 0.27 0.28 0.54 0.08 0.14 0.16 0.29 0.05 0.11 0.12 0.21 0.08 0.07 0.18 0.07 0.14 0 0.22-0.13c0.04-0.07 0.03-0.16 0.03-0.24q0.01-0.03 0.01-0.06c0.03-0.14-0.04-0.27-0.17-0.31q-0.04-0.01-0.08-0.01-0.03-0.06-0.06-0.11-0.15-0.29-0.3-0.58-0.38-0.73-0.76-1.45-0.08-0.12-0.22-0.12-0.06 0-0.12 0.03z"/>
    <path id="&lt;Path&gt;" class="s0" d="m33.98 43.69c-0.14 0-0.25 0.11-0.25 0.25 0 0.13 0.11 0.25 0.25 0.25q0.51-0.01 1.02 0 0.34 0 0.67 0.02 0.03 0.01 0.05 0.01 0.1 0.02 0.19-0.03 0.09-0.05 0.12-0.14 0.02-0.11-0.03-0.2-0.05-0.09-0.15-0.11-0.1-0.02-0.2-0.03-0.26-0.02-0.52-0.02-0.32-0.01-0.63-0.01-0.26 0-0.52 0.01z"/>
    <path id="&lt;Path&gt;" class="s0" d="m37.39 40.91q-0.07 0.08-0.12 0.17-0.05 0.11-0.11 0.21-0.24 0.43-0.5 0.84-0.23 0.39-0.45 0.77-0.27 0.47-0.52 0.93c-0.07 0.12-0.03 0.27 0.09 0.34 0.11 0.07 0.27 0.03 0.34-0.09q0.25-0.45 0.51-0.91 0.22-0.38 0.45-0.76 0.23-0.38 0.45-0.76 0.07-0.12 0.14-0.25 0.04-0.09 0.1-0.18-0.02 0.02-0.03 0.04 0.07-0.07 0.07-0.18 0-0.1-0.07-0.17-0.07-0.07-0.18-0.08-0.1 0-0.17 0.08z"/>
    <path id="&lt;Path&gt;" class="s0" d="m33.82 43.92q-0.16 0.74-0.29 1.5-0.11 0.69-0.26 1.38-0.16 0.71-0.37 1.41-0.22 0.71-0.44 1.41-0.24 0.74-0.49 1.47-0.23 0.67-0.47 1.35-0.24 0.67-0.44 1.34-0.11 0.36-0.22 0.71-0.03 0.12-0.07 0.24-0.04 0.07-0.04 0.15 0.01 0.14 0.12 0.21 0.13 0.07 0.26 0 0.03-0.02 0.06-0.05 0.14 0.16 0.27 0.31 0.17 0.2 0.33 0.41 0.36 0.42 0.71 0.85-0.01 0-0.01-0.01 0.2 0.25 0.38 0.51 0.09 0.13 0.17 0.27c0.08 0.13 0.24 0.2 0.39 0.12q0.09-0.07 0.13-0.18 0.01-0.03 0.02-0.07 0.05-0.1 0.12-0.19-0.01 0.01-0.02 0.01 0.01-0.01 0.02-0.02 0.01-0.02 0.02-0.03 0 0.01-0.01 0.02 0.19-0.23 0.38-0.45 0.2-0.21 0.39-0.43 0.2-0.22 0.42-0.4 0 0-0.01 0 0.03-0.01 0.05-0.03 0 0-0.01 0 0.02-0.01 0.03-0.02 0 0 0.01-0.01 0 0.01-0.01 0.01 0.08-0.06 0.15-0.11 0.11-0.07 0.22-0.13 0.13-0.07 0.27-0.13-0.03 0.02-0.06 0.03c0.11-0.05 0.23-0.08 0.31-0.17 0.09-0.1 0.11-0.23 0.13-0.36q0.02-0.11 0.04-0.23 0.05-0.4 0.06-0.8 0.02-0.77-0.03-1.54-0.03-0.77-0.06-1.54-0.02-0.8-0.02-1.59 0.01-0.83 0.04-1.65 0-0.33 0.02-0.65 0-0.18 0.02-0.35 0.02-0.19 0.05-0.38 0.05-0.38 0.06-0.76 0.01-0.25-0.03-0.5-0.02-0.24-0.02-0.49c-0.01-0.14-0.11-0.25-0.25-0.25-0.14 0-0.26 0.11-0.25 0.25q0.01 0.26 0.03 0.53 0.03 0.3 0.02 0.61-0.03 0.44-0.1 0.89-0.04 0.33-0.04 0.66-0.02 0.39-0.02 0.77-0.05 1.57 0 3.15 0.03 0.82 0.07 1.65 0.03 0.76-0.01 1.53 0 0.18-0.03 0.36 0-0.01 0-0.01-0.01 0.09-0.02 0.18-0.02 0.09-0.04 0.17-0.16 0.07-0.32 0.15-0.14 0.07-0.27 0.15-0.14 0.1-0.28 0.21 0 0 0.01 0-0.04 0.03-0.09 0.07-0.12 0.1-0.23 0.22-0.15 0.14-0.28 0.3-0.29 0.31-0.56 0.63-0.1 0.11-0.18 0.22-0.14-0.19-0.29-0.37-0.4-0.52-0.81-1.01-0.18-0.21-0.36-0.42-0.1-0.12-0.2-0.24-0.07-0.08-0.14-0.15-0.04-0.05-0.09-0.09 0.09-0.31 0.18-0.63 0.22-0.71 0.47-1.4 0.22-0.63 0.44-1.27 0.25-0.73 0.49-1.47 0.21-0.66 0.42-1.32 0.09-0.33 0.18-0.66 0.1-0.37 0.19-0.75c0.23-0.98 0.35-1.99 0.57-2.97 0.03-0.13-0.04-0.27-0.17-0.31q-0.03-0.01-0.07-0.01c-0.11 0-0.22 0.08-0.24 0.19z"/>
    <path id="&lt;Path&gt;" class="s0" d="m40.12 34.73c-0.13 0.04-0.21 0.18-0.17 0.31q0 0.03 0.01 0.06 0.01 0.22-0.01 0.45-0.03 0.1-0.07 0.2-0.02 0.04-0.04 0.08-0.08 0.08-0.18 0.16-0.19 0.14-0.39 0.26-0.21 0.12-0.43 0.2 0.04-0.01 0.07-0.02-0.12 0.04-0.24 0.07-0.05 0.02-0.1 0.02-0.38 0.03-0.76 0-0.39-0.05-0.78-0.06c-0.28-0.01-0.55 0.04-0.82 0.08q-0.41 0.06-0.83 0.13 0.04-0.01 0.07-0.01-0.33 0.04-0.66 0.07-0.32 0.02-0.64 0.03-0.65 0.01-1.3 0.04-0.37 0.01-0.74 0.01-0.34-0.02-0.68-0.06-0.31-0.04-0.62-0.07-0.23-0.02-0.45-0.03-0.26-0.06-0.51-0.17-0.09-0.03-0.17-0.08-0.08-0.08-0.15-0.16-0.02-0.02-0.04-0.05 0.04-0.2 0.09-0.39c0.03-0.13-0.04-0.27-0.17-0.31-0.13-0.03-0.28 0.05-0.31 0.18q-0.07 0.26-0.11 0.53 0 0.1 0.05 0.2 0.06 0.12 0.15 0.22 0.08 0.08 0.16 0.16 0.07 0.06 0.16 0.1 0.15 0.07 0.3 0.12 0.15 0.05 0.29 0.1 0.16 0.04 0.32 0.05 0.17 0.02 0.35 0.02 0.23 0.02 0.46 0.05 0.53 0.08 1.06 0.09 0.56-0.01 1.12-0.04 0.51-0.01 1.02-0.02 0.51-0.03 1.02-0.09 0.25-0.03 0.5-0.08 0.33-0.05 0.66-0.09-0.01 0-0.01 0 0.24-0.03 0.48-0.03 0.29 0.01 0.58 0.05c0.4 0.03 0.8 0.05 1.18-0.03q0.2-0.05 0.37-0.15 0.11-0.04 0.22-0.1 0.27-0.14 0.5-0.33 0.11-0.07 0.21-0.16 0.07-0.06 0.13-0.15 0.07-0.14 0.13-0.3 0.03-0.1 0.04-0.2 0.01-0.15 0.02-0.29 0.01-0.2-0.03-0.39c-0.03-0.11-0.14-0.18-0.25-0.18q-0.03 0-0.06 0z"/>
    <path id="&lt;Path&gt;" class="s0" d="m35.37 30.69q-1.58 0.04-3.15 0.21-1.31 0.16-2.62 0.29-0.64 0.05-1.28 0.12-0.36 0.04-0.71 0.08-0.38 0.06-0.77 0.13-0.6 0.11-1.19 0.24-0.68 0.14-1.36 0.27-1.54 0.34-3.08 0.66c-0.13 0.03-0.21 0.18-0.17 0.31 0.04 0.13 0.17 0.2 0.3 0.17q1.66-0.35 3.31-0.7 0.82-0.17 1.64-0.33 0.34-0.08 0.68-0.14 0.43-0.07 0.85-0.14-0.04 0.01-0.07 0.01 0.35-0.04 0.69-0.08 0.41-0.03 0.81-0.07 0.81-0.08 1.62-0.17c1-0.11 2-0.23 3.01-0.29q1.61-0.1 3.21-0.08 0.82 0.01 1.63 0.04 0.39 0.02 0.77 0.04 0.18 0.01 0.35 0.02 0.25 0.03 0.5 0.05-0.01 0-0.01 0 0.36 0.04 0.72 0.12 0.24 0.06 0.49 0.14 0.29 0.08 0.57 0.16 0.12 0.03 0.24 0.07 0.15 0.04 0.31 0.07 0.25 0.05 0.51 0.09 0.26 0.05 0.53 0.09 0.25 0.06 0.5 0.11 0.24 0.06 0.49 0.12 0.21 0.05 0.43 0.08-0.01-0.01-0.02-0.01 0.35 0.05 0.7 0.07 0.19 0.02 0.39 0.04 0.09 0.01 0.18 0.04c0.12 0.07 0.27 0.03 0.34-0.09 0.06-0.11 0.03-0.27-0.09-0.34q-0.21-0.1-0.45-0.11-0.43-0.05-0.87-0.08-0.1-0.01-0.19-0.03 0.02 0.01 0.04 0.01-0.3-0.05-0.6-0.13-0.36-0.09-0.72-0.16-0.35-0.06-0.71-0.12-0.36-0.06-0.71-0.15-0.41-0.12-0.81-0.24-0.39-0.11-0.77-0.18-0.34-0.06-0.67-0.09-0.76-0.06-1.53-0.09-0.85-0.04-1.69-0.04-0.21-0.01-0.42-0.01-0.58 0-1.15 0.02z"/>
    <path id="&lt;Path&gt;" class="s0" d="m32.55 32.06q-0.31 0.03-0.62 0.09-0.31 0.07-0.6 0.18-0.21 0.08-0.42 0.17-0.14 0.05-0.26 0.12-0.13 0.07-0.25 0.15-0.28 0.18-0.56 0.36c-0.12 0.07-0.16 0.22-0.09 0.34 0.06 0.12 0.23 0.17 0.34 0.09q0.36-0.24 0.72-0.46 0.15-0.09 0.31-0.15-0.01 0-0.02 0.01 0.37-0.16 0.75-0.28 0.25-0.07 0.51-0.1-0.03 0-0.07 0.01 0.57-0.08 1.15-0.02-0.03-0.01-0.05-0.01 0.38 0.07 0.73 0.2-0.03-0.01-0.06-0.02 0.14 0.05 0.27 0.13 0.1 0.06 0.2 0.14 0.1 0.08 0.2 0.15-0.01 0-0.01 0 0.17 0.14 0.36 0.29 0.1 0.07 0.22 0.12 0.16 0.03 0.3-0.04c0.12-0.07 0.16-0.23 0.09-0.34q-0.1-0.15-0.28-0.12-0.02-0.01-0.04-0.03 0.01 0.01 0.01 0.02-0.01-0.01-0.03-0.03-0.01 0-0.02-0.01 0.01 0 0.02 0.01-0.17-0.14-0.33-0.27-0.22-0.17-0.44-0.32-0.17-0.1-0.37-0.17-0.11-0.05-0.24-0.08-0.32-0.1-0.66-0.14-0.15-0.01-0.31-0.01-0.23 0-0.45 0.02z"/>
    <path id="&lt;Path&gt;" class="s0" d="m36.05 31.71q-0.19 0.01-0.36 0.05-0.23 0.05-0.43 0.16-0.48 0.24-0.94 0.51c-0.12 0.07-0.16 0.22-0.09 0.34 0.07 0.12 0.22 0.16 0.34 0.09q0.33-0.19 0.66-0.37 0.18-0.09 0.36-0.18 0.17-0.07 0.36-0.09-0.04 0-0.07 0.01 0.25-0.04 0.49-0.03 0.23 0.04 0.45 0.09 0.24 0.06 0.46 0.16-0.02-0.01-0.05-0.02 0.24 0.1 0.46 0.23 0.32 0.19 0.61 0.4-0.01 0-0.01 0 0.01 0 0.01 0.01 0.02 0.01 0.04 0.03-0.01-0.01-0.03-0.03c0.18 0.16 0.32 0.37 0.56 0.42q0.1 0.03 0.2-0.02 0.08-0.06 0.11-0.15c0.03-0.13-0.04-0.29-0.18-0.31q-0.02-0.01-0.04-0.01-0.01-0.01-0.03-0.02-0.13-0.12-0.25-0.25-0.31-0.25-0.65-0.45-0.23-0.14-0.46-0.25-0.31-0.14-0.62-0.22-0.31-0.08-0.62-0.11-0.03-0.01-0.07-0.01-0.11 0.01-0.21 0.02z"/>
    <path id="&lt;Path&gt;" class="s0" d="m33.19 24.75q-0.02 0.01-0.06 0.02-0.14 0.01-0.28 0.05-0.23 0.08-0.43 0.23-0.41 0.28-0.79 0.6-0.42 0.35-0.8 0.76-0.28 0.31-0.55 0.61-0.22 0.25-0.43 0.5-0.07 0.08-0.07 0.18 0 0.1 0.07 0.17 0.08 0.08 0.18 0.08 0.1 0 0.18-0.08 0.23-0.28 0.48-0.55 0.31-0.36 0.64-0.7 0.38-0.4 0.8-0.74 0.21-0.15 0.42-0.3 0.19-0.16 0.42-0.27 0.1-0.03 0.21-0.05-0.02 0-0.03 0 0.02 0 0.04 0 0.01 0 0.02 0-0.01 0-0.02 0 0.07 0.02 0.14 0 0.16-0.05 0.18-0.2 0 0.01 0 0.02 0.01-0.03 0.01-0.08c0.01-0.08-0.05-0.18-0.12-0.22q-0.07-0.04-0.14-0.04-0.03 0.01-0.07 0.01z"/>
    <path id="&lt;Path&gt;" class="s0" d="m36.24 24.65c-0.14 0.01-0.25 0.1-0.25 0.25 0 0.13 0.11 0.26 0.25 0.25q0.14-0.01 0.28 0 0.09 0.02 0.18 0.05 0.29 0.14 0.56 0.3 0.19 0.12 0.37 0.26-0.02-0.02-0.05-0.04 0.23 0.18 0.46 0.37 0.19 0.17 0.35 0.37 0 0-0.01-0.01 0.01 0.01 0.02 0.03 0.01 0.01 0.02 0.02 0 0-0.01-0.01 0.1 0.13 0.18 0.26 0.06 0.1 0.13 0.2 0.35 0.54 0.77 1.04c0.09 0.1 0.27 0.09 0.35 0q0.08-0.08 0.08-0.18 0-0.1-0.08-0.18-0.17-0.21-0.34-0.43-0.23-0.3-0.43-0.63-0.16-0.26-0.36-0.5-0.26-0.31-0.59-0.55-0.2-0.16-0.4-0.31-0.16-0.12-0.34-0.21c-0.22-0.14-0.44-0.27-0.69-0.32q-0.16-0.04-0.32-0.04-0.07 0-0.13 0.01z"/>
    <path id="&lt;Path&gt;" class="s0" d="m34.21 27.34q-0.03 0.56-0.02 1.13 0.02 0.21 0.04 0.41 0.01 0.29 0.02 0.58c0 0.14 0.11 0.25 0.25 0.25 0.13 0 0.25-0.11 0.25-0.25q-0.01-0.29-0.02-0.58-0.02-0.21-0.04-0.41-0.01-0.57 0.02-1.13c0-0.14-0.12-0.25-0.25-0.25-0.14 0-0.25 0.11-0.25 0.25z"/>
    <path id="&lt;Path&gt;" class="s0" d="m35.05 27.14q0.03 0.6 0.12 1.19 0.04 0.27 0.1 0.54 0.04 0.22 0.1 0.43c0.03 0.13 0.18 0.21 0.3 0.17 0.14-0.04 0.21-0.17 0.18-0.3q-0.05-0.22-0.1-0.43-0.06-0.29-0.1-0.57 0 0 0 0.01-0.03-0.19-0.05-0.38-0.03-0.33-0.05-0.66c0-0.13-0.11-0.25-0.25-0.25-0.13 0-0.25 0.12-0.25 0.25z"/>
  </g>

  <!-- ═══ LEFT ARM (4 paths) ═══ -->
  <g id="left-arm">
    <path id="&lt;Path&gt;" class="s0" d="m14.29 38.72c-0.1 0.1-0.09 0.25 0 0.36q0.02 0.01 0.03 0.03 0.06 0.09 0.13 0.17 0.11 0.14 0.26 0.22 0.24 0.11 0.49 0.17 0.23 0.05 0.45 0.11 0.29 0.08 0.58 0.15 0.14 0.03 0.29 0.09-0.02-0.01-0.05-0.02 0.44 0.21 0.86 0.44 0.15 0.07 0.3 0.14 0.27 0.11 0.54 0.22 0.64 0.27 1.3 0.46 0.28 0.09 0.57 0.16 0.35 0.11 0.69 0.25-0.03-0.01-0.06-0.02 0.26 0.11 0.53 0.22-0.02 0-0.03-0.01 0.39 0.17 0.78 0.33 0.07 0.02 0.14 0.05-0.03-0.01-0.06-0.02 0.36 0.15 0.73 0.3 0.29 0.1 0.57 0.22-0.02-0.01-0.04-0.02 0.59 0.26 1.16 0.52 0.55 0.24 1.11 0.46-0.02-0.01-0.04-0.02 0.41 0.19 0.81 0.38 0.29 0.15 0.57 0.33 0.23 0.14 0.46 0.26 0.18 0.08 0.33 0.19 0.04 0.03 0.08 0.06 0.09 0.06 0.21 0.05c0.15 0 0.28-0.09 0.4-0.16q0.34-0.22 0.66-0.45 0.31-0.22 0.61-0.46-0.01 0.01-0.01 0.01 1.34-1.03 2.65-2.11 0.68-0.55 1.35-1.12 0.33-0.3 0.66-0.6 0.11-0.11 0.23-0.22 0 0.01-0.01 0.01 0.01-0.01 0.02-0.02 0.02-0.01 0.03-0.02-0.01 0.01-0.02 0.02 0.04-0.03 0.09-0.05 0.19-0.06 0.39-0.09c0.14-0.03 0.21-0.18 0.18-0.31-0.04-0.14-0.17-0.2-0.31-0.18q-0.21 0.03-0.41 0.1-0.23 0.1-0.41 0.28-0.3 0.28-0.61 0.56-0.39 0.34-0.79 0.67-1.66 1.38-3.36 2.7 0.01-0.01 0.02-0.01-0.09 0.07-0.19 0.14 0.01 0 0.01 0-0.01 0.01-0.03 0.02-0.01 0.01-0.02 0.02 0-0.01 0.01-0.01-0.32 0.23-0.63 0.45-0.18 0.12-0.36 0.24-0.07 0.04-0.14 0.08-0.08-0.06-0.16-0.11-0.11-0.06-0.21-0.11-0.3-0.16-0.6-0.34-0.18-0.11-0.37-0.22-0.26-0.13-0.52-0.24-0.53-0.24-1.06-0.46 0.03 0.01 0.06 0.03-0.36-0.15-0.7-0.31-0.38-0.17-0.76-0.34-0.32-0.14-0.66-0.26-0.37-0.13-0.72-0.29 0.01 0 0.02 0.01-0.05-0.02-0.09-0.04-0.04-0.01-0.07-0.03 0.02 0.01 0.04 0.02-0.4-0.17-0.79-0.33 0.03 0.01 0.06 0.02-0.07-0.03-0.13-0.05 0.01 0 0.02 0.01-0.39-0.18-0.79-0.33-0.36-0.12-0.72-0.22-0.17-0.05-0.34-0.1-0.23-0.07-0.47-0.15-0.37-0.13-0.73-0.28 0.02 0.01 0.03 0.01-0.46-0.18-0.89-0.4c-0.34-0.17-0.67-0.37-1.03-0.47q-0.31-0.08-0.62-0.16-0.16-0.04-0.32-0.08-0.27-0.06-0.54-0.16 0.03 0.01 0.06 0.02-0.05-0.02-0.09-0.04-0.03-0.04-0.07-0.07-0.09-0.13-0.19-0.25-0.07-0.07-0.17-0.07-0.1 0-0.18 0.07z"/>
    <path id="&lt;Path&gt;" class="s0" d="m18.58 28.41q-0.13 0.07-0.25 0.14-0.24 0.16-0.44 0.36-0.16 0.13-0.3 0.27-0.12 0.14-0.24 0.28-0.16 0.22-0.32 0.44-0.15 0.22-0.28 0.45-0.23 0.4-0.41 0.83-0.1 0.23-0.19 0.47-0.11 0.29-0.19 0.58-0.07 0.29-0.09 0.6-0.02 0.28-0.02 0.57-0.01 0.27 0.01 0.55 0.03 0.37 0.16 0.72 0.07 0.19 0.16 0.38 0.07 0.15 0.16 0.29 0.2 0.35 0.43 0.68 0.13 0.18 0.27 0.35 0.12 0.14 0.26 0.26 0.18 0.18 0.41 0.3 0.1 0.05 0.21 0.09 0.1 0.03 0.19-0.03 0.09-0.05 0.12-0.15 0.03-0.09-0.03-0.19-0.05-0.08-0.15-0.11-0.02-0.01-0.04-0.02-0.13-0.07-0.25-0.15-0.23-0.19-0.42-0.42 0 0.01 0.01 0.02-0.01-0.02-0.03-0.04 0 0-0.01-0.01 0.01 0 0.01 0.01-0.23-0.31-0.43-0.64-0.11-0.18-0.21-0.36-0.09-0.17-0.16-0.35 0.01 0.03 0.02 0.06-0.04-0.1-0.08-0.21-0.03-0.09-0.05-0.18-0.03-0.14-0.05-0.27 0.01 0.03 0.01 0.06-0.03-0.38-0.02-0.77 0.01-0.4 0.06-0.79 0 0.01 0 0.03c0.07-0.36 0.21-0.7 0.35-1.04q-0.01 0.02-0.02 0.03 0.18-0.41 0.38-0.8 0.23-0.43 0.53-0.81 0-0.01 0.01-0.02 0.01-0.01 0.03-0.03-0.01 0.01-0.01 0.01 0.13-0.17 0.28-0.33 0.26-0.26 0.55-0.49 0.16-0.1 0.32-0.19c0.12-0.06 0.16-0.23 0.09-0.34q-0.08-0.12-0.21-0.12-0.07 0-0.13 0.03z"/>
    <path id="&lt;Path&gt;" class="s0" d="m20.99 32.19c-0.13 0.03-0.21 0.17-0.17 0.3q0.08 0.3 0.15 0.6 0.06 0.27 0.1 0.55 0.01 0.13 0.01 0.27c0.01 0.13 0.12 0.25 0.25 0.25 0.14 0 0.26-0.12 0.25-0.25q-0.01-0.28-0.05-0.55-0.04-0.24-0.09-0.47-0.07-0.27-0.14-0.53c-0.03-0.11-0.13-0.18-0.24-0.18q-0.03 0-0.07 0.01z"/>
    <path id="&lt;Path&gt;" class="s0" d="m20.22 23.83q-0.09 0.03-0.15 0.12-0.05 0.09-0.02 0.19 0.03 0.1 0.11 0.15 0.11 0.09 0.23 0.17 0.11 0.07 0.22 0.13 0.24 0.15 0.49 0.3 0.35 0.22 0.73 0.38 0.33 0.12 0.67 0.19 0.44 0.09 0.88 0.13-0.01 0-0.03 0 0.42 0.07 0.83 0.13 0.17 0.02 0.35 0.02 0.17 0 0.35-0.03-0.01 0-0.01 0.01 0.01-0.01 0.02-0.01 0.02 0 0.05 0-0.01 0-0.01 0 0.73-0.11 1.43-0.32 0.18-0.05 0.36-0.1 0.31-0.1 0.6-0.25 0.25-0.12 0.47-0.28 0.25-0.17 0.5-0.34c0.12-0.08 0.16-0.22 0.09-0.34-0.06-0.11-0.23-0.17-0.34-0.09q-0.28 0.19-0.56 0.38-0.27 0.18-0.57 0.32 0.01 0 0.02-0.01-0.02 0.01-0.03 0.01-0.02 0.01-0.04 0.02 0.01-0.01 0.03-0.01-0.28 0.1-0.55 0.18-0.24 0.06-0.48 0.13-0.51 0.14-1.04 0.21 0.02 0 0.02 0 0 0-0.01 0 0.01 0 0.02 0-0.01 0-0.03 0-0.02 0-0.03 0.01 0.01 0 0.02-0.01-0.37 0.03-0.74-0.02 0.04 0.01 0.07 0.02-0.24-0.04-0.48-0.09-0.31-0.04-0.62-0.08 0.02 0 0.03 0.01-0.32-0.05-0.64-0.13-0.27-0.06-0.52-0.16 0.03 0.01 0.06 0.02-0.34-0.16-0.65-0.36-0.23-0.13-0.45-0.27-0.12-0.07-0.23-0.14-0.12-0.08-0.23-0.16-0.05-0.04-0.12-0.04-0.04 0-0.07 0.01z"/>
  </g>

  <!-- ═══ RIGHT ARM (4 paths) ═══ -->
  <g id="right-arm">
    <path id="&lt;Path&gt;" class="s0" d="m50.13 37.27q-0.09 0.01-0.18 0.03-0.11 0.03-0.23 0.06-0.16 0.04-0.32 0.06 0.03-0.01 0.07-0.01-0.14 0.01-0.29 0.02-0.2 0.02-0.4 0.06-0.49 0.05-0.98 0.08-0.22 0.01-0.44 0.04-0.2 0.02-0.4 0.07-0.51 0.09-1.01 0.19-0.96 0.18-1.93 0.32 0.02 0 0.04-0.01-0.76 0.1-1.53 0.16-0.75 0.05-1.5 0.06-0.83 0.02-1.67 0.08-0.81 0.05-1.62 0.12-1.59 0.12-3.18 0.23-1.57 0.11-3.15 0.2-0.77 0.04-1.54 0.06-0.81 0-1.62-0.01c-1.06-0.03-2.12-0.11-3.18-0.16q-0.75-0.03-1.51-0.05-0.84-0.01-1.69-0.01-0.81 0-1.61-0.01-0.8-0.01-1.59-0.05-0.49-0.02-0.98-0.04-0.64-0.03-1.27-0.05-0.51-0.01-1.01-0.03-0.57-0.01-1.14-0.04-1.02-0.04-2.04-0.05-0.52 0-1.04 0.01-0.64 0.01-1.28 0.05c-0.13 0.01-0.25 0.11-0.25 0.25 0 0.13 0.12 0.26 0.25 0.25q0.85-0.05 1.7-0.06 0.76 0 1.51 0.02 1.54 0.05 3.08 0.09 0.8 0.02 1.61 0.06 0.75 0.04 1.5 0.07 1.6 0.03 3.19 0.03 1.62 0.01 3.24 0.1 1.55 0.1 3.1 0.13 0.79 0.01 1.58-0.02 0.76-0.02 1.53-0.07 1.6-0.09 3.2-0.21 1.62-0.11 3.23-0.24 0.77-0.06 1.53-0.11 0.2-0.01 0.4-0.02 0.16-0.01 0.32-0.01 0.42-0.01 0.84-0.02 0.76-0.02 1.52-0.09 0.35-0.02 0.7-0.07 0.44-0.06 0.88-0.12 0.71-0.11 1.42-0.24 0.68-0.13 1.36-0.26-0.02 0-0.05 0 0.03 0 0.06 0 0.01 0 0.01 0 0.49-0.05 1-0.08 0.31-0.03 0.63-0.08 0.27-0.02 0.54-0.05 0.16-0.02 0.32-0.06 0.1-0.02 0.19-0.05 0.11-0.03 0.21-0.04c0.14-0.03 0.21-0.18 0.18-0.31q-0.03-0.1-0.12-0.15-0.06-0.03-0.12-0.03-0.04 0-0.07 0.01z"/>
    <path id="&lt;Path&gt;" class="s0" d="m51.04 37.24q-0.34 0.15-0.68 0.32-0.14 0.07-0.28 0.14-0.29 0.16-0.6 0.29 0.02-0.01 0.04-0.02-0.25 0.11-0.5 0.21-0.4 0.18-0.78 0.38-0.38 0.19-0.75 0.4-0.35 0.21-0.71 0.44-0.48 0.3-0.95 0.61-0.47 0.3-0.95 0.57-0.39 0.23-0.79 0.44-0.54 0.27-1.09 0.51 0.03-0.02 0.06-0.03-0.34 0.14-0.67 0.28 0.03-0.01 0.06-0.02-0.87 0.37-1.72 0.75-0.43 0.2-0.85 0.39 0.03-0.02 0.06-0.03-0.04 0.01-0.08 0.02-0.03 0.01-0.05 0.01-0.05-0.01-0.1-0.03-0.05-0.02-0.09-0.05 0.01 0 0.02 0.01-0.02-0.01-0.03-0.02-0.01-0.01-0.02-0.01 0 0 0.01 0-0.18-0.15-0.36-0.31-0.26-0.23-0.52-0.46-0.3-0.26-0.6-0.52-0.25-0.22-0.51-0.43 0.01 0.01 0.02 0.02-0.04-0.03-0.08-0.06-0.05-0.04-0.1-0.08-0.02-0.02-0.04-0.03-0.02-0.01-0.04-0.03 0.01 0.01 0.01 0.01-0.01-0.01-0.01-0.01-0.02-0.01-0.04-0.03 0.01 0.01 0.02 0.02-0.06-0.06-0.13-0.11-0.08-0.06-0.16-0.12 0 0 0.01 0.01-0.03-0.02-0.05-0.04-0.42-0.31-0.84-0.61-0.54-0.38-1.07-0.77c-0.11-0.08-0.28-0.02-0.34 0.09q-0.06 0.09-0.03 0.2 0.03 0.09 0.12 0.15 0.51 0.37 1.03 0.73 0.21 0.15 0.42 0.3 0.19 0.14 0.38 0.28 0 0-0.01-0.01 0.02 0.01 0.03 0.03 0.01 0 0.02 0.01 0 0-0.01-0.01 0.02 0.02 0.05 0.04 0 0-0.01-0.01 0.02 0.01 0.03 0.03 0.01 0 0.02 0.01 0 0-0.01 0 0.04 0.03 0.08 0.06 0.02 0.02 0.05 0.04 0.01 0 0.01 0 0.01 0.01 0.02 0.02 0.06 0.05 0.13 0.1 0 0 0.01 0.01 0.1 0.07 0.19 0.14 0.04 0.03 0.07 0.06-0.02-0.01-0.05-0.04 0.8 0.68 1.57 1.37 0.17 0.14 0.34 0.28 0.1 0.09 0.2 0.15 0.11 0.07 0.24 0.09 0.16 0.04 0.31 0.01 0.11-0.02 0.21-0.08 0.08-0.03 0.15-0.06 0.26-0.12 0.51-0.23 0.86-0.39 1.72-0.76-0.01 0-0.02 0.01 0.08-0.04 0.16-0.07-0.03 0.01-0.06 0.02 0.48-0.19 0.95-0.4 0.51-0.23 0.99-0.49 0.38-0.2 0.75-0.42 0.25-0.14 0.5-0.3 0.23-0.14 0.46-0.3 0.43-0.28 0.87-0.55 0.33-0.21 0.68-0.41 0.35-0.2 0.71-0.38 0.37-0.19 0.74-0.36-0.03 0.02-0.06 0.03 0.31-0.12 0.61-0.25 0.31-0.14 0.61-0.31 0.42-0.21 0.84-0.4c0.12-0.06 0.15-0.23 0.09-0.34q-0.08-0.13-0.21-0.13-0.07 0-0.13 0.04z"/>
    <path id="&lt;Path&gt;" class="s0" d="m45.15 32.06q-0.27 0.01-0.53 0.08-0.4 0.1-0.8 0.17c-0.45 0.09-0.88 0.21-1.33 0.27q0.04 0 0.07-0.01-0.39 0.05-0.78 0.08-0.5 0.05-0.98 0.13-0.63 0.08-1.26 0.13-0.61 0.04-1.21 0.11-0.65 0.08-1.31 0.15-0.72 0.08-1.46 0.12-0.74 0.06-1.5 0.07-0.77 0-1.53-0.06-0.76-0.06-1.52-0.08-0.66-0.03-1.32-0.06-0.63-0.02-1.25-0.01-0.62 0-1.24-0.01-1.22-0.02-2.43-0.15-0.61-0.1-1.21-0.22-0.23-0.04-0.47-0.05-0.51-0.01-1.02 0.04c-0.13 0.01-0.25 0.11-0.25 0.25 0 0.13 0.12 0.26 0.25 0.25q0.39-0.03 0.78-0.04 0.2-0.01 0.39 0.01 0 0-0.01-0.01 0.01 0.01 0.02 0.01 0.02 0 0.05 0-0.01 0-0.02 0 0.38 0.06 0.77 0.14 0.26 0.05 0.52 0.09 0.35 0.05 0.7 0.08 0.79 0.06 1.58 0.09 0.73 0.02 1.47 0.02 0.72-0.01 1.42 0.01 0.67 0.03 1.32 0.06 0.78 0.03 1.56 0.09 0.73 0.05 1.47 0.05 0.52-0.01 1.03-0.04 0.5-0.03 1.01-0.06 1-0.09 2-0.22 0.83-0.09 1.66-0.16 0.46-0.04 0.93-0.09 0.42-0.06 0.85-0.12-0.02 0-0.04 0 0.47-0.04 0.94-0.09 0.25-0.02 0.49-0.07 0.2-0.04 0.4-0.09 0.37-0.08 0.74-0.15 0.29-0.06 0.57-0.13 0.18-0.05 0.37-0.08 0.05 0 0.11 0c0.14-0.01 0.25-0.11 0.25-0.25 0-0.13-0.11-0.25-0.24-0.25q-0.01 0-0.01 0z"/>
    <path id="&lt;Path&gt;" class="s0" d="m46.45 31.63q-0.07 0.07-0.07 0.17-0.06 0.4-0.08 0.8-0.01 0.15-0.02 0.3-0.01 0.1 0 0.21 0.01 0.1 0.08 0.17 0.07 0.08 0.17 0.08c0.13 0 0.26-0.12 0.25-0.25q-0.01-0.08 0-0.16 0.01-0.18 0.02-0.35 0.02-0.4 0.08-0.8 0-0.1-0.08-0.17-0.07-0.08-0.17-0.08-0.11 0-0.18 0.08z"/>
  </g>

  <!-- ═══ LEGS (8 paths) ═══ -->
  <g id="legs">
    <path id="&lt;Path&gt;" class="s0" d="m8.53 52.36c-0.04 0.14 0.04 0.26 0.17 0.31q0.15 0.04 0.31 0.04 0.2 0.03 0.41 0.05-0.01 0-0.01 0 0.18 0.03 0.37 0.09 0.2 0.06 0.4 0.07 0.24 0.03 0.48 0.03 0.31-0.01 0.61-0.03 0.36-0.02 0.72-0.04 0.52-0.01 1.04-0.03 0.6-0.03 1.21-0.03 1.45-0.01 2.9 0 1.55 0.01 3.1 0 0.78-0.02 1.55-0.02 0.82 0 1.64 0.01 0.73 0.01 1.46 0.03 0.7 0.01 1.39 0 0.78 0.01 1.56 0.02 0.69 0.01 1.37-0.01 0.6 0 1.19-0.02 0.6-0.02 1.19 0.01c0.13 0.01 0.25-0.12 0.25-0.25 0-0.15-0.12-0.24-0.25-0.25q-0.39-0.02-0.78-0.02-0.25 0.01-0.51 0.02-0.72 0.02-1.44 0.02c-0.96 0.01-1.92-0.02-2.89-0.02q-0.73 0.01-1.46-0.01-0.72-0.02-1.44-0.03-0.83 0-1.65 0-0.78 0.01-1.55 0.02-1.5 0.01-3 0-1.51-0.01-3.01 0-0.52 0.01-1.05 0.04-0.51 0.01-1.02 0.03-0.63 0.05-1.25 0.06-0.18 0-0.35-0.02-0.22-0.04-0.43-0.11-0.23-0.05-0.46-0.07-0.2-0.03-0.4-0.05-0.03-0.01-0.06-0.02-0.04-0.01-0.07-0.01c-0.11 0-0.21 0.09-0.24 0.19z"/>
    <path id="&lt;Path&gt;" class="s0" d="m48.34 50.53q-0.22 0.07-0.45 0.1 0.02 0 0.03 0-0.14 0.01-0.27 0.04-0.15 0.04-0.29 0.07-0.25 0.07-0.51 0.12-0.33 0.07-0.66 0.15-0.18 0.04-0.36 0.08-0.26 0.06-0.52 0.09 0.04-0.01 0.07-0.01-0.59 0.08-1.18 0.21-0.52 0.11-1.03 0.17 0.01 0 0.02 0-0.54 0.06-1.08 0.13-0.64 0.08-1.28 0.14-0.29 0.02-0.57 0.05-0.28 0.02-0.56 0.02-0.21 0.01-0.41 0.03-0.16 0.02-0.33 0.05 0.01 0 0.02-0.01-0.27 0.04-0.53 0.06-0.26 0.02-0.53 0.03-0.33 0.02-0.67 0.06-0.38 0.05-0.75 0.11c-0.25 0.03-0.48 0.12-0.71 0.21-0.12 0.04-0.21 0.16-0.17 0.3 0.03 0.13 0.18 0.22 0.31 0.18q0.3-0.12 0.61-0.19 0.25-0.05 0.51-0.08-0.02 0-0.04 0.01 0.47-0.08 0.96-0.11 0.4-0.02 0.8-0.05 0.28-0.03 0.56-0.08-0.03 0.01-0.07 0.02 0.32-0.04 0.63-0.04 0.44-0.02 0.87-0.07 0.85-0.08 1.69-0.18 0.79-0.08 1.57-0.22 0.28-0.05 0.55-0.12 0.4-0.08 0.8-0.13-0.02 0.01-0.04 0.01 0.22-0.03 0.44-0.07 0.25-0.04 0.49-0.1 0.33-0.08 0.67-0.15 0.24-0.05 0.48-0.11 0.29-0.09 0.58-0.13-0.04 0-0.07 0.01 0.17-0.02 0.33-0.06c0.15-0.03 0.33-0.07 0.44-0.19 0.09-0.09 0.1-0.25 0-0.35q-0.08-0.07-0.18-0.07-0.1 0-0.17 0.07z"/>
    <path id="&lt;Path&gt;" class="s0" d="m10.4 44.25q-0.08 0.06-0.11 0.15-0.02 0.1 0.02 0.19 0.15 0.33 0.29 0.66 0.11 0.24 0.22 0.48 0.14 0.28 0.27 0.56 0.12 0.24 0.24 0.48 0.11 0.21 0.23 0.41 0.13 0.24 0.27 0.47 0.11 0.18 0.23 0.34c0.08 0.09 0.18 0.17 0.31 0.16q0.1-0.01 0.17-0.08 0.08-0.07 0.08-0.17c0-0.11-0.09-0.22-0.19-0.25q-0.17-0.24-0.31-0.5-0.25-0.43-0.47-0.86-0.49-0.96-0.91-1.95-0.04-0.09-0.14-0.11-0.04-0.01-0.07-0.01-0.07 0-0.13 0.03z"/>
    <path id="&lt;Path&gt;" class="s0" d="m13.59 42.21c-0.13 0.03-0.22 0.18-0.18 0.31q0.24 0.71 0.6 1.36 0.16 0.29 0.34 0.57 0.13 0.18 0.28 0.34 0.1 0.11 0.2 0.22 0.2 0.22 0.41 0.42 0.39 0.35 0.82 0.64 0.01 0 0.01 0.01-0.18 0.05-0.36 0.1-0.28 0.08-0.55 0.15-0.37 0.11-0.72 0.24-0.45 0.19-0.87 0.43c-0.27 0.15-0.53 0.33-0.81 0.46q-0.12 0.03-0.23 0.09c-0.12 0.08-0.16 0.22-0.09 0.35 0.06 0.11 0.23 0.16 0.34 0.08q0.07-0.02 0.14-0.05 0.11-0.05 0.22-0.1 0.28-0.16 0.55-0.33 0.42-0.23 0.86-0.43 0 0-0.01 0 0.01 0 0.02-0.01 0.02-0.01 0.04-0.02-0.01 0.01-0.01 0.01 0.26-0.11 0.53-0.19 0.3-0.08 0.59-0.16 0.42-0.1 0.82-0.25c0.11-0.04 0.27-0.07 0.33-0.2q0.08-0.16-0.04-0.3-0.08-0.07-0.17-0.11-0.13-0.06-0.26-0.15-0.24-0.16-0.48-0.34-0.58-0.5-1.07-1.08-0.15-0.2-0.28-0.43-0.07-0.13-0.15-0.27-0.18-0.33-0.33-0.67-0.09-0.26-0.18-0.52c-0.04-0.1-0.13-0.18-0.24-0.18q-0.04 0-0.07 0.01z"/>
    <path id="&lt;Path&gt;" class="s0" d="m16.57 46.26c-0.1 0.09-0.09 0.25 0 0.35q0.09 0.08 0.19 0.14 0.07 0.05 0.14 0.11 0-0.01 0-0.01 0.01 0.01 0.01 0.01 0.02 0.02 0.04 0.03-0.01-0.01-0.02-0.02 0.14 0.12 0.26 0.24 0.24 0.21 0.44 0.45 0.05 0.07 0.09 0.15 0.01 0.01 0.02 0.03 0 0.01-0.01 0.02-0.01 0.01-0.01 0.03-0.02 0.02-0.04 0.04-0.06 0.04-0.13 0.07-0.08 0.03-0.17 0.04-0.18 0.02-0.37 0 0.03 0 0.06 0.01-0.22-0.03-0.43-0.11-0.14-0.06-0.27-0.15-0.06-0.03-0.12-0.07-0.07-0.07-0.17-0.11-0.17-0.02-0.28 0.12c-0.07 0.1-0.03 0.21 0.02 0.31q0 0-0.01-0.01 0.08 0.18 0.1 0.37 0.02 0.14 0.01 0.27-0.02 0.09-0.04 0.17-0.03 0.04-0.05 0.08-0.03 0.02-0.05 0.05-0.02 0.01-0.04 0.02-0.03 0.01-0.06 0.02-0.07 0-0.14-0.01-0.23-0.05-0.45-0.14-0.12-0.05-0.24-0.13-0.08-0.05-0.17-0.11 0.01 0.01 0.02 0.01-0.01-0.01-0.02-0.02-0.02 0-0.03-0.01 0.01 0 0.02 0.01-0.13-0.12-0.26-0.22c-0.09-0.07-0.22-0.08-0.31-0.02q-0.09 0.05-0.13 0.16-0.01 0.08 0 0.16 0.02 0.07 0.05 0.14 0.03 0.08 0.06 0.17 0.06 0.17 0.1 0.35 0.01 0.09 0.01 0.19-0.01 0.04-0.02 0.08-0.01 0.01-0.01 0.01-0.01 0.01-0.02 0.02-0.12 0.04-0.25 0.06-0.01 0-0.02 0-0.02-0.01-0.05-0.02-0.28-0.14-0.52-0.34-0.13-0.1-0.25-0.21-0.07-0.05-0.12-0.12-0.01-0.05-0.02-0.1-0.04-0.48-0.06-0.97c-0.01-0.14-0.11-0.25-0.25-0.25-0.13 0-0.26 0.11-0.25 0.25q0.02 0.42 0.05 0.85 0.01 0.17 0.04 0.33c0.04 0.21 0.24 0.35 0.39 0.48q0.2 0.18 0.43 0.32 0.18 0.15 0.4 0.24 0.07 0.02 0.14 0.03 0.08 0.02 0.15 0 0.09-0.01 0.18-0.03 0.19-0.04 0.34-0.15c0.14-0.11 0.2-0.28 0.22-0.45q0.01-0.19-0.03-0.37 0.02 0.01 0.05 0.03 0.13 0.07 0.28 0.12 0.1 0.04 0.2 0.07 0.21 0.08 0.43 0.09 0.13 0 0.25-0.04 0.14-0.04 0.25-0.14c0.21-0.17 0.28-0.45 0.3-0.71q0.01-0.11 0-0.23 0.15 0.06 0.3 0.1 0.28 0.07 0.56 0.06 0.16 0 0.32-0.04 0.13-0.04 0.26-0.11 0.1-0.05 0.18-0.13 0.12-0.11 0.18-0.27 0.01-0.03 0.01-0.06 0.01-0.07 0-0.14-0.02-0.13-0.08-0.25-0.07-0.15-0.19-0.27-0.16-0.19-0.34-0.36-0.15-0.14-0.31-0.27-0.18-0.14-0.36-0.28-0.01 0-0.02-0.01-0.08-0.08-0.18-0.08-0.1 0-0.18 0.08z"/>
    <path id="&lt;Path&gt;" class="s0" d="m47.2 41.94q-0.32 1.09-0.6 2.18-0.14 0.5-0.28 0.99-0.07 0.21-0.15 0.42-0.08 0.21-0.16 0.42 0-0.01 0.01-0.03-0.01 0.02-0.02 0.03-0.03 0.01-0.05 0.02-0.09 0.06-0.12 0.15c-0.05 0.14-0.04 0.31 0.1 0.39q0.1 0.06 0.21 0.02c0.1-0.02 0.16-0.1 0.21-0.17q0.06-0.09 0.1-0.18 0.07-0.18 0.14-0.36 0.12-0.3 0.22-0.6 0.22-0.76 0.41-1.52 0.22-0.81 0.46-1.62c0.04-0.14-0.05-0.28-0.18-0.31q-0.03-0.01-0.06-0.01c-0.11 0-0.21 0.07-0.24 0.18z"/>
    <path id="&lt;Path&gt;" class="s0" d="m48.81 43.43q-0.06 0.86-0.16 1.71 0 0 0 0.01 0 0.03-0.01 0.05 0-0.01 0.01-0.02-0.08 0.5-0.17 0.99-0.03 0.16-0.06 0.31-0.02-0.01-0.05-0.01-0.23-0.07-0.46-0.1-0.56-0.1-1.11-0.17-0.28-0.03-0.56-0.04-0.19-0.01-0.39 0.01-0.23 0.03-0.45 0.08c-0.14 0.03-0.21 0.19-0.18 0.31 0.04 0.14 0.17 0.2 0.31 0.18q0.16-0.04 0.31-0.07 0.2-0.01 0.4-0.01 0.32 0.01 0.63 0.05 0.35 0.05 0.7 0.11 0.36 0.04 0.72 0.14c0.14 0.05 0.31 0.12 0.44 0.03q0.11-0.06 0.14-0.19 0.01-0.08 0.03-0.16 0.15-0.72 0.24-1.44 0.1-0.88 0.17-1.77c0.01-0.14-0.12-0.25-0.25-0.25-0.15 0-0.24 0.11-0.25 0.25z"/>
    <path id="&lt;Path&gt;" class="s0" d="m45.53 46.26q-0.12 0.01-0.22 0.07-0.26 0.15-0.47 0.36-0.13 0.13-0.24 0.27-0.06 0.08-0.11 0.16-0.05 0.08-0.1 0.17-0.09 0.2-0.12 0.42-0.01 0.11 0.01 0.23 0.01 0.07 0.04 0.14 0.06 0.08 0.14 0.14c0.15 0.13 0.38 0.11 0.56 0.06q0.33-0.11 0.62-0.29 0.03-0.02 0.06-0.04-0.04 0.1-0.06 0.2-0.02 0.17-0.03 0.33-0.01 0.2 0.07 0.37c0.07 0.13 0.23 0.21 0.37 0.22 0.22 0.02 0.41-0.12 0.56-0.26q0.1-0.1 0.19-0.23 0.05-0.08 0.11-0.16 0.04-0.06 0.08-0.13 0.03 0.15 0.08 0.29 0.07 0.22 0.26 0.36 0.07 0.04 0.15 0.07 0.11 0.03 0.22 0.02 0.19-0.02 0.34-0.15 0.09-0.06 0.15-0.14 0.04-0.06 0.09-0.13 0.06-0.11 0.11-0.22 0.1-0.19 0.17-0.4 0.09-0.25 0.13-0.52 0.04-0.17 0.01-0.36-0.03-0.15-0.11-0.28 0.01 0.01 0.01 0.02 0-0.01-0.01-0.02-0.01-0.02-0.02-0.04 0.02 0.02 0.02 0.04 0-0.02-0.01-0.05c-0.03-0.13-0.19-0.21-0.31-0.17-0.14 0.04-0.2 0.17-0.17 0.31q0.03 0.11 0.09 0.22 0.02 0.03 0.02 0.07 0.01 0.07 0 0.14-0.06 0.34-0.19 0.67-0.03 0.06-0.06 0.12-0.07 0.16-0.18 0.31-0.02 0.03-0.05 0.05-0.02 0.01-0.04 0.02-0.02 0.01-0.03 0.01-0.02 0-0.03 0-0.02-0.01-0.03-0.02-0.03-0.04-0.05-0.08-0.07-0.22-0.1-0.46-0.02-0.2-0.04-0.39-0.03-0.13-0.14-0.2-0.17-0.08-0.31 0.05-0.06 0.05-0.1 0.12-0.07 0.1-0.13 0.2-0.07 0.12-0.14 0.24-0.1 0.16-0.21 0.31 0.01-0.01 0.02-0.03-0.06 0.1-0.15 0.19-0.03 0.03-0.05 0.05-0.04 0.03-0.09 0.05 0-0.11 0.01-0.22 0.01-0.09 0.04-0.19 0.05-0.16 0.12-0.32-0.01 0.03-0.03 0.06 0.1-0.21 0.21-0.42 0.04-0.07 0.07-0.14 0.03-0.09 0.01-0.19c-0.01-0.08-0.1-0.15-0.17-0.17q-0.12-0.03-0.22 0.03-0.08 0.05-0.14 0.11-0.1 0.08-0.2 0.16-0.38 0.28-0.8 0.48-0.1 0.04-0.2 0.07-0.02 0-0.04 0 0-0.03 0-0.06 0.02-0.12 0.06-0.23 0.07-0.14 0.16-0.26-0.01 0.01-0.03 0.03 0.11-0.13 0.23-0.26 0.1-0.09 0.21-0.17-0.01 0-0.01 0 0 0 0.01 0 0.02-0.02 0.04-0.04-0.02 0.02-0.04 0.03 0.09-0.06 0.18-0.1 0.09 0 0.17 0.01c0.14 0 0.25-0.12 0.25-0.25 0-0.15-0.11-0.25-0.25-0.25q-0.08-0.01-0.16-0.01-0.03 0-0.06 0z"/>
  </g>

</svg>