<svg version="1.2" xmlns="http://www.w3.org/2000/svg" viewBox="0 0 51 63" width="51" height="63">
  <style>
    .s0 { fill: #161616 }
    #head      { transform-box: fill-box; transform-origin: 50% 100%; }
    #left-arm  { transform-box: fill-box; transform-origin: 100% 0%; }
    #right-arm { transform-box: fill-box; transform-origin: 0%   0%; }
    #body      { transform-box: fill-box; transform-origin: 50%  50%; }
    #legs      { transform-box: fill-box; transform-origin: 50%  0%; }
  </style>
  <g id="head">
    <path class="s0" d="m18.51 5.54q-0.37 0.05-0.63 0.32-0.13 0.16-0.21 0.36-0.15 0.35-0.19 0.72-0.01 0.14 0 0.29 0.01 0.14 0.05 0.27 0.04 0.19 0.09 0.37 0.1 0.42 0.2 0.84 0.1 0.36 0.21 0.72 0.06 0.19 0.12 0.38 0.08 0.26 0.17 0.51 0.05 0.14 0.09 0.28c0.05 0.13 0.17 0.22 0.31 0.18 0.13-0.03 0.22-0.18 0.18-0.31q-0.18-0.53-0.35-1.05-0.12-0.38-0.22-0.76-0.09-0.34-0.17-0.68-0.11-0.4-0.19-0.8 0-0.1 0.01-0.2 0-0.06 0.01-0.13 0.06-0.24 0.15-0.47 0.05-0.09 0.1-0.18 0.04-0.03 0.07-0.06 0.05-0.04 0.11-0.06 0.08-0.03 0.17-0.05 0.15-0.02 0.3 0 0.14 0.03 0.27 0.09-0.02-0.01-0.03-0.01 0.08 0.03 0.17 0.07 0.16 0.07 0.3 0.17 0.17 0.12 0.34 0.24-0.01 0-0.01 0 0.01 0 0.01 0.01 0.02 0.01 0.04 0.02-0.01 0-0.02-0.01 0.18 0.15 0.33 0.34 0.1 0.13 0.19 0.28 0.15 0.23 0.26 0.49 0.28 0.71 0.47 1.45 0.07 0.28 0.12 0.56 0.03 0.17 0.07 0.34 0.04 0.14 0.1 0.27 0.06 0.09 0.15 0.12 0.1 0.02 0.2-0.03 0.08-0.05 0.11-0.15 0.02-0.1-0.02-0.19-0.01-0.01-0.01-0.02-0.09-0.27-0.13-0.56-0.07-0.36-0.18-0.72-0.1-0.36-0.22-0.71c-0.13-0.4-0.28-0.79-0.51-1.14q-0.13-0.2-0.29-0.4-0.12-0.15-0.28-0.27-0.14-0.12-0.29-0.22-0.21-0.16-0.43-0.28-0.16-0.07-0.31-0.13-0.12-0.05-0.24-0.09-0.08-0.02-0.18-0.03-0.05 0-0.1 0-0.13 0-0.26 0.02z"/>
    <path class="s0" d="m30.48 4.79q-0.3 0-0.59 0.07-0.34 0.08-0.62 0.29-0.12 0.11-0.22 0.24-0.11 0.16-0.18 0.34-0.13 0.37-0.2 0.76-0.14 0.62-0.26 1.25-0.05 0.32-0.08 0.65-0.03 0.27-0.03 0.53 0 0.29-0.02 0.58-0.01 0.04-0.01 0.08-0.02 0-0.03 0-0.21-0.04-0.41-0.08-0.29-0.05-0.57-0.1-0.36-0.07-0.72-0.13-0.17-0.03-0.35-0.05-0.21-0.01-0.42 0-0.44 0.03-0.88 0.09-0.2 0.02-0.4 0.05-0.38 0.05-0.75 0.12-0.12 0.03-0.24 0.07-0.12 0.04-0.23 0.08-0.23 0.08-0.44 0.16-0.58 0.22-1.16 0.44-0.1 0.03-0.15 0.12-0.05 0.09-0.03 0.19c0.04 0.12 0.18 0.22 0.31 0.17q0.77-0.29 1.54-0.57 0.32-0.13 0.67-0.2 0.21-0.04 0.42-0.07 0.19-0.02 0.39-0.05-0.01 0-0.02 0 0.03 0 0.05-0.01 0.01 0 0.02 0 0 0-0.01 0 0.36-0.04 0.72-0.07 0.17-0.02 0.35-0.03 0.18 0 0.35 0.02-0.04 0-0.07-0.01 0.67 0.11 1.34 0.23 0.24 0.05 0.48 0.09 0.13 0.04 0.27 0.04 0.19 0 0.33-0.14c0.11-0.11 0.13-0.28 0.15-0.43q0.01-0.16 0.02-0.33 0-0.18 0-0.37 0.01-0.34 0.06-0.68 0 0 0 0 0.05-0.37 0.13-0.74 0.07-0.33 0.14-0.67 0.08-0.43 0.22-0.85 0.06-0.11 0.13-0.22 0.05-0.06 0.12-0.12 0.11-0.08 0.24-0.13-0.01 0-0.02 0 0.19-0.07 0.4-0.1 0.18-0.02 0.37-0.01 0.04 0.01 0.08 0.02 0.03 0.02 0.06 0.04 0.08 0.07 0.16 0.16-0.01 0-0.02-0.01 0.01 0.01 0.02 0.02 0.01 0.01 0.02 0.03 0-0.01-0.01-0.01 0.18 0.24 0.31 0.51 0.12 0.35 0.17 0.71-0.01-0.03-0.01-0.06 0.03 0.3 0.04 0.6 0.01 0.33-0.01 0.66-0.02 0.51-0.08 1.01 0-0.03 0.01-0.06-0.01 0.04-0.02 0.09 0.01-0.01 0.01-0.03-0.08 0.57-0.07 1.15c0 0.14 0.11 0.25 0.25 0.25 0.13 0 0.25-0.11 0.25-0.25q-0.01-0.53 0.05-1.04 0 0 0 0.01 0-0.02 0.01-0.03 0 0-0.01 0.01 0.01-0.02 0.01-0.04 0-0.01 0-0.03 0 0.01 0 0.01 0.08-0.56 0.1-1.13 0.01-0.33 0-0.68-0.02-0.36-0.07-0.71-0.04-0.28-0.13-0.54-0.08-0.2-0.18-0.38-0.09-0.15-0.19-0.28-0.1-0.15-0.23-0.27-0.14-0.14-0.32-0.19-0.13-0.04-0.26-0.04-0.02 0-0.05 0z"/>
    <path class="s0" d="m18.62 10.48q-0.19 0.35-0.38 0.72-0.11 0.17-0.18 0.36-0.11 0.3-0.2 0.6-0.23 0.71-0.44 1.42-0.08 0.32-0.16 0.64-0.07 0.37-0.11 0.74-0.08 0.69-0.13 1.37-0.07 0.72-0.09 1.45-0.02 0.48 0 0.96 0.03 0.45 0.15 0.88 0.11 0.38 0.29 0.75 0.29 0.62 0.73 1.15 0.26 0.29 0.55 0.55 0.3 0.28 0.63 0.53 0.33 0.25 0.68 0.47 0.22 0.14 0.44 0.27 0.26 0.14 0.52 0.26 0.22 0.11 0.45 0.21 0.25 0.12 0.51 0.19 0.6 0.16 1.21 0.24-0.03 0-0.07-0.01 0.36 0.05 0.71 0.06 0.36 0.02 0.72 0.02 0.73 0.01 1.46 0.02 0.73 0.03 1.45 0 0.76-0.06 1.52-0.15 0.34-0.03 0.69-0.07 0.39-0.05 0.78-0.12 0.21-0.04 0.42-0.09 0.18-0.04 0.34-0.09 0.39-0.12 0.77-0.28 0.33-0.13 0.63-0.29 0.37-0.21 0.73-0.44 0.57-0.38 1.06-0.84 0.18-0.17 0.36-0.34 0.19-0.19 0.36-0.41 0.11-0.15 0.2-0.3c0.05-0.11 0.12-0.24 0.11-0.37q-0.01-0.1-0.08-0.18-0.07-0.07-0.17-0.07-0.11 0-0.18 0.07c-0.04 0.04-0.08 0.12-0.07 0.18q0 0.01 0 0.02-0.01 0.01-0.01 0.02-0.08 0.18-0.2 0.33 0-0.01 0.01-0.01-0.13 0.17-0.27 0.31-0.14 0.15-0.29 0.28-0.34 0.31-0.69 0.61 0.01-0.01 0.02-0.02-0.02 0.02-0.04 0.03-0.01 0-0.01 0.01 0 0 0-0.01-0.34 0.25-0.7 0.47-0.23 0.14-0.47 0.27-0.17 0.09-0.36 0.17-0.45 0.2-0.92 0.33-0.25 0.07-0.5 0.12-0.29 0.06-0.57 0.1 0.02 0 0.04 0-0.81 0.1-1.63 0.17-0.44 0.05-0.88 0.09-0.41 0.02-0.81 0.01-0.84-0.01-1.69-0.03-0.42 0-0.86-0.01-0.39 0-0.77-0.04 0 0 0 0-0.09-0.01-0.18-0.02-0.34-0.07-0.69-0.14-0.32-0.06-0.63-0.17-0.28-0.12-0.56-0.26-0.34-0.16-0.66-0.34-0.49-0.3-0.95-0.64-0.33-0.26-0.64-0.55-0.31-0.28-0.57-0.6-0.4-0.55-0.66-1.17 0.01 0.02 0.01 0.03-0.09-0.22-0.15-0.44-0.07-0.25-0.1-0.51 0 0.02 0 0.03 0-0.03-0.01-0.05 0-0.01 0-0.01 0 0 0 0-0.03-0.34-0.02-0.68 0-0.56 0.04-1.13 0.08-1.24 0.23-2.48 0 0.04-0.01 0.07 0.13-0.7 0.34-1.39 0.11-0.35 0.22-0.69 0.14-0.46 0.3-0.92 0.25-0.49 0.51-0.97c0.07-0.12 0.03-0.27-0.09-0.34q-0.06-0.04-0.12-0.04-0.14 0-0.22 0.13z"/>
    <path class="s0" d="m27.27 19.2q-0.47 0.01-0.93 0.02-0.46 0.01-0.91 0.03-0.51 0.04-1 0.1-0.97 0.1-1.94 0.24 0.03 0 0.06-0.01-0.31 0.05-0.62 0.1-0.3 0.05-0.58 0.15c-0.13 0.04-0.22 0.16-0.18 0.3 0.04 0.12 0.18 0.22 0.31 0.18 0.36-0.13 0.75-0.17 1.12-0.23q0 0-0.01 0 0.34-0.05 0.69-0.09-0.04 0-0.07 0.01 0.82-0.11 1.66-0.19 0.39-0.05 0.79-0.07 0.43-0.01 0.85-0.02 0.4-0.01 0.8-0.02 0.41 0 0.82 0.01 0.46 0.02 0.91 0.08 0.42 0.04 0.83 0.09-0.01 0-0.02 0 0.07 0.01 0.14 0.02-0.01 0-0.01 0 0.01 0 0.02 0 0.02 0.01 0.04 0.01 0 0-0.01 0 0.95 0.12 1.9 0.24-0.01 0-0.01-0.01 0.9 0.14 1.81 0.27-0.03 0-0.06-0.01 0.04 0.01 0.07 0.01 0.44 0.06 0.86 0.17 0.24 0.08 0.49 0.17 0.05 0.02 0.11 0.04 0.01 0.03 0.04 0.05 0.07 0.07 0.17 0.07 0.09 0.01 0.17-0.01c0.09-0.02 0.16-0.09 0.18-0.18q0.04-0.14-0.06-0.25-0.07-0.06-0.17-0.09-0.24-0.09-0.47-0.17-0.3-0.11-0.62-0.19-0.32-0.06-0.65-0.1 0.02 0 0.05 0-0.05 0-0.1-0.01 0.01 0 0.02 0-0.94-0.14-1.88-0.27-0.86-0.11-1.72-0.21 0.02 0 0.05 0-0.1-0.01-0.19-0.02 0 0 0.01 0-0.02 0-0.03-0.01-0.02 0-0.04 0 0.01 0 0.01 0-0.42-0.05-0.83-0.1-0.5-0.06-1.01-0.09-0.21-0.01-0.43-0.01-0.22 0-0.43 0z"/>
    <path class="s0" d="m30.66 12.69q0.01 0 0.02 0-0.25 0.03-0.5 0.06 0 0 0.01 0-0.14 0.02-0.27 0.05-0.25 0.05-0.5 0.1-0.36 0.08-0.71 0.18-0.17 0.04-0.34 0.09-0.15 0.05-0.3 0.1-0.35 0.1-0.69 0.22-0.27 0.08-0.53 0.2-0.17 0.07-0.32 0.17-0.14 0.08-0.25 0.18-0.07 0.07-0.09 0.16-0.01 0.05-0.01 0.09-0.04 0.08-0.02 0.16 0.03 0.1 0.12 0.16 0.09 0.05 0.19 0.02 0.1-0.03 0.15-0.11 0.04-0.08 0.05-0.16 0.21-0.14 0.44-0.25 0.3-0.11 0.59-0.2 0.41-0.13 0.81-0.25 0.18-0.06 0.37-0.11 0.28-0.07 0.56-0.14 0.17-0.04 0.34-0.07 0.23-0.05 0.46-0.09-0.02 0-0.04 0 0.08-0.01 0.17-0.02-0.01 0-0.02 0 0.25-0.03 0.5-0.07 0 0-0.01 0 0.01 0 0.03 0 0.02 0 0.04 0-0.02 0-0.03 0 0.15-0.01 0.29-0.02 0.17-0.02 0.34-0.02 0.42-0.02 0.84-0.01 0.81-0.01 1.61 0.07 0.07 0.01 0.13 0.02-0.02 0-0.04 0 0.83 0.1 1.64 0.29 0.5 0.12 0.97 0.3 0.2 0.08 0.36 0.19 0.09 0.08 0.17 0.17 0.04 0.05 0.07 0.12 0.05 0.14 0.08 0.28 0.03 0.35 0.03 0.71c0.02 0.2 0.05 0.41 0.03 0.62q0 0 0 0.01-0.79 0.05-1.58 0.04-1.32 0.01-2.62 0.05-0.7 0.02-1.4 0.04-0.72 0.03-1.44 0.09-0.76 0.08-1.52 0.17-0.69 0.09-1.37 0.24-1.25 0.26-2.48 0.57-0.52 0.12-1.03 0.27-0.52 0.14-1.03 0.33-0.27 0.1-0.5 0.27-0.13 0.09-0.25 0.2-0.12 0.12-0.22 0.27-0.17 0.25-0.29 0.52-0.06 0.12-0.12 0.24-0.08 0.14-0.18 0.28-0.14 0.18-0.3 0.34c-0.1 0.1-0.1 0.26 0 0.35 0.1 0.1 0.26 0.1 0.36 0q0.38-0.38 0.63-0.86 0.15-0.35 0.36-0.66 0 0-0.01 0.01 0.12-0.14 0.26-0.26 0.16-0.11 0.34-0.2 0.23-0.09 0.45-0.16 0.42-0.13 0.84-0.25 0.74-0.19 1.48-0.37c1.02-0.24 2.03-0.49 3.07-0.63q-0.01 0-0.01 0 0.76-0.09 1.52-0.17 0.72-0.06 1.44-0.09 0.7-0.02 1.4-0.04 0.71-0.02 1.42-0.04 0.6-0.01 1.2-0.01 0.47 0 0.95-0.01 0.35-0.01 0.69-0.03 0.16-0.01 0.27-0.1 0.1-0.09 0.14-0.21 0.04-0.16 0.04-0.34-0.01-0.27-0.04-0.54 0-0.29-0.02-0.59-0.03-0.3-0.15-0.57c-0.08-0.19-0.24-0.34-0.41-0.47q-0.23-0.17-0.51-0.27-0.3-0.11-0.62-0.2-0.43-0.12-0.86-0.21-0.61-0.12-1.23-0.19 0.01 0 0.02 0-0.87-0.1-1.74-0.09-0.09 0-0.18 0-0.76-0.01-1.51 0.08z"/>
    <path class="s0" d="m31.46 9.99q-0.08 0.05-0.11 0.15-0.02 0.1 0.02 0.19 0.1 0.21 0.19 0.43 0.02 0.04 0.03 0.09-0.01-0.03-0.01-0.07c0.03 0.23 0.1 0.44 0.16 0.66q0.07 0.34 0.12 0.69-0.01-0.03-0.02-0.07 0.03 0.21 0.05 0.42 0.02 0.16 0.01 0.31 0 0 0 0.01 0 0.01-0.01 0.02c-0.06 0.12-0.03 0.27 0.09 0.35 0.11 0.06 0.28 0.03 0.34-0.09q0.03-0.06 0.05-0.12 0.03-0.07 0.03-0.15 0.01-0.15-0.01-0.3-0.03-0.39-0.09-0.77-0.04-0.25-0.1-0.48-0.02-0.12-0.06-0.24-0.04-0.15-0.07-0.29 0 0.02 0.01 0.04-0.01-0.04-0.01-0.07-0.02-0.06-0.05-0.11-0.1-0.26-0.21-0.51c-0.03-0.06-0.1-0.1-0.15-0.12q-0.04-0.01-0.07-0.01-0.07 0-0.13 0.04z"/>
    <path class="s0" d="m30.67 10.96q-0.14 0.03-0.26 0.08-0.4 0.12-0.8 0.25-0.89 0.26-1.79 0.53-0.57 0.18-1.13 0.39-0.14 0.05-0.25 0.14c-0.11 0.09-0.11 0.25-0.06 0.36q0.07 0.1 0.15 0.2 0.09 0.11 0.19 0.23-0.02-0.02-0.04-0.05 0.06 0.08 0.13 0.17-0.02-0.03-0.04-0.05 0.14 0.18 0.29 0.35 0.07 0.08 0.14 0.15 0.05 0.05 0.11 0.09 0.05 0.04 0.1 0.09c0.09 0.1 0.25 0.09 0.35 0 0.1-0.1 0.09-0.25 0-0.35q-0.08-0.09-0.17-0.15-0.11-0.1-0.2-0.21-0.1-0.11-0.19-0.22 0.01 0 0.01 0.01-0.01-0.02-0.02-0.03-0.01-0.01-0.01-0.01 0 0 0 0.01-0.01-0.02-0.02-0.03 0.01 0 0.01 0-0.01-0.01-0.02-0.02-0.01-0.01-0.02-0.03 0 0.01 0.01 0.01-0.09-0.11-0.18-0.23c0.59-0.23 1.21-0.4 1.82-0.58q0.59-0.18 1.18-0.36 0.26-0.08 0.52-0.16 0.09-0.03 0.18-0.06 0.06 0.15 0.09 0.31 0-0.02-0.01-0.04 0.03 0.17 0.01 0.34-0.02 0.18-0.07 0.34-0.05 0.13-0.1 0.26c-0.02 0.06 0 0.14 0.03 0.19q0.05 0.08 0.15 0.12 0.1 0.02 0.19-0.03 0.08-0.05 0.12-0.15 0.07-0.18 0.12-0.36 0.06-0.25 0.07-0.49 0-0.26-0.07-0.5-0.04-0.11-0.08-0.2-0.04-0.13-0.13-0.23-0.09-0.1-0.22-0.09-0.05 0-0.09 0.01z"/>
    <path fill-rule="evenodd" class="s0" d="m24.84 12.28q0.08 0 0.15 0.02 0.18 0.07 0.22 0.26 0.03 0.14 0.01 0.28-0.04 0.26-0.12 0.51-0.1 0.35-0.24 0.68-0.09 0.19-0.2 0.37-0.09 0.16-0.21 0.3-0.21 0.22-0.47 0.39-0.29 0.17-0.61 0.28-0.33 0.12-0.67 0.21-0.31 0.09-0.63 0.12c-0.42 0.03-0.85 0.02-1.26-0.07-0.47-0.1-0.96-0.3-1.2-0.72q-0.2-0.34-0.27-0.73-0.03-0.25-0.1-0.49c-0.13 0-0.24-0.14-0.24-0.26q0.01-0.1 0.08-0.18 0.07-0.07 0.17-0.07 0.05 0 0.11-0.01 0.13-0.03 0.25-0.07 0.18-0.04 0.36-0.09 0.54-0.13 1.09-0.24 0.66-0.13 1.32-0.25 0.65-0.11 1.31-0.18 0.36-0.04 0.72-0.05 0.18-0.01 0.34-0.01 0.04 0 0.09 0zm-1.6 0.61q0.02 0 0.03 0-0.7 0.1-1.41 0.23-0.59 0.11-1.17 0.24-0.41 0.09-0.81 0.19-0.07 0.02-0.15 0.04c0.08 0.28 0.09 0.57 0.19 0.84q0.07 0.16 0.17 0.31 0.06 0.07 0.13 0.12-0.02-0.01-0.03-0.02 0.01 0.01 0.03 0.02 0.01 0.01 0.02 0.02-0.01-0.01-0.01-0.01 0.13 0.09 0.28 0.15-0.02-0.01-0.03-0.01 0.31 0.12 0.64 0.17 0 0 0 0 0.24 0.03 0.48 0.03 0.28 0 0.56-0.02 0.3-0.05 0.6-0.14 0.31-0.09 0.61-0.21-0.01 0-0.02 0.01 0.27-0.12 0.51-0.29-0.01 0.01-0.02 0.02 0.02-0.01 0.03-0.03 0 0 0.01 0 0 0-0.01 0 0.14-0.1 0.25-0.23-0.01 0.01-0.02 0.02 0.02-0.01 0.03-0.03 0-0.01 0.01-0.02 0 0.01-0.01 0.01 0.12-0.16 0.21-0.35 0.06-0.11 0.11-0.23 0.1-0.26 0.18-0.54 0.06-0.18 0.09-0.38 0-0.01 0-0.02-0.06 0-0.11 0-0.21 0.01-0.41 0.02-0.48 0.03-0.96 0.09zm0.65 1.65q-0.01 0-0.01 0.01 0-0.01 0.01-0.01z"/>
    <path class="s0" d="m22.36 12.8c-0.13 0.04-0.21 0.18-0.18 0.31q0.01 0.02 0.02 0.05 0 0.09-0.01 0.19-0.02 0.14-0.08 0.28-0.01 0.03-0.03 0.06-0.02 0.02-0.05 0.05-0.06 0.04-0.13 0.07-0.04 0.01-0.08 0.02-0.04 0-0.07 0-0.05-0.01-0.09-0.02-0.03-0.01-0.05-0.03-0.03-0.03-0.06-0.06-0.07-0.1-0.11-0.22 0.01 0.03 0.02 0.06-0.06-0.13-0.09-0.27 0-0.07 0.01-0.14c0.01-0.06-0.03-0.14-0.07-0.18q-0.07-0.07-0.18-0.07-0.1 0-0.17 0.07-0.07 0.07-0.08 0.18-0.01 0.09-0.01 0.17 0.01 0.12 0.05 0.24 0.07 0.2 0.18 0.39 0.11 0.18 0.3 0.29 0.21 0.11 0.45 0.09 0.24-0.03 0.43-0.16 0.1-0.06 0.17-0.15 0.09-0.1 0.13-0.23c0.11-0.25 0.16-0.54 0.09-0.81-0.03-0.11-0.14-0.19-0.25-0.19q-0.03 0-0.06 0.01z"/>
    <path class="s0" d="m29.4 11.57q-0.06 0.09-0.03 0.19 0.02 0.08 0.08 0.13 0 0 0 0 0.01 0 0.01 0 0 0 0 0.01 0 0 0 0 0-0.01-0.01-0.01 0.02 0.02 0.03 0.05 0.04 0.1 0.06 0.2 0 0.04 0 0.08-0.01 0.03-0.02 0.06 0 0.01-0.01 0.03-0.01 0-0.02 0.01-0.01 0.01-0.02 0.01-0.01 0.01-0.03 0.01-0.1 0.01-0.2 0.01-0.09 0-0.2-0.01-0.03-0.01-0.07-0.02-0.02-0.01-0.03-0.02-0.04-0.04-0.07-0.08-0.02-0.02-0.04-0.05 0-0.08 0-0.16c0.01-0.14-0.11-0.25-0.25-0.25-0.13 0-0.24 0.11-0.25 0.25q0 0.1 0.01 0.2 0.01 0.12 0.07 0.22 0.09 0.17 0.26 0.28c0.2 0.15 0.47 0.14 0.71 0.14q0.19 0 0.37-0.1 0.18-0.12 0.25-0.33c0.06-0.16 0.04-0.35 0-0.51q-0.04-0.12-0.09-0.24-0.06-0.11-0.17-0.19-0.06-0.03-0.12-0.03-0.15 0-0.22 0.12z"/>
    <path class="s0" d="m26.43 16.83c-0.12 0.07-0.16 0.23-0.09 0.35q0.01 0.01 0.02 0.03 0 0.04 0 0.08-0.01 0.1-0.02 0.2-0.01 0.14-0.01 0.27-0.14 0.02-0.28 0.05-0.22 0.05-0.44 0.12-0.26 0.09-0.52 0.18-0.12 0.04-0.24 0.08 0-0.05-0.01-0.1 0-0.06-0.02-0.12-0.02-0.08-0.07-0.15-0.07-0.15-0.16-0.29c-0.07-0.12-0.22-0.16-0.34-0.09-0.12 0.07-0.16 0.22-0.09 0.34q0.09 0.16 0.18 0.32 0 0.02 0.01 0.03 0 0.11 0.01 0.2 0 0.13 0.06 0.24 0.06 0.09 0.17 0.12 0.09 0.03 0.18 0.01 0.16-0.01 0.32-0.06 0.39-0.13 0.78-0.26 0.28-0.09 0.56-0.13-0.01 0-0.02 0 0.02-0.01 0.04-0.01 0.01 0 0.03 0-0.01 0-0.02 0 0.09 0 0.18-0.05 0.12-0.07 0.16-0.2 0.03-0.11 0.02-0.23 0.01-0.1 0.02-0.21 0.02-0.2 0.02-0.4c0-0.09-0.02-0.22-0.09-0.28q-0.08-0.07-0.19-0.08-0.08 0-0.15 0.04z"/>
    <path class="s0" d="m29.48 16.43q-0.09 0.05-0.12 0.14-0.04 0.1-0.03 0.21 0 0.16 0 0.32 0 0.17 0.01 0.34 0 0.03 0 0.07-0.12 0.03-0.24 0.04-0.32 0.06-0.63 0.11 0.03-0.01 0.06-0.02-0.18 0.03-0.37 0.05-0.01 0-0.01 0-0.06-0.48-0.14-0.96c-0.02-0.14-0.19-0.21-0.31-0.18q-0.1 0.03-0.15 0.12-0.05 0.09-0.02 0.19 0.05 0.35 0.11 0.69-0.01-0.03-0.02-0.06 0.03 0.21 0.06 0.42c0.01 0.09 0.01 0.19 0.08 0.26q0.05 0.04 0.11 0.06 0.1 0.02 0.2-0.02 0-0.01 0.01-0.01 0 0 0 0 0 0 0 0 0 0 0 0 0.12-0.01 0.25-0.03 0.27-0.03 0.54-0.07 0.34-0.04 0.68-0.13 0.2-0.05 0.27-0.24c0.03-0.09 0.02-0.2 0.02-0.29q-0.01-0.22-0.01-0.43 0-0.14 0-0.27 0.01-0.02 0.01-0.03 0.03-0.11-0.02-0.2-0.06-0.08-0.15-0.11-0.04-0.01-0.07-0.01-0.07 0-0.12 0.04z"/>
    <path class="s0" d="m33.37 16.22c-0.07 0.06-0.09 0.16-0.1 0.24q-0.03 0.12-0.04 0.24-0.03 0.21-0.04 0.41-0.47 0.05-0.95 0.05-0.27 0.01-0.54 0.02-0.12 0-0.24 0.01-0.03 0-0.05 0-0.01-0.1-0.01-0.19 0-0.27 0.01-0.53c0.01-0.14-0.12-0.25-0.25-0.25-0.14 0-0.24 0.11-0.25 0.25q-0.01 0.28-0.01 0.56 0 0.15 0.02 0.3c0.02 0.13 0.05 0.27 0.18 0.33q0.14 0.06 0.29 0.04 0.11-0.01 0.23-0.02 0.29-0.01 0.59-0.02 0.27 0 0.53-0.01 0.28-0.01 0.55-0.06 0.12 0 0.22-0.05 0.14-0.08 0.16-0.24 0.02-0.23 0.04-0.46 0-0.02 0-0.04 0 0.01 0 0.02 0.02-0.16 0.06-0.31c0.06-0.12 0.01-0.27-0.1-0.33q-0.06-0.04-0.13-0.04-0.1 0-0.17 0.08z"/>
    <path class="s0" d="m35.7 16.23q-0.07 0.08-0.08 0.18 0 0.02 0 0.04 0 0.01 0 0.02 0-0.01 0-0.01 0 0 0 0 0 0 0 0 0-0.01 0-0.02-0.05 0.33-0.1 0.67-0.03 0-0.06 0-0.2 0.01-0.39 0.03-0.06 0-0.11 0-0.01-0.35-0.02-0.69c-0.01-0.14-0.11-0.25-0.25-0.25-0.14 0-0.26 0.11-0.25 0.25q0.01 0.34 0.02 0.67 0 0.11 0.01 0.23c-0.03 0.12 0.05 0.26 0.18 0.29q0.03 0 0.07 0 0 0 0 0 0 0 0.01 0 0 0 0 0 0.12 0 0.25 0 0.22-0.01 0.44-0.03 0.1 0 0.19-0.01 0.09 0.01 0.17-0.01 0.16-0.06 0.21-0.22 0.01-0.06 0.02-0.12 0-0.03 0-0.06 0.05-0.35 0.1-0.7 0.01-0.04 0.01-0.08 0-0.1-0.07-0.18-0.07-0.07-0.18-0.07-0.1 0-0.17 0.07z"/>
    <path class="s0" d="m31.56 13.43q-0.21 0.04-0.4 0.15-0.23 0.14-0.36 0.36-0.14 0.22-0.14 0.48c0 0.16 0.08 0.32 0.22 0.41 0.14 0.09 0.31 0.11 0.47 0.12q0.27 0.03 0.54-0.01 0.23-0.05 0.44-0.15c0.13-0.06 0.24-0.15 0.37-0.21q0.07-0.03 0.14-0.04 0.04 0 0.09 0 0.16 0.03 0.31 0.07 0.18 0.04 0.37 0.06 0.2 0.02 0.41 0.03 0.24 0.02 0.48-0.01 0.1-0.02 0.2-0.05 0.12-0.04 0.22-0.13 0.09-0.07 0.12-0.18 0.04-0.13 0.01-0.26-0.02-0.11-0.08-0.21-0.07-0.12-0.18-0.21-0.23-0.19-0.52-0.19c-0.14 0.01-0.25 0.11-0.25 0.25 0 0.13 0.11 0.26 0.25 0.25q0.03 0 0.06 0 0.02 0.01 0.05 0.02 0.05 0.02 0.09 0.05 0.02 0.02 0.04 0.04 0.02 0.04 0.04 0.08 0.01 0 0.01 0.01 0 0-0.01 0-0.08 0.03-0.16 0.04-0.19 0.01-0.37 0-0.18 0-0.37-0.02 0.01 0 0.01 0-0.19-0.03-0.38-0.07-0.21-0.07-0.44-0.07-0.22 0.01-0.42 0.12-0.19 0.1-0.37 0.21-0.15 0.06-0.31 0.09-0.11 0-0.23 0-0.11 0-0.23-0.01-0.06-0.01-0.11-0.03-0.01 0-0.01 0 0-0.02 0-0.03 0.01-0.07 0.04-0.14 0.03-0.06 0.06-0.1 0.05-0.06 0.11-0.11 0.06-0.04 0.12-0.07 0.1-0.03 0.2-0.06c0.13-0.03 0.21-0.17 0.18-0.3-0.03-0.11-0.14-0.19-0.25-0.19q-0.03 0-0.06 0.01z"/>
    <path class="s0" d="m31.4 14.18c0 0.13 0.11 0.25 0.25 0.25 0.14 0 0.25-0.12 0.25-0.25 0-0.14-0.11-0.25-0.25-0.25-0.14 0-0.25 0.11-0.25 0.25z"/>
    <path class="s0" d="m33.43 13.86c0 0.13 0.12 0.25 0.25 0.25 0.14 0 0.25-0.12 0.25-0.25 0-0.14-0.11-0.25-0.25-0.25-0.13 0-0.25 0.11-0.25 0.25z"/>
    <path class="s0" d="m37.87 18.11q-0.84 0.05-1.69 0.12-0.94 0.08-1.88 0.18-0.87 0.1-1.73 0.24-0.45 0.08-0.89 0.18-0.34 0.07-0.67 0.15-0.57 0.15-1.11 0.36-0.09 0.03-0.15 0.11-0.05 0.1-0.02 0.2c0.03 0.12 0.18 0.22 0.3 0.17q0.32-0.12 0.65-0.23 0.38-0.11 0.77-0.2 0.41-0.09 0.83-0.17 0.63-0.13 1.28-0.21-0.02 0-0.03 0 0.85-0.11 1.71-0.2 0.87-0.08 1.74-0.14 0.86-0.06 1.73-0.1 0.41-0.02 0.82-0.02 0.21 0.01 0.43 0.02 0.22 0.02 0.45 0.05 0.18 0.02 0.35 0.05 0.29 0.07 0.56 0.19-0.03-0.01-0.06-0.02 0.19 0.08 0.36 0.2 0.16 0.13 0.3 0.29 0.1 0.13 0.18 0.29 0.02 0.08 0.03 0.16 0 0.03 0 0.05 0 0.01 0 0.02-0.01 0.01-0.03 0.02-0.08 0.02-0.16 0.04-0.46 0.05-0.92 0-0.24-0.04-0.47-0.09-0.31-0.06-0.63-0.1-0.56-0.07-1.11-0.13-0.62-0.09-1.24-0.16-0.67-0.05-1.34-0.04-0.63-0.02-1.25 0.01-0.48 0.03-0.95 0.08-0.28 0.03-0.55 0.04-0.31 0.02-0.61 0.08 0.03-0.01 0.07-0.01-0.18 0.01-0.34 0.06c-0.13 0.04-0.22 0.17-0.18 0.3 0.04 0.13 0.18 0.22 0.31 0.18q0.06-0.02 0.12-0.03 0.09-0.01 0.18-0.03 0.13-0.02 0.26-0.04-0.03 0.01-0.05 0.01 0.23-0.03 0.47-0.03 0.3-0.02 0.6-0.05 0.35-0.04 0.71-0.06 0.53-0.02 1.05-0.01 0.5 0 0.98 0.02 0.26 0 0.52 0.02 0.28 0.03 0.57 0.07 0.49 0.07 1 0.13 0.43 0.05 0.86 0.1-0.01 0-0.03 0c0.4 0.06 0.79 0.15 1.19 0.19q0.44 0.04 0.89-0.03 0.15-0.02 0.28-0.08 0.2-0.09 0.27-0.29 0.05-0.17 0.02-0.34-0.03-0.19-0.12-0.37-0.16-0.3-0.42-0.53-0.15-0.13-0.32-0.25-0.12-0.07-0.25-0.13-0.28-0.12-0.57-0.2-0.15-0.03-0.31-0.05-0.17-0.03-0.35-0.05-0.39-0.04-0.79-0.05-0.81 0.01-1.62 0.06z"/>
    <path class="s0" d="m29.88 7.1c-0.23 0.09-0.36 0.33-0.43 0.56-0.11 0.4-0.08 0.82-0.05 1.23q0.02 0.22 0.01 0.44 0-0.01 0.01-0.02-0.01 0.01-0.01 0.02 0 0.03 0 0.05 0-0.02 0-0.05-0.01 0.07-0.03 0.14c-0.04 0.13 0.04 0.27 0.17 0.31 0.13 0.03 0.27-0.05 0.31-0.18q0.05-0.16 0.06-0.33 0-0.19-0.02-0.38-0.05-0.42-0.02-0.84 0.03-0.19 0.1-0.37 0.02-0.04 0.05-0.08 0.01-0.01 0.01-0.02 0.01-0.01 0.02-0.01 0.1 0 0.2 0.01 0.01 0 0.01 0 0.01 0.01 0.02 0.01 0.05 0.05 0.1 0.11 0.01 0.01 0.02 0.03 0.02 0.06 0.03 0.11 0.02 0.25 0.01 0.5 0 0.25-0.03 0.5 0 0 0 0 0 0 0 0 0 0.03 0 0.07 0-0.02 0-0.03-0.04 0.23-0.09 0.46-0.04 0.15-0.07 0.29c-0.04 0.13 0.04 0.27 0.17 0.31 0.13 0.03 0.27-0.04 0.31-0.18q0.03-0.13 0.06-0.26 0.06-0.24 0.1-0.5 0.07-0.48 0.05-0.98-0.01-0.17-0.03-0.33-0.04-0.18-0.17-0.33-0.15-0.21-0.39-0.27-0.12-0.02-0.25-0.02-0.12 0-0.23 0.03z"/>
    <path class="s0" d="m19.33 7.73q-0.12 0.08-0.19 0.22-0.09 0.18-0.1 0.38-0.02 0.28 0.03 0.56 0.05 0.3 0.15 0.58 0.13 0.32 0.29 0.63 0.02 0.04 0.04 0.09-0.01-0.01-0.01-0.01 0.01 0.01 0.01 0.02 0-0.01 0-0.02 0.01 0.03 0.02 0.05-0.01 0-0.01-0.01 0.02 0.03 0.03 0.07-0.01 0.07 0.01 0.12 0.03 0.1 0.11 0.15 0.09 0.06 0.2 0.03 0.09-0.03 0.14-0.12 0.09-0.12 0.06-0.25-0.02-0.05-0.04-0.1-0.02-0.03-0.04-0.06 0.01 0 0.01 0.01-0.01-0.02-0.02-0.05 0 0 0 0.01-0.13-0.28-0.27-0.56 0.01 0.02 0.02 0.06-0.17-0.42-0.23-0.86-0.01-0.17 0-0.33 0.01-0.07 0.03-0.14 0.01-0.02 0.02-0.03 0.01-0.01 0.01-0.01 0.05 0 0.09 0 0.02 0.01 0.04 0.01 0.03 0.02 0.05 0.04 0.06 0.05 0.11 0.11 0.12 0.18 0.22 0.38-0.02-0.03-0.03-0.06 0.2 0.48 0.38 0.97 0.07 0.16 0.13 0.32 0.05 0.16 0.14 0.3 0.06 0.08 0.16 0.11 0.09 0.03 0.19-0.02 0.08-0.06 0.11-0.16 0.03-0.1-0.02-0.19-0.06-0.07-0.1-0.17 0.02 0.03 0.03 0.06-0.14-0.35-0.28-0.72-0.1-0.24-0.2-0.49-0.08-0.23-0.2-0.44c-0.12-0.19-0.26-0.39-0.46-0.48q-0.15-0.07-0.32-0.07-0.16 0-0.31 0.07z"/>
    <path class="s0" d="m25.85 6.35c-0.15 0.05-0.23 0.19-0.32 0.32q-0.08 0.12-0.14 0.26-0.08 0.18-0.14 0.37-0.06 0.19-0.1 0.39-0.05-0.14-0.1-0.27-0.08-0.24-0.19-0.47-0.09-0.16-0.22-0.28-0.09-0.08-0.21-0.09c-0.19-0.02-0.34 0.12-0.44 0.26q-0.17 0.27-0.24 0.58-0.04 0.14-0.07 0.28-0.05-0.14-0.11-0.28c-0.08-0.19-0.16-0.38-0.32-0.51q-0.1-0.08-0.22-0.1-0.08-0.02-0.16 0-0.05 0.02-0.1 0.04c-0.1 0.05-0.17 0.16-0.21 0.25-0.15 0.31-0.19 0.65-0.2 0.98q0 0.05 0 0.1-0.03-0.05-0.07-0.1-0.09-0.14-0.24-0.22c-0.14-0.08-0.34-0.07-0.46 0.05q-0.11 0.12-0.14 0.29-0.07 0.29-0.08 0.59 0.01 0.17 0.02 0.34 0.02 0.38 0.14 0.74c0.04 0.13 0.17 0.21 0.31 0.18 0.12-0.04 0.21-0.18 0.17-0.31q-0.08-0.24-0.11-0.49 0 0.01 0 0.03 0-0.02 0-0.04 0-0.01-0.01-0.03 0.01 0.01 0.01 0.03-0.02-0.2-0.03-0.39 0-0.13 0.02-0.25-0.01 0.01-0.01 0.02 0.01-0.02 0.01-0.03 0-0.02 0-0.03 0 0.01 0 0.01 0.01-0.08 0.02-0.16 0.17 0.26 0.32 0.53 0.06 0.1 0.12 0.21 0.03 0.06 0.04 0.11 0 0.04 0.01 0.06 0.06 0.17 0.24 0.19c0.13 0 0.26-0.12 0.25-0.25q-0.01-0.05-0.01-0.09-0.03-0.36-0.03-0.72 0-0.34 0.04-0.69 0.03-0.2 0.1-0.39 0.08 0.13 0.14 0.28 0.08 0.22 0.18 0.44 0.07 0.18 0.15 0.35-0.02-0.03-0.03-0.06 0.07 0.16 0.12 0.33 0.02 0.08 0.04 0.16 0.01 0.08 0.05 0.14c0.04 0.07 0.12 0.14 0.21 0.13q0.08 0 0.13-0.04 0.09-0.05 0.12-0.14 0.02-0.09 0.02-0.18-0.01-0.13-0.01-0.25 0.01-0.31 0.05-0.61 0 0 0 0 0.04-0.31 0.14-0.61 0.04-0.08 0.09-0.16 0.05 0.09 0.1 0.18 0.1 0.3 0.21 0.59 0.08 0.19 0.16 0.38 0.05 0.14 0.1 0.27c0.03 0.09 0.06 0.19 0.16 0.24q0.16 0.08 0.3-0.04 0.07-0.07 0.08-0.17 0.01-0.1 0.03-0.21-0.01 0.04-0.01 0.07c0.06-0.45 0.15-0.9 0.33-1.33q0.04-0.09 0.09-0.18 0.04 0.13 0.05 0.26 0.01 0.07 0.02 0.14 0.03 0.31 0.05 0.61 0.02 0.29 0.03 0.57 0.01 0.15 0.03 0.3 0.01 0.03 0.02 0.06 0.02 0.08 0.07 0.14 0.07 0.08 0.18 0.08 0.13-0.01 0.21-0.13 0.05-0.08 0.05-0.18 0.02-0.17 0.07-0.33 0.09-0.4 0.24-0.78 0.03-0.07 0.06-0.14-0.01 0.03-0.02 0.06 0.1-0.24 0.25-0.45 0.05-0.05 0.1-0.1 0.01 0 0.01-0.01 0.01 0 0.01 0 0.01 0.01 0.02 0.02 0.05 0.08 0.09 0.16 0.12 0.34 0.21 0.69 0.07 0.19 0.15 0.38 0.03 0.08 0.05 0.16 0.02 0.19-0.01 0.38 0 0 0-0.01 0 0.05-0.01 0.09-0.02 0.1-0.01 0.19c0.02 0.08 0.1 0.15 0.18 0.18q0.14 0.03 0.25-0.07 0.05-0.07 0.09-0.14 0.07-0.13 0-0.25 0.02-0.14 0.02-0.28 0-0.16-0.05-0.32-0.05-0.15-0.12-0.28-0.1-0.29-0.18-0.59c-0.09-0.28-0.2-0.64-0.49-0.77q-0.18-0.08-0.37-0.01-0.16 0.07-0.28 0.22-0.11 0.12-0.19 0.25-0.11 0.19-0.2 0.4-0.01-0.11-0.02-0.23-0.03-0.29-0.13-0.56-0.05-0.1-0.1-0.17-0.05-0.07-0.12-0.1-0.1-0.06-0.2-0.06-0.05 0-0.1 0.02z"/>
    <path class="s0" d="m16.67 8.75q-0.05 0-0.1 0.01-0.14 0.02-0.27 0.08-0.13 0.05-0.23 0.13-0.11 0.1-0.18 0.22-0.06 0.11-0.08 0.23-0.01 0.07-0.02 0.14-0.01 0.1 0 0.2 0.03 0.15 0.08 0.29 0.01 0.04 0.03 0.08-0.17-0.03-0.34-0.03-0.12 0.01-0.24 0.04-0.09 0.03-0.17 0.08-0.08 0.07-0.14 0.15-0.04 0.07-0.06 0.15-0.03 0.12-0.03 0.24 0.01 0.13 0.05 0.25 0.04 0.15 0.1 0.29 0.1 0.2 0.24 0.38 0.13 0.18 0.29 0.33 0.01 0.02 0.03 0.03-0.3-0.04-0.6-0.01c-0.2 0.01-0.42 0.03-0.6 0.12q-0.14 0.07-0.23 0.2-0.08 0.15-0.07 0.32 0.03 0.22 0.17 0.4 0.1 0.15 0.24 0.28 0.24 0.23 0.52 0.39-0.21 0.07-0.39 0.2-0.08 0.05-0.14 0.12-0.05 0.07-0.11 0.15-0.07 0.1-0.1 0.21-0.03 0.1-0.03 0.2 0 0.13 0.05 0.25c0.09 0.23 0.29 0.4 0.5 0.51q0.13 0.07 0.27 0.11-0.3 0.08-0.57 0.24c-0.23 0.15-0.44 0.37-0.55 0.62q-0.06 0.18-0.05 0.37 0.02 0.15 0.11 0.27c0.11 0.16 0.29 0.25 0.47 0.31q0.17 0.06 0.36 0.08 0.28 0.03 0.56 0.04 0.4 0.02 0.8-0.01 0.22-0.02 0.44-0.05 0.1 0 0.2-0.03 0.14-0.05 0.22-0.18c0.07-0.12 0.02-0.28-0.09-0.35-0.11-0.06-0.24-0.03-0.32 0.06q0 0 0 0-0.29 0.04-0.58 0.06-0.27 0.01-0.55 0-0.32 0-0.64-0.04-0.15-0.02-0.3-0.07-0.07-0.03-0.13-0.07-0.02-0.02-0.04-0.04 0 0 0-0.01-0.01-0.01-0.01-0.02 0-0.05 0-0.09 0.01-0.03 0.02-0.05 0.03-0.07 0.08-0.13 0.08-0.1 0.18-0.18 0.12-0.09 0.25-0.15 0.4-0.16 0.83-0.21 0.14-0.01 0.28-0.03 0.16 0 0.31-0.06c0.15-0.07 0.2-0.29 0.07-0.41q-0.09-0.08-0.21-0.1-0.24-0.05-0.48-0.1-0.29-0.06-0.58-0.17-0.13-0.05-0.25-0.14-0.06-0.05-0.11-0.11-0.02-0.02-0.03-0.04-0.01-0.03-0.01-0.06 0-0.01 0-0.03 0-0.04 0.02-0.08 0.02-0.04 0.04-0.07-0.01 0.01-0.02 0.02 0.06-0.07 0.12-0.14 0.09-0.05 0.18-0.09 0.14-0.05 0.28-0.08 0.17-0.01 0.34 0.01 0.28 0.06 0.55 0.18 0.02 0 0.04 0.01-0.01 0-0.03-0.01 0.1 0.06 0.22 0.06 0.14 0 0.21-0.12 0.04-0.06 0.04-0.13 0-0.06-0.04-0.12-0.04-0.08-0.13-0.12-0.07-0.04-0.14-0.08-0.23-0.1-0.48-0.2 0.01 0 0.01 0-0.03-0.01-0.07-0.03 0.01 0.01 0.02 0.01-0.47-0.19-0.89-0.49-0.19-0.15-0.34-0.33-0.05-0.07-0.08-0.14-0.01-0.02-0.01-0.04 0 0 0-0.01 0 0 0-0.01 0 0 0.01 0 0.01-0.01 0.01-0.01 0.12-0.04 0.23-0.06 0.16-0.02 0.31-0.03 0.16 0 0.33 0.02-0.02 0-0.04-0.01 0.02 0.01 0.04 0.01 0.01 0 0.02 0-0.01 0-0.02 0 0.27 0.04 0.54 0.1 0.14 0.03 0.26 0.07 0.17 0.05 0.35 0.11 0.16 0.07 0.34 0.09c0.19 0.01 0.35-0.23 0.24-0.4q-0.09-0.12-0.22-0.19-0.12-0.09-0.24-0.16c-0.26-0.15-0.54-0.28-0.78-0.45q-0.16-0.13-0.29-0.3 0.01 0.02 0.02 0.03-0.01-0.02-0.02-0.03-0.01-0.01-0.02-0.02 0.01 0 0.01 0.01-0.09-0.12-0.16-0.25-0.05-0.09-0.09-0.19 0.01 0.03 0.03 0.06-0.04-0.1-0.06-0.21-0.01-0.06 0-0.13 0-0.01 0-0.03 0.01 0 0.01 0 0.01-0.01 0.01-0.01 0.04-0.02 0.09-0.03 0.08 0 0.17 0.01 0.13 0.02 0.26 0.07 0.08 0.04 0.16 0.09 0.16 0.1 0.3 0.21-0.03-0.01-0.05-0.04 0.21 0.18 0.41 0.35 0.12 0.1 0.25 0.18 0.07 0.04 0.14 0.06 0.04 0.02 0.08 0.01 0.1 0 0.18-0.07c0.1-0.08 0.09-0.24 0.03-0.34q-0.06-0.1-0.15-0.19-0.1-0.1-0.21-0.19-0.32-0.24-0.59-0.53-0.08-0.11-0.14-0.24-0.02-0.03-0.03-0.07-0.04-0.11-0.06-0.22-0.01-0.05-0.01-0.1 0.02-0.07 0.03-0.13 0.03-0.04 0.06-0.08 0.01-0.02 0.03-0.04 0.02-0.01 0.04-0.02 0.11-0.05 0.23-0.07 0.17-0.01 0.34 0.01 0.14 0.02 0.27 0.07 0.11 0.05 0.22 0.12-0.02-0.01-0.03-0.02 0.02 0.01 0.03 0.02 0.01 0.01 0.02 0.02-0.01-0.01-0.02-0.02 0.18 0.17 0.33 0.36 0 0 0-0.01 0.01 0.02 0.02 0.03 0.01 0.01 0.01 0.02 0 0 0-0.01 0.14 0.2 0.29 0.39 0.05 0.07 0.09 0.14c0.03 0.09 0.06 0.17 0.15 0.21 0.07 0.05 0.18 0.06 0.25 0 0.1-0.06 0.15-0.18 0.11-0.3q-0.03-0.07-0.06-0.13-0.01-0.02-0.02-0.04-0.02-0.03-0.04-0.06-0.09-0.13-0.18-0.25-0.15-0.2-0.31-0.4-0.11-0.14-0.25-0.27-0.15-0.13-0.32-0.22c-0.23-0.12-0.5-0.16-0.76-0.17q-0.07 0-0.14 0.01z"/>
    <path class="s0" d="m33.19 7.4q-0.08 0.01-0.17 0.04-0.17 0.06-0.32 0.17-0.28 0.17-0.54 0.38-0.09 0.06-0.17 0.15-0.03 0.03-0.06 0.06-0.09 0.1-0.16 0.2-0.12 0.16-0.22 0.32-0.06 0.08-0.12 0.16 0.01 0 0.01-0.01 0 0.01 0 0.01-0.07 0.07-0.07 0.17 0 0.1 0.07 0.18 0.07 0.07 0.18 0.07 0.1 0 0.18-0.07 0.08-0.1 0.15-0.21 0.11-0.18 0.24-0.35 0.04-0.05 0.09-0.11 0.1-0.11 0.21-0.2 0.19-0.14 0.39-0.28 0.14-0.09 0.29-0.16 0.01 0 0.02-0.01 0 0.01 0 0.02 0.01 0.15-0.01 0.31-0.09 0.56-0.31 1.09-0.12 0.25-0.28 0.47-0.03 0.04-0.06 0.07-0.01 0.01-0.01 0.01 0 0 0 0-0.05 0.04-0.09 0.09c-0.07 0.09-0.04 0.23 0.04 0.3q0.13 0.12 0.3 0.04 0.04-0.01 0.07-0.04 0.14-0.08 0.29-0.15 0.4-0.14 0.83-0.2-0.03 0.01-0.06 0.02 0.21-0.04 0.42-0.03 0.07 0.02 0.13 0.04 0 0-0.01-0.01 0.01 0.01 0.02 0.01 0.01 0 0.01 0 0 0 0 0 0 0-0.01 0 0.01 0 0.01 0.01 0.03 0.02 0.05 0.04 0 0 0 0.01 0 0 0 0 0 0.01-0.01 0.03-0.03 0.05-0.06 0.1-0.08 0.09-0.16 0.16-0.26 0.19-0.56 0.32 0-0.01 0.01-0.01-0.22 0.1-0.44 0.18-0.1 0.03-0.19 0.06c-0.12 0.03-0.21 0.12-0.21 0.25 0 0.09 0.05 0.18 0.13 0.22 0.11 0.06 0.25 0.05 0.37 0.05q0.34 0 0.67 0.03-0.01-0.01-0.02-0.01 0.01 0 0.02 0.01 0.02 0 0.05 0-0.02 0-0.04 0 0.15 0.02 0.3 0.08 0.03 0.01 0.06 0.03 0.03 0.03 0.05 0.05 0.02 0.03 0.04 0.07 0.01 0.04 0.02 0.09 0.01 0.03 0.01 0.06-0.01 0.03-0.02 0.06-0.02 0.04-0.05 0.09-0.11 0.13-0.24 0.23 0 0 0.01-0.01-0.01 0.01-0.02 0.02-0.01 0.01-0.03 0.02 0.01-0.01 0.02-0.01-0.14 0.09-0.3 0.16-0.08 0.04-0.17 0.06c-0.12-0.03-0.26 0.06-0.29 0.18q-0.03 0.1 0.02 0.19 0.06 0.09 0.15 0.11 0.11 0.04 0.2 0.01 0.1-0.02 0.19-0.05 0.18-0.07 0.35-0.17 0.19-0.11 0.35-0.27 0.18-0.16 0.28-0.39 0.04-0.1 0.05-0.2 0-0.08-0.01-0.16-0.02-0.15-0.09-0.28-0.12-0.23-0.35-0.33-0.18-0.09-0.37-0.12 0.25-0.13 0.45-0.31 0.11-0.1 0.2-0.23 0.04-0.06 0.07-0.12 0.05-0.12 0.06-0.24 0-0.09-0.03-0.17-0.05-0.14-0.16-0.24-0.09-0.09-0.21-0.13-0.05-0.03-0.11-0.04-0.15-0.04-0.31-0.03-0.19 0.01-0.37 0.03-0.26 0.04-0.51 0.1 0.15-0.34 0.24-0.69 0.1-0.36 0.13-0.73 0.02-0.2-0.03-0.39-0.03-0.05-0.04-0.11-0.03-0.04-0.07-0.08-0.03-0.04-0.08-0.07-0.05-0.03-0.11-0.05-0.05-0.02-0.1-0.02-0.04 0-0.07 0z"/>
  </g>
  <g id="body">
    <path class="s0" d="m20.52 23.14q-0.1 0.05-0.18 0.1-0.12 0.1-0.21 0.23-0.13 0.18-0.24 0.37-0.4 0.65-0.75 1.33-0.26 0.51-0.54 1.02-0.29 0.51-0.55 1.04-0.22 0.46-0.44 0.93-0.23 0.51-0.45 1.01 0.02-0.03 0.03-0.06c-0.32 0.77-0.63 1.54-0.85 2.34q-0.17 0.65-0.29 1.31-0.13 0.62-0.23 1.25-0.04 0.28-0.05 0.57-0.03 0.33-0.04 0.66 0 0.36 0 0.71 0.01 0.3 0.04 0.61 0.02 0.41 0.1 0.83c0.03 0.15 0.07 0.32 0.24 0.36q0.07 0.02 0.13 0 0.07-0.01 0.13-0.07 0.05-0.05 0.08-0.11 0.04-0.07 0.06-0.15 0.03-0.1-0.02-0.19-0.05-0.09-0.15-0.11-0.01-0.01-0.01-0.01-0.01-0.03-0.01-0.05 0 0 0 0.01-0.08-0.65-0.09-1.29 0-0.46 0.02-0.91 0.02-0.38 0.06-0.75 0.09-0.6 0.21-1.2 0.06-0.32 0.14-0.64 0.06-0.31 0.14-0.61 0.16-0.6 0.38-1.19 0.2-0.56 0.43-1.1-0.01 0.03-0.02 0.06 0.03-0.09 0.07-0.17-0.01 0.03-0.02 0.06 0.37-0.86 0.77-1.7 0.22-0.47 0.47-0.92 0.25-0.43 0.48-0.88 0.21-0.41 0.42-0.82 0.16-0.29 0.33-0.56 0.14-0.23 0.28-0.46 0.08-0.14 0.18-0.29 0 0 0 0.01 0-0.01 0-0.01 0.01-0.01 0.02-0.02 0 0 0 0 0 0.01-0.01 0.02 0.01-0.02 0.03-0.03 0.08-0.05 0.16-0.09c0.12-0.07 0.16-0.23 0.09-0.35q-0.08-0.12-0.21-0.12-0.07 0-0.13 0.03z"/>
    <path class="s0" d="m23.08 26.2q-0.2 0.19-0.36 0.42-0.05 0.08-0.09 0.16-0.1 0.19-0.2 0.38-0.34 0.65-0.63 1.33-0.3 0.69-0.56 1.4-0.26 0.66-0.49 1.33-0.11 0.33-0.21 0.67-0.11 0.36-0.19 0.73-0.08 0.38-0.15 0.75-0.07 0.39-0.11 0.78-0.03 0.36-0.05 0.73-0.01 0.38-0.01 0.76 0 0.49 0 0.99 0 0.11 0 0.22c0 0.12 0 0.26 0.1 0.35q0.08 0.07 0.18 0.07 0.1 0 0.18-0.07c0.08-0.08 0.1-0.22 0.03-0.31q0-0.16 0.01-0.31 0-0.32 0-0.64-0.01-0.47 0.01-0.93 0.01-0.56 0.08-1.11-0.01 0.03-0.01 0.06 0.04-0.3 0.1-0.59 0.06-0.34 0.13-0.68 0.17-0.68 0.4-1.34 0.21-0.62 0.44-1.22 0.24-0.65 0.5-1.29-0.01 0.03-0.02 0.06 0.25-0.58 0.53-1.15 0.15-0.29 0.3-0.58 0.08-0.18 0.19-0.34 0.12-0.15 0.26-0.28c0.09-0.1 0.09-0.26 0-0.35q-0.08-0.08-0.19-0.08-0.1 0-0.17 0.08z"/>
    <path class="s0" d="m30.89 23.71c-0.09 0.1-0.1 0.26 0 0.35q0.05 0.05 0.09 0.1 0-0.01-0.01-0.02 0.01 0.01 0.02 0.03 0.01 0.01 0.02 0.02-0.01-0.01-0.02-0.02 0.12 0.16 0.22 0.32 0.06 0.12 0.12 0.24 0.2 0.42 0.39 0.85c0.23 0.49 0.55 0.94 0.87 1.36q-0.01-0.01-0.02-0.03 0.07 0.08 0.13 0.17 0-0.01-0.01-0.02 0.01 0.01 0.02 0.02 0.01 0.02 0.02 0.03-0.01-0.01-0.02-0.02 0.2 0.26 0.38 0.52 0.11 0.17 0.22 0.34 0.11 0.16 0.21 0.33 0.22 0.39 0.42 0.8 0.2 0.4 0.38 0.83-0.01-0.03-0.02-0.06 0.33 0.81 0.65 1.62 0.28 0.73 0.54 1.48 0.28 0.82 0.57 1.64 0.24 0.71 0.35 1.45 0-0.01 0-0.03 0 0.05 0.01 0.1-0.08 0.1-0.06 0.24 0.04 0.15 0.08 0.3 0.04 0.16 0.2 0.21 0.1 0.03 0.19-0.02 0.12-0.08 0.12-0.22 0.01-0.07 0-0.15-0.01-0.1-0.02-0.2-0.02-0.31-0.08-0.63-0.05-0.29-0.13-0.57-0.09-0.35-0.21-0.7-0.23-0.66-0.46-1.34-0.23-0.67-0.48-1.34-0.26-0.66-0.52-1.32-0.27-0.68-0.58-1.35-0.07-0.16-0.15-0.32-0.09-0.17-0.18-0.34-0.1-0.17-0.2-0.35-0.09-0.15-0.18-0.29-0.34-0.53-0.74-1.04 0 0 0 0-0.03-0.03-0.06-0.07-0.25-0.34-0.47-0.68-0.11-0.18-0.21-0.36-0.1-0.19-0.19-0.38-0.18-0.39-0.36-0.78-0.06-0.12-0.12-0.23-0.06-0.08-0.11-0.16-0.11-0.17-0.25-0.31-0.08-0.07-0.18-0.07-0.1 0-0.18 0.07z"/>
    <path class="s0" d="m29.58 25.69c-0.14 0.04-0.2 0.17-0.17 0.31q0.02 0.14 0.08 0.27 0.07 0.13 0.16 0.26 0.31 0.45 0.64 0.88 0.43 0.58 0.82 1.19 0.39 0.64 0.7 1.33-0.01-0.02-0.02-0.04 0.3 0.76 0.52 1.55 0.25 0.87 0.38 1.75-0.01-0.01-0.01-0.03 0.01 0.03 0.01 0.05 0 0.01 0 0.02 0-0.01 0-0.01 0.04 0.41 0.06 0.84 0.01 0.11 0.01 0.22-0.01 0.14-0.01 0.27-0.01 0.23-0.05 0.46 0.01-0.03 0.01-0.07-0.02 0.15-0.06 0.3-0.05 0.19-0.11 0.37-0.11 0.35-0.25 0.69 0-0.01 0.01-0.01-0.02 0.03-0.04 0.07 0.01-0.01 0.01-0.02-0.13 0.29-0.29 0.57-0.15 0.24-0.32 0.46-0.24 0.28-0.51 0.55-0.24 0.25-0.5 0.49-0.24 0.23-0.49 0.45-0.14 0.12-0.28 0.24 0 0 0.01-0.01-0.02 0.01-0.03 0.02-0.01 0.01-0.02 0.02 0 0 0.01-0.01-0.05 0.03-0.09 0.06c-0.12 0.06-0.16 0.23-0.09 0.34 0.07 0.12 0.23 0.15 0.34 0.09q0.12-0.07 0.23-0.17 0.13-0.11 0.27-0.23 0.43-0.37 0.83-0.77 0.45-0.42 0.83-0.92 0.16-0.22 0.3-0.46 0.15-0.25 0.26-0.52 0 0-0.01 0.01 0.14-0.33 0.26-0.67 0.12-0.34 0.2-0.7 0.03-0.17 0.04-0.35 0.03-0.15 0.03-0.31 0.01-0.19 0-0.38 0-0.21-0.02-0.44-0.06-0.78-0.23-1.56-0.03-0.18-0.08-0.36-0.04-0.18-0.09-0.36-0.12-0.4-0.24-0.79-0.21-0.65-0.49-1.26-0.15-0.32-0.33-0.63-0.19-0.33-0.4-0.64-0.38-0.6-0.81-1.16-0.29-0.38-0.56-0.78-0.04-0.06-0.07-0.13-0.03-0.08-0.04-0.17c-0.02-0.11-0.13-0.18-0.24-0.18q-0.04 0-0.07 0.01z"/>
    <path class="s0" d="m24.1 30.65q-0.1 0.1-0.07 0.24 0.02 0.05 0.04 0.1c0.07 0.12 0.23 0.15 0.35 0.08q0.07-0.04 0.1-0.11 0.01-0.02 0.01-0.05 0.03-0.1-0.02-0.19c-0.05-0.06-0.09-0.11-0.17-0.14q-0.03-0.01-0.06-0.01-0.11 0.01-0.18 0.08z"/>
    <path class="s0" d="m30.02 30.22q-0.08 0-0.15 0.03-0.03 0.02-0.05 0.04-0.01 0.01-0.01 0.01-0.1 0.05-0.12 0.16c-0.05 0.11 0 0.25 0.11 0.31 0.11 0.08 0.25 0.03 0.33-0.08q0.07-0.03 0.1-0.1 0.04-0.05 0.04-0.12 0-0.11-0.07-0.18-0.07-0.06-0.17-0.08-0.01 0-0.01 0.01z"/>
    <path class="s0" d="m27.47 39.97q-0.07 0-0.13 0.03-0.08 0.03-0.16 0.05-0.12 0.03-0.25 0.07-0.39 0.09-0.79 0.16 0.02 0 0.03 0-0.34 0.04-0.68 0.04-0.43-0.01-0.85-0.06 0.02 0 0.05 0-0.53-0.08-1.05-0.21-0.12-0.03-0.24-0.05-0.07 0-0.13-0.02-0.07-0.02-0.15 0-0.06 0.02-0.11 0.07-0.08 0.07-0.07 0.18 0 0.14 0.12 0.21 0.06 0.03 0.13 0.06 0.06 0.02 0.13 0 0.39 0.07 0.78 0.17 0.76 0.15 1.53 0.15c0.45 0 0.9-0.09 1.33-0.2q0.18-0.04 0.35-0.09 0.02 0 0.04-0.01 0.05 0.21 0.08 0.42 0-0.04-0.01-0.07 0.06 0.54 0.09 1.09 0.02 0.25 0.02 0.5 0 0.33 0 0.66-0.03 0.62-0.1 1.23-0.05 0.53-0.12 1.05 0-0.01 0-0.01-0.01 0.04-0.01 0.09 0-0.02 0-0.04 0 0.04-0.01 0.08-0.12 0.34-0.17 0.68 0 0 0-0.01-0.01 0.1-0.01 0.2c0.01 0.12 0.06 0.25 0.2 0.28 0.1 0.02 0.23-0.01 0.28-0.12q0.07-0.17 0.1-0.36 0.05-0.26 0.08-0.53 0.02-0.05 0.04-0.1 0.02-0.07 0-0.14 0.1-0.74 0.17-1.5 0.04-0.48 0.05-0.97 0.01-0.44-0.01-0.89-0.02-0.38-0.05-0.76-0.03-0.38-0.1-0.76-0.02-0.12-0.06-0.23-0.04-0.11-0.1-0.2-0.08-0.13-0.23-0.14 0 0-0.01 0z"/>
  </g>
  <g id="right-arm">
    <path class="s0" d="m29.74 39.15c-0.11 0.07-0.16 0.23-0.09 0.34q0.01 0.02 0.02 0.03 0.12 0.31 0.17 0.63 0-0.01 0-0.02 0 0.02 0 0.04 0 0.01 0.01 0.02-0.01 0-0.01-0.01 0.06 0.61 0.12 1.22 0.03 0.31 0.06 0.62 0.03 0.39 0.06 0.78 0.05 0.66 0.06 1.32 0 0.33-0.01 0.66-0.02 0.29-0.06 0.57-0.06 0.43-0.14 0.85-0.03 0.18-0.08 0.34-0.08 0.04-0.12 0.11c-0.07 0.11-0.03 0.27 0.09 0.34q0.08 0.05 0.18 0.05 0.12 0 0.2-0.1 0.08-0.11 0.12-0.25 0.05-0.15 0.08-0.31 0.05-0.25 0.09-0.5 0.05-0.28 0.09-0.56 0.03-0.25 0.05-0.51 0.01-0.28 0.01-0.57 0-0.27-0.01-0.54-0.03-0.53-0.06-1.06-0.04-0.51-0.09-1.02-0.06-0.59-0.12-1.18-0.01-0.21-0.04-0.43-0.03-0.16-0.06-0.32-0.06-0.23-0.18-0.45-0.08-0.12-0.21-0.12-0.07 0-0.13 0.03z"/>
    <path class="s0" d="m36.43 36.24c-0.1 0.09-0.1 0.26 0 0.35q0.05 0.05 0.1 0.1 0.03 0.06 0.06 0.12 0.07 0.18 0.1 0.36 0.04 0.25 0.11 0.51 0.1 0.26 0.23 0.5 0.1 0.21 0.2 0.43 0 0 0 0 0.15 0.34 0.23 0.7 0 0.04 0 0.09 0 0.01 0 0.02-0.02 0-0.04 0.01-0.04 0-0.09-0.01-0.1-0.01-0.19-0.05 0.02 0.01 0.04 0.02-0.18-0.09-0.33-0.2-0.19-0.16-0.34-0.35-0.22-0.29-0.37-0.63 0.01 0.03 0.02 0.06-0.11-0.27-0.2-0.55-0.05-0.31-0.11-0.62-0.02-0.11-0.05-0.22-0.01-0.07-0.04-0.12-0.08-0.12-0.22-0.13-0.07 0-0.13 0.04-0.08 0.05-0.11 0.15-0.03 0.11 0 0.22 0.03 0.23 0.08 0.46 0.04 0.18 0.1 0.35 0.09 0.73 0.03 1.45 0.01-0.02 0.01-0.05 0 0.04-0.01 0.07 0-0.01 0-0.02-0.01 0.11-0.05 0.22-0.03 0.05-0.06 0.1-0.01 0.02-0.03 0.03-0.02 0.02-0.04 0.03-0.01 0-0.02 0 0 0-0.01 0-0.01 0-0.02 0-0.02-0.01-0.03-0.02-0.03-0.03-0.06-0.06-0.05-0.08-0.1-0.17-0.14-0.26-0.25-0.54 0.01 0.03 0.02 0.06-0.16-0.42-0.34-0.84-0.16-0.37-0.33-0.75 0 0 0 0-0.03-0.09-0.06-0.18-0.03-0.1-0.09-0.17c-0.12-0.12-0.31-0.09-0.4 0.05-0.05 0.09-0.03 0.19 0 0.28q0.03 0.09 0.08 0.18 0.03 0.12 0.05 0.25-0.01-0.01-0.01-0.02 0.01 0.02 0.01 0.04 0 0.01 0 0.02 0-0.01 0-0.01 0.03 0.45 0.03 0.91 0.01 0.31 0.01 0.6 0.01 0.29-0.02 0.58 0-0.01 0.01-0.01-0.01 0-0.01 0.01 0 0.03 0 0.05 0-0.02 0-0.04-0.01 0.1-0.05 0.2-0.03-0.01-0.06-0.02-0.1-0.05-0.2-0.12 0.01 0.01 0.01 0.01-0.01-0.01-0.01-0.01-0.02-0.01-0.04-0.03 0.01 0.01 0.03 0.02-0.23-0.18-0.41-0.4-0.22-0.32-0.37-0.68-0.14-0.34-0.2-0.69-0.05-0.33-0.04-0.67 0-0.07 0-0.13 0.02-0.02 0.04-0.03 0.07-0.08 0.07-0.18 0.03-0.13 0-0.26-0.02-0.08-0.08-0.14c-0.06-0.07-0.18-0.11-0.27-0.08q-0.11 0.04-0.17 0.14-0.04 0.07-0.05 0.15-0.04 0.18-0.04 0.37-0.03 0.6 0.1 1.19 0.07 0.29 0.19 0.55 0.15 0.34 0.34 0.64 0.27 0.38 0.65 0.66 0.09 0.08 0.21 0.13 0.09 0.05 0.2 0.07 0.13 0.03 0.25 0 0.11-0.03 0.19-0.1 0.09-0.1 0.13-0.22 0.07-0.19 0.09-0.4 0.02-0.31 0.01-0.63 0-0.17 0-0.34 0.1 0.25 0.21 0.5c0.1 0.22 0.21 0.47 0.4 0.63q0.15 0.13 0.34 0.15 0.21 0.02 0.38-0.11 0.18-0.14 0.27-0.35 0.08-0.18 0.1-0.37 0 0.01 0 0.03 0.02-0.17 0.02-0.33 0.17 0.23 0.38 0.43c0.23 0.2 0.5 0.37 0.79 0.43q0.17 0.03 0.35 0 0.15-0.03 0.26-0.14 0.11-0.1 0.14-0.26 0.03-0.14 0-0.29 0 0.03 0.01 0.07-0.07-0.42-0.25-0.81-0.18-0.4-0.37-0.79-0.08-0.2-0.12-0.41-0.04-0.19-0.07-0.37-0.05-0.19-0.13-0.37-0.09-0.17-0.24-0.3-0.08-0.07-0.18-0.07-0.09 0-0.17 0.07z"/>
  </g>
  <g id="left-arm">
    <path class="s0" d="m20.18 36.94c-0.1 0.1-0.09 0.24-0.03 0.35q0.01 0.01 0.02 0.02 0.04 0.33 0.09 0.65 0 0-0.01-0.01 0.01 0.01 0.01 0.03 0 0.02 0 0.04 0-0.01 0-0.02 0 0.03 0.01 0.05-0.01-0.02-0.01-0.04 0.01 0.03 0.01 0.05 0 0.01 0 0.02 0-0.01 0-0.01 0.06 0.54-0.01 1.07 0.01-0.03 0.01-0.07-0.05 0.34-0.11 0.68-0.06 0.31-0.14 0.62-0.16 0.63-0.39 1.23 0-0.01 0.01-0.02c-0.14 0.33-0.29 0.67-0.51 0.96q0.01-0.01 0.01-0.01-0.01 0.01-0.01 0.02-0.02 0.01-0.03 0.03 0.01-0.01 0.02-0.02-0.09 0.1-0.2 0.19-0.02 0.03-0.06 0.04 0 0 0 0-0.02-0.03-0.04-0.07-0.03-0.09-0.05-0.2 0 0.01 0 0.02 0-0.02 0-0.04 0 0 0 0.01 0-0.01-0.01-0.02 0-0.02 0-0.04 0 0.01 0 0.03-0.02-0.38 0.01-0.75 0.03-0.46 0.1-0.92 0 0.01 0 0.03 0-0.05 0.01-0.09 0.02-0.09 0.05-0.18 0.06-0.26 0.1-0.53 0.02-0.09 0.04-0.19c0.01-0.08 0.03-0.17-0.02-0.24q-0.08-0.12-0.22-0.12c-0.08 0-0.18 0.04-0.22 0.12q-0.03 0.08-0.05 0.16-0.02 0.09-0.04 0.19-0.07 0.32-0.12 0.64-0.12 0.44-0.3 0.85 0.01 0 0.01-0.01-0.01 0.02-0.02 0.05-0.21 0.5-0.52 0.95 0.01-0.01 0.02-0.02-0.01 0.01-0.02 0.02-0.01 0.02-0.02 0.03 0.01-0.01 0.02-0.02-0.17 0.2-0.37 0.37-0.05 0.04-0.11 0.07-0.03 0.01-0.05 0.02-0.02-0.05-0.03-0.11 0.01 0.01 0.01 0.02-0.03-0.31 0-0.61 0.04-0.52 0.1-1.04 0 0.04-0.01 0.07 0.06-0.45 0.17-0.88 0.01-0.04 0.03-0.07 0.06-0.17 0.12-0.34 0.03-0.1 0.06-0.2 0.03-0.08 0.01-0.17-0.03-0.1-0.12-0.15-0.13-0.07-0.25 0c-0.09 0.05-0.12 0.13-0.15 0.22q-0.05 0.12-0.09 0.25-0.05 0.16-0.09 0.33-0.03 0.07-0.06 0.13 0.01-0.03 0.03-0.06-0.12 0.27-0.25 0.53-0.11 0.21-0.23 0.41-0.29 0.48-0.62 0.94-0.26 0.33-0.58 0.59-0.09 0.06-0.18 0.12-0.04 0.01-0.08 0.02-0.02-0.03-0.03-0.07-0.05-0.12-0.07-0.25-0.05-0.31-0.02-0.62 0.05-0.37 0.16-0.73 0.11-0.34 0.24-0.66-0.01 0.04-0.02 0.07 0.21-0.47 0.51-0.88 0.04-0.05 0.08-0.11c0.05-0.08 0.05-0.2 0-0.28q-0.07-0.1-0.18-0.12-0.04-0.01-0.09-0.02-0.01 0-0.02 0-0.02-0.01-0.03-0.02-0.04-0.03-0.07-0.07-0.04-0.06-0.08-0.14-0.06-0.16-0.09-0.33-0.01-0.11 0-0.22 0.01-0.07 0.04-0.14 0.05-0.1 0.11-0.19 0.15-0.18 0.34-0.32 0.09-0.07 0.19-0.13 0.11-0.08 0.24-0.13-0.02 0.01-0.04 0.02 0.03-0.01 0.06-0.02c0.12 0.02 0.24-0.07 0.27-0.19 0.04-0.13-0.05-0.26-0.18-0.3-0.13-0.05-0.26 0.02-0.38 0.07q-0.24 0.11-0.46 0.28c-0.3 0.23-0.58 0.52-0.67 0.9q-0.05 0.25 0 0.49 0.04 0.25 0.15 0.47 0.1 0.22 0.29 0.36-0.11 0.16-0.2 0.32-0.31 0.55-0.49 1.16-0.11 0.37-0.17 0.77-0.04 0.34 0 0.68 0.03 0.31 0.17 0.59c0.1 0.17 0.29 0.27 0.48 0.25 0.24-0.02 0.44-0.16 0.62-0.31q0.38-0.32 0.67-0.74 0.21-0.29 0.4-0.59-0.03 0.22-0.04 0.45-0.02 0.22-0.02 0.44 0.01 0.2 0.06 0.39c0.03 0.14 0.12 0.27 0.25 0.33q0.17 0.07 0.35 0.02c0.18-0.04 0.36-0.17 0.5-0.3q0.36-0.36 0.6-0.81 0 0.14 0.01 0.28 0 0 0-0.01 0.02 0.22 0.11 0.41c0.07 0.14 0.18 0.27 0.33 0.32 0.22 0.07 0.43-0.04 0.59-0.19q0.21-0.19 0.36-0.43 0.19-0.32 0.34-0.67c0.29-0.66 0.49-1.37 0.63-2.08q0.12-0.51 0.16-1.04 0.02-0.3 0-0.59-0.01-0.18-0.04-0.37 0 0.04 0.01 0.07-0.04-0.28-0.08-0.56 0 0.04 0.01 0.07-0.02-0.16-0.04-0.33-0.01-0.12-0.09-0.21-0.09-0.08-0.2-0.08-0.1 0-0.18 0.07z"/>
    <path class="s0" d="m22.74 39.93q-0.02 0.39-0.02 0.79 0.01 0.34 0.02 0.67 0.02 0.34 0.02 0.67 0 0.19 0 0.37 0 0.18-0.01 0.36-0.03 0.68-0.1 1.37-0.06 0.63-0.14 1.26 0 0 0-0.01-0.02 0.2-0.05 0.39-0.05 0.24-0.11 0.47-0.04 0.13-0.08 0.26-0.01 0-0.03-0.01-0.1-0.03-0.19 0.02-0.09 0.06-0.12 0.15-0.03 0.2-0.03 0.4 0 0.07 0.01 0.14 0.01 0.09 0.05 0.16 0.03 0.04 0.06 0.08 0.05 0.05 0.12 0.07c0.09 0.03 0.2-0.01 0.26-0.07q0.05-0.06 0.09-0.12 0.07-0.13 0.12-0.26 0.09-0.23 0.15-0.46 0.1-0.31 0.16-0.62 0.1-0.54 0.16-1.08 0.06-0.61 0.11-1.22 0.03-0.32 0.05-0.64 0.01-0.3 0.02-0.6 0.01-0.25 0-0.52-0.01-0.32-0.02-0.64-0.01-0.3-0.02-0.59 0-0.4 0.02-0.79c0.01-0.14-0.12-0.25-0.25-0.25-0.14 0-0.24 0.11-0.25 0.25z"/>
    <path class="s0" d="m19.33 46.49c0 0.13 0.12 0.25 0.25 0.25 0.14 0 0.25-0.12 0.25-0.25 0-0.14-0.11-0.25-0.25-0.25-0.13 0-0.25 0.11-0.25 0.25z"/>
    <path class="s0" d="m19.68 46.32q-0.13 0.06-0.25 0.12 0.01-0.01 0.03-0.01-0.6 0.24-1.23 0.42-0.51 0.13-1.02 0.26-0.45 0.12-0.91 0.24-0.26 0.07-0.51 0.16-0.35 0.14-0.68 0.32-0.29 0.15-0.56 0.33-0.19 0.14-0.37 0.29-0.14 0.11-0.25 0.26-0.18 0.23-0.23 0.51-0.03 0.13-0.01 0.26 0.02 0.11 0.08 0.22 0.08 0.14 0.21 0.24c0.24 0.21 0.58 0.29 0.89 0.31q0.63 0.04 1.25 0.01 0.62-0.04 1.24-0.13-0.03 0.01-0.07 0.01 1.28-0.17 2.55-0.39c0.73-0.12 1.44-0.32 2.15-0.52q0.12-0.04 0.24-0.07 0.14-0.04 0.27-0.09 0.17-0.05 0.25-0.21 0.08-0.18 0.05-0.37-0.05-0.28-0.14-0.55-0.09-0.3-0.15-0.61-0.01-0.12-0.01-0.23 0-0.17-0.04-0.33c-0.03-0.14-0.17-0.22-0.3-0.18-0.13 0.03-0.22 0.18-0.18 0.31q0.01 0 0.01 0.01 0.01 0.2 0.02 0.39 0.02 0.23 0.08 0.45 0.06 0.24 0.14 0.48 0.04 0.17 0.08 0.34 0 0.02 0 0.05-0.13 0.04-0.27 0.07-0.17 0.05-0.34 0.1-0.7 0.21-1.42 0.37-0.69 0.14-1.38 0.25-0.82 0.13-1.64 0.24 0.04-0.01 0.07-0.01-0.08 0.01-0.17 0.02 0 0 0.01 0-0.57 0.08-1.15 0.1-0.27 0.01-0.55 0.01-0.33 0-0.67-0.02 0.01 0 0.02 0-0.01 0-0.02 0-0.02-0.01-0.04-0.01 0.01 0 0.03 0-0.16-0.02-0.31-0.08-0.08-0.03-0.16-0.08-0.05-0.05-0.09-0.1-0.02-0.03-0.03-0.05-0.01-0.02-0.01-0.04-0.01-0.04 0-0.08 0.02-0.08 0.05-0.16 0.04-0.08 0.1-0.17-0.01 0.02-0.02 0.03 0.01-0.02 0.02-0.03 0.01-0.01 0.01-0.02 0 0.01-0.01 0.02 0.11-0.12 0.24-0.22 0.33-0.25 0.69-0.46 0.33-0.17 0.67-0.32-0.03 0.02-0.06 0.03 0.27-0.1 0.55-0.17 0.53-0.15 1.05-0.29 0.51-0.12 1.03-0.26 0.31-0.09 0.61-0.2 0.41-0.14 0.81-0.34c0.12-0.05 0.16-0.23 0.09-0.34q-0.05-0.08-0.15-0.11-0.03-0.01-0.06-0.01-0.07 0-0.13 0.03z"/>
  </g>
  <g id="legs">
    <path class="s0" d="m27.15 46.35q-0.09 0.05-0.12 0.15-0.03 0.07-0.04 0.14-0.02 0.19 0.01 0.38 0.04 0.16 0.07 0.31 0.04 0.17 0.09 0.33 0.04 0.15 0.09 0.3 0.07 0.19 0.22 0.33 0.25 0.21 0.56 0.32 0.27 0.1 0.56 0.18 0.42 0.11 0.86 0.16 0.47 0.06 0.95 0.1 0.68 0.06 1.37 0.12c0.84 0.06 1.69-0.01 2.53-0.13q0.45-0.07 0.88-0.18 0.35-0.09 0.67-0.23 0.19-0.08 0.34-0.22 0.14-0.15 0.18-0.35 0.05-0.35-0.14-0.65-0.11-0.15-0.26-0.26-0.16-0.12-0.34-0.19-0.28-0.12-0.56-0.19-0.41-0.1-0.83-0.14 0 0 0.01 0-0.72-0.12-1.44-0.18-0.64-0.04-1.28-0.05-0.59-0.01-1.17-0.05c-0.16-0.01-0.34-0.03-0.51-0.01-0.12 0.03-0.21 0.14-0.21 0.26 0 0.11 0.06 0.18 0.13 0.25 0.1 0.1 0.26 0.1 0.36 0q0.01-0.01 0.01-0.02 0.07 0.01 0.13 0.01 0.17 0.02 0.35 0.03 0.44 0.03 0.88 0.03 0.45 0.01 0.89 0.03 0.52 0.02 1.04 0.09-0.03-0.01-0.07-0.02 0.43 0.06 0.85 0.12-0.03 0-0.05 0 0.33 0.04 0.65 0.1 0.28 0.06 0.55 0.16-0.04-0.01-0.07-0.02 0.22 0.08 0.41 0.21 0.05 0.04 0.09 0.09 0.04 0.05 0.06 0.1 0.02 0.05 0.03 0.1 0 0.04 0 0.09-0.01 0.03-0.02 0.06-0.01 0.02-0.02 0.04-0.02 0.02-0.03 0.03-0.09 0.06-0.18 0.11-0.31 0.12-0.64 0.2-0.45 0.11-0.91 0.18 0.02-0.01 0.04-0.01-0.64 0.09-1.29 0.12-0.58 0.02-1.16-0.02-0.68-0.06-1.36-0.12-0.47-0.04-0.93-0.1 0.03 0.01 0.07 0.01-0.7-0.09-1.34-0.35 0.03 0.01 0.06 0.02-0.18-0.07-0.33-0.17-0.04-0.04-0.08-0.08-0.02-0.04-0.04-0.07-0.03-0.1-0.06-0.2-0.03-0.12-0.07-0.24-0.02-0.13-0.06-0.27-0.03-0.11-0.05-0.22 0-0.06 0-0.12 0.01-0.06 0.03-0.12c0.05-0.13-0.05-0.27-0.17-0.31q-0.03-0.01-0.06-0.01-0.07 0-0.13 0.04z"/>
    <path class="s0" d="m19.67 42.02q-0.1 0.03-0.15 0.12-0.05 0.09-0.02 0.19 0.03 0.2 0.06 0.4-0.01-0.01-0.01-0.03 0.09 0.62 0.12 1.24 0.02 0.5-0.02 1.01-0.04 0.52-0.09 1.03-0.01 0.05-0.02 0.1-0.12 0.08-0.12 0.22 0 0.07 0.01 0.15 0 0.1 0.02 0.18 0.03 0.1 0.12 0.15c0.05 0.03 0.13 0.05 0.19 0.03q0.06-0.02 0.11-0.07 0.05-0.05 0.07-0.13 0.02-0.08 0.04-0.16 0.06-0.3 0.09-0.61 0.05-0.52 0.09-1.03 0.02-0.34 0.01-0.7 0-0.35-0.03-0.7-0.06-0.61-0.16-1.21c-0.01-0.06-0.07-0.12-0.11-0.15q-0.06-0.04-0.13-0.04-0.03 0-0.07 0.01z"/>
  </g>
</svg>