<svg viewBox="0 0 94 69" xmlns="http://www.w3.org/2000/svg">
  <style>
    .s0 { fill: #161616 }
  </style>
  <g id="head">
    <path class="s0" d="m45.26 12.84q-0.2 0.04-0.4 0.11-0.21 0.09-0.4 0.22-0.12 0.07-0.24 0.16 0.01 0 0.01-0.01-0.01 0.01-0.02 0.02-0.02 0.01-0.03 0.02 0.01 0 0.01-0.01-0.01 0.02-0.03 0.03 0.01 0 0.01-0.01-0.06 0.05-0.12 0.08-0.05 0.02-0.1 0.03-0.32 0.01-0.63-0.01-0.59-0.02-1.18-0.04-0.1-0.01-0.21-0.02-0.05-0.01-0.09-0.01-0.05 0-0.09-0.01-0.08 0.01-0.16 0.02-0.11 0.04-0.18 0.14c-0.08 0.08-0.11 0.2-0.15 0.31q-0.06 0.2-0.07 0.41-0.01 0.18-0.01 0.36-0.01 0.2 0.01 0.39 0.03 0.39 0.08 0.78 0.04 0.3 0.08 0.6 0.07 0.5 0.14 0.99 0.02 0.1 0.11 0.15 0.09 0.05 0.19 0.03 0.1-0.03 0.15-0.12 0.05-0.09 0.03-0.19-0.07-0.44-0.12-0.87 0 0.03 0.01 0.07-0.05-0.37-0.1-0.73-0.03-0.26-0.05-0.51-0.04-0.29-0.03-0.59-0.01-0.24 0.02-0.48 0 0.01 0 0.01 0-0.01 0-0.01 0-0.03 0.01-0.06 0 0.03-0.01 0.05 0.02-0.11 0.06-0.21 0.01-0.02 0.02-0.04 0.01 0 0.03 0.01 0.04 0 0.08 0.01 0.1 0 0.19 0.01 0.19 0.01 0.39 0.02 0.46 0.02 0.93 0.03 0.27 0.02 0.54 0.01 0.14-0.01 0.26-0.05 0.09-0.03 0.17-0.08 0.07-0.06 0.14-0.11 0 0-0.01 0 0.02-0.01 0.03-0.02 0.24-0.17 0.5-0.3 0.31-0.1 0.62-0.15 0.3-0.02 0.6 0 0.4 0.12 0.79 0.28 0.14 0.07 0.28 0.14 0.16 0.09 0.31 0.2-0.01-0.01-0.03-0.02 0.03 0.01 0.05 0.03-0.01 0-0.01-0.01 0 0.01 0.01 0.01 0.04 0.03 0.07 0.06 0 0-0.01-0.01 0.49 0.38 0.94 0.8 0.14 0.13 0.3 0.25 0.15 0.11 0.32 0.18 0.1 0.03 0.22 0.02 0.09 0 0.18-0.02 0.13-0.02 0.27-0.05 0.16-0.03 0.32-0.08 0.21-0.05 0.43-0.08-0.01 0-0.02 0 0.29-0.03 0.57-0.06 0.18-0.01 0.35-0.03 0.55-0.04 1.11 0.04 0.19 0.03 0.39 0.08 0.28 0.07 0.56 0.19 0.17 0.08 0.34 0.16 0.25 0.14 0.47 0.32 0-0.01 0-0.01 0.26 0.22 0.49 0.48-0.01-0.02-0.02-0.04 0.02 0.02 0.03 0.05 0 0 0 0 0 0 0 0 0.06 0.07 0.1 0.16 0.03 0.06 0.06 0.13 0.12 0.3 0.2 0.62 0.03 0.25 0.04 0.51 0 0.24 0 0.48-0.01 0.24-0.05 0.48-0.03 0.25-0.06 0.49 0-0.02 0.01-0.05-0.04 0.23-0.08 0.46-0.05 0.23-0.13 0.46-0.06 0.2-0.13 0.4c-0.05 0.13-0.11 0.26-0.11 0.41-0.01 0.13 0.1 0.24 0.2 0.3q0.09 0.04 0.17 0.09 0.21 0.1 0.41 0.23-0.01-0.01-0.02-0.02 0.01 0.02 0.03 0.03 0.01 0.01 0.02 0.01-0.01 0-0.02-0.01 0.27 0.24 0.53 0.49 0.3 0.31 0.57 0.66 0-0.01 0-0.01 0.06 0.08 0.12 0.16 0-0.01-0.01-0.01 0.06 0.07 0.12 0.15 0 0 0 0 0.37 0.5 0.7 1.03 0.48 0.75 0.85 1.56-0.02-0.03-0.03-0.06 0.13 0.31 0.23 0.63 0.12 0.38 0.17 0.76 0-0.01 0-0.02 0 0.02 0 0.04 0 0.01 0 0.03 0-0.01 0-0.02 0.06 0.59 0.02 1.18-0.03 0.32-0.06 0.65-0.04 0.45-0.1 0.89 0 0 0-0.01-0.06 0.36-0.12 0.71-0.05 0.31-0.12 0.62c-0.08 0.39-0.18 0.77-0.22 1.17q-0.01 0.05-0.02 0.1-0.01 0.11 0.01 0.2 0.02 0.09 0.06 0.17c0.05 0.12 0.18 0.16 0.29 0.18q0.25 0.04 0.5 0.06 0 0-0.01 0 0.01 0 0.02 0 0.02 0 0.04 0-0.01 0-0.03 0 0.12 0.02 0.23 0.06 0.16 0.08 0.32 0.2-0.01 0-0.01 0 0.06 0.04 0.11 0.08 0.23 0.19 0.45 0.38 0.17 0.15 0.33 0.31 0.38 0.37 0.7 0.78 0 0-0.01-0.01 0.01 0.01 0.02 0.03 0.01 0.01 0.02 0.02 0 0 0 0 0.14 0.19 0.27 0.38 0.18 0.27 0.37 0.54 0.07 0.1 0.14 0.21 0.12 0.2 0.24 0.41 0.2 0.32 0.39 0.65 0.24 0.46 0.49 0.92 0.18 0.34 0.35 0.68 0.16 0.33 0.33 0.66 0.42 0.84 0.8 1.69-0.01-0.03-0.03-0.06 0.15 0.34 0.27 0.69 0.11 0.33 0.17 0.67 0 0.07 0 0.14-0.01 0.08-0.04 0.17-0.04 0.08-0.1 0.16-0.01 0.02-0.02 0.03 0.01-0.01 0.01-0.02-0.11 0.14-0.25 0.25 0.01 0 0.03-0.01-0.02 0.01-0.04 0.02 0 0.01-0.01 0.02 0-0.01 0.01-0.01-0.34 0.22-0.72 0.36 0.02 0 0.03-0.01-0.16 0.07-0.32 0.13-0.09 0.03-0.18 0.07-0.1 0.03-0.21 0.07-0.2 0.06-0.4 0.11-0.14 0.03-0.29 0.05 0.02-0.01 0.04-0.01-0.11 0.02-0.23 0.02-0.02 0-0.05-0.01-0.09-0.01-0.18-0.01-0.07 0-0.14 0.02-0.18 0.06-0.19 0.24c0 0.11 0.08 0.22 0.19 0.24q0.17 0.04 0.36 0.03 0.25 0.05 0.49 0.11 0.51 0.12 1 0.31-0.01-0.01-0.01-0.01 0.26 0.11 0.5 0.25 0.33 0.18 0.63 0.41 0.44 0.35 0.83 0.75 0.42 0.44 0.78 0.91 0.47 0.61 0.88 1.27 0.41 0.69 0.74 1.42-0.01 0-0.01-0.01 0.42 0.97 0.6 2.01 0-0.01 0-0.01 0.04 0.31 0.06 0.63 0 0.33-0.03 0.66-0.04 0.32-0.12 0.63-0.08 0.3-0.19 0.58 0-0.01 0.01-0.02-0.13 0.31-0.28 0.61-0.2 0.39-0.44 0.77-0.43 0.69-0.94 1.34-0.49 0.62-1.04 1.19-0.63 0.65-1.34 1.21-0.31 0.24-0.64 0.46-0.42 0.27-0.88 0.46 0.03-0.01 0.06-0.02-0.31 0.14-0.65 0.22-0.07 0.02-0.15 0.04-0.16 0.04-0.33 0.07-0.02 0-0.04 0-0.21 0.02-0.42 0.01-0.1 0-0.21 0.01-0.24 0.04-0.46 0.14-0.56 0.24-1.1 0.54-0.26 0.14-0.52 0.28-0.14 0.07-0.29 0.15-0.17 0.08-0.34 0.16 0.02-0.01 0.04-0.02-0.14 0.06-0.29 0.1-0.06 0.01-0.12 0.02-0.27 0.03-0.54 0.01-0.33-0.01-0.67 0.01c-0.13 0.01-0.25 0.11-0.25 0.25 0 0.14 0.12 0.26 0.25 0.25q0.28-0.01 0.55-0.01 0.19-0.01 0.37 0 0.49 0.02 0.94-0.19 0.16-0.08 0.32-0.15 0.14-0.07 0.28-0.15 0.26-0.14 0.52-0.28 0.51-0.28 1.04-0.51-0.03 0.01-0.06 0.02 0.19-0.08 0.38-0.13 0.15 0 0.29 0 0.21 0 0.43-0.03-0.04 0.01-0.07 0.01 0.3-0.04 0.58-0.11c0.51-0.13 1-0.37 1.45-0.64 0.56-0.33 1.07-0.75 1.56-1.18q0.8-0.73 1.49-1.57 0.62-0.75 1.14-1.57 0.29-0.45 0.53-0.91 0.2-0.4 0.36-0.82 0.18-0.47 0.26-0.97 0.07-0.46 0.06-0.92c-0.01-0.65-0.16-1.3-0.36-1.92q-0.32-0.98-0.82-1.89-0.52-0.94-1.19-1.8-0.59-0.77-1.31-1.42-0.67-0.61-1.49-0.99-0.34-0.15-0.69-0.26 0.09-0.03 0.19-0.06 0.26-0.1 0.5-0.2 0.29-0.12 0.56-0.27 0.32-0.18 0.56-0.48-0.01 0.01-0.01 0.01 0.01-0.02 0.02-0.03 0.01-0.01 0.02-0.02-0.01 0-0.01 0.01 0.08-0.11 0.14-0.23 0.07-0.16 0.1-0.33c0.03-0.21-0.03-0.45-0.08-0.66q-0.12-0.45-0.3-0.87-0.17-0.4-0.36-0.8-0.57-1.2-1.18-2.38-0.13-0.26-0.26-0.5-0.16-0.29-0.31-0.57-0.05-0.1-0.11-0.19-0.12-0.2-0.24-0.39-0.13-0.24-0.27-0.46-0.24-0.35-0.47-0.7-0.33-0.47-0.7-0.91-0.4-0.44-0.85-0.82-0.2-0.18-0.42-0.34 0.01 0 0.01 0-0.21-0.17-0.45-0.29-0.17-0.09-0.36-0.1-0.22-0.03-0.43-0.05 0 0 0 0-0.01 0-0.01 0-0.02 0-0.04-0.01 0 0 0 0 0 0 0 0 0 0 0 0 0-0.08 0.01-0.16 0.08-0.45 0.18-0.89 0.1-0.46 0.18-0.92 0.04-0.28 0.09-0.56 0.04-0.27 0.07-0.53 0.03-0.22 0.05-0.43 0.03-0.33 0.05-0.67 0.04-0.46 0.01-0.93-0.03-0.62-0.2-1.21-0.19-0.61-0.49-1.18-0.15-0.28-0.31-0.56-0.49-0.86-1.09-1.64-0.05-0.07-0.09-0.13 0 0 0 0-0.12-0.15-0.24-0.3-0.08-0.09-0.16-0.19-0.08-0.1-0.17-0.19-0.3-0.32-0.63-0.6-0.21-0.18-0.44-0.3-0.11-0.05-0.22-0.1 0.05-0.13 0.1-0.25 0.08-0.25 0.16-0.5c0.1-0.38 0.15-0.78 0.21-1.17q0.03-0.3 0.05-0.59 0.02-0.31 0-0.61 0-0.14-0.01-0.28-0.01-0.13-0.03-0.25-0.04-0.19-0.1-0.38-0.12-0.33-0.28-0.63-0.06-0.08-0.11-0.15-0.09-0.1-0.18-0.19-0.24-0.24-0.52-0.44c-0.37-0.29-0.81-0.47-1.26-0.62q-0.32-0.09-0.65-0.13-0.2-0.03-0.39-0.05-0.28-0.01-0.55 0-0.36 0.02-0.71 0.06-0.51 0.04-1 0.16-0.26 0.07-0.53 0.11 0.03 0 0.07-0.01-0.09 0.02-0.18 0.01-0.01 0-0.02-0.01-0.11-0.05-0.2-0.12-0.21-0.19-0.42-0.39-0.39-0.33-0.8-0.65 0.01 0.01 0.02 0.01-0.02-0.01-0.03-0.02-0.01-0.01-0.03-0.02 0.01 0.01 0.01 0.01-0.08-0.06-0.17-0.12-0.26-0.18-0.55-0.29-0.18-0.08-0.37-0.15-0.18-0.08-0.38-0.13c-0.19-0.06-0.39-0.06-0.59-0.06q-0.02 0-0.03 0-0.31 0.01-0.6 0.08z"/>
    <path fill-rule="evenodd" class="s0" d="m46.19 15.59q0.03 0 0.05 0 0.15 0.01 0.3 0.04 0.19 0.03 0.38 0.1 0.17 0.06 0.32 0.16 0.17 0.11 0.31 0.24 0.36 0.33 0.63 0.73 0.48 0.71 0.8 1.52 0.1 0.25 0.2 0.51 0.05 0.11 0.09 0.22 0.09 0.28 0.18 0.55 0.04 0.12 0.07 0.24 0.12 0.39 0.21 0.78 0.04 0.17 0.08 0.35 0.02 0.07 0.03 0.13 0.04 0.22 0.08 0.43 0.02 0.15 0.04 0.29 0.03 0.21 0.05 0.41 0.03 0.34 0.03 0.68 0 0.17-0.05 0.34-0.03 0.09-0.07 0.17-0.14 0.22-0.37 0.36-0.14 0.09-0.29 0.17-0.12 0.06-0.25 0.1-0.14 0.03-0.29 0.04-0.16 0.02-0.32 0.02-0.11-0.01-0.22-0.01-0.09 0-0.19-0.01-0.21-0.02-0.42-0.04-0.34-0.03-0.67-0.08 0.02 0.01 0.03 0.01-0.21-0.03-0.43-0.07-0.22-0.05-0.44-0.1-0.36-0.09-0.71-0.21-0.35-0.12-0.67-0.3-0.28-0.14-0.56-0.27 0.03 0.01 0.06 0.02-0.13-0.05-0.27-0.07-0.02 0-0.03-0.01-0.13 0.08-0.27 0.01c-0.11-0.07-0.15-0.22-0.09-0.34 0.11-0.18 0.31-0.18 0.48-0.15q0.14 0.01 0.27 0.06 0.07 0.03 0.14 0.06-0.04-0.22-0.11-0.45-0.1-0.27-0.21-0.55-0.1-0.27-0.21-0.53-0.09-0.24-0.16-0.48-0.09-0.32-0.13-0.66-0.06-0.38-0.07-0.77-0.02-0.47-0.02-0.94c0-0.34-0.02-0.7 0.06-1.03q0.06-0.32 0.18-0.62 0.08-0.15 0.19-0.28 0.14-0.14 0.3-0.26 0.21-0.15 0.45-0.24 0.24-0.08 0.5-0.13 0.31-0.07 0.63-0.11 0.11-0.01 0.23-0.02 0.07-0.01 0.15-0.01zm0.7 8.44q0 0 0.01 0-0.01 0-0.01 0zm-1.05-7.91q0 0 0 0 0 0 0 0-0.01 0-0.02 0 0 0 0.01 0c-0.35 0.05-0.71 0.11-1.04 0.24q0.02-0.01 0.04-0.02-0.2 0.09-0.37 0.21-0.1 0.08-0.19 0.18-0.05 0.08-0.1 0.17 0.01-0.03 0.02-0.05-0.01 0.02-0.02 0.05 0 0-0.01 0.01 0.01 0 0.01-0.01-0.11 0.3-0.15 0.62-0.04 0.48-0.02 0.96 0 0.7 0.07 1.41 0-0.01 0-0.02 0 0.01 0 0.03 0.01 0.02 0.01 0.04 0-0.01 0-0.02 0.03 0.31 0.12 0.61 0.07 0.23 0.16 0.46 0.07 0.18 0.14 0.36 0.05 0.1 0.08 0.21 0.11 0.26 0.2 0.53 0.08 0.24 0.12 0.48 0.02 0.17 0.04 0.34 0 0.01 0 0.03 0.22 0.11 0.45 0.21 0.73 0.25 1.48 0.38-0.02-0.01-0.05-0.01 0.15 0.02 0.29 0.04 0 0 0 0 0.43 0.05 0.86 0.09 0.11 0 0.21 0.01 0.11 0 0.22 0.01 0.18 0 0.36-0.02 0.04-0.01 0.07-0.02 0.09-0.02 0.18-0.05 0.19-0.1 0.37-0.22 0.04-0.04 0.08-0.08 0.02-0.04 0.04-0.08 0.01-0.05 0.03-0.09 0.02-0.29-0.01-0.58-0.02-0.33-0.06-0.66-0.04-0.25-0.08-0.5-0.04-0.19-0.09-0.39-0.04-0.18-0.09-0.37-0.08-0.29-0.16-0.57-0.04-0.17-0.1-0.32-0.08-0.26-0.16-0.51-0.07-0.18-0.15-0.36-0.08-0.23-0.17-0.44 0.01 0.03 0.02 0.06-0.17-0.41-0.38-0.79-0.2-0.36-0.44-0.7-0.15-0.2-0.33-0.37-0.11-0.11-0.23-0.21 0.01 0.01 0.03 0.02-0.02-0.02-0.04-0.03-0.01-0.01-0.02-0.01 0.01 0 0.01 0.01-0.11-0.09-0.23-0.15-0.04-0.02-0.09-0.04-0.11-0.04-0.23-0.07-0.1-0.02-0.2-0.03 0.01 0 0.03 0-0.04-0.01-0.07-0.01 0 0 0 0 0 0 0 0 0 0 0 0 0 0 0 0-0.08 0-0.15 0-0.03 0.01-0.05 0-0.06 0.01-0.11 0.01-0.07 0.01-0.14 0.02z"/>
    <path fill-rule="evenodd" class="s0" d="m52.38 15.98q0.06 0 0.11 0.01 0.24 0.01 0.47 0.08 0.13 0.03 0.25 0.07 0.1 0.04 0.19 0.08 0.07 0.04 0.14 0.08 0.15 0.1 0.28 0.22 0.13 0.13 0.24 0.27 0.04 0.06 0.08 0.11 0.09 0.13 0.15 0.27 0.09 0.22 0.13 0.46 0.04 0.21 0.06 0.42 0.01 0.17 0.01 0.35 0 0.19-0.02 0.38-0.01 0.18-0.03 0.36-0.03 0.36-0.1 0.72-0.05 0.34-0.1 0.67 0.01-0.03 0.01-0.06-0.06 0.52-0.09 1.05-0.03 0.42-0.01 0.83 0.07 0.35 0.21 0.67 0.07 0.16 0.13 0.32 0.04 0.14 0.06 0.29 0.03 0.14-0.01 0.29-0.04 0.13-0.13 0.22c-0.12 0.11-0.31 0.17-0.47 0.19q-0.28 0.05-0.57 0.03c-0.43-0.04-0.86-0.16-1.29-0.23q0.02 0 0.03 0-0.03 0-0.06 0-0.01 0-0.01 0 0 0 0 0c-0.43-0.05-0.87-0.05-1.3-0.14q-0.14-0.05-0.17-0.19-0.04-0.01-0.08-0.03c-0.22-0.14-0.24-0.43-0.28-0.66q-0.05-0.26-0.1-0.52-0.09-0.48-0.16-0.98-0.06-0.43-0.13-0.87-0.01-0.19-0.02-0.38-0.01-0.16-0.02-0.33-0.04-0.74-0.03-1.49 0.02-0.33 0.05-0.64 0.05-0.36 0.15-0.7c0.04-0.14 0.08-0.31 0.19-0.43q0.11-0.12 0.24-0.22 0.03-0.02 0.05-0.04 0.07-0.05 0.13-0.09 0.19-0.11 0.4-0.18 0.17-0.05 0.35-0.11 0.25-0.08 0.51-0.11 0.18-0.02 0.35-0.03 0.11-0.01 0.21-0.01zm-0.49 0.53q-0.17 0.03-0.33 0.07-0.12 0.04-0.25 0.08-0.2 0.06-0.4 0.13-0.11 0.07-0.22 0.15-0.09 0.07-0.17 0.16-0.02 0.03-0.03 0.05-0.13 0.38-0.19 0.77-0.07 0.73-0.05 1.46 0 0.16 0.02 0.32 0.01 0.25 0.02 0.5 0.01 0.24 0.03 0.49 0.02 0.16 0.04 0.32 0-0.01 0-0.02 0.08 0.58 0.18 1.16 0.03 0.24 0.09 0.46 0.03 0.18 0.06 0.36 0.01 0.05 0.02 0.09 0.02 0.15 0.06 0.28 0.02 0.02 0.03 0.05 0.05 0.05 0.06 0.11 0.01 0 0.02 0 0.11 0.03 0.23 0.05-0.03-0.01-0.07-0.01 0.44 0.04 0.87 0.07c0.46 0.05 0.91 0.17 1.36 0.24q-0.01 0-0.02 0 0.14 0.02 0.28 0.02 0.11-0.01 0.23-0.02 0.14-0.02 0.27-0.06 0.02-0.01 0.03-0.01 0-0.02 0-0.04c-0.09-0.51-0.4-0.96-0.41-1.48q-0.01-0.37 0.01-0.74 0.02-0.33 0.05-0.66 0.02-0.23 0.05-0.46 0.03-0.2 0.06-0.39 0.04-0.29 0.09-0.59 0 0.03-0.01 0.07 0.06-0.44 0.08-0.89 0.01-0.21 0.01-0.42 0-0.14-0.03-0.29 0 0 0 0.01-0.01-0.11-0.04-0.23-0.04-0.15-0.08-0.29-0.05-0.12-0.13-0.23-0.02-0.03-0.04-0.06 0 0.01 0 0.01-0.14-0.16-0.29-0.3 0.01 0 0.02 0.01-0.12-0.09-0.25-0.16-0.06-0.02-0.11-0.05 0.02 0.01 0.04 0.02-0.25-0.08-0.51-0.13-0.34-0.02-0.68 0.02z"/>
    <path fill-rule="evenodd" class="s0" d="m46.65 19.97q0.05 0 0.1 0.01 0.26 0.02 0.51 0.12 0.3 0.13 0.56 0.33 0.1 0.06 0.18 0.17 0.06 0.07 0.12 0.14 0.17 0.23 0.31 0.49 0.08 0.19 0.13 0.39 0.06 0.3 0.05 0.6c-0.01 0.2-0.02 0.41-0.13 0.58q-0.11 0.18-0.24 0.34-0.08 0.09-0.18 0.16-0.09 0.08-0.19 0.13-0.19 0.1-0.39 0.19-0.17 0.08-0.34 0.16-0.06 0.03-0.12 0.05-0.05 0.02-0.12 0.03c-0.08 0.01-0.17-0.06-0.21-0.13q-0.02-0.02-0.03-0.05-0.18-0.1-0.31-0.26-0.18-0.21-0.33-0.44-0.17-0.28-0.31-0.57-0.12-0.26-0.18-0.52-0.07-0.29-0.12-0.58-0.02-0.11-0.04-0.23-0.01-0.07-0.01-0.15 0.01-0.07 0.02-0.13 0.02-0.07 0.05-0.14 0.05-0.1 0.12-0.18 0.13-0.19 0.31-0.32 0.06-0.05 0.13-0.07 0.16-0.06 0.34-0.08 0.15-0.03 0.32-0.04zm-0.23 0.53q0.01-0.01 0.02-0.01-0.15 0.02-0.28 0.07-0.01 0.01-0.02 0.01-0.11 0.1-0.2 0.21 0 0 0.01 0-0.04 0.05-0.07 0.1-0.01 0.02-0.01 0.04-0.01 0.06 0 0.13 0.03 0.17 0.06 0.35 0.04 0.18 0.08 0.35 0.06 0.23 0.15 0.44 0.09 0.2 0.21 0.39 0.12 0.2 0.26 0.4 0.08 0.1 0.18 0.2 0.07 0.05 0.15 0.09 0.03 0.01 0.05 0.03 0.39-0.17 0.75-0.39-0.03 0.02-0.05 0.04 0.1-0.07 0.17-0.17 0.05-0.05 0.09-0.1 0.04-0.06 0.08-0.13 0.02-0.04 0.04-0.08 0-0.03 0.01-0.05 0.02-0.29-0.01-0.58-0.03-0.16-0.08-0.32 0 0.01 0.01 0.02-0.04-0.09-0.09-0.17-0.11-0.18-0.23-0.36 0.01 0.02 0.02 0.04-0.07-0.1-0.16-0.19-0.02-0.02-0.05-0.04-0.22-0.15-0.45-0.27-0.13-0.04-0.25-0.06-0.08-0.02-0.16-0.01-0.12 0-0.23 0.02z"/>
    <path fill-rule="evenodd" class="s0" d="m52.35 21.36q0.01 0 0.02 0 0.11 0.01 0.2 0.06 0.13 0.05 0.23 0.14 0.08 0.07 0.16 0.15c0.15 0.16 0.24 0.36 0.34 0.57q0.11 0.27 0.15 0.56 0.03 0.2-0.05 0.39-0.02 0.06-0.05 0.12-0.08 0.13-0.19 0.23-0.13 0.13-0.3 0.21c-0.23 0.09-0.48 0.05-0.72 0.04q-0.17-0.01-0.23-0.16-0.05 0.02-0.11 0.02c-0.13 0-0.26-0.11-0.25-0.25 0.02-0.35 0.01-0.72 0.11-1.07q0.06-0.24 0.13-0.47 0.05-0.21 0.19-0.36 0.1-0.11 0.25-0.16 0.06-0.01 0.12-0.02zm0 0.51q-0.02 0.03-0.04 0.05-0.01 0.01-0.01 0.02-0.12 0.36-0.2 0.72-0.04 0.34-0.05 0.69 0.05-0.02 0.09-0.02 0.22 0.02 0.45 0.01-0.01 0-0.03 0.01 0.02-0.01 0.03-0.01 0 0 0 0 0.05-0.01 0.1-0.02 0.02-0.02 0.04-0.03 0.09-0.08 0.17-0.17 0.02-0.02 0.03-0.04 0.02-0.05 0.02-0.1 0.01-0.05 0-0.1-0.04-0.2-0.1-0.39-0.05-0.11-0.1-0.21-0.05-0.09-0.1-0.17-0.09-0.1-0.2-0.19 0.03 0.01 0.05 0.03-0.05-0.05-0.12-0.07-0.01-0.01-0.02-0.01 0 0-0.01 0zm0.24 1.47q0 0 0 0 0 0 0 0 0 0 0 0zm0 0q0.02 0 0.04 0-0.02 0-0.04 0z"/>
    <path class="s0" d="m56.68 27.61q-0.36 0.04-0.72 0.12-0.53 0.12-1.04 0.31-0.59 0.2-1.19 0.34-0.35 0.08-0.69 0.14-0.28 0.06-0.57 0.09 0.04 0 0.07-0.01-0.39 0.05-0.79 0.08-0.38 0.02-0.75 0.04-0.73 0.03-1.45 0.03-0.69 0-1.37-0.01-0.74 0-1.48 0.05-0.69 0.04-1.39 0.11-0.32 0.02-0.63 0.1-0.35 0.07-0.68 0.18-0.31 0.11-0.6 0.27-0.33 0.19-0.64 0.42-0.16 0.12-0.32 0.26-0.12 0.12-0.21 0.25-0.02 0.03-0.05 0.07-0.01 0.04-0.03 0.09-0.02 0.06-0.02 0.14c-0.01 0.16 0.09 0.3 0.16 0.44q0.22 0.41 0.41 0.85-0.01-0.03-0.02-0.07 0.13 0.33 0.27 0.65 0.02 0.1 0.11 0.15 0.09 0.05 0.19 0.02 0.1-0.02 0.15-0.11c0.03-0.05 0.05-0.13 0.03-0.19q-0.2-0.5-0.43-0.99-0.11-0.24-0.24-0.48-0.06-0.12-0.12-0.24-0.01-0.01-0.01-0.03 0.01-0.01 0.02-0.03 0.09-0.11 0.19-0.2 0.07-0.07 0.15-0.13 0 0-0.01 0.01 0.24-0.18 0.48-0.33 0.25-0.16 0.52-0.28-0.01 0-0.03 0.01 0.02-0.01 0.03-0.01 0.02-0.01 0.04-0.02-0.02 0.01-0.03 0.01c0.38-0.15 0.77-0.23 1.17-0.3q0.67-0.07 1.34-0.11 0.69-0.05 1.39-0.06c0.95 0 1.91 0.03 2.87-0.01q0.75-0.02 1.5-0.1 0.41-0.04 0.81-0.11 0.19-0.03 0.37-0.07 0.21-0.04 0.42-0.09 0.37-0.09 0.74-0.19 0.36-0.12 0.72-0.24 0.3-0.11 0.61-0.18 0.31-0.07 0.61-0.12 0.07-0.01 0.14-0.02c0.14-0.01 0.25-0.11 0.25-0.25 0-0.12-0.1-0.25-0.23-0.25q-0.01 0-0.02 0z"/>
    <path class="s0" d="m53.37 28.74c-0.13 0.04-0.21 0.18-0.18 0.31q0.1 0.34 0.19 0.69 0.03 0.14 0.07 0.28 0.01 0.06 0.04 0.14 0.03 0.1 0.08 0.21 0.15 0.34 0.35 0.66 0.12 0.18 0.25 0.35 0.05 0.08 0.13 0.14 0.1 0.06 0.22 0.04 0.1-0.03 0.16-0.13 0.05-0.1 0.02-0.21-0.02-0.1-0.11-0.15-0.02-0.01-0.04-0.02-0.1-0.13-0.2-0.27-0.08-0.14-0.16-0.28-0.1-0.18-0.18-0.38-0.1-0.29-0.17-0.58-0.08-0.32-0.16-0.62c-0.03-0.11-0.14-0.19-0.25-0.19q-0.03 0-0.06 0.01z"/>
    <path class="s0" d="m55.95 30.93q-0.34 0.01-0.68 0.09-0.4 0.08-0.78 0.21-0.46 0.12-0.9 0.27-0.53 0.18-1.03 0.39-1.07 0.42-2.16 0.78-0.55 0.18-1.12 0.32-0.61 0.14-1.24 0.24 0.03-0.01 0.07-0.01c-0.66 0.08-1.32 0.1-1.99 0.13q-0.45 0.01-0.9 0-0.32 0-0.64-0.04 0 0 0 0-0.14-0.02-0.28-0.05-0.12-0.02-0.24-0.07-0.14-0.06-0.26-0.15-0.11-0.09-0.21-0.2-0.02-0.02-0.03-0.05-0.01-0.02-0.01-0.03 0 0 0 0 0.02-0.1 0.06-0.19c0.05-0.13-0.05-0.28-0.18-0.31-0.13-0.04-0.26 0.05-0.3 0.18q-0.07 0.16-0.08 0.33c0 0.15 0.08 0.28 0.17 0.4q0.18 0.22 0.43 0.37c0.32 0.2 0.71 0.25 1.08 0.29q0.55 0.04 1.1 0.02 0.68-0.01 1.37-0.05 0.68-0.03 1.36-0.15 0.35-0.07 0.69-0.14 0.39-0.1 0.78-0.2 0.34-0.1 0.68-0.22 0.34-0.11 0.68-0.23 0.64-0.23 1.27-0.47 0.57-0.24 1.15-0.44 0.51-0.16 1.01-0.3 0.23-0.07 0.46-0.13 0.24-0.05 0.48-0.08 0.1-0.01 0.19-0.01c0.14-0.01 0.25-0.12 0.25-0.25 0-0.14-0.11-0.25-0.24-0.25q0 0-0.01 0z"/>
    <path class="s0" d="m45.97 29.56q-0.04 0.08-0.05 0.17-0.02 0.26-0.04 0.5-0.05 0.74-0.09 1.48-0.04 0.92-0.1 1.84c-0.01 0.14 0.12 0.25 0.25 0.25 0.14 0 0.24-0.11 0.25-0.25q0.07-1.04 0.12-2.08 0.02-0.38 0.04-0.77 0.14 0.33 0.28 0.66 0-0.01-0.01-0.02 0.17 0.38 0.32 0.78 0.05 0.13 0.09 0.26 0.04 0.12 0.08 0.24c0.06 0.11 0.2 0.15 0.32 0.15q0.24-0.03 0.48-0.12 0.23-0.06 0.45-0.12 0.35-0.1 0.7-0.18 0.22-0.05 0.44-0.08-0.01 0-0.02 0 0.28-0.04 0.56-0.04 0.08-0.01 0.15 0 0.05 0 0.1-0.01 0.06-0.02 0.11-0.07 0.02-0.02 0.04-0.05 0.03-0.06 0.06-0.13 0.06-0.32 0.09-0.65 0.01-0.17 0.02-0.36 0.01-0.08 0.01-0.17 0.25 0.25 0.47 0.54 0.24 0.34 0.49 0.69 0.06 0.08 0.12 0.17c-0.04 0.11 0.01 0.23 0.11 0.29q0.1 0.05 0.2 0.08 0.04 0.02 0.09 0.01 0.1 0 0.18-0.07c0.06-0.05 0.1-0.17 0.07-0.24q-0.03-0.07-0.08-0.12 0-0.01-0.01-0.02-0.31-0.43-0.61-0.87-0.39-0.56-0.89-1.02-0.08-0.07-0.17-0.12-0.07-0.04-0.15-0.04-0.11 0-0.18 0.08c-0.09 0.07-0.1 0.2-0.12 0.3q-0.02 0.2-0.02 0.4-0.01 0.29-0.04 0.58-0.02 0.15-0.04 0.29-0.37 0.02-0.73 0.08c-0.62 0.09-1.2 0.29-1.8 0.44q-0.02-0.06-0.04-0.12-0.07-0.19-0.14-0.38-0.34-0.82-0.7-1.63 0.02 0.03 0.03 0.06-0.09-0.21-0.17-0.42c-0.05-0.13-0.09-0.26-0.23-0.31q-0.04 0-0.07 0-0.14 0-0.22 0.12z"/>
    <path class="s0" d="m47.31 29.1q-0.02 0.14 0.06 0.26 0.01 0.02 0.03 0.04 0.04 0.07 0.07 0.14 0.16 0.29 0.34 0.57 0.23 0.33 0.47 0.65 0.06 0.08 0.13 0.16 0.11 0.1 0.25 0.06c0.12-0.03 0.19-0.14 0.22-0.25 0.12-0.38 0.2-0.79 0.36-1.16q0.05-0.09 0.11-0.18c0.07-0.12 0.02-0.28-0.09-0.34-0.12-0.08-0.27-0.03-0.35 0.08q-0.04 0.06-0.07 0.13-0.06 0.12-0.11 0.24-0.13 0.36-0.22 0.73-0.12-0.15-0.22-0.3-0.17-0.27-0.33-0.54-0.06-0.11-0.12-0.22-0.03-0.07-0.07-0.13-0.07-0.11-0.21-0.12c-0.12 0-0.22 0.08-0.25 0.18z"/>
    <path class="s0" d="m52.52 28.77q-0.08 0.06-0.12 0.15 0 0 0 0.01 0 0 0 0-0.1 0.24-0.19 0.49-0.09 0.25-0.16 0.5-0.25-0.43-0.52-0.86c-0.07-0.11-0.22-0.16-0.34-0.09-0.11 0.07-0.16 0.23-0.09 0.34q0.22 0.37 0.44 0.73 0.11 0.17 0.2 0.34 0.07 0.13 0.13 0.25 0.03 0.07 0.07 0.12c0.07 0.09 0.24 0.1 0.32 0.04q0.06-0.05 0.1-0.11 0.06-0.12 0.08-0.26 0.05-0.16 0.09-0.33 0.05-0.2 0.11-0.39 0.09-0.28 0.2-0.56-0.01 0.03-0.02 0.06 0.03-0.07 0.07-0.15 0.02-0.1-0.03-0.19-0.05-0.08-0.15-0.11-0.03-0.01-0.06-0.01-0.07 0-0.13 0.03z"/>
    <path class="s0" d="m54.46 36.27q-0.07 0.02-0.12 0.08c-0.09 0.09-0.09 0.22-0.07 0.33q0.04 0.17 0.08 0.34c0.04 0.13 0.18 0.21 0.31 0.17q0.15-0.05 0.18-0.2 0.14 0.09 0.28 0.17 0.63 0.35 1.22 0.78 0.64 0.53 1.15 1.19 0.19 0.24 0.33 0.51 0.1 0.19 0.2 0.38 0.18 0.4 0.36 0.81-0.02-0.02-0.03-0.06 0.12 0.34 0.22 0.67 0.03 0.13 0.06 0.27 0.03 0.15 0.06 0.31 0.01 0.11 0.02 0.22 0.03 0.31 0.01 0.61 0.01-0.03 0.01-0.07-0.01 0.14-0.05 0.27-0.01 0.01-0.01 0.02-0.09 0.08-0.18 0.16-0.12 0.11-0.25 0.22-0.16 0.15-0.31 0.29-0.21 0.19-0.43 0.37 0.01-0.01 0.02-0.02-0.02 0.01-0.04 0.03 0 0-0.01 0.01 0.01 0 0.01-0.01-0.16 0.12-0.32 0.23-0.19 0.14-0.4 0.24-0.04 0.02-0.08 0.03-0.07 0-0.14 0-0.13 0.01-0.27 0.01-0.22 0.01-0.43 0.01-0.49 0-0.98-0.01-0.59-0.02-1.17-0.09-0.33-0.05-0.66-0.14-0.13-0.04-0.25-0.09-0.28-0.1-0.56-0.21 0.03 0.01 0.06 0.02-0.38-0.16-0.74-0.35-0.07-0.04-0.15-0.07-0.11-0.04-0.23-0.01-0.11 0.04-0.2 0.11-0.07 0.06-0.13 0.11c-0.1 0.09-0.09 0.26 0 0.36 0.1 0.1 0.25 0.09 0.35 0q0.05-0.04 0.09-0.08 0.1 0.05 0.19 0.1 0.2 0.1 0.4 0.19 0.3 0.13 0.59 0.24 0.15 0.06 0.3 0.11 0.33 0.12 0.68 0.18 0.22 0.03 0.45 0.06 0.17 0.01 0.34 0.03 0.41 0.03 0.82 0.04 0.51 0 1.02 0 0.29-0.01 0.58-0.02 0.1 0 0.18-0.02 0.09-0.03 0.18-0.07 0.17-0.08 0.32-0.19 0.26-0.17 0.5-0.36 0.39-0.31 0.75-0.65 0.21-0.2 0.43-0.39 0.16-0.17 0.2-0.39 0.02-0.16 0.03-0.32 0.01-0.23-0.01-0.46-0.02-0.19-0.05-0.36-0.01-0.14-0.04-0.27-0.04-0.17-0.08-0.33-0.05-0.17-0.1-0.32-0.07-0.21-0.14-0.41-0.07-0.15-0.13-0.29-0.06-0.16-0.13-0.32-0.17-0.34-0.34-0.67-0.14-0.26-0.33-0.49-0.14-0.18-0.3-0.35-0.09-0.12-0.2-0.23-0.15-0.16-0.31-0.31-0.41-0.4-0.89-0.7-0.32-0.21-0.64-0.4-0.38-0.21-0.74-0.45-0.03-0.02-0.06-0.04-0.06-0.04-0.12-0.06-0.03-0.01-0.07-0.01-0.05 0-0.09 0.01z"/>
    <path class="s0" d="m50.87 35.63q-0.39 0.04-0.77 0.14-0.11 0.03-0.21 0.07-0.13 0.05-0.26 0.09-0.22 0.09-0.44 0.18-0.19 0.09-0.35 0.22-0.23 0.19-0.44 0.39c-0.1 0.09-0.09 0.26 0 0.35 0.1 0.1 0.26 0.1 0.35 0q0.2-0.18 0.41-0.36-0.01 0-0.02 0.01 0.01-0.01 0.02-0.01 0.01-0.02 0.03-0.03-0.01 0.02-0.03 0.03 0.15-0.1 0.31-0.18 0.33-0.13 0.67-0.25 0.18-0.05 0.36-0.08 0.16-0.04 0.32-0.06 0 0 0 0c0.02 0.11 0.13 0.2 0.25 0.2 0.14 0 0.25-0.11 0.25-0.25q0.01-0.19-0.11-0.33-0.07-0.07-0.16-0.11-0.06-0.02-0.12-0.02-0.03 0-0.06 0z"/>
    <path class="s0" d="m56.67 33.47q-0.14 0.04-0.25 0.14-0.25 0.19-0.48 0.4-0.22 0.19-0.42 0.4-0.1 0.12-0.19 0.27-0.01 0.02-0.02 0.05-0.03 0.08-0.06 0.16c-0.05 0.13 0.05 0.28 0.18 0.31 0.13 0.04 0.26-0.04 0.3-0.17q0.02-0.06 0.04-0.11 0.03-0.05 0.06-0.1 0.06-0.08 0.14-0.15 0.09-0.1 0.19-0.19 0.1-0.09 0.2-0.17 0.15-0.13 0.3-0.26c0.11 0.05 0.26 0.01 0.31-0.1q0.05-0.09 0.06-0.2 0-0.12-0.09-0.22-0.07-0.07-0.19-0.07-0.04 0-0.08 0.01z"/>
    <path class="s0" d="m53.37 33.37c-0.13 0.04-0.21 0.18-0.17 0.31 0.07 0.26 0.21 0.49 0.35 0.72q0.12 0.21 0.25 0.4 0.12 0.16 0.25 0.3 0.06 0.08 0.1 0.16 0.01 0.05 0.02 0.1 0 0.02 0 0.05 0 0.01 0 0.02-0.02 0.03-0.04 0.06-0.01 0.01-0.01 0.01-0.16 0.12-0.33 0.21-0.14 0.06-0.29 0.08-0.13 0.01-0.26 0c-0.28-0.05-0.55-0.16-0.81-0.26q0.03 0.01 0.06 0.02-0.29-0.13-0.58-0.28-0.13-0.08-0.27-0.15c-0.09-0.05-0.2-0.07-0.29-0.01q-0.12 0.07-0.15 0.2c-0.02 0.13 0.04 0.27 0.18 0.3q0.06 0.02 0.13 0 0.12 0.07 0.24 0.14 0.22 0.11 0.44 0.21 0.18 0.08 0.36 0.15 0.21 0.08 0.42 0.14 0.27 0.06 0.54 0.04 0.25-0.02 0.49-0.13 0.16-0.07 0.3-0.17 0.21-0.13 0.32-0.34 0.04-0.11 0.05-0.22 0.01-0.09-0.01-0.19-0.03-0.17-0.13-0.32-0.13-0.19-0.28-0.35-0.09-0.13-0.18-0.28-0.18-0.29-0.34-0.59 0.01 0.02 0.02 0.04-0.01-0.02-0.02-0.05-0.01 0-0.01-0.01 0 0.01 0.01 0.01-0.03-0.07-0.05-0.14c-0.03-0.11-0.14-0.19-0.25-0.19q-0.03 0-0.06 0.01z"/>
    <path class="s0" d="m38.84 31.63q-0.07 0.07-0.07 0.17 0 0.11 0.07 0.18 0.2 0.23 0.39 0.46 0.14 0.19 0.34 0.33 0.13 0.07 0.27 0.09 0.14 0.04 0.3 0.08 0.19 0.05 0.39 0.08 0 0 0 0 0.13 0.01 0.26 0.01 0.1 0.01 0.19 0.01 0.01 0.01 0.03 0.01-0.03 0.05-0.06 0.09-0.15 0.18-0.3 0.35-0.2 0.25-0.4 0.51-0.24 0.32-0.47 0.65-0.06 0.07-0.12 0.15-0.04 0.06-0.05 0.14c-0.03 0.1 0 0.21 0.02 0.31 0.03 0.14 0.19 0.21 0.31 0.17 0.14-0.03 0.2-0.17 0.18-0.3q-0.01-0.04-0.02-0.08 0 0 0 0 0.26-0.35 0.51-0.69 0.04-0.05 0.07-0.1 0.26-0.32 0.53-0.63 0.1-0.12 0.19-0.25 0.07-0.1 0.12-0.21 0.03-0.05 0.04-0.11 0.02-0.08 0-0.16c-0.03-0.11-0.12-0.2-0.21-0.25q-0.12-0.07-0.26-0.08c-0.18-0.03-0.36-0.02-0.53-0.04q0.03 0.01 0.06 0.01-0.04 0-0.08-0.01-0.37-0.07-0.73-0.19 0 0 0 0-0.12-0.11-0.22-0.24-0.2-0.23-0.4-0.46-0.06-0.08-0.17-0.08-0.1 0.01-0.18 0.08z"/>
    <path class="s0" d="m43.57 24.3c-0.04 0.12 0.04 0.28 0.17 0.31q0.06 0.01 0.12 0.02 0 0.01 0 0.01 0.02 0.01 0.03 0.03 0.14 0.21 0.33 0.37 0.11 0.09 0.24 0.16 0.17 0.08 0.35 0.13 0.19 0.05 0.39 0.07 0.36 0.04 0.73 0.04c0.32-0.02 0.64-0.09 0.96-0.13q0 0 0 0 0.51-0.06 1.03-0.01c0.34 0.04 0.68 0.04 1.02 0.09q0.27 0.05 0.55 0.12 0.27 0.05 0.54 0.06 0.23 0 0.46 0 0.21 0.02 0.41 0.04 0.11 0.01 0.21 0.01 0.18 0 0.36-0.01 0.31-0.03 0.63-0.04 0.23 0 0.46 0.01 0.25 0 0.49 0.02-0.03-0.01-0.06-0.01 0.22 0.04 0.45 0.06 0.18 0.01 0.36 0.01 0.19 0 0.38 0.01 0.2 0.03 0.4 0c0.23-0.04 0.44-0.2 0.64-0.34q0.15-0.1 0.29-0.22 0.09-0.08 0.16-0.18 0.06-0.08 0.09-0.17c0.05-0.19-0.13-0.36-0.31-0.31q-0.04 0.01-0.07 0.03-0.09 0.06-0.12 0.15 0 0 0 0-0.01 0.03-0.03 0.05-0.05 0.06-0.11 0.11-0.16 0.11-0.31 0.22-0.13 0.09-0.28 0.16-0.03 0.01-0.07 0.02-0.12 0-0.23-0.01-0.18-0.02-0.36-0.02-0.26 0-0.52-0.02 0 0 0 0-0.27-0.05-0.55-0.06-0.19 0-0.38-0.01-0.19-0.01-0.38 0-0.29 0.01-0.57 0.04-0.26 0.02-0.51 0-0.18-0.01-0.36-0.03-0.2-0.01-0.4-0.01-0.2 0-0.4-0.01c-0.26-0.04-0.51-0.12-0.78-0.16q-0.38-0.05-0.77-0.07-0.24-0.02-0.49-0.04-0.24-0.02-0.47-0.01-0.27 0.01-0.53 0.04-0.3 0.05-0.6 0.1 0.03-0.01 0.07-0.02-0.29 0.04-0.57 0.04-0.23-0.02-0.47-0.04-0.12-0.02-0.24-0.05-0.12-0.03-0.24-0.08-0.08-0.04-0.16-0.1-0.08-0.07-0.16-0.16-0.08-0.13-0.19-0.24-0.15-0.12-0.32-0.15-0.03 0-0.06 0c-0.11 0-0.22 0.06-0.25 0.18z"/>
    <path class="s0" d="m49.4 26.52q-0.23 0.19-0.44 0.4-0.07 0.07-0.13 0.15-0.07 0.08-0.15 0.15-0.08 0.06-0.17 0.1 0.03-0.02 0.06-0.03-0.18 0.07-0.36 0.09-0.14 0.03-0.28 0.07c-0.28 0.07-0.56 0.16-0.84 0.2q0 0 0 0-0.43 0.06-0.86 0.1-0.3 0.04-0.61 0.08c-0.43 0.04-0.87 0.04-1.3 0.08q-0.37 0.03-0.74 0.08-0.42 0.04-0.81 0.16-0.26 0.09-0.48 0.25-0.11 0.08-0.2 0.18-0.05 0.06-0.09 0.12-0.07 0.11-0.11 0.24c-0.03 0.12 0.05 0.26 0.18 0.3 0.14 0.04 0.27-0.04 0.31-0.17q0.01-0.04 0.02-0.07 0.02-0.03 0.04-0.06 0.06-0.07 0.13-0.13-0.02 0.01-0.03 0.02 0.01-0.01 0.03-0.02 0.01-0.01 0.02-0.02-0.01 0.01-0.02 0.02 0.14-0.1 0.31-0.17-0.03 0.01-0.06 0.03 0.34-0.13 0.72-0.18-0.04 0.01-0.07 0.02 0.44-0.06 0.88-0.11 0.33-0.02 0.67-0.03 0.48-0.02 0.95-0.09 0.47-0.05 0.94-0.1 0.3-0.03 0.59-0.1 0.19-0.05 0.38-0.1 0.25-0.07 0.51-0.12 0.19-0.04 0.37-0.11 0.2-0.09 0.35-0.24 0.11-0.13 0.21-0.25 0.21-0.2 0.43-0.38c0.11-0.09 0.09-0.27 0-0.36q-0.07-0.07-0.17-0.07-0.1 0-0.18 0.07z"/>
    <path class="s0" d="m51.26 26.7c-0.04 0.13 0.04 0.27 0.17 0.3q0.2 0.05 0.39 0.11c0.28 0.13 0.56 0.27 0.86 0.34q0.28 0.06 0.55 0.07 0.21 0.02 0.41 0 0.2-0.02 0.4-0.05 0.28-0.03 0.56-0.07c0.31-0.05 0.6-0.14 0.9-0.19q0.17-0.02 0.35-0.02 0.18-0.02 0.37-0.04 0.23-0.02 0.46-0.03 0.15 0.01 0.29 0.02 0.15 0.01 0.3 0.03 0.06 0.01 0.12 0.03 0.04 0.02 0.08 0.04 0.06 0.05 0.11 0.11 0 0.01 0 0.01 0 0 0 0 0 0 0 0.01 0.06 0.07 0.11 0.15 0.01 0.03 0.02 0.07 0.01 0.08 0.01 0.15c0 0.14 0.11 0.25 0.25 0.25 0.13 0 0.25-0.11 0.25-0.25q0-0.14-0.03-0.28-0.03-0.16-0.13-0.29-0.08-0.12-0.18-0.22-0.13-0.15-0.3-0.21c-0.21-0.09-0.45-0.09-0.67-0.1q-0.3-0.03-0.6 0-0.2 0.02-0.39 0.04-0.23 0.01-0.45 0.03-0.28 0.04-0.56 0.11-0.32 0.08-0.63 0.12 0.02 0 0.03 0-0.33 0.04-0.65 0.08-0.34 0.02-0.69-0.02-0.31-0.06-0.59-0.18 0.03 0.01 0.05 0.02-0.18-0.08-0.37-0.16-0.12-0.06-0.24-0.09-0.12-0.04-0.25-0.07-0.04-0.01-0.07-0.01c-0.11 0-0.21 0.07-0.24 0.19z"/>
    <path class="s0" d="m40.74 25.44q-0.1 0.01-0.2 0.02-0.17 0.02-0.34 0.05-0.1 0.03-0.15 0.11-0.05 0.1-0.02 0.2 0.02 0.09 0.11 0.14 0.09 0.06 0.19 0.03 0.17-0.02 0.34-0.05-0.04 0.01-0.07 0.01 0.1-0.01 0.2-0.01c0.34 0.06 0.65 0.18 0.98 0.28 0.4 0.12 0.82 0.16 1.21 0.31q0.03 0.02 0.07 0.04 0.02 0.02 0.03 0.04-0.02 0.01-0.04 0.03 0.02-0.01 0.03-0.02-0.01 0.01-0.03 0.02-0.01 0.01-0.02 0.02 0.01-0.01 0.02-0.02-0.23 0.15-0.48 0.26c-0.44 0.18-0.9 0.28-1.35 0.37q-0.17 0.04-0.34 0.07-0.08 0.02-0.17 0.05-0.21 0.06-0.4 0.16c-0.16 0.09-0.28 0.23-0.4 0.37q-0.13 0.15-0.25 0.31-0.13 0.17-0.24 0.34-0.13 0.22-0.23 0.46-0.05 0.09-0.03 0.19 0.03 0.1 0.12 0.15 0.09 0.05 0.19 0.02 0.1-0.02 0.15-0.11 0.1-0.24 0.23-0.45 0.11-0.18 0.24-0.34-0.01 0-0.01 0.01 0.01-0.02 0.02-0.03 0.01-0.01 0.02-0.02-0.01 0-0.01 0.01 0.17-0.22 0.35-0.41 0.13-0.08 0.27-0.14 0.27-0.09 0.55-0.14 0.25-0.05 0.51-0.11 0.51-0.12 1.01-0.32-0.03 0.01-0.06 0.03 0.24-0.1 0.47-0.23c0.19-0.12 0.4-0.29 0.4-0.54-0.01-0.23-0.21-0.43-0.42-0.52q-0.3-0.13-0.64-0.19-0.26-0.05-0.52-0.12-0.26-0.08-0.52-0.17-0.23-0.07-0.45-0.12-0.15-0.04-0.3-0.04-0.01 0-0.02 0z"/>
    <path class="s0" d="m56.34 24.63c-0.13 0.03-0.21 0.17-0.17 0.3q0.05 0.17 0.22 0.19 0 0 0 0-0.04 0.07-0.06 0.15-0.05 0.11-0.06 0.22c-0.01 0.09 0.04 0.18 0.1 0.24q0.1 0.09 0.22 0.12 0.15 0.05 0.3 0.1 0.02 0.01 0.04 0.02c0.12 0.06 0.27 0.03 0.34-0.09 0.07-0.11 0.03-0.28-0.09-0.34q-0.15-0.08-0.31-0.13-0.03 0-0.06-0.01 0.03-0.08 0.06-0.15 0.06-0.13 0.09-0.28 0.03-0.13-0.03-0.24-0.05-0.12-0.18-0.15-0.05-0.01-0.09-0.01-0.16 0.01-0.32 0.06z"/>
    <path class="s0" d="m54.64 21.73q-0.1 0.02-0.15 0.11-0.05 0.09-0.02 0.2c0.02 0.05 0.06 0.12 0.11 0.14q0.14 0.07 0.26 0.15 0.4 0.36 0.73 0.79 0.05 0.07 0.1 0.14 0.01 0.02 0.01 0.05c0.04 0.13 0.18 0.21 0.31 0.17 0.13-0.03 0.22-0.18 0.18-0.3q-0.03-0.11-0.09-0.2-0.03-0.06-0.07-0.1-0.07-0.09-0.14-0.18-0.2-0.25-0.42-0.48-0.26-0.3-0.61-0.47-0.07-0.03-0.14-0.03-0.03 0-0.06 0.01z"/>
    <path class="s0" d="m41.55 20.09q-0.08 0.06-0.11 0.15c-0.04 0.13 0.04 0.29 0.18 0.31q0.05 0.01 0.1 0.04-0.03-0.01-0.06-0.03 0.07 0.05 0.14 0.09 0.03 0.03 0.07 0.07 0.1 0.16 0.17 0.35-0.01-0.03-0.02-0.06 0.05 0.12 0.08 0.25 0 0.01 0 0.03 0 0.01 0 0.01-0.01 0.01-0.02 0.02-0.13 0.07-0.25 0.13-0.12 0.05-0.23 0.12-0.32 0.2-0.63 0.45 0.02-0.01 0.03-0.02-0.1 0.07-0.19 0.15-0.09 0.09-0.16 0.18-0.16 0.23-0.19 0.5-0.03 0.1 0.02 0.19 0.05 0.09 0.15 0.12c0.12 0.03 0.29-0.04 0.31-0.18q0.01-0.11 0.05-0.21 0.04-0.08 0.09-0.15 0.1-0.11 0.22-0.21-0.02 0.02-0.05 0.04 0.03-0.02 0.05-0.04 0.01 0 0.02-0.01 0 0 0 0 0.28-0.23 0.6-0.42c0.2-0.11 0.46-0.18 0.59-0.39 0.17-0.24 0.06-0.53-0.04-0.77q-0.07-0.16-0.15-0.31-0.08-0.12-0.2-0.22-0.06-0.04-0.11-0.08-0.12-0.09-0.26-0.12-0.04-0.01-0.08-0.01-0.06 0-0.12 0.03z"/>
    <path class="s0" d="m47.04 21.39q-0.11 0.03-0.21 0.08-0.14 0.07-0.26 0.18-0.07 0.07-0.11 0.14-0.03 0.06-0.05 0.11-0.05 0.1-0.06 0.21 0.01 0.16 0.07 0.3 0.06 0.12 0.17 0.2 0.1 0.08 0.22 0.14 0.15 0.06 0.3 0.11 0.22 0.08 0.45 0.15c0.02 0.12 0.14 0.2 0.25 0.2q0.1 0 0.17-0.07 0.06-0.06 0.07-0.15 0 0 0 0 0 0 0 0 0-0.01 0.01-0.03 0-0.01 0-0.01 0.02-0.08 0-0.16c-0.02-0.11-0.12-0.16-0.22-0.2q-0.11-0.04-0.23-0.09-0.32-0.1-0.63-0.22-0.02-0.01-0.03-0.02-0.04-0.03-0.07-0.07-0.01-0.01-0.02-0.02 0-0.02-0.01-0.04 0.01-0.02 0.02-0.04 0.01-0.03 0.03-0.06 0.02-0.02 0.05-0.05 0.07-0.04 0.15-0.08 0.09-0.04 0.19-0.05 0.08-0.01 0.15 0 0.06 0.01 0.12 0.03 0.08 0.03 0.15 0.08 0.11 0.09 0.2 0.2 0.05 0.06 0.09 0.13c0.02 0.11 0.12 0.21 0.24 0.21 0.14 0 0.25-0.12 0.25-0.25 0.01-0.13-0.08-0.24-0.14-0.34q-0.19-0.27-0.47-0.44-0.24-0.13-0.51-0.13-0.17 0-0.33 0.05z"/>
    <path class="s1" d="m61.23 9.82c-0.09 0.09-0.11 0.26 0 0.35q0.14 0.13 0.28 0.26c0.1 0.1 0.26 0.1 0.35 0 0.1-0.09 0.1-0.26 0-0.35q-0.14-0.13-0.28-0.26-0.08-0.07-0.18-0.07-0.1 0-0.17 0.07z"/>
    <path class="s1" d="m70.53 7.69q-0.1 0.15-0.19 0.3c-0.07 0.11-0.02 0.27 0.09 0.34 0.12 0.07 0.28 0.03 0.34-0.09q0.1-0.15 0.19-0.3c0.07-0.12 0.02-0.27-0.09-0.34q-0.06-0.04-0.12-0.04-0.14 0.01-0.22 0.13z"/>
    <path class="s1" d="m66.45 11.78c0 0.14 0.11 0.25 0.25 0.25 0.14 0 0.25-0.11 0.25-0.25 0-0.14-0.11-0.25-0.25-0.25-0.14 0-0.25 0.11-0.25 0.25z"/>
    <path class="s1" d="m58.58 16.4c0 0.14 0.12 0.25 0.25 0.25 0.14 0 0.25-0.11 0.25-0.25 0-0.13-0.11-0.25-0.25-0.25-0.13 0-0.25 0.12-0.25 0.25z"/>
    <path class="s1" d="m66.72 23.76c0 0.14 0.11 0.25 0.25 0.25 0.13 0 0.25-0.11 0.25-0.25 0-0.14-0.12-0.25-0.25-0.25-0.14 0-0.25 0.11-0.25 0.25z"/>
    <path class="s1" d="m66.37 17.39c0 0.14 0.12 0.25 0.25 0.25 0.14 0 0.25-0.11 0.25-0.25 0-0.14-0.11-0.25-0.25-0.25-0.13 0-0.25 0.11-0.25 0.25z"/>
    <path class="s1" d="m65.77 6.55c0 0.14 0.11 0.25 0.25 0.25 0.13 0 0.25-0.11 0.25-0.25 0-0.14-0.12-0.25-0.25-0.25-0.14 0-0.25 0.11-0.25 0.25z"/>
    <path class="s1" d="m62.42 19.73c-0.12 0.07-0.16 0.22-0.09 0.34q0.18 0.33 0.4 0.64c0.07 0.12 0.22 0.16 0.34 0.09 0.12-0.07 0.17-0.23 0.09-0.34q-0.21-0.31-0.4-0.64-0.08-0.12-0.22-0.12-0.06 0-0.12 0.03z"/>
    <path class="s1" d="m70.68 21.57q0 0.14 0.01 0.29c0.01 0.13 0.11 0.25 0.25 0.25 0.13 0 0.26-0.12 0.25-0.25q-0.01-0.15-0.01-0.29c0-0.13-0.11-0.25-0.25-0.25-0.13 0-0.25 0.12-0.25 0.25z"/>
  </g>
  <g id="body">
    <path class="s0" d="m43.71 36.17q-0.28 0.04-0.54 0.14-0.19 0.08-0.37 0.17-0.27 0.13-0.54 0.27c-0.26 0.14-0.43 0.4-0.53 0.67q-0.18 0.52-0.29 1.05-0.12 0.65-0.11 1.31 0.01 0.6 0.12 1.18 0.13 0.73 0.39 1.43 0.19 0.54 0.46 1.05 0.31 0.56 0.73 1.06 0.2 0.24 0.42 0.48 0.16 0.17 0.32 0.33c0.13 0.13 0.28 0.27 0.46 0.32 0.11 0.04 0.22-0.02 0.28-0.11q0.04-0.07 0.05-0.15-0.01-0.03-0.01-0.07-0.03-0.14-0.08-0.29c-0.04-0.12-0.17-0.21-0.3-0.17q-0.06 0.02-0.1 0.06-0.09-0.1-0.18-0.19-0.35-0.36-0.67-0.77-0.21-0.29-0.4-0.6-0.22-0.37-0.38-0.76 0.01 0.01 0.01 0.02-0.2-0.52-0.35-1.06-0.15-0.53-0.23-1.07 0.01 0.03 0.01 0.07-0.04-0.38-0.05-0.76-0.01-0.42 0.04-0.85 0 0.01 0 0.01 0 0 0-0.01 0-0.03 0.01-0.06 0 0.02-0.01 0.03 0.1-0.67 0.33-1.31 0.02-0.05 0.05-0.1 0.05-0.13 0.14-0.23-0.01 0.03-0.04 0.05 0.04-0.04 0.08-0.07 0.04-0.03 0.09-0.06 0.12-0.07 0.25-0.13 0.29-0.14 0.58-0.27 0.05-0.02 0.11-0.04 0.13-0.05 0.27-0.07-0.01 0-0.02 0 0.02 0 0.04 0 0.01-0.01 0.02-0.01 0 0-0.01 0.01 0.13-0.02 0.27-0.02 0.27 0 0.53 0.05 0.15 0.03 0.29 0.06 0.22 0.06 0.42 0.15 0.14 0.06 0.27 0.13 0.18 0.1 0.35 0.22 0.06 0.05 0.11 0.11 0.1 0.1 0.19 0.21 0.1 0.14 0.2 0.27 0.1 0.14 0.17 0.27c0.08 0.12 0.23 0.16 0.35 0.09 0.11-0.06 0.16-0.22 0.09-0.34q-0.28-0.46-0.64-0.86-0.2-0.19-0.43-0.32-0.23-0.15-0.48-0.24-0.23-0.1-0.46-0.17-0.3-0.08-0.61-0.11-0.16-0.02-0.33-0.02-0.17 0-0.34 0.02z"/>
    <path class="s0" d="m44.55 44.98q-0.29 0-0.58 0.04c-0.25 0.03-0.47 0.21-0.62 0.41q-0.24 0.37-0.41 0.78-0.03 0.08-0.06 0.15-0.05 0.16-0.09 0.32-0.05 0.19-0.06 0.39c-0.08 0.62-0.13 1.24-0.01 1.85q0.04 0.17 0.11 0.32 0.08 0.19 0.17 0.36 0.13 0.26 0.26 0.52 0.08 0.15 0.17 0.3 0.08 0.15 0.23 0.21c0.11 0.03 0.24-0.02 0.3-0.12q0.05-0.1 0.04-0.22-0.02-0.19-0.08-0.37c-0.03-0.12-0.16-0.21-0.29-0.18q-0.18-0.34-0.34-0.68-0.02-0.06-0.04-0.11-0.05-0.14-0.07-0.29 0 0.02 0 0.04 0-0.02-0.01-0.05 0-0.01 0-0.02 0 0.01 0 0.02c-0.05-0.53-0.01-1.05 0.06-1.58q-0.01 0.04-0.02 0.07 0.03-0.17 0.06-0.33 0.05-0.22 0.13-0.42 0.16-0.36 0.38-0.69 0.03-0.04 0.07-0.09 0.07-0.05 0.14-0.09 0.04-0.01 0.07-0.01 0.25-0.02 0.49-0.03c0.13 0 0.25-0.11 0.25-0.25 0-0.13-0.11-0.25-0.25-0.25q0 0 0 0z"/>
    <path class="s0" d="m47.98 43.61c-0.06 0.1-0.04 0.23 0.04 0.31 0.07 0.07 0.18 0.1 0.27 0.14q0.18 0.06 0.35 0.13-0.02-0.01-0.04-0.02 0.02 0.01 0.05 0.02 0 0.01 0.01 0.01-0.01 0-0.01-0.01 0.39 0.19 0.77 0.41 0.34 0.2 0.66 0.42 0.04 0.04 0.08 0.07 0.1 0.09 0.18 0.19 0.14 0.19 0.26 0.4 0.17 0.29 0.3 0.61 0.09 0.24 0.17 0.49 0.06 0.26 0.09 0.53 0.02 0.16 0.03 0.33 0.01 0.26-0.02 0.52 0-0.01 0-0.03 0 0.02 0 0.04 0 0.01 0 0.03 0-0.01 0-0.02-0.11 0.75-0.4 1.44 0.01-0.03 0.02-0.06-0.1 0.23-0.24 0.45-0.09 0.14-0.18 0.28-0.11 0.17-0.24 0.33-0.07 0.1-0.16 0.19-0.06 0.06-0.12 0.14c-0.07 0.13-0.03 0.29 0.03 0.42q0.1 0.17 0.2 0.34 0.13 0.2 0.24 0.41 0.09 0.18 0.18 0.36 0.07 0.15 0.14 0.29 0.09 0.17 0.16 0.35 0.11 0.28 0.21 0.56 0.12 0.35 0.22 0.71 0.2 0.75 0.3 1.51-0.01-0.02-0.01-0.04 0.08 0.64 0.11 1.28 0.02 0.61-0.05 1.21 0-0.03 0.01-0.06-0.02 0.17-0.06 0.35-0.05 0.27-0.13 0.52-0.13 0.41-0.3 0.81 0.02-0.03 0.03-0.06-0.12 0.33-0.31 0.61-0.13 0.16-0.29 0.3-0.09 0.09-0.17 0.19-0.12 0.12-0.25 0.23-0.21 0.15-0.44 0.25 0.03-0.02 0.06-0.03-0.39 0.17-0.79 0.29-0.28 0.07-0.55 0.15-0.16 0.04-0.31 0.07-0.29 0.06-0.58 0.12 0.02 0 0.04 0-0.43 0.05-0.86 0.11 0.03 0 0.07-0.01-0.25 0.03-0.49 0.04-0.21 0.02-0.43 0.03-0.52 0.02-1.05 0.02-0.53 0.01-1.06 0.01-0.45 0-0.89-0.04 0.01 0.01 0.02 0.01-0.02 0-0.04-0.01-0.01 0-0.02 0 0.01 0 0.01 0-0.49-0.06-0.96-0.25-0.02 0-0.03-0.01 0.02-0.02 0.04-0.04 0.3-0.2 0.61-0.36 0.21-0.11 0.44-0.2-0.04 0.01-0.07 0.02 0.3-0.12 0.61-0.21 0.35-0.1 0.7-0.16 0.13-0.02 0.27-0.03 0.1-0.02 0.21-0.03 0.19-0.02 0.39-0.04 0.21-0.01 0.43-0.02 0.34-0.02 0.68-0.02 0.23-0.01 0.47 0c0.12 0 0.28 0.03 0.37-0.07q0.1-0.11 0.07-0.25c-0.02-0.07-0.09-0.16-0.18-0.17-0.64-0.1-1.28-0.09-1.93-0.09q-0.49 0-0.98-0.01-0.48-0.01-0.96-0.07 0 0 0 0-0.14-0.02-0.28-0.06 0.27-0.15 0.54-0.26-0.03 0.02-0.06 0.03 0.42-0.15 0.85-0.2-0.01 0-0.03 0 0.03-0.01 0.06-0.01 0 0 0.01 0-0.01 0-0.01 0 0.18-0.02 0.37-0.04 0.19-0.01 0.38-0.01 0.15 0 0.3-0.01 0.11 0.01 0.22-0.01 0.13-0.04 0.17-0.18c0.02-0.07 0-0.18-0.06-0.24q-0.05-0.05-0.13-0.07-0.09-0.04-0.18-0.06-0.2-0.05-0.39-0.08-0.44-0.08-0.89-0.15-0.46-0.08-0.92-0.15-0.16-0.02-0.31-0.05-0.16-0.03-0.31-0.1 0 0 0 0 0 0 0.01 0-0.01 0-0.01 0 0.19-0.13 0.4-0.23 0.19-0.07 0.38-0.14 0.25-0.07 0.5-0.14 0.41-0.11 0.82-0.17-0.04 0-0.07 0.01 0.41-0.06 0.83-0.09 0.25-0.04 0.5-0.04 0.15 0 0.3-0.01 0.17 0 0.26-0.13 0.09-0.18-0.03-0.33-0.16-0.21-0.36-0.38-0.29-0.29-0.58-0.57-0.3-0.29-0.6-0.59-0.13-0.14-0.25-0.29-0.15-0.17-0.29-0.35 0 0 0.01 0.01-0.01-0.01-0.02-0.02 0-0.01-0.01-0.02 0 0.01 0.01 0.02-0.31-0.44-0.51-0.94 0.01 0.03 0.02 0.06-0.11-0.28-0.2-0.56-0.04-0.11-0.07-0.23-0.06-0.22-0.09-0.45 0 0.01 0 0.02 0-0.02 0-0.04 0-0.01-0.01-0.03 0 0.01 0.01 0.02-0.06-0.56-0.01-1.12 0.03-0.19 0.08-0.37 0.05-0.18 0.11-0.35 0.12-0.37 0.27-0.72 0.09-0.22 0.21-0.42c0.07-0.12 0.02-0.27-0.09-0.34-0.12-0.07-0.28-0.03-0.34 0.09q-0.06 0.09-0.11 0.19-0.1 0.21-0.19 0.44-0.08 0.2-0.15 0.4-0.08 0.23-0.15 0.46-0.08 0.22-0.12 0.45-0.03 0.26-0.04 0.52-0.01 0.41 0.03 0.82 0.03 0.29 0.11 0.56 0.05 0.21 0.12 0.41 0.16 0.43 0.36 0.85 0.13 0.24 0.29 0.47 0.1 0.14 0.21 0.28 0.17 0.22 0.36 0.43 0.17 0.18 0.35 0.35 0.35 0.35 0.7 0.69 0.12 0.11 0.24 0.23-0.21 0.01-0.41 0.03-0.32 0.03-0.65 0.07-0.25 0.04-0.5 0.08-0.29 0.06-0.56 0.14-0.29 0.08-0.58 0.17-0.06 0.02-0.12 0.05-0.09 0.03-0.18 0.07-0.16 0.07-0.31 0.17-0.19 0.11-0.36 0.25-0.08 0.09-0.09 0.2-0.03 0.13 0.03 0.25 0.04 0.08 0.12 0.14 0.17 0.12 0.38 0.19 0.26 0.08 0.53 0.11 0.34 0.06 0.69 0.12-0.08 0.01-0.16 0.03-0.23 0.06-0.45 0.17-0.13 0.05-0.25 0.12-0.2 0.09-0.39 0.2-0.11 0.08-0.16 0.22-0.04 0.11-0.01 0.23c0.01 0.08 0.09 0.14 0.16 0.19q0.09 0.06 0.19 0.1 0.13 0.06 0.27 0.09 0.11 0.03 0.23 0.04 0.12 0.02 0.24 0.03-0.53 0.17-1.02 0.44c-0.3 0.16-0.64 0.31-0.82 0.61q-0.08 0.13-0.05 0.29 0.03 0.13 0.14 0.22 0.13 0.11 0.3 0.17 0.16 0.06 0.31 0.1 0.23 0.07 0.48 0.11 0.38 0.07 0.77 0.08 0.8 0.02 1.6 0 0.37 0 0.74-0.02 0.42-0.01 0.84-0.04 0.14-0.01 0.27-0.02 0.1-0.01 0.19-0.03 0.33-0.04 0.66-0.09-0.01 0-0.02 0 0.33-0.05 0.66-0.13 0.11-0.01 0.21-0.04 0.17-0.05 0.35-0.1 0.17-0.05 0.34-0.09 0.31-0.1 0.62-0.22 0.09-0.04 0.19-0.08 0.07-0.03 0.13-0.06 0.14-0.07 0.27-0.16 0.12-0.07 0.23-0.17 0.11-0.1 0.2-0.22 0.05-0.05 0.1-0.11 0.06-0.05 0.12-0.11 0.21-0.18 0.35-0.42 0.15-0.24 0.24-0.51 0.15-0.34 0.27-0.69 0.14-0.43 0.21-0.87c0.1-0.54 0.1-1.09 0.08-1.63q-0.04-1-0.24-1.97-0.17-0.9-0.5-1.76-0.13-0.34-0.28-0.67-0.08-0.17-0.17-0.34-0.08-0.16-0.16-0.33-0.07-0.13-0.15-0.26-0.14-0.24-0.29-0.49 0.04-0.04 0.08-0.08 0.11-0.13 0.21-0.27 0.2-0.28 0.38-0.57 0.18-0.29 0.31-0.62 0.09-0.23 0.16-0.48 0.1-0.34 0.16-0.69 0.08-0.49 0.05-0.99-0.02-0.22-0.06-0.44-0.04-0.27-0.13-0.55-0.14-0.46-0.37-0.89-0.25-0.46-0.6-0.83c-0.14-0.15-0.33-0.25-0.5-0.36q-0.24-0.14-0.48-0.28-0.33-0.2-0.69-0.36-0.18-0.08-0.37-0.14-0.05-0.06-0.12-0.08-0.05-0.01-0.1-0.02-0.03-0.01-0.06-0.01-0.14 0-0.22 0.12z"/>
    <path class="s0" d="m37.99 36.4q-0.13 0.11-0.23 0.25-0.27 0.41-0.48 0.87c-0.32 0.69-0.51 1.42-0.64 2.17q-0.15 0.99-0.17 1.98-0.01 0.13 0 0.25 0 0.32 0 0.64 0 0.25 0 0.5-0.01 0.1 0 0.19 0.03 0.47 0.07 0.94 0.01 0.24 0.03 0.49 0 0.08 0.01 0.17 0.06 0.48 0.12 0.95 0.05 0.42 0.11 0.83 0.19 1.16 0.51 2.29 0.31 1.02 0.77 1.98 0.16 0.37 0.37 0.72 0.15 0.26 0.3 0.51 0.42 0.68 0.85 1.34 0.25 0.4 0.44 0.84-0.01-0.03-0.02-0.06 0.14 0.33 0.25 0.67 0.07 0.19 0.11 0.39 0 0.05 0 0.1-0.01 0.04-0.02 0.07-0.31-0.07-0.61-0.18-0.25-0.08-0.49-0.15-0.25-0.08-0.5-0.14-0.54-0.15-1.09-0.19-0.38-0.02-0.75 0-0.27 0.02-0.54 0.07-0.59 0.11-1.12 0.38-0.54 0.27-0.96 0.69c-0.31 0.3-0.52 0.69-0.7 1.08q-0.14 0.32-0.25 0.65-0.1 0.33-0.11 0.67-0.02 0.2-0.02 0.4-0.01 0.2 0.01 0.39-0.02 0-0.04-0.01-0.43-0.09-0.86-0.19-0.92-0.24-1.84-0.47-0.49-0.12-1-0.21-0.21-0.03-0.42-0.06-0.37-0.04-0.74-0.06-0.56 0.01-1.09 0.18-0.18 0.05-0.35 0.13-0.13 0.05-0.26 0.11-0.14 0.07-0.25 0.16c-0.18 0.12-0.28 0.31-0.35 0.51q-0.06 0.16-0.12 0.32-0.22-0.33-0.46-0.65-0.38-0.47-0.81-0.9-0.27-0.26-0.55-0.5-0.15-0.13-0.3-0.25 0 0 0 0 0 0-0.01 0-0.02-0.02-0.04-0.04 0 0.01 0 0.01-0.46-0.38-0.96-0.71-0.14-0.09-0.27-0.16-0.16-0.09-0.33-0.14c-0.16-0.07-0.33-0.07-0.5-0.08q-0.09 0.01-0.17 0.02-0.06 0.01-0.12 0.02-0.09 0.03-0.18 0.07-0.09 0.04-0.18 0.12-0.06 0.04-0.11 0.09-0.13 0.11-0.23 0.23-0.08 0.09-0.15 0.19-0.13 0.18-0.24 0.38-0.19 0.36-0.31 0.75c-0.06 0.19-0.08 0.39 0.01 0.57q0.02 0.06 0.06 0.1-0.06 0.06-0.13 0.11c-0.1 0.09-0.09 0.27 0 0.36 0.1 0.1 0.26 0.09 0.36 0q0.08-0.08 0.18-0.16 0.07-0.07 0.13-0.15c0.05-0.08 0.05-0.2 0-0.28q-0.05-0.08-0.12-0.15-0.02-0.03-0.04-0.06 0 0 0-0.01 0-0.03 0-0.05 0.07-0.3 0.19-0.57-0.01 0.03-0.02 0.06 0.05-0.14 0.12-0.27 0.11-0.2 0.24-0.38-0.02 0.03-0.03 0.05 0.1-0.14 0.22-0.26 0.09-0.09 0.19-0.17-0.01 0.01-0.01 0.01 0.06-0.04 0.13-0.08-0.03 0.01-0.07 0.03 0.09-0.05 0.19-0.06 0.13-0.01 0.27 0 0.03 0.01 0.06 0.01 0.12 0.03 0.23 0.08 0.07 0.03 0.15 0.07 0.16 0.09 0.3 0.18 0.18 0.12 0.34 0.24 0.26 0.2 0.52 0.4 0 0-0.01 0 0.43 0.35 0.84 0.74 0.41 0.4 0.77 0.86 0-0.01-0.01-0.01 0.2 0.25 0.39 0.53 0.19 0.29 0.41 0.57c0.07 0.1 0.27 0.1 0.35 0q0.05-0.06 0.07-0.13 0.01-0.05 0.01-0.11 0.03-0.12 0.07-0.25 0.07-0.23 0.16-0.45-0.01 0.02-0.02 0.04 0.05-0.12 0.12-0.23 0.03-0.03 0.07-0.06 0.1-0.08 0.2-0.12 0.12-0.06 0.25-0.11-0.03 0.01-0.05 0.02 0.44-0.18 0.89-0.25 0.08 0 0.16-0.01 0.2-0.01 0.39 0 0.25 0.01 0.5 0.04-0.01 0-0.01 0 0 0 0.01 0 0.03 0 0.05 0.01-0.01 0-0.02-0.01 0.75 0.11 1.49 0.3 0.37 0.1 0.74 0.19 0.63 0.17 1.27 0.32 0.3 0.07 0.6 0.14 0.16 0.04 0.33 0.07 0.04 0.01 0.08 0.02 0.07-0.01 0.14-0.04 0.09-0.05 0.13-0.16c0.03-0.11-0.03-0.2-0.07-0.29q-0.03-0.1-0.05-0.21 0.01 0.04 0.01 0.07-0.01-0.15 0-0.31 0.01-0.36 0.04-0.72 0.03-0.14 0.08-0.29 0.09-0.27 0.2-0.53 0 0.01-0.01 0.03 0.01-0.02 0.02-0.05 0 0 0-0.01 0 0.01 0 0.01 0.06-0.13 0.13-0.26 0.12-0.23 0.28-0.44-0.02 0.02-0.04 0.04 0.11-0.14 0.23-0.27 0.13-0.12 0.27-0.24 0.16-0.12 0.32-0.22 0.26-0.16 0.54-0.27 0.21-0.07 0.41-0.14 0.24-0.06 0.48-0.09-0.03 0-0.07 0.01 0.16-0.03 0.32-0.04 0.19-0.02 0.37-0.01 0.35 0 0.69 0.04 0 0-0.01 0 0.01 0 0.01 0 0.03 0.01 0.06 0.01-0.02 0-0.05 0 0.72 0.12 1.4 0.35 0.28 0.09 0.55 0.17 0.18 0.07 0.36 0.1 0.13 0.03 0.27 0 0.13-0.04 0.19-0.17 0.13-0.24 0.12-0.5-0.02-0.17-0.07-0.32-0.06-0.23-0.14-0.44-0.05-0.13-0.1-0.27-0.1-0.26-0.22-0.51-0.23-0.44-0.5-0.84-0.14-0.21-0.28-0.43-0.14-0.21-0.28-0.43-0.19-0.33-0.38-0.65-0.34-0.6-0.61-1.23 0 0 0 0.01-0.18-0.45-0.34-0.9-0.17-0.51-0.31-1.02-0.24-0.96-0.39-1.95 0 0.03 0 0.05-0.08-0.71-0.18-1.42-0.01-0.18-0.02-0.35-0.04-0.49-0.07-0.98-0.03-0.21-0.03-0.42-0.01-0.38 0-0.75 0-0.38 0-0.75 0-0.29 0.02-0.57 0.03-0.51 0.09-1.01 0 0.02 0 0.03 0.07-0.51 0.17-1 0.15-0.65 0.41-1.27 0.22-0.51 0.52-0.97 0.04-0.05 0.09-0.1 0.05 0.06 0.11 0.13c0.09 0.1 0.26 0.09 0.35 0q0.07-0.08 0.07-0.18 0-0.1-0.07-0.18-0.05-0.06-0.1-0.12-0.07-0.06-0.14-0.11-0.1-0.07-0.22-0.07-0.01 0-0.02 0-0.15 0.01-0.26 0.11z"/>
    <path class="s0" d="m52.43 49.73c-0.06 0.11-0.03 0.28 0.09 0.35q0.88 0.45 1.75 0.92 0.77 0.43 1.52 0.88c0.12 0.07 0.28 0.03 0.34-0.09 0.07-0.12 0.03-0.27-0.09-0.34q-0.75-0.45-1.52-0.88-0.86-0.48-1.74-0.93-0.07-0.03-0.13-0.03-0.14 0-0.22 0.12z"/>
    <path class="s0" d="m52.91 51.72c-0.12 0.07-0.16 0.22-0.09 0.34q0.07 0.14 0.16 0.27 0.1 0.15 0.22 0.29 0.12 0.13 0.27 0.23 0.18 0.14 0.37 0.25c0.12 0.08 0.28 0.03 0.34-0.09 0.07-0.12 0.03-0.27-0.09-0.34q-0.18-0.12-0.36-0.24-0.03-0.04-0.07-0.07-0.09-0.08-0.17-0.17-0.04-0.06-0.08-0.11-0.09-0.13-0.16-0.27-0.08-0.12-0.22-0.12-0.07 0-0.12 0.03z"/>
    <path class="s0" d="m53.48 53.85c-0.09 0.09-0.1 0.26 0 0.35q0.18 0.16 0.36 0.32 0.19 0.16 0.39 0.29c0.12 0.08 0.28 0.02 0.35-0.09q0.05-0.09 0.02-0.19-0.03-0.1-0.11-0.15-0.14-0.1-0.28-0.2-0.19-0.16-0.37-0.33-0.09-0.08-0.19-0.08-0.09 0-0.17 0.08z"/>
    <path class="s0" d="m37.03 39.43c-0.07 0.12-0.02 0.27 0.09 0.34q0.67 0.45 1.32 0.92 0.38 0.3 0.76 0.6 0.52 0.43 1.04 0.85 0.07 0.07 0.18 0.08 0.1-0.01 0.17-0.08c0.09-0.09 0.11-0.26 0-0.35q-0.74-0.61-1.5-1.22-0.17-0.13-0.33-0.26-0.16-0.12-0.32-0.23-0.53-0.38-1.07-0.74-0.05-0.04-0.12-0.04-0.14 0.01-0.22 0.13z"/>
    <path class="s0" d="m36.97 41.22q-0.07 0.08-0.07 0.18 0 0.11 0.07 0.18 0.88 1.04 1.79 2.06c0.09 0.1 0.26 0.09 0.35 0 0.1-0.1 0.09-0.25 0-0.35q-0.9-1.02-1.79-2.07-0.06-0.07-0.16-0.07-0.11 0-0.19 0.07z"/>
    <path class="s0" d="m36.75 43.59c-0.13 0.07-0.16 0.21-0.09 0.34 0.1 0.21 0.29 0.39 0.47 0.54q0.15 0.13 0.32 0.24 0.16 0.11 0.32 0.22 0.42 0.27 0.83 0.55 0.35 0.23 0.7 0.47 0.36 0.25 0.71 0.5c0.11 0.08 0.28 0.02 0.34-0.09q0.06-0.08 0.03-0.19-0.03-0.09-0.12-0.15-0.62-0.44-1.25-0.87c-0.51-0.35-1.04-0.67-1.54-1.04q0.01 0 0.01 0.01 0-0.01-0.01-0.01-0.02-0.02-0.04-0.03 0.02 0.01 0.03 0.02-0.05-0.05-0.11-0.09-0.1-0.1-0.19-0.21 0.02 0.02 0.04 0.05-0.07-0.08-0.12-0.17-0.07-0.13-0.21-0.13-0.07 0-0.12 0.04z"/>
    <path class="s0" d="m37.63 45.84c-0.11 0.1-0.09 0.25 0 0.35q0.46 0.54 0.99 1.02 0.43 0.39 0.91 0.73 0.5 0.37 1.04 0.69c0.12 0.07 0.28 0.03 0.35-0.09 0.07-0.12 0.03-0.28-0.09-0.34-0.45-0.25-0.86-0.56-1.26-0.85q0 0 0 0-0.17-0.13-0.35-0.27-0.26-0.22-0.5-0.46-0.39-0.37-0.74-0.78-0.07-0.08-0.17-0.08-0.11 0.01-0.18 0.08z"/>
    <path class="s0" d="m38.5 49.01q-0.08 0.07-0.08 0.17 0.01 0.1 0.08 0.18c0.28 0.37 0.7 0.61 1.1 0.85q0.39 0.23 0.76 0.47c0.11 0.08 0.28 0.02 0.34-0.09q0.05-0.09 0.03-0.19-0.04-0.1-0.12-0.15c-0.46-0.32-0.97-0.56-1.42-0.9q-0.19-0.15-0.34-0.34-0.08-0.08-0.18-0.08-0.1 0-0.17 0.08z"/>
    <path class="s0" d="m39.41 51.1q-0.05 0.1-0.03 0.19 0.03 0.1 0.12 0.16 0.8 0.57 1.6 1.14c0.11 0.08 0.28 0.02 0.34-0.09q0.05-0.09 0.03-0.19-0.04-0.1-0.12-0.15-0.8-0.57-1.6-1.15-0.05-0.03-0.12-0.03-0.14 0-0.22 0.12z"/>
  </g>
  <g id="right-arm">
    <path class="s0" d="m58.9 46.65q-0.15 0.11-0.28 0.24-0.07 0.09-0.14 0.19-0.1 0.14-0.19 0.29c-0.22 0.37-0.39 0.78-0.55 1.18q-0.05 0.13-0.1 0.26-0.05 0.14-0.09 0.3-0.01 0.09 0 0.19 0 0.08 0.01 0.16 0.01 0.09 0.02 0.17 0.01 0.15 0.03 0.29 0.02 0.21 0.06 0.41 0.05 0.25 0.12 0.51 0.08 0.25 0.18 0.5 0.07 0.19 0.16 0.37c0.07 0.12 0.23 0.16 0.35 0.09 0.12-0.07 0.15-0.22 0.09-0.34q-0.05-0.09-0.09-0.19 0.01 0.04 0.02 0.07-0.26-0.64-0.38-1.31 0 0 0 0.01-0.01-0.15-0.03-0.29-0.03-0.28-0.04-0.55c0.07-0.3 0.21-0.59 0.32-0.89q-0.01 0.04-0.02 0.07 0.13-0.31 0.29-0.62 0.15-0.27 0.34-0.52 0.07-0.07 0.14-0.14 0.02-0.01 0.03-0.02 0.09-0.06 0.12-0.15 0.02-0.1-0.03-0.19-0.08-0.12-0.22-0.13-0.07 0-0.12 0.04z"/>
    <path class="s0" d="m58.77 53.94c-0.05 0.02-0.1 0.09-0.11 0.15q-0.05 0.34-0.09 0.68-0.04 0.25-0.06 0.51-0.02 0.26-0.03 0.53-0.02 0.32 0.02 0.64c0.03 0.13 0.19 0.2 0.31 0.17 0.14-0.04 0.21-0.17 0.18-0.31q0-0.01-0.01-0.02-0.02-0.43 0.02-0.86 0.03-0.43 0.09-0.85 0 0 0 0.01 0.02-0.19 0.05-0.37 0.02-0.1-0.02-0.19-0.06-0.09-0.15-0.12-0.03-0.01-0.07-0.01-0.07 0-0.13 0.04z"/>
    <path class="s0" d="m61.74 46.08c-0.03 0.13 0.04 0.28 0.17 0.31q0.37 0.09 0.72 0.2 0.12 0.04 0.24 0.09 0.24 0.09 0.49 0.19-0.03-0.01-0.06-0.02 0.07 0.04 0.15 0.08 0.03 0.03 0.07 0.07 0.09 0.11 0.16 0.24 0.1 0.17 0.18 0.36-0.01-0.03-0.02-0.06 0.15 0.36 0.25 0.73 0.07 0.26 0.13 0.51 0.08 0.4 0.16 0.8c0.03 0.13 0.18 0.21 0.31 0.17 0.13-0.03 0.2-0.17 0.17-0.3q-0.09-0.48-0.2-0.96-0.1-0.41-0.23-0.8-0.15-0.45-0.4-0.84-0.09-0.13-0.2-0.25-0.15-0.14-0.34-0.21-0.28-0.11-0.57-0.22-0.18-0.07-0.36-0.12-0.25-0.08-0.51-0.14-0.03 0-0.07 0c-0.11 0-0.21 0.06-0.24 0.17z"/>
    <path class="s0" d="m64.03 54.2c0 0.13 0.12 0.25 0.25 0.25 0.14 0 0.25-0.12 0.25-0.25 0-0.14-0.11-0.25-0.25-0.25-0.13 0-0.25 0.11-0.25 0.25z"/>
    <path class="s0" d="m64.39 53.54c-0.14 0.04-0.2 0.17-0.17 0.31q0.03 0.12 0.04 0.25 0.01 0.08 0.01 0.17 0 0.14-0.01 0.28-0.04 0.24-0.1 0.48-0.06 0.23-0.16 0.45 0-0.01 0.01-0.01-0.01 0.01-0.02 0.03 0 0.02-0.01 0.03 0-0.01 0.01-0.01-0.23 0.5-0.54 0.96-0.03 0.04-0.06 0.07c-0.1 0.1-0.1 0.26 0 0.36 0.09 0.09 0.26 0.09 0.35 0q0.16-0.18 0.28-0.38 0.15-0.25 0.28-0.52 0.21-0.41 0.34-0.85 0.1-0.35 0.13-0.72c0.03-0.24-0.02-0.49-0.07-0.73-0.02-0.11-0.14-0.18-0.25-0.18q-0.03 0-0.06 0.01z"/>
    <path class="s0" d="m64.31 51.58q-0.09 0.04-0.17 0.08-0.04 0.02-0.08 0.04 0.03-0.02 0.06-0.03-0.21 0.08-0.43 0.11-0.94 0.1-1.87 0.18-0.11 0.01-0.18 0.08-0.07 0.07-0.07 0.17c0 0.13 0.11 0.26 0.25 0.25q0.8-0.07 1.6-0.15 0.27-0.02 0.53-0.06 0.2-0.05 0.39-0.14-0.03 0.02-0.06 0.03 0.14-0.06 0.28-0.13c0.12-0.06 0.16-0.23 0.09-0.34q-0.08-0.12-0.21-0.12-0.07 0-0.13 0.03z"/>
    <path class="s0" d="m66.48 51.04q-0.09 0.07-0.2 0.11 0.03-0.01 0.06-0.02-0.62 0.26-1.26 0.45c-0.13 0.04-0.21 0.18-0.18 0.31 0.04 0.13 0.18 0.22 0.31 0.18q0.4-0.13 0.79-0.28 0.16-0.06 0.32-0.12c0.14-0.06 0.29-0.11 0.41-0.2q0.09-0.05 0.12-0.15 0.03-0.1-0.03-0.19-0.05-0.09-0.14-0.12-0.04-0.01-0.07-0.01-0.07 0-0.13 0.04z"/>
  </g>
  <g id="left-arm">
    <path class="s0" d="m29.53 11.52q-0.48 0.02-0.95 0.04-0.12 0.01-0.24 0.02-0.27 0.02-0.54 0.05-0.41 0.04-0.81 0.09-0.2 0.03-0.4 0.06-0.19 0.01-0.37 0.08-0.19 0.07-0.22 0.28 0 0.08 0.04 0.15 0.04 0.06 0.1 0.13 0.09 0.07 0.19 0.14 0.34 0.23 0.73 0.41 0.26 0.11 0.52 0.23 0.38 0.16 0.76 0.32 0.84 0.34 1.67 0.69-0.03-0.01-0.06-0.02 0.34 0.14 0.68 0.28 0.26 0.12 0.53 0.23 0.39 0.19 0.79 0.38 0.26 0.12 0.51 0.25 0.66 0.36 1.32 0.73 0.67 0.39 1.33 0.79 0.63 0.37 1.26 0.75-0.23-0.05-0.46-0.09-0.32-0.06-0.65-0.1-0.53-0.05-1.05-0.11-0.26-0.03-0.52-0.04-0.57-0.03-1.13-0.06-0.25 0-0.51-0.01-0.55 0-1.09 0-0.29 0-0.57 0.01-0.48 0.01-0.96 0.02-0.38 0.01-0.76 0.04-0.35 0.01-0.7 0.03-0.91 0.05-1.81 0.11-0.76 0.05-1.51 0.12-0.28 0.02-0.55 0.06-0.15 0.01-0.3 0.04-0.05 0.02-0.1 0.04-0.06 0.05-0.1 0.11c-0.07 0.09-0.04 0.24 0.03 0.31q0.06 0.05 0.12 0.09 0.12 0.08 0.25 0.15 0.26 0.14 0.54 0.26 0.26 0.11 0.52 0.21 0.49 0.2 0.99 0.38 0.47 0.18 0.94 0.36 0.27 0.1 0.55 0.21 0.22 0.09 0.45 0.18 0.07 0.03 0.14 0.06-0.01-0.01-0.02-0.01 0.38 0.16 0.76 0.32-0.03-0.02-0.06-0.03 0.12 0.05 0.23 0.1-0.02-0.01-0.04-0.02 0.02 0.01 0.03 0.01-0.01 0-0.02 0 0.54 0.25 1.09 0.49 0.13 0.06 0.25 0.13 0.37 0.18 0.74 0.36 0.98 0.5 1.96 1.02 0.99 0.51 1.98 1.02 0.18 0.1 0.37 0.2-0.22-0.06-0.44-0.11-0.54-0.11-1.08-0.22-0.31-0.06-0.62-0.12-0.37-0.07-0.73-0.12-0.5-0.07-0.99-0.14-0.36-0.04-0.73-0.07-0.26-0.03-0.52-0.06-0.1-0.01-0.2-0.02-0.5-0.03-0.99-0.06-0.3-0.03-0.59-0.03-0.28-0.01-0.57-0.02-0.16-0.01-0.32-0.01-0.46 0-0.93 0.01-0.85 0.01-1.68 0.15c-0.59 0.09-1.15 0.3-1.7 0.54q-0.23 0.09-0.46 0.21c-0.17 0.09-0.36 0.23-0.43 0.43q-0.07 0.21-0.04 0.42 0.01 0.06 0.02 0.12 0.02 0.12 0.07 0.24 0.07 0.17 0.16 0.32 0.09 0.16 0.21 0.3 0.15 0.18 0.31 0.34 0.16 0.16 0.35 0.3 0.22 0.16 0.46 0.32 0.46 0.29 0.96 0.51 0.45 0.2 0.9 0.37 0.57 0.2 1.15 0.37 1.5 0.46 3.02 0.83 1.63 0.42 3.27 0.82 0.78 0.18 1.55 0.41 0.17 0.05 0.35 0.11-0.62-0.1-1.25-0.18-0.33-0.04-0.66-0.08-0.45-0.05-0.9-0.1-0.47-0.03-0.93-0.07-0.41-0.03-0.81-0.04-0.36-0.01-0.72-0.02-0.19 0-0.38 0-0.27 0-0.54 0.02-0.27 0.02-0.54 0.06-0.46 0.06-0.92 0.17c-0.26 0.07-0.54 0.13-0.77 0.29q-0.15 0.1-0.23 0.26-0.06 0.11-0.06 0.23 0 0.06-0.01 0.11 0.01 0.09 0.03 0.18 0.01 0.06 0.03 0.13 0.04 0.09 0.08 0.18 0.08 0.16 0.19 0.29 0.34 0.4 0.76 0.72 0.6 0.47 1.25 0.86 0.42 0.25 0.85 0.49 0.07 0.04 0.14 0.08 0.2 0.1 0.4 0.2 0.27 0.14 0.54 0.27 0.61 0.27 1.22 0.55 0.61 0.27 1.23 0.55 0.62 0.29 1.24 0.58 0.38 0.19 0.77 0.37 0.29 0.13 0.59 0.26 0.26 0.12 0.52 0.22 0.33 0.13 0.67 0.26c0.38 0.14 0.76 0.29 1.15 0.39q0.09 0.02 0.17 0.03c0.08 0 0.2-0.05 0.23-0.13q0.06-0.1 0.03-0.21-0.06-0.12-0.16-0.2-0.08-0.07-0.18-0.07-0.08 0-0.15 0.04-0.04-0.01-0.08-0.02-0.29-0.1-0.56-0.2-0.54-0.19-1.08-0.4 0.02 0 0.03 0.01-0.44-0.19-0.89-0.39-0.51-0.25-1.02-0.49-0.56-0.26-1.12-0.53-0.51-0.23-1.03-0.46-0.49-0.22-0.98-0.44-0.18-0.08-0.36-0.17-0.31-0.15-0.62-0.3-0.22-0.11-0.44-0.22-0.07-0.04-0.13-0.07-0.18-0.11-0.36-0.22-0.24-0.14-0.48-0.28-0.23-0.14-0.45-0.29-0.33-0.22-0.64-0.47 0 0 0 0-0.2-0.15-0.39-0.33-0.15-0.15-0.29-0.32-0.04-0.05-0.07-0.1-0.07-0.11-0.12-0.24 0.02 0.03 0.03 0.06-0.02-0.06-0.04-0.12 0 0.03 0 0.06-0.01-0.08-0.01-0.18 0.01-0.02 0.02-0.05 0-0.01 0.01-0.02 0.02-0.03 0.04-0.05 0.05-0.03 0.1-0.05 0.3-0.11 0.62-0.18 0.41-0.1 0.83-0.16-0.03 0-0.07 0.01 0.61-0.08 1.21-0.07 0.34 0 0.67 0.01 0.39 0.02 0.78 0.04 0.3 0.01 0.59 0.04 0.32 0.02 0.63 0.05 0.4 0.04 0.8 0.08 0.62 0.07 1.24 0.16-0.01 0-0.02-0.01 0.79 0.12 1.58 0.25 0.39 0.06 0.77 0.12 0.26 0.05 0.52 0.08 0.15 0.01 0.27-0.09 0.11-0.11 0.07-0.26-0.04-0.12-0.15-0.18-0.16-0.09-0.33-0.16-0.29-0.11-0.59-0.21-0.4-0.14-0.81-0.28-0.35-0.11-0.71-0.22-0.15-0.05-0.3-0.09-0.2-0.06-0.4-0.11-0.78-0.21-1.57-0.4-1.55-0.37-3.1-0.77-0.51-0.14-1.03-0.28-0.45-0.12-0.91-0.25-0.39-0.11-0.78-0.23-0.23-0.08-0.47-0.15-0.47-0.15-0.93-0.34-0.44-0.18-0.86-0.4-0.44-0.23-0.84-0.53-0.16-0.13-0.32-0.27-0.15-0.14-0.28-0.31 0.01 0.01 0.01 0.02-0.01-0.02-0.03-0.04 0 0-0.01-0.01 0.01 0 0.01 0.01-0.08-0.1-0.14-0.21-0.07-0.11-0.11-0.23-0.02-0.05-0.05-0.11-0.02-0.08-0.03-0.16 0-0.06 0-0.12 0 0.02 0 0.04 0-0.02 0.01-0.05 0-0.01 0-0.02 0 0.01 0 0.02 0-0.02 0-0.03 0.02-0.03 0.03-0.05 0.05-0.06 0.11-0.1-0.02 0.02-0.05 0.04 0.18-0.11 0.38-0.2 0.13-0.05 0.27-0.11-0.01 0-0.02 0.01 0.17-0.08 0.34-0.15 0.26-0.09 0.52-0.17 0.49-0.15 1-0.21 0.62-0.07 1.23-0.08 0.43-0.01 0.85-0.01 0.25 0 0.49 0.01 0.4 0.01 0.79 0.03 0.32 0.01 0.64 0.04 0.32 0.02 0.64 0.04 0.09 0.01 0.19 0.02 0.21 0.03 0.43 0.04 0.33 0.04 0.67 0.07-0.01 0-0.02 0 0.01 0 0.03 0.01 0.01 0 0.03 0-0.01 0-0.01 0 0.67 0.09 1.35 0.19 0.42 0.08 0.85 0.15 0.14 0.03 0.28 0.06 0.28 0.06 0.55 0.11 0.28 0.06 0.56 0.13 0.41 0.1 0.84 0.21 0.35 0.1 0.69 0.21 0.18 0.05 0.35 0.1 0.15 0.05 0.29-0.02c0.11-0.07 0.16-0.22 0.09-0.34q-0.04-0.07-0.1-0.11-0.09-0.07-0.19-0.13-0.23-0.15-0.46-0.29-0.52-0.3-1.04-0.58-1.01-0.52-2.02-1.04-0.51-0.27-1.03-0.54-0.51-0.26-1.02-0.52-0.37-0.19-0.74-0.37-0.16-0.09-0.32-0.16-0.34-0.16-0.68-0.31-0.23-0.11-0.47-0.21 0.03 0.01 0.06 0.02-0.08-0.03-0.15-0.06 0.01 0 0.02 0.01-0.4-0.17-0.8-0.34 0.03 0.02 0.06 0.03-0.11-0.05-0.22-0.1 0.03 0.02 0.06 0.03-0.45-0.19-0.9-0.36-0.45-0.17-0.9-0.33-0.45-0.17-0.9-0.34-0.42-0.17-0.83-0.35 0.02 0.01 0.03 0.02-0.03-0.01-0.05-0.02 0 0-0.01 0 0.01 0 0.01 0-0.07-0.04-0.14-0.07 1.14-0.11 2.29-0.18 0.66-0.04 1.3-0.07 0.68-0.03 1.36-0.06 0.45-0.01 0.9-0.02 0.26-0.01 0.53-0.01 0.43 0 0.86 0 0.3 0 0.61 0.01 0.74 0.03 1.48 0.07 0.09 0.01 0.18 0.02 0.27 0.02 0.53 0.05 0.33 0.03 0.66 0.07-0.01 0-0.01 0 0 0 0.01 0 0.01 0 0.02 0-0.01 0-0.02 0 0.82 0.12 1.63 0.31 0.56 0.14 1.1 0.33 0.45 0.26 0.9 0.51 0.21 0.12 0.43 0.21c0.12 0.04 0.27 0.12 0.39 0.07q0.17-0.06 0.18-0.24c0.01-0.11-0.06-0.19-0.13-0.26q-0.1-0.08-0.2-0.15-0.21-0.13-0.43-0.23-0.42-0.19-0.86-0.35-0.03 0-0.05-0.01-0.63-0.37-1.25-0.74-0.67-0.39-1.33-0.8-0.76-0.44-1.52-0.89-0.71-0.41-1.43-0.79-0.27-0.15-0.55-0.27-0.25-0.12-0.5-0.23-0.12-0.07-0.25-0.12-0.71-0.31-1.42-0.61-0.83-0.34-1.65-0.68-0.15-0.07-0.29-0.12 0.02 0.01 0.06 0.02-0.29-0.13-0.57-0.25-0.12-0.05-0.24-0.11-0.25-0.11-0.49-0.26 0.09-0.01 0.17-0.02-0.01 0-0.02 0 0.53-0.06 1.06-0.12 0.28-0.03 0.57-0.05 0.38-0.02 0.76-0.03 0.62-0.02 1.23-0.01 0.61 0.02 1.22 0.06 0.19 0 0.37 0.01 0.35 0.04 0.7 0.06 0.42 0.04 0.83 0.08 0.16 0.01 0.33 0.03 1.31 0.16 2.63 0.34-0.01 0-0.01 0 0.54 0.11 1.09 0.21 0.73 0.14 1.45 0.28 0.11 0.02 0.23 0.06 0.41 0.1 0.82 0.21 0.37 0.1 0.74 0.19 0.41 0.11 0.82 0.24c0.13 0.03 0.27-0.05 0.31-0.18 0.03-0.13-0.04-0.27-0.18-0.31q-0.47-0.13-0.95-0.26-0.57-0.15-1.15-0.3-0.19-0.05-0.38-0.1-0.05-0.02-0.11-0.03-0.4-0.08-0.8-0.15-0.88-0.17-1.76-0.35-0.09-0.01-0.18-0.02-0.17-0.02-0.35-0.04-0.59-0.08-1.19-0.16-0.68-0.09-1.36-0.16-0.55-0.05-1.1-0.1-0.29-0.03-0.58-0.05-0.52-0.02-1.03-0.04-0.33-0.02-0.66-0.02-0.27 0-0.54 0-0.08 0-0.16 0-0.03 0-0.06 0z"/>
    <path class="s0" d="m27.97 31.45q0.01 0.2 0 0.39c-0.01 0.14 0.13 0.25 0.25 0.25q0.1 0 0.18-0.07 0.07-0.08 0.07-0.18 0.01-0.19 0-0.39c-0.01-0.13-0.11-0.25-0.25-0.25-0.13 0-0.26 0.12-0.25 0.25z"/>
    <path class="s0" d="m29.45 31.83q-0.08 0.05-0.11 0.15-0.13 0.34-0.26 0.67-0.02 0.03-0.04 0.07c-0.09 0.11-0.02 0.27 0.09 0.34q0.08 0.05 0.19 0.02 0.09-0.03 0.15-0.11 0.08-0.14 0.13-0.29 0.11-0.28 0.22-0.57c0.05-0.13-0.05-0.28-0.17-0.31q-0.04-0.01-0.07-0.01-0.07 0-0.13 0.04z"/>
    <path class="s0" d="m30.21 32.44q-0.07 0.29-0.13 0.58-0.02 0.11 0.03 0.2 0.05 0.08 0.15 0.11c0.12 0.04 0.28-0.04 0.31-0.18q0.05-0.29 0.12-0.58c0.04-0.13-0.03-0.27-0.17-0.31q-0.03-0.01-0.06-0.01c-0.11 0-0.22 0.07-0.25 0.19z"/>
    <path class="s0" d="m31.17 32.87q-0.06 0.08-0.07 0.18-0.01 0.07-0.02 0.14 0.01-0.03 0.02-0.06-0.03 0.2-0.09 0.38c-0.05 0.14 0.04 0.28 0.17 0.31 0.14 0.04 0.27-0.04 0.31-0.17q0.04-0.15 0.07-0.3 0.03-0.15 0.04-0.3 0.01-0.1-0.07-0.18-0.07-0.07-0.18-0.07-0.1 0-0.18 0.07z"/>
    <path class="s0" d="m32.13 33.28q-0.09 0.05-0.11 0.15-0.03 0.25-0.08 0.49c-0.02 0.13 0.04 0.27 0.18 0.31 0.13 0.04 0.28-0.04 0.31-0.18q0.04-0.24 0.07-0.49 0.02-0.1-0.02-0.19-0.06-0.09-0.16-0.12-0.03-0.01-0.06-0.01-0.07 0.01-0.13 0.04z"/>
    <path class="s0" d="m32.74 33.69q-0.06 0.25-0.08 0.5c-0.02 0.14 0.12 0.25 0.25 0.25 0.14 0 0.23-0.11 0.25-0.25q0-0.02 0-0.05 0.03-0.16 0.06-0.32c0.03-0.13-0.04-0.26-0.17-0.3q-0.04-0.01-0.07-0.01c-0.11 0-0.22 0.07-0.24 0.18z"/>
    <path class="s0" d="m33.49 34.1q-0.03 0.24-0.08 0.49c-0.03 0.13 0.04 0.27 0.17 0.3 0.13 0.04 0.29-0.04 0.31-0.17q0.05-0.24 0.09-0.49 0.02-0.1-0.03-0.19-0.05-0.08-0.15-0.11-0.03-0.01-0.06-0.01c-0.11 0-0.23 0.07-0.25 0.18z"/>
    <path class="s0" d="m34.34 34.43q-0.08 0.06-0.11 0.16-0.04 0.09-0.06 0.18-0.03 0.12-0.02 0.25c0.01 0.13 0.11 0.25 0.25 0.25 0.13 0 0.26-0.12 0.25-0.25q0-0.05 0-0.1 0.02-0.1 0.06-0.2c0.05-0.13-0.05-0.27-0.17-0.31q-0.04-0.01-0.07-0.01-0.07 0-0.13 0.03z"/>
    <path class="s0" d="m35.25 34.49q-0.1 0.03-0.15 0.12-0.05 0.09-0.02 0.19 0 0.01 0 0.02 0.02 0.15 0 0.31-0.02 0.07-0.04 0.15c-0.03 0.13 0.05 0.27 0.18 0.3 0.13 0.04 0.27-0.04 0.3-0.17q0.06-0.19 0.07-0.37 0-0.19-0.03-0.37-0.03-0.1-0.12-0.15-0.06-0.03-0.12-0.04-0.04 0-0.07 0.01z"/>
    <path class="s0" d="m35.91 34.9q-0.1 0.03-0.15 0.11-0.05 0.09-0.03 0.19 0.05 0.27 0.09 0.54 0 0.01 0 0.02c0 0.14 0.12 0.25 0.25 0.25 0.14 0 0.25-0.11 0.25-0.25q0-0.1-0.03-0.21-0.03-0.24-0.07-0.48-0.03-0.1-0.12-0.15-0.06-0.03-0.13-0.03-0.03 0-0.06 0.01z"/>
    <path class="s0" d="m36.68 35.43q-0.05 0.31-0.12 0.6c-0.03 0.13 0.04 0.28 0.18 0.31 0.13 0.04 0.27-0.04 0.3-0.18q0.08-0.29 0.12-0.59 0.03-0.1-0.02-0.19-0.05-0.09-0.15-0.12-0.03-0.01-0.06-0.01c-0.11 0-0.23 0.07-0.25 0.18z"/>
    <path class="s0" d="m37.47 35.77q-0.07 0.07-0.07 0.17-0.03 0.24-0.05 0.48c-0.01 0.14 0.12 0.25 0.25 0.25q0.1 0 0.18-0.07 0.07-0.07 0.07-0.18 0.02-0.24 0.05-0.48 0-0.1-0.08-0.17-0.07-0.07-0.17-0.08-0.1 0.01-0.18 0.08z"/>
    <path class="s0" d="m24.01 25.31q0.01 0.23 0.02 0.46 0.01 0.15 0 0.31 0 0 0-0.01-0.01 0.09 0.03 0.16 0.05 0.09 0.15 0.12 0.1 0.03 0.19-0.03c0.05-0.02 0.11-0.09 0.12-0.14q0.02-0.19 0.01-0.37-0.01-0.25-0.02-0.5c0-0.14-0.11-0.25-0.25-0.25-0.13 0-0.25 0.11-0.25 0.25z"/>
    <path class="s0" d="m25.09 25.53c-0.15 0.04-0.21 0.17-0.18 0.31q0.02 0.07 0.03 0.14-0.01-0.03-0.02-0.07 0.01 0.04 0.01 0.08-0.03 0.12-0.06 0.23c-0.05 0.13 0.04 0.28 0.17 0.31 0.13 0.04 0.27-0.04 0.31-0.17q0.04-0.13 0.06-0.25 0.01-0.08 0.02-0.16 0-0.12-0.04-0.25c-0.02-0.11-0.13-0.18-0.24-0.18q-0.03 0-0.06 0.01z"/>
    <path class="s0" d="m25.74 25.95c-0.1 0.09-0.1 0.26 0 0.35q0.03 0.04 0.06 0.07 0 0.01 0.01 0.02 0 0.02 0.01 0.05 0.01 0.16 0.01 0.33c0 0.14 0.12 0.25 0.25 0.25 0.14 0 0.25-0.11 0.25-0.25q0-0.18-0.01-0.37-0.01-0.13-0.07-0.25-0.07-0.11-0.16-0.2-0.08-0.07-0.18-0.07-0.1 0-0.17 0.07z"/>
    <path class="s0" d="m26.99 26.34q-0.05 0.09-0.02 0.2 0.02 0.09 0.11 0.14 0.01 0.01 0.02 0.02 0 0.01 0.01 0.02-0.01 0.18-0.02 0.37c-0.01 0.13 0.12 0.25 0.25 0.25q0.1-0.01 0.18-0.08 0.07-0.07 0.07-0.17 0.03-0.25 0-0.49-0.01-0.09-0.07-0.18-0.08-0.1-0.19-0.17-0.05-0.04-0.11-0.04-0.15 0.01-0.23 0.13z"/>
    <path class="s0" d="m28.4 26.5q-0.07 0.08-0.08 0.18-0.02 0.3-0.06 0.59 0.01-0.01 0.01-0.03 0 0.01 0 0.01-0.03 0.1 0.02 0.19 0.06 0.09 0.15 0.12 0.1 0.02 0.2-0.03 0.08-0.05 0.11-0.15 0.05-0.35 0.07-0.7c0.01-0.14-0.12-0.25-0.25-0.25q-0.1 0-0.17 0.07z"/>
    <path class="s0" d="m29.25 26.87q-0.08 0.32-0.2 0.64-0.02 0.1 0.03 0.19 0.05 0.09 0.15 0.12 0.1 0.02 0.19-0.03 0.09-0.05 0.12-0.15 0.11-0.32 0.19-0.64c0.04-0.13-0.05-0.27-0.18-0.31q-0.03-0.01-0.06-0.01c-0.11 0-0.21 0.08-0.24 0.19z"/>
    <path class="s0" d="m30.43 26.99q-0.1 0.03-0.15 0.11-0.05 0.09-0.03 0.19 0 0.01 0 0.01 0.01 0.05 0 0.1-0.01 0.06-0.03 0.12-0.02 0.05-0.04 0.1c-0.07 0.12-0.04 0.27 0.09 0.34 0.11 0.07 0.27 0.03 0.34-0.09q0.08-0.15 0.12-0.31 0.04-0.2 0-0.4c-0.02-0.11-0.13-0.18-0.24-0.18q-0.04 0-0.06 0.01z"/>
    <path class="s0" d="m31.41 27.5q-0.01 0.19-0.03 0.38 0 0.02-0.01 0.04-0.02 0.1 0.03 0.2 0.05 0.08 0.15 0.11c0.12 0.03 0.28-0.04 0.31-0.17q0.04-0.28 0.05-0.56c0.01-0.14-0.12-0.25-0.25-0.25-0.14 0-0.24 0.11-0.25 0.25z"/>
    <path class="s0" d="m32.47 27.54c-0.05 0.03-0.11 0.09-0.12 0.15q-0.05 0.37-0.1 0.75-0.02 0.1 0.03 0.19 0.05 0.08 0.14 0.11 0.11 0.03 0.2-0.02c0.05-0.03 0.1-0.09 0.11-0.15q0.05-0.37 0.1-0.75 0.03-0.1-0.02-0.19-0.05-0.09-0.15-0.11-0.03-0.01-0.07-0.01-0.06 0-0.12 0.03z"/>
    <path class="s0" d="m33.17 27.79q-0.09 0.05-0.11 0.15-0.03 0.1 0.02 0.19 0.01 0.01 0.01 0.02 0.01 0.04 0.02 0.08 0 0.03 0 0.06-0.01 0.06-0.03 0.11c-0.04 0.14 0.05 0.28 0.18 0.31 0.13 0.04 0.27-0.04 0.3-0.17q0.04-0.14 0.06-0.29c0-0.13-0.06-0.25-0.11-0.37-0.02-0.06-0.09-0.1-0.14-0.12q-0.04-0.01-0.07-0.01-0.07 0-0.13 0.04z"/>
    <path class="s0" d="m34.21 28.24q0.01 0.12 0.01 0.24-0.01 0.08-0.04 0.16 0 0 0 0-0.05 0.1-0.03 0.19 0.03 0.1 0.12 0.16 0.09 0.05 0.19 0.02c0.06-0.02 0.13-0.06 0.15-0.11q0.05-0.12 0.09-0.25 0.04-0.2 0.01-0.41 0-0.1-0.07-0.18-0.07-0.07-0.18-0.07c-0.13 0-0.26 0.12-0.25 0.25z"/>
    <path class="s0" d="m35.3 28.67q0.01 0.26-0.02 0.52 0 0.1 0.08 0.18 0.07 0.07 0.17 0.07 0.11 0 0.18-0.07 0.07-0.08 0.07-0.18 0.03-0.26 0.02-0.52c0-0.13-0.11-0.25-0.25-0.25-0.13 0-0.25 0.12-0.25 0.25z"/>
    <path class="s0" d="m36.42 28.95c-0.14 0.04-0.21 0.18-0.18 0.31q0.03 0.12 0.05 0.24 0-0.03-0.01-0.06 0.01 0.13 0.03 0.26c0.03 0.13 0.19 0.21 0.31 0.17q0.1-0.03 0.15-0.11 0.05-0.09 0.03-0.19-0.01-0.02-0.01-0.05 0 0.01 0 0.02 0-0.03-0.01-0.06 0 0 0-0.01 0 0 0 0-0.02-0.17-0.06-0.34c-0.02-0.12-0.13-0.19-0.24-0.19q-0.03 0-0.06 0.01z"/>
    <path class="s0" d="m26.45 18.47c-0.13 0.03-0.22 0.18-0.18 0.31q0.05 0.12 0.07 0.24c0.03 0.14 0.19 0.21 0.31 0.18q0.1-0.03 0.15-0.12 0.05-0.09 0.03-0.19-0.03-0.13-0.07-0.25-0.07-0.17-0.25-0.18-0.03 0-0.06 0.01z"/>
    <path class="s0" d="m27.25 18.8q-0.07 0.07-0.07 0.18 0.02 0.11 0.03 0.23c-0.04 0.13 0.04 0.27 0.17 0.3 0.13 0.04 0.27-0.04 0.31-0.17q0.03-0.18-0.01-0.36 0-0.1-0.07-0.18-0.08-0.07-0.18-0.07-0.1 0-0.18 0.07z"/>
    <path class="s0" d="m28.43 19.08c-0.12 0.04-0.22 0.18-0.17 0.31q0.05 0.13 0.08 0.25 0 0.01 0 0.03-0.01 0.06-0.02 0.11c-0.03 0.14 0.04 0.27 0.17 0.31 0.13 0.04 0.29-0.04 0.31-0.17q0.03-0.13 0.05-0.26 0-0.1-0.03-0.19-0.04-0.11-0.08-0.21-0.03-0.1-0.12-0.15-0.05-0.03-0.12-0.03-0.04 0-0.07 0z"/>
    <path class="s0" d="m29.76 19.53c-0.12 0.03-0.21 0.17-0.17 0.31q0.01 0.03 0.02 0.07 0 0.01 0 0.02-0.02 0.08-0.05 0.15 0.01-0.03 0.02-0.05 0 0.01 0 0.02-0.05 0.09-0.03 0.19 0.03 0.1 0.12 0.15 0.08 0.05 0.19 0.03c0.05-0.02 0.12-0.06 0.15-0.12q0.06-0.12 0.09-0.26 0.03-0.17-0.03-0.34c-0.03-0.11-0.13-0.18-0.24-0.18q-0.03 0-0.07 0.01z"/>
    <path class="s0" d="m30.95 20.1c-0.12 0.03-0.22 0.18-0.17 0.31q0.04 0.12 0.08 0.23-0.01 0.01-0.01 0.03-0.01 0.02-0.03 0.05c-0.07 0.12-0.03 0.27 0.09 0.34 0.12 0.07 0.28 0.03 0.35-0.09q0.06-0.11 0.09-0.24 0.01-0.11-0.01-0.23-0.03-0.11-0.08-0.23-0.03-0.09-0.11-0.14-0.06-0.04-0.13-0.04-0.04 0-0.07 0.01z"/>
    <path class="s0" d="m31.96 20.88q0.02 0.21 0.02 0.42 0 0.01-0.01 0.02c-0.06 0.12-0.03 0.27 0.09 0.34 0.12 0.06 0.29 0.03 0.35-0.09q0.06-0.11 0.07-0.23 0.01-0.23-0.02-0.46c0-0.14-0.1-0.25-0.25-0.25-0.13 0-0.25 0.11-0.25 0.25z"/>
    <path class="s0" d="m33.1 21.22q-0.09 0.03-0.14 0.12-0.05 0.09-0.03 0.19 0.01 0.02 0.01 0.05 0 0.02 0 0.04-0.01 0.05-0.03 0.09-0.04 0.08-0.01 0.17 0.03 0.1 0.11 0.15 0.1 0.05 0.2 0.02 0.1-0.02 0.14-0.11 0.07-0.14 0.09-0.29 0-0.13-0.03-0.26c-0.02-0.11-0.13-0.18-0.24-0.18q-0.03 0-0.07 0.01z"/>
    <path class="s0" d="m33.91 21.53q-0.09 0.03-0.15 0.11-0.04 0.09-0.02 0.19 0 0.01 0 0.01 0-0.02-0.01-0.05 0 0.06 0 0.11-0.02 0.11-0.06 0.22-0.01 0.02-0.02 0.03c-0.07 0.12-0.03 0.28 0.09 0.34 0.12 0.07 0.28 0.03 0.34-0.09q0.06-0.09 0.09-0.2 0.03-0.11 0.05-0.23 0.02-0.13 0-0.27-0.02-0.09-0.11-0.15-0.06-0.03-0.13-0.03-0.04 0-0.07 0.01z"/>
    <path class="s0" d="m34.74 22.04c-0.09 0.09-0.1 0.26 0 0.35q0.05 0.04 0.09 0.09 0 0.02-0.01 0.04-0.06 0.12-0.12 0.23c-0.08 0.11-0.03 0.27 0.09 0.34 0.12 0.07 0.27 0.03 0.34-0.09q0.1-0.17 0.17-0.35 0.07-0.17 0.01-0.34-0.08-0.16-0.22-0.27-0.07-0.07-0.17-0.07-0.1 0-0.18 0.07z"/>
    <path class="s0" d="m35.72 22.75q0 0.02 0 0.05-0.01 0.05-0.02 0.09-0.06 0.11-0.14 0.21c-0.07 0.11-0.02 0.28 0.09 0.34 0.13 0.07 0.27 0.02 0.35-0.09q0.1-0.13 0.17-0.29 0.05-0.15 0.05-0.31c0.02-0.14-0.12-0.25-0.25-0.25-0.14 0-0.23 0.11-0.25 0.25z"/>
    <path class="s0" d="m35.97 23.51c0 0.14 0.11 0.25 0.25 0.25 0.14 0 0.25-0.11 0.25-0.25 0-0.13-0.11-0.25-0.25-0.25-0.14 0-0.25 0.12-0.25 0.25z"/>
    <path class="s0" d="m29.11 12.44q-0.37 0.22-0.73 0.43c-0.12 0.07-0.16 0.23-0.09 0.35 0.06 0.11 0.22 0.15 0.34 0.09q0.37-0.21 0.73-0.43c0.12-0.08 0.16-0.23 0.09-0.35q-0.08-0.12-0.22-0.12-0.07 0-0.12 0.03z"/>
    <path class="s0" d="m30.28 13.18q-0.2 0.13-0.4 0.27-0.08 0.06-0.11 0.15-0.03 0.1 0.02 0.19c0.07 0.11 0.23 0.17 0.35 0.09q0.19-0.14 0.39-0.27c0.12-0.07 0.16-0.22 0.09-0.34q-0.08-0.12-0.22-0.12-0.06 0-0.12 0.03z"/>
    <path class="s0" d="m32.38 14.12q-0.22 0.07-0.43 0.14c-0.13 0.04-0.21 0.17-0.18 0.31 0.04 0.12 0.18 0.21 0.31 0.17q0.21-0.07 0.43-0.14c0.13-0.04 0.21-0.17 0.17-0.31-0.03-0.1-0.13-0.18-0.23-0.18q-0.04 0-0.07 0.01z"/>
    <path class="s0" d="m33.65 14.69q-0.32 0.2-0.64 0.42c-0.12 0.07-0.17 0.22-0.09 0.34 0.06 0.11 0.22 0.16 0.34 0.09q0.32-0.22 0.65-0.42c0.12-0.07 0.16-0.22 0.09-0.34q-0.08-0.12-0.22-0.12-0.07 0-0.13 0.03z"/>
    <path class="s0" d="m35.48 15.25q-0.19 0.1-0.38 0.21-0.29 0.18-0.57 0.39c-0.1 0.07-0.16 0.21-0.09 0.34 0.07 0.11 0.24 0.17 0.35 0.09q0.28-0.2 0.57-0.39 0.18-0.11 0.37-0.21c0.12-0.07 0.16-0.23 0.09-0.35q-0.07-0.12-0.21-0.12-0.07 0-0.13 0.04z"/>
    <path class="s0" d="m36.91 16.44q-0.41 0.22-0.83 0.42c-0.13 0.06-0.16 0.23-0.09 0.34q0.05 0.09 0.14 0.11 0.1 0.03 0.2-0.02 0.42-0.2 0.83-0.42c0.13-0.06 0.17-0.22 0.09-0.34q-0.07-0.12-0.21-0.12-0.06 0-0.13 0.03z"/>
    <path class="s0" d="m37.83 17.79c0 0.14 0.11 0.25 0.25 0.25 0.13 0 0.25-0.11 0.25-0.25 0-0.13-0.12-0.25-0.25-0.25-0.14 0-0.25 0.12-0.25 0.25z"/>
  </g>
  <g id="legs">
    <path class="s0" d="m20.29 59.56c0 0.13 0.12 0.25 0.25 0.25 0.14 0 0.25-0.12 0.25-0.25 0-0.14-0.11-0.25-0.25-0.25-0.13 0-0.25 0.11-0.25 0.25z"/>
    <path class="s0" d="m18.98 58.22q-0.17 0.02-0.34 0.06-0.16 0.04-0.31 0.09c-0.38 0.13-0.72 0.36-1.06 0.58q-0.36 0.24-0.71 0.5-0.22 0.16-0.44 0.32-0.1 0.08-0.19 0.16-0.06 0.05-0.11 0.12-0.07 0.1-0.05 0.23 0.03 0.11 0.12 0.17 0.17 0.08 0.35 0.09 0.13 0.03 0.25 0.06 0.18 0.04 0.36 0.08 0.35 0.07 0.7 0.12 0.24 0.03 0.49 0.06 0.52 0.05 1.05 0.1 0.54 0.05 1.08 0.1 0.16 0.02 0.33 0.05-0.03-0.01-0.07-0.02 0.22 0.04 0.44 0.06-0.01 0-0.02 0 0.13 0.02 0.27 0.05 0.22 0.05 0.44 0.09 0.14 0.04 0.28 0.08 0.22 0.06 0.43 0.12 0.16 0.05 0.32 0.1 0.19 0.08 0.39 0.15 0.17 0.06 0.35 0.14 0.17 0.07 0.35 0.15-0.01-0.01-0.02-0.01 0.33 0.14 0.66 0.29 0.39 0.17 0.79 0.34 0.38 0.16 0.77 0.32 0.43 0.17 0.87 0.3 0.64 0.19 1.3 0.29 0.49 0.07 0.98 0.1 0.28 0.02 0.57 0.03 0.19 0.01 0.39 0.01 0.5 0 1-0.01 0.7-0.01 1.4-0.04 0.9-0.02 1.79-0.03 0.73 0 1.46 0 0.87-0.01 1.75-0.02 0.79-0.02 1.59-0.08 0.35-0.03 0.7-0.08 0.42-0.05 0.84-0.1 0.68-0.1 1.35-0.2-0.04 0.01-0.07 0.01 0.12-0.02 0.24-0.02 0.14 0 0.26 0.02 0.21 0.03 0.41 0.05 0.41 0.02 0.81 0.02 1.62 0.03 3.24-0.02 1.63-0.04 3.26-0.14 0.37-0.02 0.74-0.06 0.18-0.02 0.36-0.04 0.23-0.03 0.45-0.07 0.2-0.03 0.39-0.06 0.19-0.04 0.38-0.08 0.43-0.09 0.84-0.19 0.38-0.09 0.76-0.18 0.4-0.09 0.81-0.17 0.76-0.15 1.53-0.26-0.01 0-0.02 0 0.02 0 0.04 0 0.01 0 0.03 0-0.01 0-0.02 0 0.22-0.02 0.44-0.04 0.16-0.01 0.31-0.01-0.32 0.34-0.65 0.66c-0.09 0.1-0.09 0.26 0 0.36 0.1 0.09 0.26 0.09 0.36 0q0.25-0.27 0.51-0.52 0.12-0.13 0.24-0.26 0.06-0.08 0.12-0.16 0.03-0.08 0.06-0.16c0.05-0.16-0.09-0.33-0.24-0.37q-0.21-0.05-0.42-0.05-0.44 0-0.87 0.07-0.51 0.07-1.01 0.16-0.55 0.1-1.09 0.21-0.43 0.1-0.86 0.2-0.3 0.07-0.6 0.14-0.25 0.06-0.49 0.11-0.21 0.04-0.41 0.08-0.32 0.05-0.64 0.1-0.37 0.04-0.75 0.07-0.15 0.02-0.3 0.02-0.24 0.02-0.49 0.03-0.78 0.05-1.56 0.07-1.54 0.07-3.08 0.07-0.75 0-1.5-0.01-0.36-0.01-0.71-0.02-0.2-0.02-0.4-0.05-0.24-0.03-0.48 0-0.29 0.04-0.58 0.09-0.34 0.05-0.69 0.1 0.01 0 0.02 0-0.68 0.08-1.35 0.15-0.67 0.07-1.33 0.09-1.43 0.05-2.86 0.04-0.72 0-1.45 0.01-0.63 0.01-1.27 0.02-0.69 0.03-1.37 0.04-0.45 0.01-0.9 0.01-0.3 0-0.61-0.02-0.56-0.02-1.11-0.09 0.03 0 0.06 0.01-0.56-0.08-1.1-0.21-0.63-0.17-1.23-0.4-0.18-0.07-0.35-0.14-0.22-0.09-0.44-0.18 0.03 0.01 0.06 0.03-0.59-0.26-1.17-0.52-0.25-0.11-0.5-0.21-0.29-0.13-0.58-0.24-0.32-0.11-0.63-0.22-0.13-0.04-0.27-0.08-0.19-0.05-0.39-0.1-0.09-0.02-0.17-0.04-0.21-0.04-0.43-0.08-0.1-0.03-0.2-0.04-0.18-0.03-0.35-0.05 0.01 0 0.02 0-0.21-0.03-0.43-0.05 0.01 0 0.02 0-0.26-0.03-0.52-0.05-0.31-0.03-0.61-0.06-0.72-0.06-1.44-0.15 0.01 0 0.03 0-0.28-0.03-0.56-0.08-0.22-0.04-0.43-0.1-0.08-0.02-0.17-0.04 0.22-0.15 0.43-0.31 0.29-0.2 0.57-0.4 0.4-0.28 0.85-0.49 0.12-0.05 0.25-0.08 0.24-0.08 0.5-0.11-0.04 0.01-0.07 0.01 0.1-0.01 0.19-0.01 0.15-0.01 0.3 0 0.2 0.03 0.4 0.1-0.03-0.02-0.07-0.03 0.09 0.03 0.16 0.08-0.01-0.01-0.02-0.02 0.01 0.01 0.02 0.02 0.02 0.01 0.03 0.02-0.01-0.01-0.02-0.01 0.03 0.02 0.06 0.05-0.04 0.06-0.05 0.14c0 0.11 0.07 0.19 0.15 0.24q0.11 0.07 0.21 0.14c0.12 0.08 0.28 0.02 0.34-0.09q0.06-0.09 0.03-0.19-0.03-0.09-0.11-0.15-0.01-0.01-0.02-0.01 0-0.07-0.01-0.12-0.06-0.2-0.21-0.34-0.06-0.05-0.11-0.09-0.09-0.07-0.19-0.1-0.26-0.11-0.54-0.13-0.14-0.01-0.28-0.01-0.16 0-0.33 0.02z"/>
    <path class="s0" d="m33.93 57.11q-0.1 0.03-0.15 0.12c-0.03 0.05-0.05 0.13-0.02 0.19q0.34 0.8 0.69 1.61 0.12 0.29 0.26 0.57 0.18 0.37 0.39 0.72c0.07 0.12 0.23 0.16 0.34 0.09 0.12-0.07 0.16-0.23 0.09-0.34-0.47-0.82-0.83-1.69-1.2-2.56q0.02 0.03 0.03 0.06-0.06-0.14-0.12-0.28-0.03-0.1-0.12-0.15-0.06-0.04-0.13-0.04-0.03 0-0.06 0.01z"/>
    <path class="s0" d="m34.8 55.87c-0.13 0.03-0.21 0.17-0.17 0.3q0.09 0.33 0.19 0.66 0.11 0.3 0.25 0.58 0.25 0.5 0.55 0.98 0.12 0.22 0.26 0.43 0.09 0.14 0.21 0.27c0.08 0.1 0.26 0.09 0.35 0q0.07-0.08 0.07-0.18 0-0.1-0.07-0.18-0.04-0.04-0.07-0.09-0.16-0.21-0.28-0.43-0.13-0.22-0.25-0.43-0.13-0.23-0.25-0.46-0.13-0.25-0.24-0.51 0.01 0.03 0.02 0.06-0.07-0.16-0.12-0.33-0.07-0.25-0.14-0.5c-0.03-0.11-0.13-0.18-0.24-0.18q-0.04 0-0.07 0.01z"/>
    <path class="s0" d="m35.99 55.09q-0.09 0.06-0.11 0.15-0.03 0.1 0.02 0.2 0.24 0.52 0.48 1.05 0.17 0.36 0.34 0.71 0.21 0.41 0.42 0.82 0.09 0.17 0.17 0.33 0.07 0.14 0.15 0.27 0.04 0.07 0.08 0.12 0.04 0.03 0.08 0.06c0.05 0.04 0.13 0.05 0.19 0.03q0.1-0.03 0.15-0.12 0.05-0.09 0.03-0.19-0.02-0.07-0.08-0.11-0.13-0.23-0.25-0.47-0.09-0.17-0.18-0.35-0.19-0.36-0.37-0.72-0.15-0.32-0.3-0.63-0.24-0.52-0.48-1.06c-0.02-0.05-0.09-0.1-0.15-0.11q-0.03-0.01-0.06-0.01-0.07 0-0.13 0.03z"/>
    <path class="s0" d="m38.19 55.31q-0.09 0.06-0.12 0.15-0.02 0.1 0.03 0.2 0.32 0.72 0.67 1.44 0.16 0.34 0.33 0.69c0.09 0.18 0.17 0.38 0.3 0.54 0.09 0.1 0.27 0.09 0.36 0q0.07-0.08 0.07-0.18 0-0.1-0.07-0.18-0.14-0.24-0.26-0.5-0.15-0.31-0.3-0.62-0.35-0.72-0.67-1.45-0.05-0.08-0.15-0.11-0.03-0.01-0.07-0.01-0.07 0-0.12 0.03z"/>
    <path class="s0" d="m39.59 55.7c-0.12 0.03-0.22 0.18-0.17 0.31q0.09 0.24 0.19 0.48 0.03 0.1 0.11 0.15 0.09 0.05 0.19 0.02 0.1-0.02 0.16-0.11c0.02-0.05 0.04-0.13 0.02-0.19q-0.1-0.24-0.19-0.48-0.03-0.1-0.12-0.15-0.05-0.04-0.12-0.04-0.03 0-0.07 0.01z"/>
    <path class="s0" d="m26.95 58.58c-0.13 0.04-0.21 0.18-0.17 0.31q0.18 0.76 0.37 1.53 0.06 0.25 0.12 0.49 0.08 0.31 0.19 0.6 0.03 0.1 0.12 0.15 0.09 0.05 0.19 0.02c0.12-0.03 0.22-0.18 0.18-0.3q-0.11-0.28-0.18-0.56-0.07-0.26-0.14-0.53-0.18-0.77-0.37-1.53c-0.03-0.11-0.14-0.19-0.25-0.19q-0.03 0-0.06 0.01z"/>
    <path class="s0" d="m27.97 58.42q-0.09 0.03-0.15 0.11-0.05 0.09-0.02 0.2 0.29 0.69 0.56 1.39 0.12 0.29 0.23 0.59 0.12 0.31 0.22 0.64c0.03 0.13 0.17 0.21 0.31 0.17 0.13-0.04 0.2-0.17 0.17-0.31q-0.08-0.28-0.19-0.56-0.11-0.29-0.23-0.58-0.28-0.74-0.59-1.48-0.03-0.09-0.11-0.15-0.06-0.03-0.13-0.03-0.03 0-0.07 0.01z"/>
    <path class="s0" d="m29.44 57.98c-0.14 0.04-0.2 0.17-0.18 0.31q0.1 0.45 0.2 0.91 0.06 0.29 0.14 0.57 0.16 0.7 0.36 1.4c0.03 0.13 0.17 0.21 0.3 0.17 0.14-0.04 0.22-0.18 0.18-0.3q-0.18-0.66-0.34-1.33-0.19-0.78-0.35-1.56c-0.02-0.11-0.14-0.18-0.25-0.18q-0.03 0-0.06 0.01z"/>
    <path class="s0" d="m31.25 58.92c-0.13 0.03-0.22 0.17-0.18 0.31q0.27 0.93 0.57 1.86c0.05 0.12 0.18 0.21 0.31 0.17 0.13-0.03 0.22-0.18 0.17-0.31q-0.29-0.92-0.57-1.86c-0.03-0.11-0.13-0.18-0.24-0.18q-0.03 0-0.06 0.01z"/>
    <path class="s0" d="m32.5 58.83c-0.12 0.03-0.22 0.18-0.17 0.3q0.11 0.33 0.23 0.64 0.1 0.28 0.18 0.56c0.04 0.13 0.18 0.21 0.31 0.18 0.13-0.04 0.21-0.18 0.17-0.31q-0.08-0.28-0.18-0.56-0.11-0.32-0.23-0.64-0.07-0.17-0.24-0.18-0.04 0-0.07 0.01z"/>
    <path class="s0" d="m20.88 56.65q0.08 0.84 0.18 1.68 0.04 0.38 0.08 0.77c0.01 0.16-0.01 0.35 0.15 0.43 0.12 0.07 0.28 0.03 0.35-0.09q0.06-0.12 0-0.24-0.02-0.18-0.03-0.35-0.03-0.34-0.06-0.68-0.04-0.34-0.09-0.68-0.04-0.42-0.08-0.84-0.01-0.1-0.08-0.17-0.07-0.07-0.17-0.08c-0.13 0-0.26 0.12-0.25 0.25z"/>
    <path class="s0" d="m22.2 56.87q-0.07 0.07-0.08 0.17-0.01 0.12-0.02 0.24-0.01 0.11 0 0.22 0.02 0.24 0.08 0.47 0.03 0.11 0.05 0.23 0.1 0.49 0.18 1 0-0.04-0.01-0.07 0.03 0.23 0.04 0.47c0 0.13 0.11 0.25 0.25 0.25 0.13 0 0.25-0.12 0.25-0.25-0.01-0.72-0.23-1.42-0.35-2.12q0-0.1 0.01-0.2 0.01-0.12 0.02-0.24c0.01-0.06-0.03-0.13-0.07-0.17q-0.07-0.08-0.18-0.08-0.1 0-0.17 0.08z"/>
    <path class="s0" d="m23.25 57.73q-0.09 0.02-0.15 0.11-0.04 0.09-0.02 0.2 0.11 0.62 0.21 1.25 0.02 0.22 0.03 0.44c0.01 0.13 0.11 0.25 0.25 0.25 0.13 0 0.26-0.12 0.25-0.25-0.04-0.62-0.15-1.22-0.26-1.83-0.02-0.11-0.13-0.18-0.24-0.18q-0.04 0-0.07 0.01z"/>
    <path class="s0" d="m24.49 58.69q-0.1 0.03-0.15 0.11-0.05 0.09-0.03 0.19 0.04 0.21 0.1 0.4 0.06 0.19 0.1 0.37c0.03 0.14 0.19 0.21 0.31 0.18 0.14-0.04 0.2-0.17 0.17-0.31q-0.04-0.19-0.09-0.37-0.07-0.2-0.1-0.4c-0.02-0.11-0.14-0.18-0.25-0.18q-0.03 0-0.06 0.01z"/>
    <path class="s0" d="m17.44 59.14q-0.01 0.26-0.03 0.53-0.01 0.15 0.02 0.29c0.03 0.14 0.18 0.21 0.31 0.18 0.13-0.04 0.2-0.18 0.17-0.31q0-0.01 0-0.01 0-0.1 0-0.2 0.02-0.24 0.03-0.48c0.01-0.14-0.12-0.25-0.25-0.25-0.14 0-0.24 0.11-0.25 0.25z"/>
    <path class="s0" d="m18.7 58.79c-0.14 0.04-0.21 0.17-0.18 0.31q0.04 0.15 0.08 0.29 0.03 0.1 0.05 0.2c0.03 0.13 0.18 0.21 0.31 0.17 0.14-0.03 0.2-0.17 0.18-0.3q-0.02-0.1-0.06-0.18-0.04-0.16-0.07-0.32c-0.03-0.11-0.14-0.18-0.24-0.18q-0.04 0-0.07 0.01z"/>
  </g>
</svg>