<svg viewBox="0 0 40 55" xmlns="http://www.w3.org/2000/svg">
  <style>
    .s0 { fill: #161616 }
  </style>
  <g id="head">
    <path fill-rule="evenodd" class="s0" d="m21.3 7.08q0.01 0 0.02 0 0.18 0 0.35 0.02 0.21 0.03 0.42 0.08 0.25 0.05 0.5 0.15 0.15 0.05 0.3 0.13 0.36 0.23 0.66 0.52 0.2 0.17 0.37 0.36 0.15 0.17 0.3 0.35 0.11 0.14 0.19 0.29 0.07 0.12 0.15 0.24 0.23-0.07 0.46-0.13 0.31-0.08 0.62-0.13 0.32-0.05 0.64-0.03 0.31 0.02 0.63 0.08 0.13 0.03 0.26 0.06 0.07 0.03 0.13 0.05 0.11 0.04 0.21 0.11 0.22 0.14 0.41 0.33 0.13 0.14 0.23 0.3 0.1 0.15 0.16 0.31 0.09 0.17 0.12 0.35 0.01 0.11 0.03 0.22 0.01 0.37-0.04 0.74-0.03 0.29-0.08 0.57-0.07 0.48-0.2 0.94-0.09 0.37-0.24 0.72-0.09 0.21-0.21 0.39-0.03 0.05-0.07 0.1 0 0.01 0 0.01 0.09 0.05 0.19 0.11 0.38 0.26 0.73 0.55 0.58 0.49 1.01 1.09 0.42 0.57 0.7 1.22 0.3 0.66 0.39 1.37 0.09 0.69 0 1.38-0.05 0.4-0.17 0.79-0.08 0.25-0.2 0.49-0.23 0.42-0.55 0.77 0.09 0.03 0.19 0.07 0.24 0.1 0.46 0.23 0.58 0.37 1.01 0.91 0.1 0.13 0.18 0.27 0.08 0.14 0.14 0.29 0.12 0.26 0.18 0.53 0.17 0.75 0.06 1.52-0.06 0.44-0.21 0.86c-0.1 0.24-0.19 0.48-0.34 0.68q-0.21 0.3-0.47 0.53-0.26 0.23-0.56 0.4-0.26 0.14-0.53 0.26 0.1 0.05 0.19 0.11 0.23 0.16 0.43 0.36 0.23 0.23 0.43 0.5 0.22 0.26 0.39 0.55 0.19 0.34 0.33 0.71 0.06 0.18 0.1 0.36 0.04 0.18 0.06 0.36 0.04 0.22 0.03 0.44 0.01 0.18-0.01 0.35-0.03 0.29-0.09 0.57-0.18 0.7-0.54 1.34-0.35 0.61-0.8 1.15-0.28 0.32-0.59 0.62-0.12 0.12-0.25 0.24-0.06 0.05-0.12 0.1 0.03 0.02 0.07 0.04 0.14 0.1 0.25 0.23 0.11 0.13 0.18 0.29 0.03 0.07 0.06 0.15 0.04 0.14 0.04 0.28 0.01 0.12-0.01 0.25-0.04 0.36-0.17 0.7-0.11 0.3-0.26 0.58-0.17 0.31-0.39 0.59-0.15 0.2-0.34 0.38-0.13 0.12-0.27 0.23-0.15 0.14-0.33 0.25-0.15 0.1-0.31 0.18-0.41 0.22-0.86 0.32-0.34 0.08-0.69 0.09-0.38 0.01-0.75-0.01-0.3-0.01-0.59-0.03-0.22-0.02-0.43-0.03-0.11-0.01-0.21-0.02-0.12-0.01-0.23 0-0.02 0.01-0.04 0.01-0.04 0.29-0.11 0.57-0.03 0.13-0.09 0.26-0.04 0.1-0.09 0.19-0.08 0.12-0.17 0.22-0.07 0.07-0.15 0.13-0.22 0.17-0.46 0.27-0.33 0.14-0.68 0.2c-0.33 0.06-0.67 0.04-1 0.03q-0.29-0.01-0.57-0.03-0.36-0.04-0.72-0.07-0.13-0.01-0.25-0.04-0.23-0.04-0.46-0.07-0.13-0.02-0.27-0.05-0.25-0.06-0.5-0.11-0.15-0.03-0.29-0.05-0.05 0-0.09 0.01-0.06 0.1-0.11 0.2-0.06 0.1-0.14 0.21-0.12 0.19-0.27 0.36-0.25 0.28-0.54 0.52-0.09 0.07-0.18 0.14-0.06 0.04-0.13 0.09-0.1 0.06-0.2 0.1-0.13 0.05-0.25 0.07-0.07 0.01-0.14 0.02-0.11 0.02-0.22 0.02-0.24-0.01-0.48-0.03-0.11-0.02-0.23-0.04-0.17-0.04-0.34-0.11-0.12-0.05-0.24-0.11-0.21-0.11-0.41-0.25-0.13-0.09-0.26-0.19-0.3-0.23-0.56-0.5-0.57-0.62-0.94-1.38-0.38-0.76-0.61-1.59-0.07-0.24-0.13-0.49-0.04-0.16-0.08-0.33-0.03-0.16-0.06-0.32-0.02-0.15-0.08-0.3-0.02 0-0.04 0.01-0.06 0-0.12 0.01-0.16 0-0.31-0.02-0.31-0.03-0.6-0.14-0.09-0.03-0.17-0.07-0.12-0.05-0.22-0.12-0.07-0.06-0.15-0.12-0.04-0.04-0.08-0.08-0.33-0.39-0.51-0.86-0.05-0.13-0.09-0.26-0.05-0.17-0.07-0.34-0.04-0.21-0.05-0.43-0.01-0.37 0.01-0.75 0-0.26 0.02-0.53 0.06-0.59 0.19-1.16 0.09-0.35 0.21-0.68 0.1-0.27 0.21-0.53 0.24-0.53 0.55-1.02 0.12-0.18 0.25-0.35 0.07-0.08 0.13-0.17 0.12-0.15 0.25-0.29 0.18-0.2 0.37-0.4 0.03-0.03 0.06-0.06-0.37-0.17-0.72-0.37-0.27-0.16-0.52-0.35-0.18-0.13-0.32-0.3-0.08-0.08-0.15-0.18c-0.25-0.32-0.48-0.69-0.56-1.1q-0.14-0.79-0.06-1.6 0.06-0.75 0.27-1.47c0.16-0.52 0.37-1.02 0.68-1.46q0.11-0.18 0.25-0.35 0.1-0.14 0.22-0.27 0.12-0.12 0.24-0.23 0.1-0.1 0.19-0.21 0.02-0.03 0.04-0.06-0.05-0.03-0.11-0.07-0.16-0.1-0.31-0.22-0.17-0.13-0.33-0.26-0.13-0.1-0.25-0.21-0.16-0.14-0.3-0.28-0.22-0.23-0.43-0.48-0.17-0.2-0.31-0.42-0.14-0.21-0.26-0.42-0.12-0.21-0.23-0.44-0.08-0.17-0.16-0.36-0.11-0.33-0.17-0.67-0.04-0.21-0.05-0.42-0.02-0.48 0.05-0.95 0.04-0.34 0.14-0.67 0.08-0.24 0.17-0.48 0.14-0.34 0.36-0.62 0.17-0.2 0.36-0.36 0.15-0.13 0.33-0.21c0.21-0.11 0.47-0.15 0.7-0.15 0.4 0 0.79 0.04 1.19 0.07q0.24 0 0.48 0.01 0.14 0.01 0.29 0.01 0.04 0 0.08-0.01 0.03-0.01 0.06-0.01-0.03-0.69-0.01-1.37 0-0.58 0.08-1.15 0.11-0.61 0.34-1.18 0.07-0.18 0.16-0.35 0.09-0.22 0.22-0.44 0.26-0.44 0.61-0.82 0.16-0.18 0.35-0.34 0.14-0.13 0.3-0.24 0.22-0.14 0.47-0.22 0.23-0.07 0.47-0.1 0.44-0.07 0.88-0.01 0.46 0.06 0.87 0.3 0.43 0.25 0.83 0.55 0.38 0.27 0.73 0.58 0.02-0.04 0.03-0.07 0.15-0.3 0.31-0.58 0.16-0.29 0.36-0.55 0.22-0.29 0.49-0.54 0.13-0.13 0.27-0.25 0.14-0.12 0.29-0.22 0.18-0.1 0.36-0.18 0.15-0.07 0.31-0.1 0.13-0.03 0.27-0.03zm-0.38 0.59q-0.1 0.04-0.19 0.09-0.11 0.06-0.21 0.13-0.28 0.23-0.54 0.49-0.15 0.16-0.29 0.34-0.19 0.28-0.36 0.58-0.16 0.28-0.3 0.58 0.01-0.02 0.02-0.04-0.03 0.06-0.04 0.12 0.14 0.14 0.28 0.27c0.1 0.09 0.09 0.26 0 0.36-0.1 0.09-0.25 0.09-0.36 0q-0.52-0.51-1.07-0.97-0.32-0.24-0.64-0.45-0.2-0.15-0.42-0.27-0.13-0.07-0.27-0.13 0.02 0.01 0.04 0.01-0.15-0.05-0.3-0.09-0.07-0.01-0.13-0.02 0.02 0 0.04 0-0.24-0.03-0.48-0.03-0.15 0.01-0.29 0.02 0.01 0 0.02 0-0.01 0-0.02 0-0.02 0-0.04 0 0.01 0 0.03 0-0.15 0.02-0.29 0.06-0.13 0.03-0.26 0.08 0.02 0 0.03-0.01-0.02 0.01-0.03 0.02-0.01 0-0.01 0-0.12 0.05-0.23 0.13-0.04 0.03-0.09 0.06 0.01 0 0.02-0.01-0.02 0.01-0.03 0.02-0.01 0.01-0.03 0.02 0.01-0.01 0.02-0.01-0.23 0.19-0.44 0.42-0.14 0.17-0.29 0.34-0.18 0.25-0.32 0.52-0.14 0.29-0.27 0.58-0.12 0.29-0.2 0.6-0.05 0.17-0.08 0.34-0.03 0.16-0.05 0.33-0.06 0.59-0.06 1.19 0 0.43 0.01 0.85 0 0.1 0.01 0.18c0 0.08 0.02 0.17-0.03 0.24q-0.05 0.06-0.09 0.12-0.06 0.05-0.13 0.09-0.09 0.05-0.18 0.07-0.04 0-0.07 0.01-0.14 0.02-0.29 0.01-0.14-0.01-0.29-0.01-0.33-0.01-0.66-0.04c-0.36-0.02-0.72-0.06-1.07-0.02q-0.15 0.02-0.3 0.09 0.04-0.02 0.07-0.03-0.14 0.06-0.25 0.14-0.18 0.16-0.34 0.35-0.06 0.08-0.11 0.17-0.07 0.12-0.13 0.25 0-0.01 0.01-0.01-0.01 0.01-0.02 0.02 0 0.02-0.01 0.04 0-0.01 0.01-0.02-0.13 0.3-0.2 0.6-0.06 0.23-0.1 0.47 0.01-0.02 0.01-0.04-0.01 0.03-0.01 0.06 0 0.01 0 0.01 0 0 0 0-0.03 0.23-0.04 0.47 0 0.26 0.03 0.53-0.01-0.03-0.01-0.07 0.03 0.27 0.1 0.52 0.06 0.23 0.15 0.46 0.16 0.36 0.36 0.69 0.2 0.31 0.42 0.61 0.22 0.26 0.47 0.51 0.12 0.12 0.25 0.24 0.27 0.22 0.54 0.43-0.01 0-0.01 0 0.01 0 0.01 0.01 0.02 0.01 0.03 0.02-0.01-0.01-0.01-0.01 0.14 0.1 0.28 0.19 0.14 0.09 0.28 0.16c0.12 0.07 0.15 0.22 0.09 0.34q-0.09 0.18-0.21 0.34-0.1 0.13-0.22 0.25-0.13 0.12-0.25 0.23-0.12 0.13-0.22 0.27 0.01-0.01 0.02-0.02-0.21 0.28-0.39 0.58-0.12 0.22-0.22 0.46 0.01-0.03 0.02-0.06-0.16 0.39-0.27 0.78-0.12 0.43-0.18 0.88 0-0.02 0-0.03-0.06 0.45-0.06 0.89 0 0.34 0.04 0.68-0.01-0.03-0.01-0.07 0.02 0.23 0.08 0.45 0.03 0.12 0.08 0.23 0.1 0.2 0.22 0.38 0.07 0.11 0.15 0.21-0.01-0.01-0.02-0.03 0.11 0.14 0.23 0.25 0.09 0.1 0.2 0.17-0.02-0.01-0.05-0.04 0.37 0.27 0.77 0.48 0.23 0.12 0.46 0.23-0.02-0.01-0.04-0.02 0.16 0.05 0.29 0.15 0.13 0.12 0.1 0.29c-0.02 0.09-0.08 0.15-0.14 0.21q-0.07 0.06-0.15 0.13-0.16 0.17-0.32 0.34-0.26 0.29-0.5 0.6 0.02-0.02 0.04-0.04-0.25 0.34-0.45 0.7-0.2 0.36-0.36 0.74 0.01-0.03 0.02-0.06-0.17 0.4-0.28 0.82-0.11 0.46-0.18 0.92 0-0.03 0.01-0.07-0.07 0.53-0.08 1.07-0.01 0.29 0 0.57 0.02 0.18 0.04 0.36 0-0.01 0-0.02 0.02 0.15 0.06 0.29 0.04 0.14 0.09 0.27 0-0.01-0.01-0.02 0.08 0.2 0.2 0.39 0.06 0.09 0.12 0.18 0 0 0-0.01 0.07 0.1 0.16 0.17 0.02 0.03 0.05 0.05 0.08 0.05 0.17 0.1 0.21 0.09 0.45 0.14 0.1 0.02 0.2 0.03-0.01 0-0.03 0 0.02 0 0.03 0 0.02 0.01 0.04 0.01-0.02 0-0.04-0.01 0.16 0.02 0.31 0 0.1-0.02 0.2-0.01 0.07 0 0.13 0.03 0.07 0.05 0.11 0.12 0.08 0.09 0.11 0.21 0.06 0.15 0.08 0.31 0.06 0.33 0.14 0.65 0.11 0.42 0.24 0.84 0.11 0.33 0.24 0.66 0-0.01-0.01-0.02 0.01 0.03 0.03 0.06 0 0 0 0 0 0 0 0 0.16 0.37 0.36 0.73 0.21 0.36 0.46 0.7 0.16 0.2 0.35 0.39 0.19 0.17 0.39 0.33 0.23 0.18 0.48 0.33 0.16 0.09 0.33 0.17 0.14 0.05 0.28 0.08 0.05 0.01 0.11 0.02-0.01 0-0.02 0 0.02 0 0.04 0 0.02 0 0.03 0-0.01 0-0.02 0 0.13 0.01 0.27 0.02 0.16 0.01 0.32-0.01-0.03 0.01-0.07 0.02 0.14-0.02 0.26-0.05 0.05-0.02 0.1-0.04 0.13-0.06 0.24-0.14 0.04-0.04 0.09-0.07-0.01 0.01-0.01 0.01 0.01-0.01 0.01-0.01 0.02-0.02 0.04-0.03-0.02 0.01-0.03 0.02 0.32-0.27 0.59-0.59 0.17-0.23 0.31-0.47c0.05-0.1 0.08-0.21 0.18-0.26q0.1-0.09 0.23-0.1 0.12-0.02 0.24 0 0.26 0.04 0.52 0.09 0.17 0.05 0.34 0.08 0.13 0.02 0.26 0.04 0.31 0.06 0.62 0.11 0.25 0.02 0.51 0.04 0.18 0.02 0.37 0.03 0.27 0.02 0.53 0.03 0.14 0.01 0.28 0 0.15 0 0.31-0.01 0.08-0.01 0.15-0.02-0.02 0-0.04 0 0.18-0.02 0.34-0.07 0.12-0.03 0.23-0.08 0.2-0.09 0.39-0.21 0.09-0.07 0.16-0.16 0.07-0.11 0.13-0.23 0.07-0.23 0.12-0.47 0.01-0.08 0.02-0.15 0.01-0.11 0.05-0.21 0.03-0.07 0.08-0.14 0.06-0.05 0.14-0.08 0.1-0.05 0.23-0.05 0.13-0.02 0.27-0.01 0.07 0.01 0.14 0.02 0.07 0 0.14 0 0.45 0.04 0.9 0.06 0.53 0.03 1.05-0.01 0.24-0.03 0.47-0.09 0.15-0.04 0.29-0.09 0.23-0.1 0.45-0.22 0.19-0.13 0.38-0.27 0.21-0.17 0.39-0.36 0.11-0.12 0.2-0.24-0.01 0.02-0.02 0.03 0.19-0.25 0.35-0.53 0.1-0.19 0.18-0.39-0.01 0.03-0.02 0.06 0.1-0.24 0.16-0.49 0.03-0.14 0.05-0.28 0.01-0.09 0-0.18 0-0.03 0-0.05-0.02-0.08-0.04-0.16-0.04-0.08-0.1-0.16 0 0 0.01 0-0.08-0.09-0.18-0.17 0.01 0.01 0.02 0.02-0.11-0.08-0.24-0.14-0.06-0.03-0.1-0.09-0.02-0.02-0.04-0.05c-0.07-0.12-0.02-0.25 0.06-0.36q0.12-0.16 0.28-0.29 0.19-0.17 0.37-0.35 0.19-0.19 0.36-0.38 0.14-0.16 0.28-0.33 0.25-0.33 0.46-0.68 0.21-0.38 0.38-0.78 0.09-0.21 0.15-0.44 0.07-0.24 0.11-0.49 0.03-0.23 0.02-0.46 0-0.17-0.01-0.33 0 0.01 0 0.03 0-0.02 0-0.04-0.01-0.01-0.01-0.03 0 0.01 0 0.02-0.02-0.25-0.1-0.5-0.05-0.17-0.12-0.34 0.01 0.03 0.02 0.05-0.13-0.32-0.32-0.62-0.14-0.21-0.29-0.4 0.01 0.01 0.02 0.02-0.13-0.17-0.28-0.32-0.12-0.12-0.24-0.23-0.05-0.04-0.09-0.08-0.18-0.14-0.39-0.24-0.06-0.03-0.13-0.06-0.1-0.04-0.19-0.07-0.09-0.01-0.18-0.05-0.15-0.11-0.11-0.29c0.02-0.08 0.09-0.16 0.17-0.17q0.28-0.07 0.55-0.18 0.26-0.11 0.51-0.25 0.19-0.11 0.37-0.24 0.11-0.09 0.21-0.19 0.11-0.11 0.21-0.23 0.09-0.11 0.16-0.24 0.08-0.14 0.15-0.29-0.01 0.02-0.02 0.04 0.11-0.24 0.18-0.5 0.06-0.25 0.1-0.51 0.03-0.24 0.03-0.48-0.01-0.24-0.03-0.48-0.04-0.24-0.11-0.47-0.04-0.14-0.09-0.28-0.06-0.13-0.13-0.26-0.06-0.1-0.13-0.19-0.28-0.35-0.62-0.62-0.33-0.25-0.7-0.41-0.12-0.05-0.25-0.08-0.06-0.02-0.13-0.04-0.08-0.04-0.15-0.1c-0.05-0.04-0.08-0.12-0.07-0.18q-0.01-0.09 0.03-0.18 0.05-0.06 0.1-0.13 0.03-0.03 0.07-0.06 0.14-0.15 0.27-0.31 0 0 0 0 0.12-0.15 0.22-0.32 0.07-0.12 0.13-0.24 0.1-0.28 0.17-0.57 0.05-0.23 0.09-0.48-0.01 0.04-0.02 0.07 0.04-0.33 0.04-0.66 0-0.31-0.03-0.61-0.05-0.33-0.14-0.64-0.1-0.33-0.24-0.65 0.02 0.03 0.03 0.06-0.17-0.39-0.39-0.74-0.18-0.27-0.37-0.53-0.27-0.35-0.6-0.66-0.22-0.19-0.45-0.38 0.01 0.01 0.01 0.01-0.01-0.01-0.02-0.02-0.02-0.01-0.03-0.02 0 0 0.01 0.01-0.35-0.28-0.74-0.48-0.08-0.03-0.13-0.08-0.06-0.06-0.07-0.14c-0.03-0.13 0.04-0.23 0.13-0.32q0.05-0.08 0.11-0.17 0.07-0.12 0.14-0.24 0.03-0.06 0.06-0.13-0.01 0.02-0.02 0.04 0.17-0.41 0.27-0.84 0.11-0.48 0.18-0.96 0 0.01 0 0.01 0.07-0.49 0.07-0.98-0.02-0.12-0.05-0.24-0.03-0.08-0.05-0.15 0 0.02 0.01 0.03-0.06-0.14-0.15-0.27-0.05-0.07-0.1-0.14 0.02 0.02 0.04 0.04-0.09-0.11-0.2-0.21-0.04-0.04-0.09-0.07 0.02 0.01 0.03 0.01-0.02-0.01-0.04-0.03-0.01 0-0.01-0.01 0 0.01 0 0.01-0.1-0.07-0.21-0.13-0.18-0.06-0.37-0.09-0.1-0.03-0.21-0.04 0 0 0.01 0-0.02 0-0.04 0-0.01-0.01-0.03-0.01 0.01 0 0.01 0-0.2-0.02-0.4-0.02-0.18 0-0.36 0.02-0.26 0.04-0.52 0.1-0.22 0.06-0.44 0.13-0.1 0.03-0.2 0.04-0.07 0.02-0.14 0.01-0.07-0.03-0.14-0.06-0.12-0.09-0.2-0.23-0.07-0.1-0.13-0.21-0.06-0.1-0.13-0.2-0.23-0.31-0.51-0.58-0.25-0.22-0.51-0.43-0.1-0.07-0.2-0.13-0.06-0.03-0.11-0.05 0.03 0.01 0.05 0.02-0.47-0.19-0.97-0.27 0.01 0 0.02 0-0.09-0.01-0.18-0.01-0.11-0.01-0.23 0.01 0.03-0.01 0.06-0.02-0.12 0.02-0.23 0.05-0.06 0.03-0.12 0.05zm8.44 29.24q0 0 0 0 0 0 0 0zm-19.48-0.13q0 0 0 0 0 0 0 0zm1.1-5.52q0-0.01 0-0.01 0 0 0 0.01zm-0.04-9.89q0-0.01-0.01-0.01 0.01 0 0.01 0.01zm3.9-12.56q0 0-0.01 0 0.01 0 0.01 0 0 0 0 0zm-0.01 0q0 0-0.01 0.01 0.01-0.01 0.01-0.01z"/>
    <path class="s0" d="m15.55 25.15q-0.01 0.02-0.01 0.03-0.05 0.06-0.11 0.1-0.1 0.07-0.2 0.13-0.03 0.01-0.07 0.01-0.14 0.01-0.25 0.07-0.07 0.04-0.12 0.1-0.02 0.05-0.05 0.1-0.01 0.07-0.03 0.14-0.03 0.12-0.08 0.25 0.01-0.03 0.03-0.06-0.03 0.05-0.05 0.09-0.06 0.14-0.16 0.27-0.07 0.08-0.16 0.15-0.07 0.05-0.15 0.09 0.01-0.01 0.02-0.02 0 0 0 0 0 0 0 0 0.02 0 0.03-0.01-0.03 0.01-0.07 0.02-0.13 0-0.27-0.02-0.15-0.02-0.28 0.06-0.11 0.07-0.16 0.18-0.05 0.08-0.1 0.15-0.13 0.15-0.28 0.28-0.06 0.04-0.11 0.07-0.03 0.02-0.07 0.04-0.03 0-0.05 0-0.04-0.01-0.08-0.03-0.06-0.03-0.11-0.06 0.01 0 0.01 0.01-0.09-0.07-0.17-0.15-0.08-0.07-0.18-0.07-0.1 0-0.17 0.07c-0.09 0.09-0.11 0.27 0 0.35q0.1 0.1 0.21 0.18 0.07 0.06 0.16 0.11 0.08 0.03 0.15 0.06 0.09 0.02 0.17 0.03 0.09 0 0.17-0.02 0.11-0.04 0.21-0.08 0.19-0.13 0.35-0.28 0.13-0.14 0.25-0.3 0.03-0.05 0.07-0.1 0.11 0.01 0.23 0.02c0.31 0.01 0.6-0.19 0.78-0.44q0.08-0.1 0.14-0.2 0.06-0.1 0.09-0.2 0.05-0.11 0.09-0.22 0.02-0.07 0.03-0.13 0.11-0.01 0.21-0.05 0.15-0.06 0.28-0.16 0.18-0.12 0.3-0.3c0.06-0.13 0.02-0.28-0.09-0.35q-0.06-0.03-0.13-0.03-0.14 0-0.22 0.12z"/>
    <path class="s0" d="m15.4 25.43c-0.12 0.07-0.16 0.22-0.09 0.34q0.22 0.39 0.38 0.8 0.09 0.21 0.14 0.42 0 0.08-0.02 0.17 0 0 0 0 0.01-0.02 0.01-0.04-0.01 0.03-0.02 0.07-0.01 0.01-0.02 0.03 0 0 0 0.01-0.01 0-0.01 0-0.02 0-0.04 0 0.01 0 0.02 0 0.01 0 0.01 0 0 0 0 0 0 0 0 0 0 0 0 0-0.02 0-0.04 0 0.02 0 0.03 0-0.01 0-0.02 0-0.02-0.01-0.03-0.01 0.01 0 0.03 0-0.08-0.01-0.16-0.03-0.03-0.02-0.06-0.04-0.03-0.03-0.07-0.06-0.06-0.03-0.13-0.03c-0.13-0.01-0.25 0.12-0.25 0.25q0 0.12 0.01 0.24 0 0.23-0.03 0.47 0-0.01 0-0.01 0 0 0 0.01 0 0.03-0.01 0.05 0.01-0.02 0.01-0.05-0.02 0.1-0.05 0.19-0.04 0.07-0.09 0.13 0.02-0.03 0.04-0.05-0.03 0.03-0.06 0.05 0 0.01-0.01 0.01-0.01 0.01-0.02 0.01-0.03 0-0.06-0.01-0.07 0-0.13-0.03-0.01 0-0.02-0.01-0.02-0.02-0.04-0.04-0.04-0.05-0.07-0.11 0 0 0 0-0.05-0.13-0.1-0.26-0.02-0.08-0.05-0.16-0.03-0.1-0.06-0.19-0.06-0.17-0.23-0.19-0.01 0-0.02 0c-0.11-0.01-0.2 0.09-0.24 0.19q-0.02 0.07-0.04 0.16-0.02 0.13-0.05 0.27-0.02 0.13-0.04 0.26-0.04 0.21-0.11 0.41 0.01-0.03 0.02-0.06-0.03 0.11-0.09 0.2-0.02 0.02-0.04 0.04 0 0 0 0-0.04-0.01-0.07-0.02 0.01 0 0.02 0.01-0.06-0.03-0.11-0.07-0.01-0.01-0.03-0.03-0.01-0.01-0.01-0.03-0.05-0.12-0.07-0.25 0-0.24 0.02-0.48 0.02-0.16 0.07-0.32 0.06-0.15 0.11-0.3c0.05-0.13-0.05-0.27-0.18-0.3-0.13-0.04-0.26 0.04-0.3 0.17-0.09 0.24-0.17 0.46-0.2 0.71q-0.01 0.21-0.02 0.42 0 0.21 0.06 0.41 0.04 0.14 0.12 0.26 0.09 0.12 0.22 0.2 0.15 0.1 0.31 0.11c0.45 0.06 0.66-0.45 0.73-0.82q0.04 0.06 0.09 0.12 0.02 0.02 0.05 0.05 0.05 0.04 0.1 0.08 0.06 0.03 0.12 0.05 0.06 0.03 0.11 0.04 0.07 0.01 0.14 0.01 0.13 0.02 0.26-0.02 0.03-0.01 0.06-0.03 0.07-0.03 0.13-0.08 0.07-0.05 0.13-0.13 0.06-0.08 0.1-0.18c0.08-0.15 0.1-0.34 0.11-0.52q0.01-0.09 0.01-0.19 0.04 0.01 0.07 0.01 0.08 0.01 0.16 0.02 0.06-0.01 0.12-0.02 0.06-0.02 0.11-0.05 0.03-0.01 0.05-0.03 0.07-0.04 0.1-0.1 0.09-0.13 0.13-0.28 0.01-0.03 0.01-0.07 0.03-0.12 0.01-0.25c0-0.13-0.06-0.27-0.11-0.4q-0.09-0.24-0.19-0.47-0.13-0.28-0.28-0.54-0.08-0.12-0.22-0.12-0.06 0-0.12 0.03z"/>
    <path class="s0" d="m24.57 24.69q-0.09 0.03-0.15 0.11c-0.03 0.06-0.05 0.14-0.02 0.2q0.1 0.25 0.21 0.49 0.05 0.11 0.12 0.21 0.07 0.08 0.14 0.16 0.17 0.18 0.37 0.3 0.26 0.17 0.56 0.19 0.13 0.02 0.26 0.01 0.1-0.01 0.19-0.02 0.19-0.05 0.36-0.13 0.06 0.18 0.19 0.33 0.06 0.07 0.13 0.13 0.1 0.08 0.21 0.12 0.15 0.07 0.32 0.09 0.07 0.01 0.15 0.01 0.12 0 0.25-0.03 0.14-0.03 0.28-0.11 0.08-0.04 0.16-0.09 0.1 0.05 0.2 0.1 0.18 0.09 0.37 0.13 0.11 0.01 0.22 0.03 0.1 0.02 0.21 0.02c0.13-0.01 0.25-0.11 0.25-0.25 0-0.13-0.12-0.26-0.25-0.25q-0.05 0-0.1 0-0.25-0.03-0.48-0.12-0.07-0.04-0.13-0.07-0.03-0.02-0.06-0.04-0.05-0.02-0.11-0.05-0.08-0.02-0.16-0.02-0.08 0.01-0.15 0.05-0.14 0.08-0.27 0.15-0.09 0.03-0.18 0.05-0.04 0-0.08 0-0.12-0.02-0.25-0.05 0.03 0.01 0.06 0.02-0.08-0.03-0.15-0.08-0.03-0.02-0.06-0.05-0.06-0.09-0.1-0.19 0 0.01 0.01 0.01-0.04-0.08-0.07-0.17c-0.03-0.09-0.07-0.2-0.16-0.25-0.08-0.05-0.2-0.06-0.28-0.01q-0.07 0.05-0.12 0.09-0.08 0.05-0.16 0.09-0.08 0.03-0.16 0.05-0.04 0.01-0.08 0.01-0.1 0.01-0.2 0 0 0 0.01 0-0.02 0-0.04-0.01 0 0.01 0.01 0.01-0.02-0.01-0.03-0.01-0.1-0.01-0.2-0.05-0.1-0.05-0.19-0.12-0.05-0.04-0.09-0.07-0.09-0.08-0.17-0.17-0.13-0.22-0.23-0.45 0.01 0.01 0.01 0.02-0.01-0.03-0.02-0.05 0-0.01-0.01-0.01 0 0 0 0-0.01-0.04-0.03-0.08-0.03-0.1-0.12-0.15-0.06-0.04-0.12-0.04-0.04 0-0.07 0.01z"/>
    <path class="s0" d="m25.06 25.54q-0.19 0.24-0.38 0.49-0.23 0.3-0.33 0.67-0.04 0.15-0.04 0.32 0.01 0.05 0.01 0.11 0.02 0.06 0.05 0.11 0.03 0.05 0.07 0.1 0.07 0.07 0.15 0.11 0.13 0.07 0.27 0.08 0.15 0.02 0.3 0.01 0.15-0.03 0.29-0.1-0.01 0.06-0.01 0.11-0.03 0.16-0.02 0.33 0.01 0.17 0.14 0.29 0.07 0.06 0.15 0.09 0.1 0.03 0.2 0.03 0.03 0 0.07-0.01 0.09 0 0.17-0.04 0.12-0.05 0.23-0.12 0.11-0.07 0.21-0.15 0.01-0.01 0.03-0.03 0.04 0.09 0.08 0.18 0.04 0.05 0.08 0.1 0.04 0.05 0.1 0.09 0.12 0.07 0.26 0.1 0.12 0.03 0.24 0.03 0.18-0.02 0.32-0.11 0.08-0.05 0.15-0.12 0.07-0.07 0.13-0.15 0.11-0.17 0.21-0.35 0.17-0.33 0.27-0.68 0.04-0.11 0.06-0.23 0.01-0.15-0.02-0.3-0.02-0.09-0.11-0.15-0.1-0.05-0.2-0.02-0.09 0.03-0.15 0.11-0.04 0.09-0.02 0.19 0 0.01 0 0.01 0-0.02 0-0.03 0 0.07 0 0.14-0.05 0.22-0.14 0.44-0.04 0.1-0.09 0.2-0.1 0.21-0.25 0.42 0.02-0.03 0.05-0.06-0.07 0.09-0.15 0.16-0.02 0.01-0.03 0.01-0.03 0.01-0.06 0.02-0.02 0-0.04 0-0.07-0.01-0.13-0.04-0.02 0-0.03-0.01 0 0-0.01-0.01-0.04-0.06-0.07-0.13 0 0 0.01 0-0.05-0.11-0.1-0.22c-0.02-0.04-0.08-0.1-0.13-0.13q-0.08-0.04-0.17-0.05c-0.16 0-0.28 0.13-0.39 0.22q-0.15 0.12-0.32 0.21-0.02 0-0.05 0.01 0-0.16 0.02-0.32 0 0.01 0 0.02 0-0.01 0-0.02 0.01-0.03 0.01-0.05 0 0.01 0 0.03 0.02-0.18 0.06-0.34 0.02-0.11 0.03-0.23-0.01-0.11-0.09-0.19-0.05-0.05-0.11-0.06-0.1-0.03-0.19 0.02-0.1 0.06-0.17 0.14-0.07 0.08-0.15 0.14-0.07 0.05-0.15 0.09-0.04 0.01-0.08 0.02-0.07 0.01-0.15 0-0.06-0.01-0.13-0.03 0 0-0.01 0 0-0.06 0.01-0.11-0.01 0.03-0.01 0.07 0.02-0.15 0.07-0.3 0.1-0.21 0.23-0.39 0.09-0.11 0.18-0.23-0.01 0.01-0.01 0.02 0.01-0.02 0.02-0.03 0.01-0.01 0.02-0.02-0.01 0-0.01 0 0.05-0.06 0.1-0.12 0.07-0.08 0.07-0.18 0-0.1-0.07-0.18-0.07-0.07-0.18-0.07-0.1 0-0.17 0.07z"/>
    <path fill-rule="evenodd" class="s0" d="m17.08 19.62q0.24 0 0.48 0.02 0.35 0.02 0.69 0.08 0.33 0.06 0.65 0.16 0.29 0.08 0.54 0.26 0.12 0.1 0.19 0.23 0.04 0.08 0.05 0.17 0.01 0.06-0.01 0.12 0 0.03 0 0.07-0.03 0.06-0.05 0.12-0.03 0.03-0.05 0.06-0.06 0.1-0.16 0.16-0.2 0.14-0.44 0.19-0.35 0.08-0.71 0.09-0.29 0.02-0.58 0.02-0.36 0-0.71-0.01-0.2-0.01-0.39-0.04-0.17-0.04-0.34-0.09c-0.27-0.09-0.55-0.22-0.73-0.44q-0.05-0.05-0.09-0.11-0.07-0.07-0.13-0.17-0.09-0.16-0.08-0.34 0-0.07 0.03-0.13c0-0.11 0.07-0.23 0.18-0.25q0.36-0.07 0.72-0.12 0.38-0.04 0.76-0.05 0.09 0 0.18 0zm-1.04 0.57q0 0 0 0-0.16 0.02-0.32 0.05 0 0.02 0.01 0.03 0 0.01 0.01 0.02 0 0-0.01-0.01 0 0 0 0 0.01 0.01 0.02 0.02 0 0 0 0 0 0 0 0 0.1 0.13 0.22 0.24 0.15 0.11 0.33 0.18 0.25 0.09 0.52 0.13-0.02 0-0.04-0.01 0.28 0.03 0.56 0.03 0.23 0 0.44 0 0.42-0.01 0.82-0.05 0.09-0.01 0.18-0.03 0.13-0.03 0.26-0.08 0.04-0.02 0.08-0.05 0.03-0.02 0.05-0.04 0.01-0.01 0.01-0.02 0 0 0 0 0 0 0 0 0-0.02-0.01-0.03-0.02-0.02-0.04-0.04-0.12-0.08-0.25-0.13-0.4-0.14-0.82-0.21-0.51-0.07-1.03-0.07-0.5 0-0.99 0.07zm-0.29 0.12q0 0 0-0.01 0 0.01 0 0.01z"/>
    <path fill-rule="evenodd" class="s0" d="m24.75 19.29c0.11 0 0.21 0.08 0.24 0.18 0.09 0.02 0.18 0.09 0.2 0.18q0.04 0.28 0 0.55-0.01 0.21-0.11 0.4-0.1 0.14-0.25 0.22-0.35 0.17-0.74 0.22-0.3 0.05-0.61 0.08-0.3 0.02-0.6 0.01-0.34 0.01-0.67-0.01-0.14-0.01-0.29-0.04-0.15-0.03-0.3-0.08-0.24-0.09-0.43-0.26-0.12-0.14-0.15-0.32-0.02-0.16 0.03-0.32 0.03-0.11 0.11-0.19c0.17-0.18 0.42-0.28 0.65-0.33q0.32-0.05 0.65-0.09 0.25-0.02 0.5-0.05 0 0 0 0 0.37-0.07 0.76-0.11 0.5-0.04 1-0.04 0.01 0 0.01 0zm-1.14 0.55q0.01 0 0.03 0-0.03 0-0.05 0-0.01 0.01-0.02 0.01 0.01 0 0.01 0-0.33 0.05-0.67 0.09-0.43 0.05-0.85 0.11-0.18 0.03-0.34 0.09-0.07 0.03-0.13 0.07-0.02 0.02-0.04 0.04 0 0.01-0.01 0.01 0 0.02-0.01 0.04 0 0.02 0 0.04 0.01 0.01 0.01 0.02 0.01 0.02 0.02 0.03 0.02 0.03 0.04 0.05 0.06 0.03 0.12 0.06 0.02 0.01 0.05 0.02 0.13 0.04 0.25 0.07 0.43 0.05 0.86 0.04 0.42 0.01 0.83-0.04 0 0 0 0 0.39-0.04 0.77-0.16 0.09-0.04 0.16-0.09 0.01-0.01 0.02-0.02 0.01-0.03 0.02-0.06 0.02-0.14 0.02-0.27 0.01-0.1 0-0.2-0.55 0.01-1.09 0.05z"/>
    <path class="s0" d="m23.14 19.64q-0.05 0.04-0.1 0.08-0.04 0.04-0.08 0.08c-0.11 0.02-0.22 0.12-0.21 0.25q0 0.08 0.01 0.17c0.03 0.11 0.14 0.2 0.25 0.2q0.16-0.01 0.24-0.15 0.02-0.03 0.04-0.07 0.02-0.03 0.04-0.06 0.08-0.08 0.16-0.15c0.11-0.09 0.09-0.26 0-0.35q-0.07-0.07-0.17-0.08-0.1 0.01-0.18 0.08z"/>
    <path class="s0" d="m17.43 19.83c-0.13 0.11-0.29 0.22-0.34 0.4q-0.03 0.12 0.03 0.23c0.02 0.05 0.07 0.11 0.12 0.13q0.04 0.02 0.07 0.03 0.08 0.02 0.15 0c0.07-0.01 0.15-0.08 0.18-0.14q0.04-0.07 0.05-0.14 0.01-0.04 0.02-0.07-0.01 0.02-0.02 0.04 0.02-0.03 0.02-0.07 0.04-0.03 0.07-0.06c0.1-0.09 0.09-0.26 0-0.35q-0.07-0.07-0.18-0.07-0.1 0-0.17 0.07z"/>
    <path class="s0" d="m22.84 22.24q-0.02 0.04-0.05 0.09-0.06 0.07-0.14 0.14c-0.09 0.05-0.18 0.09-0.23 0.18-0.05 0.08-0.04 0.17-0.05 0.26q-0.03 0.21-0.11 0.41-0.03 0.07-0.08 0.13-0.04 0.05-0.08 0.08-0.02 0.01-0.04 0.03-0.11 0.03-0.22 0.08-0.04 0.02-0.09 0.04-0.05 0.04-0.1 0.08-0.05 0.05-0.08 0.13-0.1 0.22-0.25 0.42 0.01-0.01 0.02-0.02-0.01 0.01-0.02 0.02-0.01 0.02-0.02 0.04 0.01-0.02 0.02-0.04-0.05 0.06-0.1 0.1-0.03 0.02-0.06 0.04-0.02 0-0.03 0.01-0.02 0-0.04 0-0.05-0.01-0.1-0.03-0.08-0.04-0.16-0.09-0.06-0.06-0.12-0.12-0.05-0.05-0.09-0.1-0.09-0.09-0.2-0.15c-0.07-0.04-0.18-0.05-0.25 0q-0.06 0.03-0.1 0.08-0.02 0.02-0.04 0.05-0.06 0.05-0.11 0.1-0.09 0.05-0.19 0.1-0.09 0.03-0.19 0.03 0.03 0 0.06 0-0.14 0-0.28-0.02-0.03 0-0.07-0.01-0.08-0.01-0.15-0.05 0 0 0 0.01 0-0.01 0-0.01-0.02 0-0.03-0.01 0.01 0 0.03 0.01-0.01 0-0.01-0.01 0 0.01 0.01 0.01 0.01 0.01 0.03 0.01-0.03-0.01-0.06-0.03-0.03-0.03-0.06-0.06-0.04-0.06-0.06-0.12-0.09-0.23-0.13-0.47 0-0.14-0.04-0.28c-0.03-0.12-0.14-0.21-0.27-0.21q-0.14 0.01-0.24 0.12-0.06 0.06-0.12 0.11-0.06 0.05-0.13 0.08-0.01 0-0.03 0.01-0.01 0-0.02 0-0.01 0-0.02 0-0.01-0.01-0.02-0.02-0.06-0.05-0.09-0.11 0.02 0.02 0.04 0.05-0.03-0.04-0.05-0.09-0.04-0.1-0.06-0.21 0.01-0.02 0.01-0.05 0-0.02 0.01-0.05 0 0 0.01-0.01 0 0 0 0 0.1-0.06 0.21-0.12c0.12-0.06 0.15-0.23 0.09-0.34-0.08-0.12-0.22-0.15-0.35-0.09q-0.08 0.04-0.17 0.09-0.1 0.06-0.17 0.15c-0.11 0.12-0.12 0.27-0.14 0.42q0.02 0.11 0.04 0.23 0.05 0.17 0.13 0.32 0.02 0.03 0.04 0.05 0.05 0.08 0.13 0.14 0.07 0.06 0.16 0.1c0.2 0.08 0.41 0.03 0.59-0.08q0.02 0.13 0.06 0.25 0.06 0.21 0.17 0.39 0.06 0.1 0.16 0.18 0.12 0.1 0.28 0.15 0.12 0.04 0.26 0.05 0.1 0.01 0.2 0.02 0.15 0 0.29-0.03 0.13-0.03 0.25-0.09 0.15-0.07 0.28-0.19 0.12 0.13 0.26 0.24 0.15 0.11 0.33 0.16 0.1 0.03 0.21 0.04 0.12 0.01 0.23-0.04c0.14-0.05 0.25-0.16 0.35-0.27q0.11-0.14 0.2-0.29 0.07-0.12 0.13-0.25 0.02-0.02 0.05-0.03c0.14-0.05 0.28-0.09 0.38-0.19q0.12-0.11 0.2-0.25 0.09-0.14 0.14-0.31 0.04-0.13 0.06-0.27 0.01-0.07 0.02-0.14 0.02-0.01 0.04-0.02 0.11-0.08 0.19-0.17 0.1-0.11 0.18-0.24c0.07-0.11 0.02-0.27-0.09-0.34q-0.06-0.03-0.13-0.03-0.13 0-0.22 0.12z"/>
  </g>
  <g id="body">

  </g>
  <g id="right-arm">
    <path class="s0" d="m35.42 15.68q-0.33 0.01-0.65 0.04-0.54 0.05-1.08 0.1-0.12 0.01-0.23 0.03-0.09 0.02-0.19 0.04-0.07 0.01-0.13 0.03-0.1 0.01-0.19 0.05-0.08 0.03-0.15 0.09-0.06 0.06-0.08 0.15-0.02 0.13 0.06 0.23 0.07 0.09 0.13 0.18 0.02 0.03 0.04 0.06-0.09 0.01-0.18 0.03-0.19 0.03-0.37 0.07-0.27 0.05-0.53 0.1-0.27 0.04-0.53 0.12-0.06 0.01-0.11 0.05-0.05 0.03-0.09 0.09-0.01 0.05-0.04 0.09-0.01 0.09 0.01 0.17 0.03 0.07 0.07 0.13 0.04 0.07 0.08 0.15 0.1 0.19 0.18 0.39-0.01-0.03-0.03-0.05 0.02 0.04 0.03 0.09 0 0 0 0-0.13 0.04-0.26 0.08-0.3 0.1-0.61 0.17c-0.14 0.03-0.21 0.19-0.18 0.31 0.04 0.14 0.18 0.2 0.31 0.18q0.29-0.08 0.58-0.17 0.22-0.06 0.44-0.13 0.17-0.05 0.23-0.22c0.04-0.18-0.01-0.35-0.08-0.51q-0.08-0.18-0.16-0.36-0.01-0.02-0.02-0.04 0.18-0.04 0.37-0.07 0.29-0.05 0.57-0.11 0.34-0.07 0.68-0.12 0 0-0.01 0 0.04 0 0.07-0.01 0.11-0.03 0.17-0.13c0.08-0.14 0.03-0.3-0.05-0.42q-0.07-0.09-0.13-0.18 0.09-0.02 0.18-0.04 0.08-0.01 0.15-0.02 0.51-0.05 1.01-0.09 0.36-0.04 0.72-0.05c0.14-0.01 0.25-0.12 0.25-0.25 0-0.14-0.11-0.25-0.24-0.25q-0.01-0.01-0.01 0z"/>
    <path class="s0" d="m35.78 15.58q-0.14 0.06-0.28 0.12-0.14 0.06-0.27 0.13-0.17 0.09-0.34 0.17-0.25 0.12-0.48 0.26-0.22 0.14-0.4 0.31c-0.07 0.08-0.14 0.18-0.13 0.28q0 0.11 0.05 0.2 0.04 0.07 0.09 0.13 0.05 0.07 0.09 0.14 0.05 0.1 0.12 0.2 0.02 0.05 0.05 0.09-0.14 0.03-0.28 0.06-0.47 0.12-0.95 0.23-0.09 0.02-0.19 0.04-0.12 0.02-0.23 0.06-0.1 0.05-0.16 0.13-0.06 0.11-0.03 0.24 0.02 0.07 0.06 0.13 0.03 0.05 0.06 0.1 0.08 0.13 0.17 0.27-0.02 0-0.03 0-0.31 0.04-0.62 0.1-0.36 0.06-0.73 0.14-0.16 0.04-0.32 0.09-0.11 0.04-0.22 0.09-0.13 0.06-0.25 0.13c-0.12 0.07-0.16 0.23-0.09 0.34 0.07 0.12 0.22 0.16 0.34 0.09q0.11-0.06 0.23-0.12 0.36-0.13 0.75-0.2 0.36-0.08 0.73-0.14-0.02 0.01-0.03 0.01 0.03-0.01 0.06-0.01 0 0 0 0 0 0 0 0 0.17-0.02 0.34-0.04 0.09 0 0.17-0.01 0.15-0.04 0.21-0.17c0.1-0.22-0.05-0.46-0.17-0.65q-0.03-0.05-0.07-0.11 0.16-0.03 0.32-0.07 0.28-0.06 0.56-0.13 0.35-0.09 0.71-0.15 0.1-0.03 0.16-0.1c0.08-0.08 0.1-0.21 0.07-0.31-0.05-0.16-0.14-0.3-0.23-0.44q-0.08-0.13-0.16-0.26-0.02-0.04-0.04-0.07 0.05-0.05 0.1-0.09 0.22-0.15 0.45-0.27 0.21-0.11 0.43-0.21 0.25-0.13 0.52-0.25c0.12-0.04 0.2-0.17 0.17-0.3-0.03-0.11-0.13-0.19-0.24-0.19q-0.04 0-0.07 0.01z"/>
  </g>
  <g id="left-arm">
    <path class="s0" d="m4.31 16.26c-0.1 0.04-0.15 0.18-0.12 0.28q0.02 0.04 0.03 0.08 0.04 0.06 0.09 0.12 0.08 0.11 0.17 0.22 0-0.01-0.01-0.01 0.2 0.26 0.41 0.5 0.2 0.22 0.39 0.44 0.12 0.15 0.25 0.3 0.03 0.02 0.06 0.05-0.03 0.05-0.06 0.09-0.07 0.1-0.13 0.19c-0.08 0.12-0.02 0.28 0.09 0.35 0.12 0.07 0.27 0.02 0.34-0.09q0.11-0.17 0.23-0.33 0.07-0.11 0.08-0.24-0.02-0.13-0.11-0.23-0.07-0.08-0.14-0.15-0.12-0.13-0.23-0.26-0.17-0.2-0.34-0.39-0.08-0.08-0.15-0.17 0.16 0.05 0.32 0.09 0.18 0.06 0.36 0.1 0.32 0.08 0.63 0.2-0.02 0.02-0.04 0.05 0.01-0.01 0.01-0.01-0.01 0.01-0.02 0.03-0.01 0.01-0.02 0.02 0.01-0.01 0.02-0.02-0.11 0.12-0.19 0.26-0.07 0.12-0.06 0.25 0 0.07 0.04 0.14c0.01 0.03 0.07 0.09 0.1 0.1q0.06 0.03 0.12 0.04 0.07 0.01 0.14 0.03 0.19 0.03 0.36 0.1 0.27 0.11 0.52 0.27 0 0 0 0c-0.09 0.16-0.16 0.33-0.11 0.51q0.02 0.09 0.08 0.16 0.06 0.05 0.14 0.08 0.08 0.03 0.16 0.05 0.12 0.06 0.23 0.14 0.18 0.1 0.35 0.23 0.46 0.32 0.92 0.66 0.25 0.19 0.5 0.4 0.07 0.07 0.17 0.08 0.1 0 0.18-0.08c0.09-0.09 0.1-0.26 0-0.35q-0.34-0.29-0.71-0.56-0.4-0.3-0.81-0.59-0.14-0.09-0.29-0.19-0.12-0.08-0.25-0.15-0.08-0.04-0.16-0.07 0 0 0 0 0 0 0 0 0 0 0 0 0.02-0.05 0.05-0.11 0.06-0.07 0.09-0.17c0.04-0.15-0.06-0.28-0.17-0.38q-0.15-0.13-0.32-0.22-0.3-0.17-0.63-0.26-0.05-0.01-0.1-0.02 0.09-0.12 0.17-0.23 0 0.01 0 0.01c0.06-0.07 0.12-0.14 0.12-0.25 0-0.14-0.1-0.24-0.22-0.32q-0.06-0.04-0.13-0.07-0.1-0.04-0.2-0.08-0.19-0.07-0.4-0.13-0.43-0.11-0.86-0.23-0.27-0.09-0.54-0.2 0.04 0.01 0.06 0.03-0.08-0.04-0.16-0.08-0.02 0-0.04-0.02-0.06-0.03-0.13-0.03-0.07 0-0.13 0.04z"/>
    <path class="s0" d="m5.51 18.39q-0.08 0.05-0.11 0.15-0.03 0.1 0.02 0.19 0.08 0.11 0.18 0.2 0.11 0.09 0.23 0.17 0.21 0.14 0.44 0.25 0.21 0.1 0.41 0.23-0.1 0.11-0.21 0.2-0.09 0.07-0.17 0.14-0.1 0.07-0.17 0.16-0.05 0.08-0.05 0.17 0.02 0.13 0.11 0.22 0.07 0.07 0.15 0.11 0.07 0.05 0.15 0.09 0.19 0.1 0.38 0.18 0.21 0.1 0.42 0.2 0.47 0.21 0.93 0.43 0.25 0.13 0.5 0.27 0.24 0.15 0.48 0.3 0.37 0.24 0.72 0.49 0.1 0.07 0.2 0.14 0.07 0.04 0.13 0.08 0.02 0.03 0.04 0.06c0.07 0.12 0.23 0.15 0.35 0.09 0.11-0.07 0.15-0.23 0.08-0.35q-0.05-0.09-0.12-0.17-0.06-0.05-0.12-0.08-0.16-0.09-0.3-0.2-0.23-0.16-0.47-0.32-0.33-0.23-0.69-0.44c-0.44-0.27-0.92-0.48-1.39-0.69q-0.32-0.14-0.63-0.29-0.14-0.08-0.29-0.15 0.09-0.06 0.16-0.13 0.1-0.09 0.19-0.19 0.06-0.06 0.11-0.13 0.08-0.11 0.08-0.24 0-0.12-0.08-0.21-0.04-0.03-0.08-0.06-0.13-0.09-0.26-0.18-0.2-0.11-0.4-0.21-0.26-0.14-0.5-0.31-0.03-0.02-0.05-0.05 0 0 0 0-0.01-0.01-0.02-0.03-0.01-0.01-0.02-0.02 0 0 0 0 0 0 0 0-0.05-0.07-0.13-0.09-0.04-0.01-0.07-0.01-0.07 0-0.13 0.03z"/>
  </g>
  <g id="legs">
    <path class="s0" d="m18.57 41q-0.09 0.03-0.14 0.12-0.11 0.14-0.18 0.31-0.07 0.17-0.11 0.36-0.04 0.21-0.05 0.42-0.03 0.26-0.05 0.53-0.02 0.52-0.03 1.04 0 0.22 0 0.45-0.01 0.77-0.01 1.55 0 0.86 0 1.72 0 0.37 0 0.74-0.01 0.4 0.01 0.8 0 0.1 0.07 0.17 0.08 0.08 0.18 0.08c0.13 0 0.26-0.12 0.25-0.25q-0.02-0.34-0.01-0.67 0-0.39 0-0.77 0-0.69 0-1.38-0.01-0.78 0-1.54 0.01-0.43 0.01-0.85 0.01-0.88 0.09-1.76 0.01-0.08 0.02-0.15 0.02-0.13 0.07-0.25 0.07-0.16 0.17-0.3c0.07-0.11 0.01-0.28-0.09-0.34q-0.06-0.04-0.13-0.04-0.03 0-0.07 0.01z"/>
    <path class="s0" d="m22.79 41.46q-0.07 0.07-0.07 0.17-0.06 0.7-0.1 1.39-0.03 0.48-0.04 0.96-0.02 0.43-0.04 0.86-0.01 0.22-0.02 0.43-0.01 0.23-0.04 0.46-0.05 0.42-0.08 0.83-0.03 0.5-0.04 0.99 0 0.4 0.01 0.8 0.01 0.21 0.05 0.42 0.03 0.21 0.07 0.41c0.03 0.13 0.18 0.21 0.31 0.18 0.13-0.04 0.21-0.18 0.17-0.31q-0.05-0.24-0.08-0.47 0.01 0.02 0.01 0.04-0.03-0.15-0.03-0.32-0.01-0.18-0.01-0.37 0.01-0.42 0.01-0.84 0.03-0.8 0.14-1.6 0.02-0.18 0.02-0.36 0.01-0.22 0.01-0.45 0.02-0.38 0.04-0.76 0.01-0.45 0.04-0.9 0.04-0.69 0.1-1.39c0.01-0.13-0.12-0.25-0.25-0.25q-0.11 0.01-0.18 0.08z"/>
    <path class="s0" d="m20.72 41.84c-0.11 0.53-0.14 1.08-0.18 1.62q-0.02 0.34-0.06 0.69-0.03 0.31-0.06 0.63-0.07 0.74-0.11 1.47c-0.03 0.44-0.03 0.88-0.09 1.32q0-0.03 0.01-0.07c-0.08 0.5-0.17 1-0.18 1.5-0.01 0.14 0.11 0.25 0.25 0.25 0.14 0 0.24-0.11 0.25-0.25q0.01-0.34 0.06-0.68 0 0 0 0 0.05-0.34 0.1-0.68 0.05-0.37 0.07-0.75 0.01-0.31 0.03-0.64 0.03-0.38 0.05-0.76 0.05-0.73 0.13-1.46 0.04-0.36 0.06-0.73 0.03-0.43 0.07-0.85 0.04-0.23 0.08-0.47c0.03-0.14-0.04-0.27-0.17-0.31q-0.03-0.01-0.07-0.01c-0.11 0-0.22 0.07-0.24 0.18z"/>
    <path class="s0" d="m20.11 48.74q-0.08 0.05-0.11 0.13 0.01-0.01 0.01-0.03-0.04 0.08-0.08 0.17-0.06 0.11-0.12 0.22-0.21 0.38-0.48 0.73-0.24 0.28-0.52 0.53-0.21 0.15-0.43 0.27-0.1 0.03-0.21 0.05-0.25 0.02-0.51 0-0.04-0.01-0.08-0.02-0.09-0.01-0.17-0.05-0.02-0.01-0.05-0.02-0.01-0.02-0.02-0.03-0.01-0.01-0.02-0.02 0 0 0.01 0.01 0 0 0 0-0.01-0.02-0.01-0.03-0.01-0.08 0-0.15 0.02-0.08 0.05-0.16 0.09-0.2 0.22-0.37 0 0 0 0 0.18-0.23 0.41-0.4 0.11-0.09 0.23-0.17 0.15-0.1 0.29-0.22 0.08-0.08 0.08-0.18 0-0.1-0.08-0.17-0.07-0.08-0.17-0.08-0.1 0-0.18 0.08-0.04 0.03-0.08 0.06 0.01-0.01 0.02-0.01-0.02 0.01-0.03 0.02-0.01 0.01-0.02 0.02 0.01-0.01 0.01-0.02-0.09 0.07-0.18 0.13-0.16 0.11-0.31 0.23-0.17 0.14-0.31 0.32-0.14 0.16-0.26 0.35-0.1 0.17-0.15 0.36-0.03 0.1-0.04 0.2-0.02 0.12 0 0.25 0.03 0.12 0.1 0.23 0.1 0.13 0.25 0.21 0.08 0.04 0.16 0.07 0.11 0.03 0.23 0.04 0.13 0.02 0.27 0.03 0.1 0 0.2 0 0.2 0 0.38-0.05 0.21-0.06 0.39-0.17 0.13-0.09 0.26-0.18 0.23-0.18 0.43-0.39 0.19-0.2 0.35-0.42 0.24-0.33 0.43-0.69 0.11-0.2 0.2-0.4 0.03-0.1-0.02-0.19-0.06-0.09-0.15-0.12-0.03-0.01-0.06-0.01-0.07 0-0.13 0.04z"/>
    <path class="s0" d="m20.23 48.57c-0.13 0.04-0.2 0.18-0.17 0.31q0.02 0.1 0.05 0.2 0.05 0.16 0.13 0.31 0.08 0.2 0.2 0.39 0.12 0.19 0.28 0.37 0.29 0.36 0.64 0.66 0.17 0.13 0.36 0.22 0.18 0.07 0.37 0.09 0.16 0.01 0.31 0.01 0.16 0 0.31-0.03 0.1-0.02 0.18-0.07 0.21-0.11 0.33-0.31 0.08-0.14 0.09-0.29 0.02-0.11 0.02-0.22 0.01-0.19 0.01-0.38 0-0.11 0-0.22-0.01-0.17-0.08-0.33-0.09-0.18-0.2-0.35-0.06-0.11-0.15-0.21c-0.1-0.1-0.26-0.1-0.36 0-0.09 0.1-0.09 0.26 0 0.35q0.01 0.01 0.02 0.02 0.14 0.2 0.24 0.42 0.02 0.04 0.03 0.09 0 0.19 0 0.39 0 0.18-0.02 0.36-0.01 0.05-0.03 0.11-0.01 0.03-0.02 0.05-0.03 0.02-0.05 0.04-0.04 0.03-0.08 0.05-0.06 0.02-0.11 0.03-0.2 0.01-0.4-0.01-0.1-0.01-0.2-0.04-0.11-0.06-0.21-0.12-0.4-0.35-0.73-0.76 0 0 0.01 0.01-0.01-0.01-0.02-0.03-0.01-0.01-0.02-0.02 0 0.01 0.01 0.01-0.12-0.16-0.21-0.35-0.08-0.15-0.14-0.3-0.05-0.14-0.08-0.27c-0.02-0.12-0.14-0.19-0.25-0.19q-0.03 0-0.06 0.01z"/>
  </g>
</svg>