<svg version="1.2" xmlns="http://www.w3.org/2000/svg" viewBox="0 0 69 64" width="69" height="64">
  <style>
    .s0 { fill: #161616 }
    #head      { transform-box: fill-box; transform-origin: 50% 100%; }
    #left-arm  { transform-box: fill-box; transform-origin: 100% 0%; }
    #right-arm { transform-box: fill-box; transform-origin: 0%   0%; }
    #body      { transform-box: fill-box; transform-origin: 50%  50%; }
    #legs      { transform-box: fill-box; transform-origin: 50%  0%; }
  </style>
  <g id="head">
    <path fill-rule="evenodd" class="s0" d="m36.54 1.14q0.1 0 0.2 0.02 0.21 0.05 0.43 0.12 0.6 0.16 1.19 0.38 0.27 0.09 0.53 0.21 0.07 0.03 0.12 0.06c0.07 0.04 0.15 0.09 0.18 0.16q0.05 0.09 0.05 0.18 0 0.06-0.01 0.12-0.02 0.09-0.06 0.17-0.1 0.21-0.22 0.41-0.38 0.62-0.8 1.2-0.21 0.31-0.45 0.59-0.24 0.3-0.5 0.58-0.48 0.51-1.01 0.97-0.44 0.37-0.9 0.72 0 0 0.01-0.01-0.09 0.07-0.17 0.15 0.07 0.09 0.14 0.19 0.06 0.09 0.13 0.2 0.13 0.22 0.22 0.46 0.1 0.29 0.13 0.6 0.04 0.39 0.04 0.77 0 0.37 0 0.74-0.01 0.34-0.04 0.69-0.08 0.76-0.14 1.53-0.06 0.72-0.11 1.44-0.04 0.62-0.05 1.23 0 0.38 0.04 0.76 0.03 0.37 0.08 0.74 0 0 0 0 0.19 1.19 0.51 2.35 0.34 1.14 0.8 2.25-0.01-0.03-0.02-0.05 0.26 0.62 0.56 1.21 0.32 0.66 0.66 1.3 0.33 0.61 0.68 1.21 0.28 0.51 0.61 0.99 0.24 0.32 0.47 0.63 0.14 0.21 0.29 0.42 0.08 0.11 0.15 0.22 0.09 0.12 0.09 0.27 0.01 0.29-0.07 0.58-0.09 0.36-0.2 0.72c-0.05 0.12-0.08 0.28-0.18 0.37q-0.16 0.15-0.39 0.16-0.26 0-0.52-0.03-0.41-0.05-0.82-0.12c-0.86-0.12-1.72-0.3-2.58-0.47q-0.65-0.12-1.29-0.28-0.73-0.18-1.43-0.43-0.72-0.26-1.42-0.56-0.34-0.15-0.65-0.34-0.31-0.17-0.6-0.35c-0.73-0.49-1.28-1.19-1.72-1.95q-0.2-0.36-0.39-0.72-0.19-0.34-0.33-0.7-0.09-0.18-0.16-0.37-0.08-0.22-0.15-0.43-0.11-0.32-0.2-0.63-0.05-0.15-0.08-0.3-0.06-0.24-0.1-0.48-0.03-0.18-0.04-0.36-0.03-0.19-0.05-0.39-0.01-0.19-0.02-0.39-0.06-0.81-0.06-1.63 0.01-0.7 0.14-1.4 0.07-0.41 0.14-0.82 0.08-0.35 0.15-0.69 0.15-0.69 0.29-1.38 0.14-0.69 0.31-1.38 0.09-0.36 0.2-0.72 0.09-0.28 0.22-0.55 0.17-0.33 0.35-0.65 0.18-0.31 0.37-0.61 0.19-0.29 0.42-0.56 0.19-0.25 0.42-0.47 0.55-0.51 1.14-0.96 0.39-0.31 0.8-0.6 0.42-0.32 0.85-0.61 0.29-0.2 0.61-0.35 0.04-0.01 0.09-0.03c-0.02-0.1 0.03-0.19 0.06-0.28q0.08-0.2 0.17-0.38 0.5-0.97 1.05-1.91 0.21-0.36 0.43-0.71 0.21-0.33 0.43-0.66 0.3-0.43 0.53-0.91 0 0 0-0.01 0 0 0 0.01 0.03-0.07 0.05-0.14 0.03-0.06 0.06-0.13 0.04-0.07 0.11-0.11 0.1-0.07 0.23-0.07zm0.34 19.98q0 0 0 0 0 0 0 0zm-0.34-19.33q0.01-0.03 0.02-0.05-0.15 0.36-0.36 0.68-0.32 0.5-0.64 0.99-0.19 0.3-0.36 0.6-0.18 0.3-0.35 0.61-0.19 0.34-0.38 0.68-0.16 0.31-0.32 0.62 0.01 0.01 0.03 0.02c0.09 0.1 0.09 0.26 0 0.36q-0.01 0-0.01 0c0.08 0.1 0.08 0.25-0.01 0.35q-0.12 0.1-0.26 0.16-0.06 0.01-0.11 0.03-0.11 0.03-0.22 0.07c-0.36 0.16-0.68 0.39-1 0.62q-0.58 0.42-1.16 0.86 0 0 0.01 0-0.01 0-0.01 0-0.02 0.02-0.05 0.04 0.02-0.01 0.03-0.02-0.05 0.04-0.09 0.07 0 0 0.01-0.01-0.01 0.01-0.02 0.02-0.02 0.01-0.03 0.02 0 0 0.01-0.01-0.42 0.33-0.82 0.69-0.36 0.33-0.65 0.7-0.31 0.4-0.56 0.85-0.3 0.49-0.53 1.01c-0.17 0.44-0.27 0.92-0.38 1.38q-0.16 0.66-0.29 1.33-0.14 0.69-0.29 1.38-0.15 0.74-0.27 1.49 0.01-0.02 0.01-0.03-0.01 0.03-0.01 0.05 0 0.01 0 0.02 0-0.01 0-0.01-0.04 0.4-0.06 0.8-0.01 0.43 0.01 0.85 0.03 0.56 0.06 1.11 0.04 0.4 0.09 0.8 0-0.03-0.01-0.07 0.04 0.31 0.13 0.6 0.03 0.13 0.08 0.26 0.06 0.23 0.14 0.47 0.15 0.45 0.34 0.89-0.02-0.03-0.03-0.06 0.29 0.63 0.63 1.23 0.27 0.48 0.6 0.93 0.34 0.44 0.77 0.79-0.02-0.01-0.03-0.02 0.02 0.01 0.04 0.03 0 0 0.01 0.01-0.01-0.01-0.01-0.01 0.36 0.26 0.76 0.48 0.4 0.23 0.82 0.42-0.03-0.01-0.06-0.03 1 0.43 2.05 0.75 0.88 0.27 1.8 0.43 0.9 0.18 1.8 0.35 0.7 0.13 1.4 0.22-0.01 0-0.02 0 0.22 0.03 0.44 0.05 0.15 0.01 0.31 0 0.01 0 0.02 0 0.1-0.28 0.17-0.56 0.09-0.28 0.15-0.58-0.01 0.03-0.02 0.06 0.02-0.11 0.02-0.22 0 0 0 0-0.07-0.11-0.14-0.2-0.07-0.09-0.13-0.17-0.16-0.25-0.34-0.49-0.27-0.36-0.51-0.72-0.35-0.54-0.65-1.1-0.38-0.67-0.73-1.35-0.33-0.62-0.63-1.26-0.28-0.6-0.53-1.22-0.27-0.71-0.5-1.45-0.23-0.73-0.39-1.48-0.09-0.38-0.16-0.77-0.07-0.36-0.11-0.72-0.03-0.22-0.05-0.44-0.03-0.19-0.04-0.39-0.01-0.2-0.02-0.4 0-0.15 0-0.3 0.01-0.63 0.06-1.27 0.06-0.72 0.12-1.45 0.03-0.39 0.06-0.79 0.04-0.36 0.07-0.72 0.05-0.69 0.03-1.37-0.01-0.35-0.05-0.7 0 0.01 0.01 0.02-0.04-0.26-0.13-0.5 0.01 0.02 0.02 0.05-0.08-0.18-0.18-0.34-0.11-0.19-0.25-0.38-0.1-0.12-0.11-0.27 0-0.12 0.06-0.21 0.16-0.21 0.38-0.36 0 0.01 0 0.01 0.27-0.21 0.53-0.42 0.34-0.27 0.66-0.57 0.66-0.63 1.23-1.33 0.4-0.55 0.77-1.11 0.17-0.24 0.31-0.5 0.1-0.15 0.18-0.32 0 0 0-0.01-0.08-0.04-0.16-0.07-0.54-0.21-1.1-0.38-0.26-0.08-0.52-0.15-0.17-0.06-0.34-0.09-0.03 0.07-0.06 0.14zm-1.39 6.37q-0.01-0.01-0.01-0.01 0 0 0.01 0.01zm-3.84 0.31q0 0 0 0 0 0 0 0z"/>
    <path class="s0" d="m31.46 9.96q-0.1 0.03-0.15 0.11-0.15 0.18-0.27 0.39-0.11 0.19-0.2 0.41 0-0.01 0.01-0.01-0.03 0.07-0.06 0.14 0-0.01 0.01-0.03-0.14 0.33-0.26 0.66-0.14 0.38-0.28 0.76-0.22 0.61-0.41 1.23-0.19 0.66-0.33 1.33-0.14 0.65-0.24 1.31-0.08 0.58-0.1 1.17-0.04 0.6 0.01 1.19 0.09 0.64 0.28 1.26 0.09 0.33 0.19 0.67 0.12 0.33 0.25 0.66 0.09 0.24 0.19 0.47-0.01-0.01-0.01-0.02 0.2 0.47 0.43 0.92 0.24 0.44 0.53 0.83 0.25 0.35 0.55 0.66 0.41 0.44 0.83 0.86 0.32 0.33 0.64 0.66 0.32 0.31 0.66 0.6 0.3 0.26 0.62 0.49 0.2 0.13 0.41 0.25 0.23 0.12 0.48 0.23 0.09 0.05 0.2 0.02 0.09-0.03 0.14-0.11 0.06-0.09 0.03-0.2c-0.01-0.05-0.06-0.12-0.12-0.14q-0.33-0.15-0.64-0.33-0.24-0.14-0.46-0.31 0 0 0 0 0 0-0.01-0.01-0.02-0.01-0.04-0.03 0.01 0.01 0.01 0.01-0.32-0.26-0.62-0.53-0.33-0.31-0.65-0.64-0.37-0.38-0.75-0.77-0.37-0.38-0.72-0.79-0.14-0.19-0.27-0.38-0.15-0.2-0.28-0.42-0.27-0.48-0.49-1 0.01 0.03 0.03 0.06-0.04-0.08-0.07-0.15 0.01 0.01 0.02 0.03-0.3-0.7-0.52-1.43-0.22-0.71-0.34-1.44 0.01 0.04 0.01 0.07-0.06-0.59-0.02-1.19 0.02-0.58 0.09-1.16 0 0.04-0.01 0.07 0.09-0.62 0.23-1.24 0.14-0.68 0.33-1.35 0.18-0.6 0.39-1.18 0.26-0.7 0.52-1.39 0.02-0.05 0.03-0.09 0 0.01 0 0.01 0.04-0.09 0.08-0.19-0.01 0.01-0.01 0.03 0.17-0.36 0.41-0.67 0.06-0.09 0.03-0.19-0.03-0.09-0.12-0.15-0.06-0.03-0.12-0.03-0.04 0-0.07 0.01z"/>
    <path class="s0" d="m32.77 15.89q-0.05 0.01-0.1 0.02-0.21 0.01-0.42 0-0.17-0.01-0.33-0.01-0.35-0.02-0.71 0-0.1 0.01-0.17 0.08-0.08 0.07-0.08 0.17c0 0.13 0.11 0.26 0.25 0.25q0.38-0.02 0.77 0 0.17 0 0.35 0.01 0.16 0 0.32 0 0.13 0 0.25-0.04c0.13-0.03 0.21-0.18 0.17-0.3-0.03-0.12-0.13-0.18-0.24-0.18q-0.03 0-0.06 0z"/>
    <path class="s0" d="m34.45 15.73q-0.09 0.03-0.18 0.05-0.08 0.01-0.16 0c-0.14-0.01-0.25 0.12-0.25 0.25 0 0.14 0.11 0.24 0.25 0.25q0.12 0.01 0.26-0.01 0.11-0.02 0.22-0.06 0.09-0.03 0.15-0.11 0.05-0.09 0.02-0.2-0.03-0.1-0.11-0.15-0.06-0.03-0.13-0.03-0.04 0-0.07 0.01z"/>
    <path class="s0" d="m32 16.12q-0.01 0-0.03 0-0.09 0.03-0.15 0.12-0.03 0.04-0.06 0.08-0.03 0.06-0.06 0.12-0.03 0.1-0.04 0.2c-0.04 0.19-0.08 0.44 0.12 0.56q0.18 0.1 0.34-0.04c0.08-0.06 0.12-0.18 0.15-0.27q0.06-0.22 0.06-0.45 0.02-0.04 0.03-0.1-0.01-0.1-0.08-0.17-0.07-0.08-0.17-0.08-0.06 0-0.11 0.03z"/>
    <path class="s0" d="m34.22 16.06q-0.05 0.16-0.06 0.33 0 0.08 0.01 0.15 0.04 0.13 0.15 0.2c0.08 0.05 0.2 0.04 0.27-0.01q0.11-0.06 0.14-0.18 0.03-0.08 0.02-0.16 0.01-0.07 0-0.15 0-0.07-0.04-0.13c0-0.11-0.08-0.2-0.18-0.23q-0.03-0.01-0.06-0.01c-0.11 0-0.22 0.08-0.25 0.19z"/>
    <path class="s0" d="m34.71 18.22q-0.29 0.01-0.58 0.09-0.29 0.08-0.57 0.18-0.69 0.26-1.3 0.68-0.31 0.21-0.58 0.46-0.12 0.11-0.23 0.21-0.11 0.12-0.19 0.25c-0.07 0.12-0.02 0.28 0.09 0.35 0.12 0.07 0.28 0.02 0.34-0.09q0.03-0.05 0.06-0.09 0.13-0.14 0.27-0.26 0.16-0.15 0.33-0.29 0.24-0.17 0.5-0.33 0.34-0.2 0.71-0.36-0.03 0.01-0.06 0.02 0.28-0.11 0.57-0.19 0.25-0.08 0.51-0.12-0.02 0-0.04 0 0.03 0 0.06 0 0 0 0.01-0.01 0 0-0.01 0.01 0.03-0.01 0.05-0.01 0.02 0.17 0 0.33-0.04 0.27-0.15 0.53 0-0.01 0-0.01-0.02 0.05-0.04 0.09c-0.1 0.05-0.17 0.18-0.13 0.29q0.03 0.11 0.13 0.17 0.06 0.04 0.13 0.03 0.07 0 0.13-0.03 0.08-0.05 0.13-0.13 0.04-0.07 0.07-0.14 0.15-0.3 0.21-0.62 0.06-0.34 0-0.67-0.02-0.15-0.12-0.25-0.12-0.1-0.27-0.09-0.01 0-0.03 0z"/>
  </g>
  <g id="body">
    <path class="s0" d="m30.35 26.19q-0.1 0.06-0.2 0.11-0.41 0.15-0.85 0.2 0.03 0 0.07-0.01-0.37 0.05-0.74 0.09-0.28 0.04-0.57 0.09 0.01 0 0.02 0-0.14 0.01-0.27 0.02-0.15 0-0.3 0.02-0.15 0.05-0.26 0.18-0.1 0.11-0.19 0.22c-0.4 0.48-0.72 1.01-1.02 1.56q-0.3 0.54-0.61 1.06-0.33 0.54-0.68 1.06-0.59 0.9-1.12 1.85-0.1 0.17-0.17 0.36-0.05 0.12-0.07 0.24 0 0 0 0 0 0.01 0 0.01 0 0 0 0.01 0 0 0 0 0 0 0 0 0 0-0.01 0.01 0 0 0 0-0.11 0.04-0.22 0.06-0.29 0.07-0.58 0.11 0.03-0.01 0.07-0.02-0.67 0.08-1.34 0.15-0.33 0.05-0.67 0.1-0.36 0.06-0.71 0.17-0.59 0.18-1.15 0.45-0.16 0.07-0.3 0.16-0.08 0.04-0.15 0.08-0.04 0.03-0.08 0.07-0.07 0.08-0.08 0.18c0 0.09 0.06 0.18 0.13 0.22 0.1 0.05 0.18 0.04 0.29 0.02q0.16-0.02 0.31-0.06c0.12-0.02 0.19-0.15 0.18-0.26q0.14-0.07 0.27-0.12 0.48-0.2 1-0.34 0.28-0.07 0.57-0.11 0.29-0.04 0.57-0.08-0.03 0-0.07 0.01 0.56-0.07 1.11-0.12 0.43-0.04 0.84-0.14 0.13-0.03 0.25-0.09 0.07-0.03 0.12-0.08 0.04-0.06 0.08-0.13 0.06-0.1 0.07-0.21 0 0.01-0.01 0.03 0.02-0.11 0.07-0.21 0.08-0.17 0.18-0.34 0.17-0.32 0.36-0.63 0.52-0.84 1.07-1.67c0.34-0.53 0.64-1.08 0.95-1.62q0.35-0.64 0.78-1.24 0.1-0.12 0.2-0.24 0.08-0.09 0.16-0.17 0.07 0 0.13 0 0.14-0.02 0.28-0.03 0.37-0.05 0.74-0.11-0.04 0.01-0.07 0.01c0.38-0.05 0.76-0.08 1.13-0.16q0.4-0.08 0.74-0.29c0.12-0.08 0.17-0.22 0.09-0.34q-0.07-0.12-0.22-0.13-0.06 0-0.12 0.04z"/>
    <path class="s0" d="m27.81 29.47q-0.05 0.04-0.08 0.1-0.05 0.08-0.1 0.16-0.14 0.22-0.28 0.44-0.2 0.29-0.4 0.59-0.22 0.32-0.47 0.62 0.02-0.02 0.04-0.05c-0.24 0.32-0.51 0.63-0.73 0.97q-0.29 0.47-0.54 0.97-0.27 0.53-0.58 1.04-0.16 0.28-0.35 0.54 0 0 0 0 0 0-0.01 0.01-0.01 0.02-0.03 0.04 0.01-0.01 0.02-0.03-0.07 0.08-0.15 0.15-0.06 0.05-0.13 0.08-0.23 0.08-0.47 0.11 0.03-0.01 0.07-0.01-0.57 0.06-1.13 0.11-0.75 0.08-1.5 0.2-0.65 0.08-1.3 0.23-0.25 0.07-0.51 0.15-0.06 0.01-0.11 0.03-0.03-0.01-0.06-0.01-0.1 0-0.2 0.02-0.07 0.02-0.14 0.05-0.07 0.04-0.12 0.11c-0.06 0.11-0.03 0.28 0.09 0.35 0.13 0.06 0.27 0.03 0.41 0q0.21-0.05 0.42-0.12 0.59-0.18 1.19-0.26 0.35-0.05 0.7-0.1 0.39-0.06 0.79-0.12-0.04 0.01-0.07 0.01c0.54-0.07 1.09-0.09 1.63-0.16q0.23-0.03 0.44-0.11 0.11-0.04 0.21-0.09 0.12-0.08 0.22-0.18 0.1-0.1 0.18-0.23 0.09-0.12 0.17-0.25 0.25-0.37 0.47-0.76 0.25-0.47 0.49-0.95 0.13-0.24 0.27-0.48 0.15-0.23 0.31-0.44 0 0-0.01 0.01 0.01-0.01 0.02-0.03 0.01-0.01 0.02-0.02 0 0 0 0 0.55-0.68 1.05-1.4 0.21-0.31 0.42-0.64 0.11-0.17 0.23-0.35-0.02 0.03-0.04 0.05 0 0 0 0 0.04-0.05 0.06-0.11 0.02-0.07 0-0.13-0.02-0.1-0.11-0.15-0.06-0.04-0.12-0.04-0.1 0-0.18 0.08z"/>
    <path class="s0" d="m27.8 29.45q-0.1 0.09-0.09 0.22 0.01 0.13 0.09 0.24 0.06 0.08 0.14 0.11 0.1 0.34 0.14 0.7 0-0.04-0.01-0.07 0.08 0.67 0.13 1.34 0.05 0.69 0.1 1.37 0.04 0.62 0.11 1.23 0.1 0.74 0.2 1.47 0 0 0-0.01 0.1 0.87 0.2 1.73 0 0 0-0.01 0.06 0.46 0.15 0.9 0.01 0.12 0.04 0.23c0.02 0.12 0.06 0.27 0.21 0.3q0.18 0.04 0.28-0.12 0.05-0.11 0.06-0.23 0-0.11-0.07-0.18-0.01-0.01-0.02-0.02-0.02-0.07-0.03-0.14-0.07-0.37-0.12-0.75 0 0.04 0.01 0.07-0.01-0.06-0.02-0.13 0 0.01 0 0.02-0.07-0.65-0.15-1.31-0.09-0.74-0.2-1.47 0.01 0.03 0.01 0.06-0.06-0.45-0.1-0.91-0.04-0.47-0.08-0.95-0.06-0.99-0.15-1.98-0.05-0.48-0.13-0.95-0.03-0.2-0.1-0.39-0.04-0.13-0.1-0.25-0.07-0.14-0.21-0.19-0.04-0.02-0.09-0.02-0.12 0.01-0.2 0.09z"/>
    <path class="s0" d="m35.38 29.43q0.08 0.65 0.11 1.3 0.01 0.51-0.01 1.03-0.04 1.2-0.08 2.41c-0.04 0.84-0.07 1.69-0.02 2.54q0.03 0.49 0.09 0.97 0.01 0.1 0.02 0.21 0.01 0.09 0.03 0.17 0.05 0.15 0.19 0.19 0.14 0.03 0.24-0.06c0.12-0.11 0.12-0.29 0.14-0.43q0-0.15-0.14-0.22-0.07-0.65-0.09-1.31c-0.03-0.79 0.02-1.58 0.05-2.36q0.04-1.11 0.07-2.22 0.02-0.46 0.01-0.92-0.01-0.3-0.04-0.58-0.03-0.36-0.07-0.72 0-0.1-0.07-0.18-0.08-0.07-0.18-0.07c-0.12 0-0.26 0.11-0.25 0.25z"/>
    <path class="s0" d="m35.59 29.44q-0.07 0.08-0.07 0.18 0 0.1 0.07 0.18 0.34 0.4 0.67 0.82 0.26 0.36 0.5 0.74 0.26 0.39 0.52 0.77 0.25 0.38 0.48 0.77 0.22 0.37 0.44 0.73 0.27 0.4 0.54 0.8 0.29 0.4 0.6 0.78c0.12 0.15 0.27 0.39 0.5 0.33q0.1-0.03 0.16-0.13 0.05-0.1 0.03-0.22-0.05-0.24-0.15-0.46-0.03-0.1-0.12-0.15-0.09-0.05-0.19-0.03-0.05 0.02-0.08 0.05-0.46-0.6-0.86-1.23-0.19-0.29-0.36-0.59-0.18-0.3-0.37-0.6-0.44-0.68-0.89-1.35-0.09-0.13-0.17-0.27-0.11-0.15-0.22-0.3-0.33-0.41-0.68-0.82-0.06-0.07-0.16-0.07-0.11 0-0.19 0.07z"/>
    <path class="s0" d="m37.21 28.39q-0.1 0.03-0.15 0.12c-0.03 0.05-0.05 0.13-0.02 0.19q0.3 0.76 0.64 1.51c0.22 0.46 0.44 0.93 0.72 1.35q0.19 0.3 0.4 0.59 0.21 0.26 0.41 0.53 0.08 0.12 0.14 0.25c0.06 0.1 0.11 0.22 0.2 0.29q0.08 0.06 0.18 0.09 0.1 0.03 0.21 0.03 0.32 0.01 0.65-0.01 0.73-0.06 1.45-0.12 0.77-0.07 1.55-0.16 0.2-0.02 0.41-0.04 0.17-0.01 0.35-0.04 0.03 0 0.05-0.01 0.1-0.03 0.15-0.11 0.05-0.1 0.03-0.2-0.03-0.09-0.12-0.15-0.09-0.05-0.19-0.02-0.01 0-0.03 0.01-0.3 0.03-0.6 0.06-0.67 0.07-1.34 0.14-0.67 0.05-1.33 0.11-0.29 0.02-0.58 0.04-0.25 0.02-0.5-0.01-0.01 0-0.02 0 0 0 0 0-0.06-0.1-0.11-0.2-0.06-0.11-0.12-0.2-0.14-0.21-0.3-0.4-0.17-0.21-0.32-0.43-0.16-0.24-0.32-0.49-0.15-0.27-0.29-0.54-0.14-0.29-0.28-0.58-0.12-0.24-0.22-0.48 0 0.01 0.01 0.02-0.2-0.48-0.4-0.96-0.03-0.1-0.11-0.15-0.06-0.04-0.13-0.03-0.04 0-0.07 0z"/>
    <path class="s0" d="m36.08 37.86q-0.22 0.02-0.44 0.06-0.25 0.04-0.49 0.07 0.03-0.01 0.06-0.01-0.7 0.1-1.39 0.21-0.88 0.15-1.75 0.29 0.02-0.01 0.04-0.01-0.03 0-0.06 0.01-0.04 0-0.07 0.01-0.01 0-0.01 0 0.01 0 0.02 0-0.01 0-0.03 0 0 0 0 0-0.51 0.07-1.02 0.12-0.49 0.04-0.98 0.03-0.31 0-0.62-0.02c-0.12-0.02-0.27 0.01-0.33 0.13q-0.05 0.1-0.03 0.21 0.03 0.09 0.08 0.16c0.07 0.11 0.22 0.16 0.34 0.09q0.05-0.03 0.08-0.08 0.15 0.01 0.3 0.01 0.39 0.01 0.77 0 0.53-0.03 1.04-0.1 0.26-0.03 0.52-0.07 0 0 0.01 0 0.25-0.03 0.49-0.07 0.51-0.08 1.01-0.17 0.44-0.07 0.89-0.14 0.37-0.06 0.74-0.11-0.02 0-0.05 0 0.4-0.05 0.8-0.11-0.03 0-0.07 0.01 0.08-0.01 0.15-0.02c0.14-0.01 0.25-0.11 0.25-0.25 0-0.13-0.1-0.25-0.23-0.25q-0.01 0-0.02 0z"/>
    <path class="s0" d="m29.85 38.65q-0.09 0.05-0.13 0.14-0.06 0.11-0.05 0.25c-0.01 0.13 0.11 0.25 0.25 0.25q0.02 0 0.05-0.01 0.07 0.29 0.11 0.59 0.06 0.55 0.09 1.11 0.02 0.33 0.05 0.66 0.04 0.38 0.09 0.76 0.07 0.59 0.1 1.18 0.04 0.76 0.12 1.51 0.09 0.66 0.17 1.32 0.08 0.7 0.18 1.41 0.05 0.36 0.12 0.72 0.08 0.43 0.17 0.85 0.16 0.72 0.28 1.45 0 0 0 0.01 0-0.02 0-0.03 0 0.03 0 0.06 0 0 0-0.01 0 0.01 0 0.01 0.02 0.16 0.03 0.32 0 0.14 0.02 0.28c0.02 0.1 0.14 0.18 0.24 0.18 0.11 0 0.21-0.08 0.24-0.18q0.03-0.13 0.02-0.26 0-0.19 0-0.38 0-0.11-0.08-0.18-0.07-0.46-0.17-0.92-0.13-0.61-0.25-1.23-0.11-0.6-0.19-1.21 0.01 0.03 0.01 0.06-0.09-0.69-0.17-1.38-0.09-0.67-0.16-1.33-0.06-0.7-0.1-1.41-0.05-0.63-0.13-1.25-0.04-0.34-0.07-0.68-0.02-0.35-0.04-0.69-0.03-0.55-0.12-1.09-0.05-0.31-0.15-0.6-0.03-0.09-0.07-0.17-0.05-0.07-0.13-0.12-0.06-0.05-0.14-0.05-0.11 0.01-0.19 0.06z"/>
    <path class="s0" d="m31.66 40.09c-0.13 0.03-0.21 0.17-0.17 0.31q0.11 0.43 0.2 0.87 0.08 0.38 0.14 0.75 0.14 0.75 0.3 1.5 0.15 0.7 0.29 1.4 0.16 0.76 0.34 1.51 0.31 1.4 0.75 2.76 0.19 0.58 0.39 1.14 0.13 0.35 0.26 0.68 0.01 0.03 0.02 0.05-0.28 0-0.55 0.04c-0.36 0.05-0.71 0.14-1.07 0.2q0.02 0 0.03 0-0.03 0-0.06 0-0.01 0-0.01 0 0 0 0 0-0.19 0.02-0.39 0.03-0.11 0-0.23 0.01-0.09 0.01-0.19 0.02c-0.04-0.12-0.17-0.2-0.3-0.17-0.13 0.04-0.22 0.18-0.17 0.31q0.02 0.12 0.11 0.21 0.09 0.09 0.22 0.13c0.1 0.03 0.22 0.01 0.33 0q0.27-0.02 0.53-0.03 0.34-0.03 0.67-0.11 0.35-0.07 0.7-0.12 0 0 0 0 0.27-0.03 0.54-0.01 0.06 0.01 0.12 0.03 0.16 0.03 0.28-0.07c0.07-0.07 0.09-0.18 0.05-0.27q-0.03-0.1-0.08-0.19 0.01 0.03 0.03 0.07-0.11-0.28-0.21-0.56-0.17-0.44-0.32-0.89-0.23-0.64-0.42-1.28-0.21-0.73-0.39-1.47-0.18-0.71-0.34-1.43-0.16-0.71-0.3-1.42-0.15-0.73-0.31-1.45-0.07-0.38-0.14-0.75-0.06-0.38-0.14-0.75-0.09-0.44-0.2-0.88c-0.03-0.11-0.14-0.18-0.25-0.18q-0.03 0-0.06 0.01z"/>
    <path class="s0" d="m34.35 39.82q-0.07 0.05-0.13 0.11-0.05 0.04-0.1 0.08 0.01-0.01 0.02-0.02-0.01 0.02-0.03 0.03-0.01 0.01-0.02 0.01 0.01 0 0.01-0.01-0.35 0.27-0.76 0.45-0.18 0.07-0.38 0.11 0.02 0 0.04 0-0.05 0-0.09 0.01 0.03 0 0.06-0.01-0.18 0.02-0.37-0.01-0.18-0.03-0.35-0.1 0.02 0.01 0.04 0.01-0.1-0.04-0.19-0.09-0.05-0.05-0.09-0.09-0.04-0.08-0.1-0.15-0.07-0.1-0.15-0.19c-0.09-0.1-0.26-0.09-0.35 0-0.11 0.1-0.09 0.25 0 0.35q0.04 0.05 0.08 0.1c0.08 0.11 0.14 0.23 0.24 0.32q0.17 0.14 0.39 0.22 0.19 0.07 0.39 0.11 0.13 0.02 0.26 0.02 0.12 0.01 0.24 0 0.25-0.04 0.49-0.13 0.29-0.12 0.55-0.29 0.17-0.11 0.33-0.22 0.01-0.01 0.02-0.02 0.09 0.27 0.14 0.55 0.09 0.44 0.15 0.88 0-0.02-0.01-0.04 0.06 0.39 0.11 0.77 0.04 0.44 0.1 0.88 0.14 0.89 0.28 1.78-0.01-0.03-0.01-0.07 0.01 0.07 0.02 0.13-0.01 0-0.01 0 0.07 0.51 0.13 1.03 0.06 0.55 0.15 1.09 0.08 0.52 0.17 1.04 0.1 0.49 0.18 0.97 0-0.01 0-0.03 0.02 0.14 0.03 0.27 0 0.02 0 0.04 0 0.13 0.02 0.27c0.02 0.1 0.14 0.18 0.24 0.18 0.11 0 0.21-0.08 0.24-0.18q0.02-0.11 0-0.22 0-0.04 0-0.09 0-0.22 0-0.44-0.01-0.11-0.09-0.18-0.04-0.25-0.09-0.5-0.19-1.01-0.33-2.04 0 0.01 0 0.01-0.08-0.65-0.16-1.3 0 0.01 0 0.01-0.14-0.95-0.29-1.91 0 0.01 0 0.02-0.04-0.33-0.07-0.65-0.04-0.36-0.09-0.71-0.08-0.6-0.2-1.2-0.07-0.44-0.27-0.85-0.09-0.14-0.25-0.15-0.07 0-0.14 0.04z"/>
    <path class="s0" d="m35.25 37.99c-0.12 0.04-0.22 0.18-0.18 0.31q0.06 0.15 0.1 0.31 0.04 0.2 0.07 0.41 0.04 0.2 0.09 0.4 0.08 0.34 0.16 0.69 0.08 0.38 0.2 0.77 0.15 0.48 0.29 0.96 0.17 0.68 0.25 1.37 0 0 0-0.01 0.05 0.43 0.13 0.84 0.13 0.53 0.25 1.05 0.13 0.54 0.23 1.08 0.11 0.57 0.24 1.14 0.08 0.4 0.18 0.8 0.09 0.32 0.19 0.63 0.06 0.24 0.11 0.48 0.02 0.1 0.05 0.21-0.11 0.01-0.21 0.02-0.26 0.05-0.5 0.12-0.28 0.06-0.55 0.14-0.13 0.04-0.25 0.08-0.11 0.05-0.23 0.08c-0.13 0-0.24 0.12-0.24 0.25 0 0.13 0.12 0.24 0.25 0.25q0.13-0.01 0.25-0.06 0.09-0.04 0.18-0.06 0.21-0.08 0.43-0.13 0.21-0.06 0.43-0.1 0.17-0.05 0.34-0.08 0.13-0.01 0.26-0.01 0.04 0 0.09 0 0.09 0 0.18-0.05c0.06-0.02 0.12-0.1 0.13-0.16q0.02-0.09 0-0.18-0.04-0.13-0.08-0.25-0.07-0.28-0.13-0.57-0.1-0.35-0.21-0.71-0.12-0.49-0.22-0.98-0.14-0.62-0.26-1.24-0.13-0.7-0.3-1.38-0.14-0.51-0.21-1.02-0.02-0.13-0.04-0.27 0 0.04 0.01 0.07-0.09-0.71-0.24-1.4-0.14-0.51-0.31-1.01-0.21-0.72-0.36-1.47-0.09-0.39-0.16-0.79-0.04-0.18-0.1-0.35-0.03-0.1-0.12-0.15-0.06-0.04-0.13-0.03-0.03 0-0.06 0z"/>
  </g>
  <g id="right-arm">
    <path class="s0" d="m44.84 34.33c-0.29 0.04-0.58 0.13-0.87 0.2q-0.84 0.18-1.69 0.29 0 0 0.01 0-0.31 0.04-0.61 0.07-0.34 0.03-0.68 0.05-0.2 0-0.41 0-0.42 0.01-0.83 0.03c-0.14 0.01-0.25 0.11-0.25 0.25 0 0.14 0.11 0.26 0.25 0.25q0.43-0.02 0.86-0.03 0.25 0 0.5-0.01 0.41-0.02 0.81-0.06 0.39-0.05 0.79-0.11 0.72-0.1 1.43-0.26 0.21-0.06 0.43-0.11 0.16-0.05 0.32-0.07-0.04 0-0.07 0.01 0.01 0 0.01 0 0.11-0.01 0.18-0.07 0.07-0.08 0.07-0.18 0-0.11-0.07-0.18-0.06-0.07-0.16-0.07-0.01-0.01-0.02 0z"/>
    <path class="s0" d="m44.76 29.75q-0.06 0.01-0.12 0.03-0.1 0.05-0.19 0.12-0.11 0.1-0.18 0.24-0.06 0.1-0.1 0.21-0.08 0.21-0.13 0.44c-0.07 0.39-0.07 0.78-0.06 1.18q0 0.24 0.05 0.48c0.04 0.17 0.08 0.35 0.22 0.46q0.08 0.07 0.18 0.08 0.1-0.01 0.18-0.08 0.07-0.07 0.07-0.17 0-0.11-0.07-0.18-0.02-0.01-0.04-0.03 0-0.01 0-0.01-0.06-0.15-0.08-0.32-0.02-0.22-0.02-0.44-0.01-0.32 0.02-0.64 0 0 0 0.01 0-0.01 0.01-0.03 0-0.02 0-0.04 0 0.01 0 0.02 0.04-0.29 0.14-0.57 0 0-0.01 0.01 0.01-0.01 0.02-0.02 0-0.02 0.01-0.04 0 0.01-0.01 0.02 0.05-0.09 0.1-0.17 0.02-0.03 0.05-0.05 0 0 0.01 0 0.02-0.01 0.05-0.02 0.01 0 0.03 0 0.06 0.02 0.12 0.04 0.08 0.03 0.15 0.08 0.04 0.04 0.08 0.08 0 0-0.01-0.01 0.01 0.01 0.01 0.01 0.03 0.05 0.06 0.11 0.08 0.21 0.11 0.43-0.01-0.03-0.02-0.07 0.04 0.4 0.05 0.79 0 0.07 0.02 0.15c0.02 0.11 0.13 0.19 0.25 0.19q0.1-0.01 0.18-0.06 0.07-0.04 0.15-0.08-0.01 0.01-0.02 0.01 0.01-0.01 0.02-0.01 0.02-0.01 0.04-0.02-0.01 0.01-0.02 0.01 0.22-0.08 0.45-0.16 0.37-0.13 0.74-0.25 0.69-0.22 1.39-0.34 0.38-0.04 0.76-0.01-0.01 0-0.02-0.01 0.01 0.01 0.02 0.01 0.02 0 0.05 0-0.03 0-0.05 0 0.1 0.01 0.18 0.05 0.05 0.02 0.1 0.05 0.02 0.02 0.04 0.05 0.01 0 0.01 0-0.01 0.01-0.01 0.02-0.02 0.02-0.04 0.04-0.12 0.08-0.26 0.13-0.11 0.04-0.22 0.08-0.36 0.01-0.71 0.05-0.65 0.08-1.28 0.24-0.23 0.06-0.46 0.13c-0.13 0.04-0.28 0.08-0.36 0.2q-0.05 0.09-0.02 0.2 0.02 0.09 0.11 0.14c0.09 0.07 0.22 0.03 0.31 0.02q0.15-0.02 0.29-0.05 0.45-0.08 0.9-0.17 0.46-0.08 0.92-0.18 0.18-0.04 0.37-0.08 0.27-0.02 0.54 0.01-0.04 0-0.07-0.01 0.18 0.03 0.36 0.08 0.07 0.03 0.13 0.08 0.01 0 0.02 0.01 0 0 0 0.01 0 0.01 0 0.02-0.01 0.02-0.02 0.04-0.03 0.03-0.06 0.06-0.15 0.09-0.31 0.16 0.03-0.01 0.06-0.03-0.25 0.1-0.51 0.15-0.38 0.08-0.76 0.14-0.33 0.06-0.67 0.1-0.3 0.05-0.6 0.1 0.01-0.01 0.03-0.01-0.01 0-0.03 0.01 0.01-0.01 0.01-0.01-0.02 0.01-0.05 0.01-0.01 0-0.02 0 0.01 0 0.01 0-0.12 0.02-0.24 0.03-0.12 0.01-0.23 0.01-0.18-0.05-0.3 0.11c-0.06 0.09-0.04 0.23 0.04 0.3q0.04 0.04 0.08 0.06 0.04 0.05 0.09 0.1 0.06 0.07 0.13 0.15 0.01 0.01 0.02 0.03 0 0.01 0 0.01 0 0.01 0 0.01-0.03 0.02-0.06 0.03-0.24 0.09-0.5 0.12-0.31 0.04-0.61 0.02-0.03-0.01-0.06-0.01c0.22-0.15 0.49-0.24 0.73-0.36 0.12-0.06 0.15-0.23 0.09-0.34-0.08-0.13-0.22-0.16-0.35-0.09-0.3 0.15-0.63 0.26-0.89 0.48q-0.16 0.14-0.18 0.35c0 0.14 0.09 0.25 0.19 0.32q0.13 0.09 0.29 0.12 0.18 0.04 0.36 0.04 0.24-0.01 0.49-0.04 0.36-0.03 0.69-0.18 0.14-0.06 0.23-0.18 0.07-0.11 0.08-0.25 0.01-0.1-0.03-0.19-0.02-0.08-0.06-0.15 0.05 0 0.1-0.01-0.01 0-0.02 0 0.42-0.06 0.84-0.12 0.5-0.08 1-0.17c0.45-0.08 0.92-0.18 1.29-0.48q0.16-0.14 0.2-0.34 0.03-0.2-0.06-0.38-0.09-0.15-0.24-0.23-0.16-0.09-0.34-0.12 0.03-0.04 0.05-0.07c0.08-0.11 0.1-0.27 0.07-0.4q-0.07-0.18-0.21-0.29-0.16-0.13-0.35-0.19-0.23-0.06-0.46-0.06-0.47-0.01-0.94 0.09-0.43 0.08-0.84 0.2-0.4 0.12-0.79 0.26-0.35 0.12-0.7 0.25 0 0 0 0-0.01-0.21-0.02-0.42-0.02-0.22-0.09-0.44-0.03-0.12-0.08-0.24-0.04-0.08-0.1-0.16-0.09-0.12-0.21-0.2-0.07-0.06-0.16-0.1-0.07-0.04-0.16-0.07-0.11-0.04-0.23-0.04-0.06 0-0.12 0.01z"/>
    <path class="s0" d="m45.76 33.79c-0.19 0.18-0.38 0.36-0.5 0.59-0.1 0.18-0.16 0.41-0.14 0.63q0.01 0.11 0.06 0.22 0.06 0.1 0.15 0.17 0.13 0.08 0.3 0.09 0.15 0.01 0.3 0.01 0.12 0 0.23-0.01 0.24-0.02 0.46-0.08 0.18-0.06 0.33-0.18 0.12-0.11 0.18-0.26 0.03-0.12 0.02-0.24 0-0.14-0.02-0.27-0.02-0.11-0.04-0.21-0.05-0.15-0.17-0.24-0.08-0.07-0.18-0.07-0.1 0-0.17 0.07c-0.09 0.09-0.11 0.26 0 0.35q0.02 0.02 0.04 0.04 0.02 0.09 0.03 0.18 0.02 0.11 0.01 0.22 0 0.02-0.01 0.03 0 0.01-0.01 0.02 0 0 0 0-0.05 0.03-0.1 0.06-0.16 0.05-0.32 0.08 0.03-0.01 0.06-0.02-0.13 0.02-0.26 0.02-0.18 0.01-0.36 0-0.02 0-0.03 0 0-0.01 0-0.01-0.01-0.05 0-0.1 0.02-0.1 0.04-0.19 0.05-0.11 0.12-0.2 0.16-0.18 0.33-0.35c0.1-0.09 0.1-0.26 0-0.35q-0.08-0.07-0.18-0.07-0.1 0-0.17 0.07z"/>
    <path class="s0" d="m44.17 32.57q-0.04 0.16-0.05 0.32-0.01 0.2-0.03 0.4-0.03 0.27-0.02 0.54 0.02 0.14 0.06 0.29 0.08 0.2 0.23 0.35 0.11 0.1 0.23 0.18 0.03 0.02 0.07 0.05 0 0 0.01 0.01 0.06 0.08 0.12 0.16 0.11 0.12 0.26 0.19 0.09 0.05 0.19 0.03 0.1-0.03 0.15-0.12c0.06-0.11 0.03-0.28-0.09-0.34q-0.05-0.03-0.1-0.06-0.04-0.04-0.08-0.09-0.08-0.12-0.19-0.2-0.07-0.04-0.14-0.1 0.01 0.01 0.01 0.01-0.07-0.05-0.14-0.12-0.03-0.05-0.05-0.1-0.02-0.07-0.03-0.13-0.02-0.23 0.01-0.45 0.01-0.18 0.02-0.36 0.01-0.12 0.02-0.25 0.01-0.04 0.02-0.08c0.04-0.12-0.05-0.27-0.17-0.3q-0.04-0.01-0.07-0.01c-0.11 0-0.21 0.07-0.24 0.18z"/>
  </g>
  <g id="left-arm">
    <path class="s0" d="m17.46 32.12q-0.19 0.02-0.36 0.13-0.22 0.16-0.34 0.4-0.13 0.29-0.13 0.61-0.01 0.3 0.07 0.6 0.07 0.23 0.13 0.48-0.11-0.01-0.2-0.01-0.38 0-0.75-0.01-0.32 0-0.62 0.03-0.32 0.03-0.65 0.08-0.54 0.08-1.09 0.2-0.73 0.16-1.45 0.43c-0.2 0.07-0.4 0.16-0.56 0.3-0.16 0.16-0.2 0.41-0.07 0.59 0.14 0.18 0.35 0.25 0.56 0.3q0.26 0.06 0.52 0.07 0.27 0 0.54-0.04 0.35-0.04 0.69-0.1 0.45-0.08 0.91-0.16 0.36-0.07 0.71-0.15 0.31-0.07 0.63-0.13 0.2-0.06 0.41-0.11 0.14 0 0.22-0.12c0.07-0.12 0.02-0.27-0.09-0.34-0.09-0.06-0.2-0.03-0.3-0.01q-0.15 0.04-0.31 0.08-0.37 0.08-0.75 0.16-0.44 0.1-0.88 0.17-0.52 0.1-1.04 0.19 0.01-0.01 0.02-0.01c-0.32 0.05-0.65 0.09-0.98 0.05q0.03 0.01 0.07 0.01-0.22-0.03-0.43-0.09-0.02-0.02-0.04-0.03 0.1-0.07 0.22-0.12-0.02 0.01-0.04 0.02 0.22-0.09 0.45-0.17 0.33-0.11 0.66-0.2 0.41-0.09 0.81-0.18 0.54-0.1 1.08-0.17 0 0 0 0 0.64-0.07 1.28-0.04 0.2 0 0.4 0.01 0.16 0 0.32 0 0.09 0.01 0.17-0.04 0.13-0.08 0.13-0.23 0-0.06-0.02-0.13-0.02-0.06-0.03-0.13-0.05-0.24-0.11-0.47-0.06-0.18-0.09-0.38 0 0.04 0.01 0.07-0.02-0.2-0.01-0.4 0 0.01 0 0.02 0-0.01 0-0.02 0.01-0.02 0.01-0.05 0 0.02-0.01 0.04 0.02-0.11 0.07-0.22 0.03-0.08 0.09-0.15 0.03-0.04 0.07-0.07 0.04-0.03 0.09-0.05 0.02-0.01 0.05-0.01 0.01 0 0.02 0 0.03 0 0.06 0.01 0.02 0.01 0.04 0.02 0.03 0.02 0.05 0.05 0.06 0.1 0.11 0.21 0 0 0 0 0.08 0.22 0.12 0.46 0.07 0.29 0.11 0.59 0-0.02-0.01-0.04 0.04 0.37 0.08 0.74c0.02 0.12 0.04 0.27 0.14 0.35q0.09 0.08 0.21 0.09 0.05 0 0.09 0c0.14-0.01 0.25-0.11 0.25-0.25 0-0.12-0.08-0.22-0.19-0.25q-0.01-0.02-0.01-0.03 0 0 0 0 0-0.03-0.01-0.05 0-0.01 0-0.02 0 0.01 0 0.01-0.02-0.24-0.04-0.48-0.04-0.35-0.11-0.69-0.06-0.3-0.16-0.58c-0.08-0.22-0.19-0.42-0.39-0.55q-0.16-0.09-0.35-0.09-0.02 0-0.05 0z"/>
    <path class="s0" d="m13.24 35.83q-0.27 0.08-0.54 0.16-0.18 0.06-0.36 0.14-0.19 0.07-0.38 0.15 0.03-0.02 0.06-0.03c-0.35 0.15-0.74 0.34-0.87 0.72q-0.04 0.09-0.03 0.18c0.01 0.07 0.02 0.1 0.04 0.16q0.03 0.06 0.08 0.1c0.12 0.17 0.37 0.2 0.57 0.19q0.27-0.02 0.52-0.1 0.29-0.07 0.57-0.14c0.47-0.12 0.93-0.27 1.4-0.38q0.34-0.09 0.68-0.18 0.32-0.08 0.65-0.14 0.28-0.05 0.55-0.12 0.12-0.02 0.23-0.05c0.1-0.02 0.21-0.07 0.23-0.19 0.03-0.14-0.03-0.27-0.17-0.31q-0.09-0.02-0.17 0.02-0.06 0.01-0.12 0.02-0.11 0.03-0.23 0.05-0.3 0.07-0.6 0.12-0.33 0.07-0.66 0.16-0.35 0.09-0.7 0.18-0.61 0.17-1.22 0.33-0.25 0.06-0.51 0.13-0.21 0.07-0.44 0.1-0.07 0.01-0.15 0-0.02 0-0.04-0.01 0.01-0.01 0.02-0.03 0.05-0.05 0.11-0.1 0.2-0.14 0.43-0.24 0.02-0.01 0.04-0.02-0.02 0.01-0.04 0.02 0.26-0.11 0.52-0.2 0.24-0.09 0.49-0.15 0.16-0.06 0.33-0.1 0.05 0 0.1 0c0.13 0 0.25-0.11 0.25-0.25 0-0.14-0.12-0.25-0.25-0.25q-0.2 0-0.39 0.06z"/>
    <path fill-rule="evenodd" class="s0" d="m17.69 35.97q0.08-0.01 0.17 0.01 0.23 0.06 0.35 0.27 0.1 0.22 0.11 0.46 0 0.34-0.25 0.57-0.3 0.23-0.65 0.36c-0.19 0.08-0.39 0.15-0.6 0.14q-0.2-0.01-0.38-0.09-0.13-0.06-0.23-0.16-0.09-0.1-0.15-0.21-0.05-0.1-0.08-0.21-0.02-0.12 0-0.24 0.01-0.12 0.05-0.25 0.04-0.14 0.11-0.27 0.05-0.1 0.12-0.17c0.09-0.11 0.26-0.1 0.36 0q0.03 0.03 0.05 0.07 0.12-0.06 0.25-0.11 0.21-0.08 0.43-0.12 0.16-0.05 0.34-0.05zm-0.09 0.5q-0.31 0.06-0.6 0.17 0.01 0 0.02-0.01-0.11 0.05-0.22 0.11-0.15 0.07-0.28-0.01-0.03 0.09-0.05 0.19 0 0.03 0 0.07 0.01 0.04 0.02 0.08 0 0 0-0.01 0.03 0.06 0.06 0.11 0.02 0.02 0.04 0.04 0.03 0.01 0.05 0.02 0.07 0.03 0.14 0.04 0.06 0.01 0.13 0.01 0.23-0.05 0.44-0.15 0 0 0 0 0.18-0.07 0.33-0.18 0.05-0.04 0.09-0.09 0.02-0.03 0.04-0.06 0-0.01 0-0.03 0.01-0.05 0.01-0.1-0.02-0.09-0.05-0.17-0.01-0.01-0.01-0.03-0.01 0-0.02 0-0.07 0-0.14 0zm-0.61 0.17q0.01 0 0.01 0 0 0-0.01 0z"/>
    <path class="s0" d="m17.91 37.1q0 0.11 0.08 0.18 0.07 0.07 0.17 0.07 0.01 0 0.01 0 0 0 0.01 0.01 0 0 0.01 0 0 0.01 0.01 0.01 0.04 0.07 0.08 0.15 0.01 0.03 0.02 0.06 0.01 0.03 0 0.06 0 0.03-0.01 0.04-0.01 0.03-0.03 0.05-0.02 0.03-0.05 0.06-0.16 0.1-0.34 0.18 0.03-0.02 0.06-0.03-0.33 0.13-0.67 0.18-0.01 0-0.03 0 0 0 0 0-0.04-0.11-0.06-0.23-0.04-0.16-0.08-0.33c-0.04-0.13-0.17-0.21-0.3-0.18-0.13 0.04-0.22 0.18-0.18 0.31q0.05 0.2 0.09 0.4c0.03 0.11 0.06 0.24 0.13 0.34q0.06 0.09 0.15 0.14 0.1 0.05 0.22 0.05 0.12 0 0.25-0.03 0.14-0.02 0.29-0.06 0.31-0.08 0.59-0.23 0.12-0.07 0.23-0.15 0.13-0.12 0.2-0.29 0.05-0.13 0.04-0.29-0.01-0.18-0.11-0.35-0.08-0.16-0.22-0.27-0.14-0.09-0.31-0.1-0.01 0-0.01 0c-0.13 0-0.24 0.13-0.24 0.25z"/>
    <path class="s0" d="m18.57 36.29q-0.01 0.15-0.02 0.3 0 0 0 0 0 0 0 0.01 0 0.02-0.01 0.05 0-0.01 0.01-0.03-0.04 0.27-0.14 0.52 0.01-0.04 0.02-0.06-0.03 0.07-0.07 0.14c-0.07 0.12-0.03 0.27 0.09 0.34 0.12 0.07 0.28 0.03 0.34-0.09q0.15-0.26 0.21-0.55 0.06-0.31 0.07-0.63c0.01-0.14-0.12-0.25-0.25-0.25-0.14 0-0.24 0.11-0.25 0.25z"/>
  </g>
  <g id="legs">
    <path class="s0" d="m33.77 51.19q-0.08 0.08-0.08 0.18 0.02 0.16 0.03 0.32 0.03 0.22 0.08 0.44 0.12 0.51 0.19 1.03 0 0.01 0 0.02 0-0.02-0.01-0.03 0.02 0.09 0.02 0.19-0.1 0.02-0.2 0.05-0.16 0.04-0.33 0.09-0.03 0.01-0.05 0.02-0.01-0.09-0.01-0.18 0-0.17 0-0.34 0-0.16 0-0.33 0-0.09 0-0.19c0.03-0.14-0.04-0.27-0.17-0.31-0.14-0.04-0.27 0.05-0.31 0.18q0 0 0 0-0.05 0.09-0.11 0.18-0.1 0.13-0.2 0.27 0 0 0 0-0.18 0.24-0.39 0.45-0.19 0.19-0.4 0.35 0.01 0 0.01-0.01-0.32 0.26-0.69 0.47-0.3 0.18-0.62 0.33-0.29 0.15-0.59 0.29-0.26 0.13-0.53 0.25 0.02-0.01 0.03-0.01-0.16 0.07-0.33 0.13-0.17 0.07-0.35 0.11-0.05 0-0.09 0-0.03 0-0.05-0.01 0.02-0.07 0.04-0.13 0.09-0.21 0.23-0.4 0.16-0.26 0.35-0.5-0.02 0.02-0.04 0.04 0.28-0.37 0.62-0.69 0.3-0.29 0.62-0.54 0 0 0 0.01 0.01-0.02 0.03-0.03 0.01-0.01 0.02-0.01-0.01 0-0.01 0 0.31-0.24 0.64-0.44 0.29-0.17 0.57-0.33 0.22-0.12 0.45-0.22 0.11-0.05 0.21-0.1 0.09-0.04 0.15-0.12 0.07-0.08 0.07-0.18 0-0.1-0.07-0.18-0.07-0.07-0.18-0.07-0.1 0-0.17 0.07-0.02 0.03-0.04 0.05-0.07 0.03-0.15 0.06-0.13 0.06-0.27 0.13-0.31 0.16-0.62 0.34-0.83 0.48-1.53 1.13-0.63 0.59-1.09 1.33-0.16 0.24-0.27 0.51-0.08 0.2-0.04 0.41c0.04 0.2 0.23 0.33 0.41 0.36q0.22 0.03 0.43-0.03 0.12-0.03 0.23-0.07 0.27-0.11 0.55-0.23 0.31-0.15 0.63-0.3 0.36-0.17 0.72-0.36 0.41-0.22 0.79-0.49 0.42-0.29 0.77-0.66 0.13-0.13 0.24-0.28 0 0.26 0.03 0.51 0.01 0.14 0.1 0.25c0.11 0.12 0.27 0.09 0.4 0.04q0.22-0.06 0.44-0.13 0.15-0.04 0.31-0.07-0.01 0-0.02 0 0.02 0 0.03 0 0.02 0 0.04 0-0.02 0-0.03 0 0.09 0 0.17-0.04 0.14-0.09 0.13-0.25-0.01-0.09-0.01-0.18 0-0.14-0.03-0.28 0.01 0.03 0.01 0.07-0.03-0.21-0.06-0.41-0.03-0.23-0.08-0.46-0.07-0.31-0.13-0.61 0.01 0.02 0.01 0.04 0-0.02-0.01-0.04 0-0.01 0-0.02 0 0.01 0 0.02 0-0.14-0.02-0.28 0-0.1-0.07-0.18-0.07-0.07-0.18-0.07-0.1 0-0.17 0.07z"/>
    <path class="s0" d="m36.27 49.79c-0.08 0.09-0.08 0.19-0.08 0.29q0 0.13 0.1 0.21 0 0 0-0.01 0 0.01 0 0.01 0 0 0 0 0 0.01 0.01 0.02 0 0.02 0 0.03 0 0 0-0.01 0.06 0.5 0.09 0.99 0.01 0.37 0.03 0.74c0.01 0.12 0.03 0.25 0.15 0.32 0.13 0.07 0.28 0.03 0.41-0.02q0.28-0.12 0.58-0.17-0.01 0-0.02 0 0.07-0.01 0.13-0.01 0.01 0.01 0.02 0.01 0.09 0.05 0.2 0.03c0.11-0.03 0.2-0.14 0.19-0.26q-0.03-0.24-0.11-0.47-0.09-0.27-0.17-0.53-0.03-0.11-0.05-0.22-0.02-0.08-0.07-0.15c-0.07-0.12-0.22-0.16-0.34-0.09-0.11 0.07-0.16 0.22-0.09 0.34q0.03 0.09 0.05 0.19 0.05 0.17 0.11 0.33 0.05 0.17 0.1 0.33-0.1 0.02-0.2 0.04-0.15 0.04-0.3 0.09-0.05 0.02-0.1 0.04-0.01-0.13-0.01-0.27-0.01-0.43-0.06-0.86-0.02-0.23-0.05-0.46-0.01-0.22-0.1-0.41-0.08-0.14-0.23-0.14-0.11 0-0.19 0.07z"/>
    <path class="s0" d="m37.39 49.5q-0.1 0.01-0.18 0.08-0.07 0.07-0.07 0.17 0 0.1 0.07 0.18 0.08 0.07 0.18 0.07 0.32-0.02 0.65-0.01 0.2 0 0.39 0 0.27 0.01 0.53 0.05-0.03-0.01-0.06-0.01 0.34 0.05 0.67 0.13 0.29 0.07 0.57 0.13 0.52 0.13 1.02 0.33-0.02 0-0.04-0.02 0.43 0.2 0.84 0.45 0.27 0.16 0.52 0.33 0 0 0 0 0 0 0.01 0.01 0.01 0 0.01 0.01 0 0 0 0 0 0 0 0 0 0 0 0 0 0 0 0-0.09 0.06-0.19 0.1-0.13 0.04-0.27 0.07-0.22 0.02-0.44 0-0.26-0.02-0.51-0.05 0.01 0 0.03 0-0.02 0-0.04-0.01 0.01 0 0.01 0-0.67-0.1-1.33-0.21-0.32-0.05-0.62-0.13-0.28-0.09-0.54-0.2 0.03 0.01 0.06 0.02-0.05-0.02-0.1-0.04 0 0 0.01 0-0.01 0-0.02 0-0.01 0-0.01-0.01 0 0 0.01 0.01-0.02-0.01-0.04-0.02 0 0 0.01 0.01-0.27-0.12-0.52-0.27-0.13-0.08-0.27-0.13-0.06-0.01-0.12-0.02-0.05-0.05-0.11-0.07-0.1-0.02-0.19 0.03-0.09 0.05-0.12 0.15-0.02 0.1 0.03 0.19c0.07 0.17 0.27 0.17 0.42 0.22q0.16 0.09 0.31 0.18 0.19 0.1 0.39 0.18-0.03-0.02-0.06-0.03 0.03 0.02 0.07 0.03 0.03 0.02 0.07 0.03 0.27 0.12 0.55 0.21 0.31 0.09 0.63 0.14 0.35 0.06 0.69 0.11 0.35 0.06 0.71 0.11-0.01 0-0.02 0c0.34 0.04 0.68 0.09 1.02 0.07 0.26-0.02 0.55-0.1 0.76-0.25q0.14-0.09 0.24-0.22 0.08-0.13 0.05-0.29-0.04-0.12-0.13-0.2-0.1-0.1-0.22-0.18-0.27-0.19-0.56-0.35-0.82-0.5-1.75-0.74-0.42-0.11-0.84-0.2-0.51-0.12-1.02-0.14-0.32-0.01-0.63-0.01-0.12 0-0.23 0-0.14 0-0.28 0.01z"/>
  </g>
</svg>