<svg viewBox="0 0 41 48" xmlns="http://www.w3.org/2000/svg">
  <style>
    .s0 { fill: #161616 }
  </style>
  <g id="head">
    <path fill-rule="evenodd" class="s0" d="m17.84 3.88q0.06 0 0.12 0 0.19 0 0.38 0.03 0.19 0.02 0.36 0.12 0.14 0.08 0.27 0.18 0.15 0.11 0.29 0.23 0.17 0.16 0.34 0.31 0.24 0.22 0.47 0.44 0.28 0.25 0.57 0.48 0.36 0.3 0.7 0.63 0.45 0.43 0.9 0.86 0.51 0.52 1.04 1.03 0.49 0.48 0.97 0.97 0.5 0.5 0.95 1.03 0.44 0.53 0.81 1.11 0.41 0.64 0.83 1.28 0.4 0.56 0.73 1.16 0.22 0.4 0.36 0.83 0.11 0.42 0.18 0.84 0.06 0.32 0.08 0.64 0.01 0.22-0.07 0.44-0.08 0.15-0.21 0.25-0.13 0.12-0.28 0.2-0.13 0.07-0.26 0.12-0.27 0.1-0.55 0.14-0.15 0.02-0.29 0.01-0.25 0-0.5-0.03-0.37-0.04-0.73-0.16-0.35-0.11-0.61-0.36-0.09-0.1-0.18-0.21-0.02 0.09-0.03 0.18c-0.06 0.28-0.11 0.56-0.22 0.83q-0.09 0.2-0.25 0.33-0.11 0.09-0.25 0.14c-0.21 0.08-0.43 0.06-0.65 0.02q-0.25-0.05-0.49-0.13-0.23-0.06-0.44-0.16-0.35-0.15-0.64-0.39-0.14-0.12-0.25-0.27-0.15-0.19-0.27-0.39-0.01-0.03-0.03-0.05-0.03 0.15-0.06 0.29-0.03 0.16-0.07 0.3-0.03 0.19-0.12 0.36-0.14 0.22-0.35 0.39-0.12 0.1-0.24 0.19-0.08 0.07-0.17 0.14-0.11 0.08-0.23 0.15-0.15 0.07-0.3 0.13-0.11 0.04-0.21 0.07-0.27 0.09-0.56 0.08-0.13-0.01-0.26-0.05-0.22-0.08-0.41-0.21c-0.15-0.1-0.25-0.27-0.34-0.42-0.14-0.23-0.22-0.48-0.3-0.73q-0.06-0.19-0.12-0.38-0.02 0.04-0.04 0.07-0.17 0.32-0.37 0.63-0.07 0.11-0.14 0.21-0.1 0.15-0.22 0.27-0.1 0.09-0.22 0.17-0.19 0.14-0.42 0.21-0.17 0.05-0.35 0.05-0.12 0-0.24-0.01-0.17-0.02-0.35-0.04-0.23-0.02-0.44-0.08-0.15-0.05-0.28-0.1-0.09-0.04-0.18-0.08-0.12-0.04-0.23-0.1-0.18-0.1-0.33-0.24-0.26-0.27-0.35-0.64-0.1-0.32-0.1-0.66 0 0 0 0-0.28 0.26-0.59 0.48-0.4 0.27-0.86 0.45-0.36 0.13-0.75 0.12-0.22 0-0.44-0.04-0.2-0.05-0.37-0.17-0.18-0.12-0.32-0.29-0.11-0.13-0.17-0.29-0.04-0.12-0.06-0.24 0.01 0.03 0.01 0.07-0.04-0.4 0.03-0.8 0 0.01 0 0.02 0.09-0.71 0.34-1.38 0.13-0.32 0.28-0.62 0.16-0.33 0.33-0.65 0.35-0.65 0.75-1.25 0.46-0.68 0.95-1.33 0.43-0.58 0.84-1.18 0.41-0.63 0.86-1.24 0.5-0.67 1.02-1.32 0.22-0.31 0.46-0.6 0.32-0.38 0.64-0.76 0.26-0.31 0.54-0.61 0.12-0.13 0.25-0.26 0.06-0.07 0.12-0.13 0-0.05 0.03-0.11c0.1-0.23 0.31-0.42 0.56-0.48q0.2-0.05 0.4-0.04zm-0.18 0.5q-0.07 0.01-0.13 0.03-0.01 0.01-0.02 0.01 0.01 0.11-0.07 0.2-0.38 0.38-0.73 0.78-0.34 0.37-0.66 0.75-0.29 0.35-0.58 0.71-0.33 0.42-0.66 0.84 0-0.01 0.01-0.01-0.02 0.02-0.03 0.03-0.01 0.01-0.01 0.02 0 0 0 0-0.29 0.39-0.59 0.78-0.3 0.41-0.59 0.84-0.3 0.46-0.62 0.91-0.28 0.39-0.56 0.77-0.33 0.45-0.64 0.9-0.29 0.41-0.55 0.85-0.26 0.43-0.49 0.87-0.21 0.41-0.41 0.84-0.26 0.67-0.37 1.38 0.01-0.02 0.01-0.03 0 0.01 0 0.02 0 0 0-0.01 0 0.03-0.01 0.05 0 0.01 0 0.02 0 0 0-0.01-0.04 0.3-0.03 0.59 0.01 0.07 0.04 0.14 0.03 0.05 0.06 0.1 0.09 0.09 0.19 0.18 0.07 0.05 0.15 0.09 0.08 0.03 0.16 0.05 0.23 0.03 0.46 0.01 0.26-0.05 0.52-0.14 0.41-0.19 0.78-0.47 0.28-0.23 0.55-0.48c0.14-0.13 0.32-0.34 0.53-0.22 0.19 0.12 0.13 0.36 0.13 0.55q-0.02 0.21 0 0.42 0.03 0.24 0.12 0.47 0.05 0.1 0.11 0.19 0.07 0.07 0.14 0.14 0.03 0.03 0.07 0.05 0.1 0.06 0.21 0.11-0.03-0.01-0.06-0.02 0.35 0.16 0.73 0.24 0.24 0.03 0.48 0.05 0.15 0.01 0.3 0 0.13-0.02 0.26-0.08-0.03 0.02-0.06 0.03 0.11-0.05 0.2-0.12 0.11-0.09 0.2-0.18 0.18-0.25 0.34-0.51 0.08-0.13 0.15-0.26 0.12-0.21 0.23-0.43-0.01 0-0.01 0 0.05-0.12 0.1-0.24 0.02-0.08 0.06-0.15c0.04-0.05 0.09-0.12 0.17-0.13q0.06-0.02 0.14 0 0.07 0.02 0.12 0.07 0.05 0.06 0.09 0.15 0.03 0.1 0.05 0.21 0.07 0.31 0.16 0.61 0.1 0.33 0.23 0.65 0.09 0.18 0.21 0.35-0.02-0.02-0.04-0.05 0.03 0.05 0.07 0.08 0.12 0.08 0.24 0.14 0.08 0.03 0.17 0.05 0.1 0.01 0.19 0 0.3-0.07 0.58-0.19 0.17-0.09 0.32-0.21 0 0 0 0 0.26-0.19 0.48-0.42 0.04-0.05 0.07-0.11 0.1-0.33 0.16-0.68 0.05-0.23 0.09-0.46c0.02-0.09 0.03-0.2 0.07-0.28 0.07-0.11 0.19-0.17 0.32-0.14 0.1 0.03 0.16 0.12 0.22 0.2q0.09 0.15 0.17 0.3 0.06 0.11 0.12 0.21 0.1 0.17 0.22 0.32 0.11 0.14 0.25 0.26 0.25 0.17 0.52 0.28 0.21 0.08 0.43 0.14 0.18 0.05 0.36 0.09 0.14 0.02 0.27 0.01 0.04-0.01 0.08-0.02 0.04-0.02 0.08-0.04 0.04-0.04 0.07-0.08 0.04-0.05 0.06-0.1 0.12-0.37 0.19-0.75 0.04-0.23 0.1-0.46c0.03-0.1 0.08-0.21 0.17-0.27q0.16-0.08 0.31 0.01 0.12 0.09 0.2 0.22 0.04 0.05 0.08 0.1-0.01 0-0.01-0.01 0.12 0.16 0.27 0.29 0.14 0.1 0.29 0.16-0.03-0.01-0.06-0.02 0.32 0.12 0.67 0.17 0 0 0 0 0.24 0.03 0.48 0.03 0.16 0.01 0.32-0.01 0.26-0.06 0.51-0.16 0.09-0.05 0.18-0.11-0.01 0.01-0.02 0.02 0.01-0.01 0.02-0.02 0.01-0.01 0.03-0.02-0.02 0.01-0.03 0.02 0.08-0.06 0.14-0.13 0.01-0.02 0.02-0.03 0.01-0.05 0.02-0.1 0.01-0.16-0.01-0.32 0 0.01 0 0.01 0 0 0-0.01-0.01-0.03-0.01-0.05 0 0.01 0 0.02-0.05-0.38-0.13-0.75-0.07-0.34-0.19-0.65-0.18-0.4-0.4-0.77-0.16-0.27-0.33-0.52-0.18-0.25-0.34-0.5-0.35-0.54-0.7-1.08-0.3-0.44-0.62-0.86-0.17-0.21-0.35-0.42-0.49-0.53-0.99-1.04-0.49-0.49-1-0.97-0.5-0.52-1.02-1.03-0.41-0.39-0.83-0.78-0.32-0.29-0.65-0.56-0.3-0.25-0.58-0.51-0.19-0.18-0.39-0.36-0.19-0.18-0.4-0.35-0.17-0.14-0.36-0.24 0.01 0.01 0.02 0.01-0.01-0.01-0.03-0.01-0.02-0.01-0.03-0.02 0.01 0.01 0.02 0.02-0.07-0.03-0.14-0.04 0 0 0 0-0.01 0-0.01 0 0 0 0 0 0 0 0 0-0.01 0-0.01 0 0 0 0.01 0-0.16-0.01-0.33-0.01-0.12-0.01-0.23 0zm0.54 13.51q0 0 0 0 0 0 0 0z"/>
    <path fill-rule="evenodd" class="s0" d="m15.92 9.21q0.01 0 0.02 0 0.24 0.01 0.48 0.06 0.24 0.07 0.45 0.2c0.16 0.09 0.33 0.17 0.44 0.33q0.12 0.2 0.11 0.43 0 0.24-0.12 0.46-0.15 0.24-0.4 0.38-0.26 0.16-0.55 0.25-0.18 0.06-0.38 0.08 0 0 0.01 0-0.39 0.05-0.79 0.02-0.4-0.02-0.78-0.17 0.03 0.01 0.05 0.02-0.21-0.07-0.36-0.23-0.17-0.2-0.16-0.45 0-0.23 0.11-0.43 0.12-0.18 0.28-0.32 0.16-0.16 0.34-0.28 0.18-0.13 0.38-0.22 0.19-0.09 0.39-0.11 0.16 0 0.31 0.03 0.01 0 0.02 0.01 0.07-0.06 0.15-0.06zm-1.45 2.07q-0.01 0-0.01-0.01 0 0.01 0.01 0.01zm1.22-1.53q-0.04 0-0.07 0-0.04-0.01-0.08-0.02-0.04 0-0.08 0-0.08 0.02-0.14 0.04-0.27 0.12-0.5 0.3-0.16 0.12-0.28 0.27-0.04 0.05-0.07 0.1-0.02 0.05-0.03 0.11 0 0.04 0 0.09 0 0.01 0.01 0.03 0.01 0.01 0.02 0.03 0.02 0.02 0.04 0.04 0.05 0.03 0.11 0.06 0 0 0.01 0.01 0.2 0.07 0.42 0.1-0.04-0.01-0.07-0.01 0.46 0.06 0.93 0.01 0 0-0.01 0-0.02 0-0.04 0 0.02 0 0.04 0 0 0 0 0 0 0 0 0 0 0 0 0 0 0 0 0 0 0 0 0 0 0 0 0 0 0 0 0 0.01 0 0.01 0 0.01 0 0.02 0 0 0 0 0 0.02-0.01 0.03-0.01-0.02 0-0.04 0.01 0.26-0.04 0.5-0.14 0.19-0.1 0.35-0.22 0.05-0.04 0.09-0.08 0.01-0.02 0.02-0.04 0.02-0.06 0.03-0.12 0 0.02 0 0.04 0-0.02 0-0.04 0-0.02 0.01-0.03-0.01 0.01-0.01 0.02 0.01-0.07 0.01-0.14-0.01-0.03-0.02-0.06-0.01-0.02-0.02-0.04-0.01-0.01-0.03-0.03-0.13-0.08-0.26-0.15-0.08-0.04-0.16-0.08 0 0 0.01 0-0.14-0.05-0.28-0.07 0.01 0 0.01 0 0 0-0.01 0-0.01-0.01-0.02-0.01 0.01 0 0.01 0-0.1 0-0.21-0.01-0.05-0.01-0.09-0.02-0.02 0.02-0.04 0.03-0.06 0.03-0.12 0.03zm0.23 1.16q0 0 0.01 0-0.01 0-0.01 0zm-0.02 0q0 0 0 0 0 0 0 0z"/>
    <path fill-rule="evenodd" class="s0" d="m20.97 8.74q0.11 0 0.22 0.03 0.19 0.04 0.37 0.12c0.34 0.12 0.76 0.31 0.78 0.72 0.01 0.13-0.04 0.27-0.1 0.37q-0.08 0.12-0.18 0.23-0.08 0.11-0.19 0.21c-0.26 0.24-0.61 0.37-0.96 0.41q-0.25 0.03-0.5 0.02-0.23 0.01-0.46-0.01-0.32-0.02-0.61-0.14c-0.21-0.1-0.35-0.3-0.37-0.53-0.01-0.2 0.07-0.4 0.19-0.56q0.2-0.28 0.49-0.47 0.28-0.19 0.61-0.27 0.12-0.03 0.24-0.04 0.04 0 0.08 0 0.03-0.01 0.05-0.02-0.01 0.01-0.01 0.01 0.17-0.08 0.35-0.08zm-0.03 0.5q-0.01 0.02-0.03 0.04-0.08 0.07-0.18 0.07-0.11-0.02-0.22-0.02-0.16 0.03-0.32 0.09-0.19 0.08-0.35 0.2 0.01-0.01 0.03-0.03-0.16 0.12-0.29 0.28-0.05 0.07-0.09 0.15-0.01 0.05-0.02 0.09 0 0.02 0 0.04 0 0.01 0.01 0.03 0.01 0.01 0.01 0.02 0.01 0.01 0.03 0.02 0.02 0.02 0.05 0.03 0.14 0.06 0.3 0.08-0.01 0-0.02 0 0.01 0 0.03 0 0 0 0 0 0 0 0 0 0.23 0.03 0.46 0.02 0.26 0.01 0.51-0.01 0.2-0.03 0.38-0.1 0.12-0.05 0.23-0.13 0.16-0.13 0.29-0.3 0.05-0.07 0.09-0.14 0-0.02 0-0.04 0 0 0 0 0-0.02-0.01-0.03-0.03-0.04-0.07-0.07-0.09-0.06-0.18-0.1-0.14-0.06-0.29-0.11-0.13-0.05-0.26-0.08-0.05 0-0.09 0z"/>
    <path fill-rule="evenodd" class="s0" d="m20.59 8.94q0.09 0.01 0.17 0.06 0 0.01 0.01 0.01c0.18 0.05 0.31 0.19 0.41 0.34 0.09 0.16 0.13 0.36 0.07 0.54q-0.04 0.11-0.11 0.21-0.07 0.1-0.17 0.18c-0.13 0.11-0.26 0.22-0.43 0.24-0.16 0.02-0.33-0.08-0.41-0.22q-0.09-0.19-0.06-0.4 0.03-0.23 0.1-0.44 0.04-0.13 0.11-0.26 0.06-0.09 0.14-0.18 0.07-0.08 0.17-0.08zm-0.02 1.02q0 0 0 0 0 0.01 0 0.02 0.08-0.07 0.16-0.16 0.02-0.03 0.04-0.07 0-0.02 0.01-0.03 0-0.02 0-0.03-0.01-0.02-0.01-0.03-0.03-0.05-0.06-0.1-0.02-0.02-0.03-0.04-0.08 0.22-0.11 0.44z"/>
    <path fill-rule="evenodd" class="s0" d="m15.68 9.49q0.06 0 0.12 0.03 0.07 0.04 0.1 0.11 0.02 0.01 0.04 0.01 0.09 0.03 0.15 0.11c0.22 0.31 0.2 0.75-0.04 1.04q-0.09 0.1-0.2 0.18-0.12 0.08-0.25 0.1-0.11 0.03-0.23 0.01-0.13 0-0.24-0.06-0.12-0.09-0.17-0.22-0.03-0.11-0.03-0.22 0.01-0.27 0.12-0.51 0.09-0.19 0.23-0.35 0.07-0.09 0.16-0.16 0.08-0.05 0.17-0.06 0.03-0.01 0.07-0.01zm-0.05 0.58q-0.07 0.1-0.13 0.21-0.05 0.13-0.07 0.28 0-0.03 0.01-0.06-0.01 0.04-0.01 0.09 0.03 0 0.06 0 0.02-0.01 0.03-0.01 0.05-0.02 0.08-0.05 0.04-0.04 0.08-0.07 0.02-0.04 0.04-0.07 0.02-0.06 0.03-0.11 0-0.04 0-0.07-0.01-0.05-0.03-0.1-0.02-0.04-0.05-0.09-0.02 0.03-0.04 0.05z"/>
    <path fill-rule="evenodd" class="s0" d="m18.3 10.12q0.11 0.01 0.18 0.07 0.1 0.09 0.17 0.2 0.1 0.15 0.18 0.31 0.1 0.23 0.2 0.47 0.03 0.08 0.07 0.16 0.05 0.09 0.09 0.18c0.04 0.12-0.03 0.23-0.12 0.3q-0.07 0.04-0.16 0.04-0.33 0.02-0.65 0.05-0.38 0.02-0.76-0.03c-0.12-0.02-0.27-0.05-0.33-0.17q-0.07-0.14 0-0.27 0.03-0.05 0.08-0.08 0 0 0 0 0 0 0.01-0.01 0.02-0.01 0.04-0.03-0.02 0.01-0.04 0.03 0.04-0.04 0.08-0.07 0.09-0.14 0.16-0.29 0.18-0.32 0.37-0.63 0.08-0.12 0.23-0.12 0.01-0.02 0.03-0.04 0.07-0.07 0.17-0.07zm-0.46 1.28q0.24 0.01 0.47-0.01 0.13-0.01 0.26-0.02-0.06-0.16-0.13-0.32 0.01 0.01 0.01 0.03-0.08-0.2-0.2-0.39-0.14 0.23-0.28 0.47-0.06 0.11-0.12 0.22 0 0.01-0.01 0.02z"/>
    <path class="s0" d="m24.21 11.54q-0.09 0.05-0.12 0.15-0.02 0.1 0.03 0.19 0.05 0.08 0.14 0.11 0.01 0.18 0 0.36-0.02 0.11-0.05 0.21-0.02 0.05-0.05 0.1-0.02 0.02-0.03 0.03-0.01 0.01-0.02 0.01 0 0-0.01 0.01-0.02 0-0.04-0.01-0.06-0.01-0.12-0.03-0.11-0.05-0.2-0.12-0.08-0.06-0.14-0.14-0.01 0-0.01-0.01-0.09-0.14-0.16-0.3 0.02 0.04 0.03 0.07c-0.04-0.09-0.06-0.18-0.12-0.24q-0.14-0.12-0.3-0.04-0.12 0.07-0.13 0.2-0.02 0.09-0.04 0.18-0.06 0.27-0.16 0.54 0.01-0.03 0.03-0.06-0.06 0.12-0.12 0.23-0.03 0.03-0.06 0.05-0.01 0.02-0.03 0.03-0.09 0.06-0.19 0.11-0.04 0-0.08-0.01-0.09-0.01-0.17-0.04-0.08-0.04-0.16-0.09-0.07-0.06-0.12-0.12-0.08-0.1-0.13-0.22-0.03-0.08-0.05-0.18-0.01-0.03-0.02-0.07c-0.02-0.11-0.13-0.18-0.24-0.18-0.1 0-0.21 0.07-0.24 0.18q-0.01 0.06 0 0.13 0 0.12-0.02 0.24-0.01 0.07-0.04 0.13-0.03 0.09-0.08 0.16-0.05 0.06-0.11 0.11 0.01-0.01 0.02-0.01-0.01 0.01-0.02 0.01-0.01 0.01-0.02 0.01 0.01 0 0.01 0 0 0-0.01 0 0 0.01-0.01 0.02 0-0.01 0.01-0.01-0.01 0-0.01 0 0 0 0.01 0 0.01-0.01 0.01-0.02-0.01 0.01-0.03 0.02-0.04 0.02-0.09 0.03-0.07 0-0.14 0-0.1-0.02-0.2-0.05-0.09-0.05-0.17-0.1-0.05-0.05-0.1-0.11-0.05-0.08-0.09-0.16c-0.05-0.12-0.09-0.26-0.21-0.33-0.09-0.06-0.22-0.04-0.3 0.04q-0.09 0.1-0.09 0.24 0.01-0.01 0.01-0.02 0 0.01-0.01 0.02 0 0.02 0 0.05 0-0.02 0-0.05-0.04 0.29-0.14 0.56-0.07 0.14-0.15 0.27-0.03 0.03-0.06 0.06 0 0 0 0-0.01 0-0.01 0-0.04-0.02-0.08-0.05-0.09-0.09-0.18-0.19-0.06-0.09-0.11-0.19-0.07-0.21-0.1-0.43 0 0.01 0 0.03 0-0.05-0.01-0.09-0.02-0.08-0.07-0.13c-0.06-0.07-0.16-0.09-0.24-0.07q-0.13 0.05-0.17 0.18-0.02 0.05-0.03 0.1-0.02 0.08-0.05 0.15-0.08 0.15-0.18 0.29-0.07 0.08-0.15 0.15-0.06 0.05-0.13 0.08-0.03 0.01-0.06 0.02-0.04 0-0.08 0-0.07-0.01-0.13-0.03-0.06-0.03-0.11-0.07-0.05-0.04-0.09-0.08-0.06-0.1-0.11-0.22-0.07-0.2-0.15-0.4c-0.07-0.15-0.29-0.16-0.39-0.05q-0.06 0.07-0.09 0.17-0.02 0.08-0.05 0.16-0.06 0.15-0.12 0.3 0.01-0.02 0.02-0.03-0.11 0.26-0.27 0.49-0.04 0.05-0.09 0.1-0.02 0.01-0.05 0.03-0.01 0-0.02 0 0 0-0.01 0-0.03 0-0.07-0.02-0.02-0.01-0.05-0.03-0.05-0.04-0.09-0.1-0.1-0.14-0.16-0.3-0.08-0.22-0.12-0.45-0.01-0.17-0.15-0.28-0.09-0.06-0.2-0.03-0.1 0.03-0.16 0.12-0.05 0.07-0.08 0.15-0.05 0.08-0.09 0.17-0.1 0.21-0.24 0.4-0.02 0.02-0.04 0.05-0.1-0.03-0.21-0.06-0.05-0.03-0.1-0.06-0.02-0.03-0.05-0.06-0.1-0.16-0.18-0.34 0.01 0.03 0.02 0.06-0.05-0.13-0.09-0.27c-0.04-0.13-0.17-0.21-0.3-0.17-0.13 0.03-0.22 0.17-0.18 0.3q0.05 0.18 0.12 0.33 0.08 0.22 0.22 0.4 0.06 0.09 0.14 0.15 0.09 0.07 0.18 0.11 0.17 0.07 0.34 0.1 0.24 0.06 0.41-0.1 0.1-0.1 0.18-0.21 0.05-0.08 0.1-0.16 0.06 0.15 0.14 0.3c0.15 0.29 0.46 0.56 0.81 0.49 0.23-0.04 0.39-0.2 0.51-0.38q0.15-0.21 0.24-0.45 0.01-0.01 0.01-0.02 0.04 0.06 0.09 0.13 0.17 0.21 0.42 0.3 0.23 0.09 0.48 0.04c0.28-0.06 0.5-0.25 0.67-0.48q0.02 0.04 0.04 0.08c0.12 0.21 0.3 0.42 0.53 0.52q0.12 0.05 0.26 0.05 0.17-0.02 0.3-0.13 0.23-0.23 0.34-0.54 0.02-0.06 0.04-0.11 0.04 0.04 0.08 0.07c0.21 0.19 0.5 0.29 0.78 0.29q0.15 0.01 0.28-0.04 0.19-0.07 0.33-0.2 0.08-0.08 0.13-0.17 0.03-0.04 0.05-0.07 0.25 0.27 0.61 0.36 0.14 0.03 0.28 0.03 0.09-0.01 0.18-0.05 0.12-0.05 0.24-0.13 0.06-0.05 0.13-0.1 0.14-0.13 0.22-0.29 0.06-0.13 0.1-0.26 0.01-0.03 0.02-0.07 0.09 0.1 0.2 0.19 0.11 0.09 0.25 0.15 0.15 0.07 0.32 0.09 0.24 0.03 0.44-0.13c0.19-0.17 0.28-0.43 0.3-0.69q0.02-0.26-0.02-0.52-0.02-0.16-0.13-0.28-0.1-0.09-0.23-0.1-0.09 0-0.17 0.06z"/>
    <path class="s0" d="m26.79 16.91c-0.11 0.06-0.15 0.22-0.09 0.34q0.1 0.14 0.22 0.26 0.11 0.11 0.22 0.22 0.13 0.12 0.26 0.23 0.18 0.18 0.34 0.39-0.01-0.01-0.02-0.02 0.2 0.25 0.37 0.52 0.2 0.33 0.39 0.66 0.22 0.38 0.43 0.76 0.21 0.36 0.37 0.74 0-0.01-0.01-0.01 0.28 0.67 0.55 1.34c0.2 0.49 0.41 0.97 0.55 1.48q0.05 0.18 0.1 0.36 0.05 0.23 0.1 0.46 0.06 0.36 0.13 0.72 0.16 0.78 0.28 1.56 0.04 0.3 0.04 0.6 0 0.33-0.02 0.66-0.05 0.64-0.12 1.28 0-0.01 0-0.02 0 0.01 0 0.02-0.01 0.03-0.01 0.05 0-0.01 0-0.03 0 0.04-0.01 0.07 0.01-0.01 0.01-0.02 0 0.02-0.01 0.04 0 0.01 0 0.03 0-0.01 0-0.01-0.01 0.1-0.03 0.19 0.01-0.03 0.01-0.06-0.01 0.09-0.02 0.17 0-0.01 0-0.02-0.03 0.25-0.09 0.49-0.03 0.13-0.07 0.26-0.05 0.22-0.12 0.43-0.05 0.11-0.12 0.22-0.04 0.04-0.09 0.08-0.02 0.02-0.05 0.03-0.05 0.02-0.1 0.03-0.32 0.01-0.64-0.04 0.03 0.01 0.07 0.01-0.24-0.03-0.46-0.1-0.22-0.11-0.42-0.27-0.04-0.04-0.09-0.08-0.27-0.39-0.47-0.81 0.01 0.03 0.03 0.06-0.07-0.14-0.11-0.3-0.04-0.12-0.07-0.25-0.05-0.22-0.1-0.44 0-0.04 0-0.08-0.01-0.18-0.18-0.24-0.11-0.03-0.19 0.02-0.09 0.05-0.12 0.15 0 0.04-0.01 0.07 0 0 0 0 0 0.01 0 0.02 0 0.04 0.01 0.08 0 0.16-0.02 0.33-0.06 0.33-0.13 0.65-0.11 0.55-0.32 1.07-0.05 0.09-0.11 0.18-0.01 0.01-0.03 0.03-0.06 0.08-0.14 0.14-0.12 0.08-0.24 0.15-0.09 0.05-0.19 0.09-0.04 0.01-0.09 0.03-0.06 0-0.11 0.01 0.03 0 0.06 0.01-0.12-0.02-0.23-0.05-0.06-0.02-0.12-0.05 0.03 0.02 0.06 0.03-0.08-0.04-0.14-0.09-0.13-0.11-0.24-0.24-0.11-0.15-0.22-0.3-0.12-0.16-0.22-0.33-0.08-0.14-0.16-0.28-0.12-0.21-0.23-0.41-0.17-0.32-0.39-0.61c-0.12-0.15-0.29-0.31-0.5-0.24-0.16 0.05-0.22 0.21-0.25 0.37q-0.03 0.2-0.06 0.41-0.06 0.34-0.13 0.67-0.05 0.23-0.09 0.46-0.04 0.16-0.08 0.33-0.07 0.29-0.18 0.57-0.03 0.07-0.06 0.14-0.05 0.09-0.1 0.17 0 0 0 0-0.06 0.06-0.12 0.11-0.09 0.07-0.19 0.12-0.05 0.01-0.1 0.02-0.06 0.01-0.11 0.01-0.09-0.02-0.18-0.05-0.08-0.04-0.14-0.08-0.14-0.12-0.26-0.27 0 0 0 0.01-0.12-0.16-0.21-0.33-0.15-0.26-0.25-0.53-0.03-0.07-0.05-0.13-0.02-0.08-0.03-0.17-0.02-0.07-0.04-0.15-0.04-0.23-0.07-0.45-0.07-0.38-0.12-0.75-0.02-0.12-0.04-0.24-0.02-0.15-0.11-0.26c-0.08-0.08-0.21-0.1-0.32-0.04q-0.11 0.08-0.16 0.23-0.05 0.17-0.09 0.34-0.08 0.32-0.16 0.64-0.09 0.37-0.2 0.73-0.09 0.3-0.21 0.6 0.01-0.03 0.02-0.06-0.24 0.53-0.57 1 0-0.01 0.01-0.02-0.06 0.08-0.12 0.14-0.03 0.02-0.06 0.05-0.11 0.07-0.22 0.13-0.1 0.04-0.2 0.06-0.1 0.01-0.19 0-0.14-0.02-0.27-0.07-0.08-0.03-0.15-0.08-0.3-0.26-0.55-0.59-0.06-0.11-0.12-0.24 0.01 0.03 0.02 0.06-0.2-0.49-0.3-1.01-0.05-0.46-0.09-0.93-0.01-0.19-0.02-0.39c-0.02-0.23-0.03-0.47-0.1-0.69q-0.02-0.07-0.07-0.11-0.07-0.08-0.18-0.08-0.07 0.01-0.14 0.04-0.06 0.04-0.1 0.11-0.06 0.1-0.1 0.21-0.08 0.24-0.15 0.48-0.21 0.7-0.47 1.39 0.01-0.02 0.02-0.03-0.07 0.15-0.14 0.3-0.1 0.18-0.21 0.34-0.06 0.07-0.12 0.14-0.19 0.22-0.42 0.39-0.05 0.04-0.1 0.07-0.11 0.04-0.24 0.06-0.11 0.01-0.22 0 0.02 0 0.04 0.01-0.02 0-0.04-0.01-0.01 0-0.03 0 0.02 0 0.03 0-0.13-0.02-0.25-0.06-0.08-0.04-0.16-0.09-0.03-0.03-0.07-0.07-0.03-0.04-0.05-0.09-0.07-0.17-0.11-0.35-0.07-0.25-0.1-0.5-0.04-0.39-0.01-0.77 0.05-0.48 0.11-0.96 0 0.01 0 0.03 0.04-0.29 0.09-0.57 0.02-0.16 0.04-0.31 0.02-0.12-0.01-0.23c-0.03-0.11-0.13-0.18-0.24-0.19-0.12 0-0.21 0.09-0.26 0.2q-0.06 0.12-0.11 0.25 0.02-0.03 0.03-0.06-0.25 0.59-0.55 1.14-0.17 0.34-0.35 0.67-0.26 0.48-0.57 0.94-0.13 0.17-0.28 0.33-0.29 0.34-0.63 0.63-0.06 0.04-0.13 0.07-0.01 0.01-0.02 0.01-0.11 0.05-0.23 0.07-0.08 0-0.17 0-0.09-0.02-0.19-0.04-0.08-0.04-0.15-0.09-0.06-0.05-0.11-0.11-0.09-0.14-0.15-0.28-0.04-0.11-0.07-0.21-0.1-0.31-0.15-0.63 0.01 0.03 0.01 0.07-0.06-0.57-0.09-1.13-0.01-0.24 0.01-0.49 0.01-0.34 0.02-0.68 0.03-0.57 0.09-1.14 0.05-0.58 0.12-1.17 0.07-0.57 0.16-1.14 0.11-0.63 0.23-1.25 0.09-0.52 0.21-1.02 0.13-0.65 0.27-1.29 0.11-0.51 0.24-1.03 0.07-0.28 0.16-0.55 0.09-0.32 0.19-0.63 0.18-0.58 0.34-1.16 0.17-0.54 0.36-1.08c0.04-0.13-0.05-0.27-0.18-0.31-0.13-0.03-0.26 0.05-0.3 0.18q-0.13 0.37-0.25 0.73-0.11 0.35-0.21 0.69-0.24 0.8-0.48 1.59-0.06 0.2-0.11 0.41-0.03 0.14-0.07 0.28-0.09 0.4-0.18 0.81-0.17 0.75-0.33 1.52-0.08 0.38-0.15 0.76-0.09 0.42-0.16 0.84-0.14 0.81-0.23 1.62-0.05 0.38-0.09 0.75-0.05 0.4-0.07 0.8-0.06 0.8-0.09 1.61-0.01 0.68 0.08 1.36 0.02 0.24 0.08 0.49 0.04 0.16 0.09 0.32 0.05 0.2 0.14 0.39 0.13 0.29 0.38 0.48 0.1 0.08 0.22 0.13 0.11 0.05 0.23 0.07 0.11 0.02 0.22 0.03 0.19 0.01 0.36-0.04 0.13-0.04 0.24-0.09 0.26-0.13 0.46-0.34 0.2-0.19 0.38-0.39 0.12-0.13 0.23-0.27 0.17-0.2 0.32-0.42 0.13-0.21 0.25-0.42 0.17-0.31 0.33-0.62 0.11-0.2 0.22-0.41c-0.04 0.41-0.09 0.82-0.04 1.23q0.03 0.33 0.12 0.65c0.05 0.21 0.11 0.42 0.23 0.59 0.15 0.22 0.4 0.35 0.66 0.4q0.17 0.05 0.35 0.05 0.2 0 0.39-0.06 0.21-0.05 0.37-0.19 0.28-0.23 0.52-0.51 0.11-0.13 0.21-0.27 0.08-0.12 0.15-0.26 0.15-0.3 0.25-0.62 0.12-0.32 0.22-0.64 0.02-0.07 0.04-0.15 0.03 0.39 0.06 0.77 0.06 0.44 0.19 0.86 0.09 0.28 0.22 0.55c0.1 0.22 0.28 0.41 0.45 0.59q0.16 0.19 0.37 0.34 0.21 0.13 0.45 0.18 0.16 0.04 0.33 0.04 0.14-0.01 0.28-0.05 0.23-0.06 0.43-0.2 0.1-0.07 0.19-0.15 0.11-0.1 0.19-0.22 0.14-0.19 0.26-0.4 0.31-0.51 0.5-1.08 0.16-0.47 0.26-0.94 0.04 0.2 0.07 0.4 0.03 0.16 0.06 0.32 0.02 0.08 0.04 0.16 0.04 0.13 0.1 0.26 0.09 0.23 0.2 0.45 0.09 0.17 0.21 0.33 0.11 0.16 0.24 0.3 0.12 0.13 0.27 0.23 0.13 0.08 0.28 0.13 0.12 0.04 0.24 0.05 0.17 0 0.33-0.03 0.06-0.02 0.12-0.05 0.11-0.05 0.2-0.11 0.17-0.1 0.29-0.27 0.08-0.1 0.14-0.22 0.09-0.18 0.16-0.37 0.13-0.38 0.2-0.77 0.13-0.55 0.22-1.11 0.02-0.13 0.05-0.27 0.16 0.26 0.31 0.54 0.09 0.17 0.19 0.34 0.07 0.11 0.14 0.23 0.07 0.12 0.14 0.23 0.1 0.15 0.22 0.29 0.14 0.19 0.29 0.37 0.28 0.28 0.67 0.36 0.04 0 0.09 0.01 0.11 0.02 0.24-0.01 0.19-0.03 0.37-0.12 0.18-0.1 0.35-0.22 0.17-0.12 0.3-0.29c0.18-0.21 0.26-0.49 0.35-0.75q0.09-0.3 0.15-0.6 0.03 0.06 0.06 0.12 0.1 0.18 0.2 0.35 0.06 0.1 0.12 0.19 0.03 0.05 0.06 0.09 0.03 0.04 0.06 0.08 0.06 0.09 0.14 0.15 0.09 0.07 0.18 0.13 0.05 0.04 0.1 0.08 0.09 0.06 0.18 0.11 0.14 0.07 0.3 0.11 0.3 0.07 0.62 0.09 0.25 0.04 0.51 0.01 0.31-0.05 0.52-0.3c0.16-0.19 0.25-0.44 0.31-0.68q0.07-0.27 0.13-0.54 0.06-0.25 0.09-0.51 0 0.01 0 0.02 0.01-0.1 0.03-0.2-0.01 0.03-0.01 0.07 0.01-0.09 0.02-0.18 0 0.01 0 0.02 0.1-0.76 0.14-1.52 0.03-0.33 0.02-0.67 0-0.18-0.02-0.35-0.03-0.23-0.06-0.44-0.05-0.33-0.12-0.65-0.08-0.45-0.17-0.89-0.05-0.33-0.12-0.66-0.08-0.41-0.2-0.82-0.04-0.14-0.1-0.28-0.05-0.17-0.11-0.32-0.16-0.4-0.32-0.79-0.27-0.68-0.54-1.35-0.14-0.32-0.3-0.63-0.19-0.36-0.4-0.71-0.17-0.3-0.34-0.59-0.15-0.28-0.32-0.53-0.23-0.32-0.48-0.62-0.14-0.15-0.3-0.29-0.26-0.23-0.48-0.49 0 0 0 0-0.08-0.13-0.22-0.13-0.07 0-0.13 0.04z"/>
  </g>
  <g id="body">
    <path class="s0" d="m21.66 20.11q-0.09 0.1-0.17 0.2-0.08 0.11-0.14 0.23-0.11 0.25-0.16 0.53-0.06 0.24-0.06 0.49 0.01 0.2 0.09 0.38 0.05 0.09 0.11 0.16 0.07 0.11 0.17 0.19 0.27 0.16 0.58 0.21 0.1 0.01 0.2 0.01 0.15-0.02 0.3-0.07 0.15-0.05 0.31-0.11 0.26-0.11 0.49-0.27 0.1-0.06 0.19-0.12 0 0.02-0.01 0.05-0.03 0.22 0.01 0.44 0.06 0.3 0.28 0.51 0.08 0.06 0.17 0.12 0.22 0.14 0.48 0.16 0.24 0.03 0.47-0.03 0.17-0.05 0.32-0.16 0.11-0.07 0.2-0.15 0 0.05 0 0.11 0.01 0.1 0.03 0.2 0.01 0.03 0.02 0.06 0.05 0.13 0.14 0.23 0.2 0.24 0.47 0.41 0.11 0.07 0.24 0.11 0.05 0.01 0.1 0.03 0.08 0.01 0.16 0.02 0.11 0.01 0.22 0.01 0.07 0 0.15 0 0.09-0.01 0.18-0.03 0.21-0.05 0.4-0.15 0.29-0.16 0.53-0.38 0.15-0.13 0.27-0.28 0.11-0.12 0.18-0.26 0.06-0.09 0.03-0.2-0.03-0.09-0.12-0.14c-0.1-0.07-0.28-0.04-0.34 0.09q-0.03 0.06-0.07 0.12-0.19 0.23-0.42 0.41 0.01 0 0.01 0-0.21 0.16-0.46 0.27-0.07 0.03-0.15 0.04 0.02 0 0.04 0-0.12 0.02-0.23 0.01-0.14 0-0.28-0.02 0.02 0 0.03 0-0.07-0.01-0.13-0.03-0.09-0.05-0.17-0.11 0 0.01 0.01 0.01-0.01-0.01-0.02-0.01-0.02-0.02-0.03-0.03 0.01 0.01 0.02 0.02-0.12-0.1-0.23-0.22 0.01 0.02 0.03 0.04-0.06-0.07-0.1-0.16-0.02-0.2 0.01-0.41 0.03-0.16 0.08-0.32 0.02-0.06 0.04-0.12 0-0.02 0-0.04 0.02-0.07 0-0.14c0-0.06-0.06-0.12-0.11-0.15q-0.13-0.07-0.25 0-0.05 0.03-0.08 0.07-0.05 0.05-0.1 0.11-0.07 0.07-0.13 0.14-0.18 0.21-0.38 0.38-0.11 0.08-0.23 0.13-0.05 0.02-0.1 0.03-0.09 0-0.19 0 0.04 0.01 0.07 0.01-0.06-0.01-0.11-0.01-0.08-0.02-0.16-0.05-0.07-0.03-0.13-0.08-0.05-0.04-0.1-0.1-0.03-0.04-0.05-0.09-0.02-0.05-0.03-0.1-0.01-0.15 0.01-0.31 0.02-0.12 0.05-0.24 0.01-0.07 0.03-0.14c0.01-0.05 0.05-0.14 0.04-0.2q0-0.07-0.03-0.13-0.05-0.08-0.15-0.12c-0.11-0.02-0.19 0.02-0.28 0.08q-0.1 0.06-0.19 0.12-0.13 0.08-0.25 0.16-0.27 0.19-0.56 0.33-0.22 0.08-0.43 0.15-0.06 0-0.12 0-0.16-0.03-0.3-0.09-0.05-0.03-0.09-0.05-0.02-0.02-0.04-0.05-0.04-0.05-0.08-0.12-0.01-0.05-0.02-0.11-0.01-0.13 0.01-0.26 0.04-0.29 0.15-0.57-0.01 0.02-0.01 0.04 0.04-0.11 0.11-0.21 0.06-0.06 0.11-0.13c0.09-0.1 0.1-0.25 0-0.35q-0.08-0.07-0.18-0.07-0.1 0-0.17 0.07z"/>
  </g>
  <g id="right-arm">
    <path class="s0" d="m29.6 31.55q-0.09 0.05-0.11 0.15-0.02 0.08 0 0.17 0.01 0.06 0.05 0.11 0.04 0.06 0.08 0.14 0.02 0.06 0.03 0.12 0.01 0.15 0.02 0.29 0.03 0.36 0.05 0.71 0.03 0.4 0.07 0.8 0.02 0.37 0.01 0.73 0 0.47 0.01 0.94 0.01 0.43 0.01 0.86 0 0.43-0.04 0.86-0.01 0.22-0.04 0.43-0.02 0.23-0.06 0.45 0.01-0.03 0.01-0.05-0.06 0.46-0.15 0.91-0.07 0.4-0.22 0.78-0.11 0.22-0.22 0.44-0.12 0.23-0.27 0.43-0.16 0.2-0.34 0.35-0.14 0.1-0.3 0.18-0.17 0.06-0.35 0.09-0.18 0.01-0.36 0-0.14-0.02-0.27-0.07-0.11-0.06-0.21-0.13-0.17-0.14-0.3-0.32-0.16-0.21-0.27-0.44-0.12-0.32-0.19-0.65-0.09-0.37-0.14-0.73 0 0 0 0.01 0-0.01 0-0.01 0-0.03-0.01-0.05 0.01 0.02 0.01 0.04-0.01-0.11-0.02-0.22 0-0.07-0.02-0.14-0.03-0.09-0.12-0.15c-0.09-0.06-0.22-0.03-0.3 0.04q-0.06 0.07-0.09 0.16-0.04 0.09-0.07 0.18-0.06 0.18-0.12 0.36c-0.14 0.42-0.24 0.85-0.39 1.27q-0.04 0.09-0.07 0.17-0.13 0.27-0.29 0.5-0.03 0.03-0.05 0.05-0.08 0.05-0.16 0.1-0.07 0.04-0.15 0.08-0.05 0.01-0.1 0.03 0.04 0 0.07-0.01-0.06 0.02-0.13 0.02-0.07-0.02-0.15-0.05-0.05-0.03-0.1-0.06-0.07-0.06-0.13-0.14-0.15-0.21-0.26-0.44-0.06-0.2-0.11-0.41-0.07-0.33-0.11-0.66-0.02-0.26-0.02-0.53 0.01-0.1 0.01-0.19c0.01-0.11-0.08-0.21-0.18-0.25q-0.1-0.02-0.19 0.03-0.09 0.06-0.12 0.15-0.07 0.22-0.13 0.44-0.14 0.49-0.33 0.97-0.09 0.22-0.21 0.43-0.14 0.22-0.3 0.43 0.01-0.01 0.01-0.02-0.01 0.02-0.02 0.03-0.01 0.01-0.02 0.02 0 0 0.01 0-0.06 0.07-0.13 0.15-0.1 0.09-0.21 0.18-0.16 0.12-0.34 0.22-0.02 0-0.04 0.01-0.06 0-0.12 0-0.04-0.01-0.08-0.02-0.04-0.03-0.08-0.05-0.08-0.07-0.15-0.15-0.07-0.1-0.12-0.21 0.01 0.03 0.02 0.06c-0.14-0.34-0.22-0.71-0.3-1.07q-0.07-0.35-0.14-0.7-0.02-0.14-0.06-0.28c-0.03-0.1-0.09-0.23-0.18-0.29q-0.11-0.06-0.23-0.03-0.12 0.04-0.18 0.16-0.06 0.12-0.11 0.26c-0.12 0.35-0.2 0.72-0.34 1.06q-0.17 0.31-0.39 0.59-0.12 0.15-0.26 0.28-0.09 0.06-0.18 0.11-0.07 0.02-0.14 0.04-0.03 0-0.05 0-0.12-0.03-0.24-0.07-0.13-0.07-0.26-0.15-0.03-0.03-0.06-0.05-0.09-0.08-0.16-0.17-0.1-0.14-0.17-0.29 0.01 0.01 0.01 0.02 0-0.01-0.01-0.02-0.01-0.02-0.02-0.05 0.01 0.02 0.02 0.03-0.19-0.49-0.31-1.01-0.06-0.24-0.11-0.48c-0.03-0.12-0.06-0.27-0.16-0.36-0.1-0.1-0.28-0.1-0.38 0.01q-0.09 0.12-0.13 0.27-0.06 0.2-0.12 0.4-0.07 0.24-0.16 0.48-0.18 0.38-0.44 0.71-0.21 0.27-0.48 0.51-0.1 0.08-0.22 0.14-0.08 0.03-0.16 0.04-0.03 0-0.05 0 0 0 0.01 0-0.04-0.01-0.08-0.02-0.05-0.02-0.1-0.05-0.03-0.04-0.07-0.08-0.07-0.1-0.12-0.22-0.09-0.28-0.15-0.56-0.08-0.36-0.13-0.72 0 0.01 0 0.03-0.03-0.25-0.04-0.5 0-0.14 0-0.27c-0.01-0.08 0.01-0.2-0.04-0.27q-0.06-0.08-0.15-0.11c-0.08-0.02-0.19-0.01-0.25 0.06q-0.04 0.05-0.06 0.1-0.03 0.06-0.06 0.13-0.06 0.14-0.11 0.29c-0.12 0.34-0.22 0.69-0.36 1.02q0.01-0.03 0.03-0.05-0.04 0.08-0.07 0.16 0.01-0.03 0.02-0.06-0.06 0.15-0.13 0.29-0.09 0.16-0.2 0.31-0.09 0.11-0.2 0.21-0.07 0.05-0.15 0.08-0.03 0.01-0.06 0.02-0.04 0-0.07 0-0.03 0-0.06-0.01-0.05-0.03-0.1-0.06-0.05-0.05-0.1-0.11-0.18-0.24-0.31-0.53-0.17-0.43-0.28-0.89-0.05-0.21-0.09-0.43-0.04-0.22-0.07-0.45 0 0.01 0 0.02-0.06-0.39-0.11-0.79 0.01 0.03 0.01 0.06-0.01-0.1-0.02-0.2-0.01-0.24-0.03-0.46-0.02-0.31-0.02-0.62-0.01-0.28-0.01-0.56 0-0.38 0.01-0.75 0.01-0.68 0.05-1.35 0.03-0.55 0.09-1.1 0 0.01 0 0.01 0-0.01 0-0.01 0-0.01 0-0.01 0 0 0 0 0-0.01 0-0.01 0 0 0 0.01 0.01-0.01 0.01-0.01c0.12-0.07 0.17-0.23 0.09-0.34q-0.04-0.07-0.1-0.14c-0.06-0.07-0.17-0.1-0.26-0.07q-0.15 0.06-0.19 0.22-0.02 0.09-0.03 0.17-0.1 0.8-0.13 1.6-0.02 0.51-0.03 1.01-0.01 0.19-0.01 0.37 0 0.23 0 0.46 0 0.26 0.01 0.5 0 0.22 0.01 0.44 0.02 0.48 0.08 0.95 0 0-0.01-0.01 0.1 0.8 0.26 1.59 0.09 0.35 0.2 0.69 0.11 0.34 0.29 0.66c0.11 0.18 0.24 0.36 0.41 0.49q0.14 0.11 0.32 0.15 0.22 0.04 0.43-0.04c0.22-0.08 0.39-0.24 0.54-0.42 0.19-0.23 0.32-0.51 0.43-0.78q-0.01 0.03-0.02 0.06 0.09-0.21 0.16-0.42 0.01-0.02 0.02-0.04 0.06 0.36 0.15 0.73 0.08 0.36 0.25 0.69 0.13 0.21 0.34 0.34 0.11 0.06 0.23 0.09 0.17 0.03 0.34-0.01 0.15-0.03 0.29-0.11 0.1-0.05 0.19-0.12 0.19-0.15 0.35-0.32 0.31-0.34 0.55-0.73 0.22-0.35 0.35-0.75 0.09 0.36 0.2 0.71 0.09 0.3 0.24 0.59 0.17 0.26 0.41 0.45c0.18 0.15 0.4 0.24 0.63 0.31q0.21 0.06 0.43 0 0.07-0.02 0.14-0.06 0.08-0.03 0.16-0.08 0.29-0.18 0.49-0.46 0.15-0.19 0.28-0.4 0.12-0.18 0.2-0.38 0.11-0.28 0.19-0.57 0.04 0.19 0.07 0.38 0.09 0.44 0.22 0.87 0.05 0.17 0.13 0.33 0.07 0.15 0.19 0.28 0.11 0.13 0.26 0.23 0.1 0.07 0.22 0.1 0.07 0.02 0.13 0.03 0.11 0.01 0.22-0.01 0.07 0 0.14-0.03 0.08-0.03 0.16-0.06 0.09-0.06 0.19-0.12 0.08-0.06 0.15-0.12 0.13-0.1 0.25-0.22 0.09-0.1 0.16-0.2 0.11-0.13 0.2-0.26 0.31-0.43 0.48-0.92 0.01-0.03 0.02-0.05 0.01 0.06 0.02 0.11 0.03 0.21 0.09 0.41 0.08 0.25 0.22 0.47c0.11 0.18 0.23 0.36 0.4 0.48q0.22 0.16 0.48 0.2c0.25 0.03 0.5-0.1 0.71-0.23q0.13-0.08 0.23-0.18 0.07-0.09 0.13-0.18 0.08-0.13 0.16-0.27 0.13-0.26 0.23-0.53 0.06-0.18 0.11-0.37 0.06-0.2 0.12-0.41 0-0.01 0-0.02 0.04 0.14 0.07 0.28 0.09 0.36 0.24 0.7 0.1 0.2 0.24 0.38 0.1 0.13 0.22 0.25c0.21 0.23 0.48 0.41 0.78 0.47q0.44 0.09 0.86-0.02 0.22-0.05 0.41-0.16 0.25-0.13 0.45-0.33 0.21-0.22 0.38-0.48 0.18-0.29 0.33-0.61 0.16-0.32 0.25-0.68 0.08-0.34 0.14-0.68 0.12-0.72 0.19-1.46 0.03-0.43 0.04-0.85 0-0.47-0.01-0.93-0.01-0.51-0.01-1.03 0-0.41-0.02-0.81-0.07-0.75-0.12-1.5 0-0.21-0.07-0.42-0.03-0.09-0.08-0.17-0.02-0.03-0.04-0.05 0-0.05-0.03-0.09-0.05-0.09-0.15-0.12-0.03-0.01-0.06-0.01-0.07 0-0.13 0.04z"/>
    <path class="s0" d="m22.26 21.97q-0.21 0.14-0.41 0.29c-0.13 0.09-0.27 0.18-0.35 0.31q-0.13 0.19-0.18 0.41c-0.03 0.17 0.01 0.34 0.15 0.45q0.18 0.13 0.39 0.15-0.01 0-0.03 0 0.03 0.01 0.06 0.01 0 0 0.01 0 0 0-0.01 0 0.05 0 0.1 0.01-0.2 0.24-0.37 0.49-0.22 0.32-0.38 0.68-0.06 0.12-0.1 0.25-0.03 0.11-0.04 0.23c-0.02 0.11 0.03 0.23 0.11 0.31q0.06 0.07 0.14 0.11c0.12 0.07 0.25 0.07 0.39 0.08q0.32 0 0.6-0.15 0.14-0.07 0.27-0.15-0.01 0.04-0.02 0.08c-0.03 0.15-0.02 0.33 0.1 0.44 0.18 0.17 0.44 0.21 0.68 0.18q0.35-0.05 0.65-0.22 0.12-0.07 0.23-0.15 0 0.01 0 0.02-0.04 0.11-0.02 0.22c0.03 0.16 0.16 0.27 0.3 0.33q0.05 0.02 0.11 0.04 0.13 0.03 0.25 0.02 0.08 0 0.16-0.01 0.09-0.02 0.18-0.04 0.12-0.03 0.23-0.09 0.1-0.05 0.2-0.12 0.09-0.08 0.19-0.16 0.06-0.05 0.12-0.11 0.06 0.06 0.13 0.11 0.1 0.07 0.23 0.1 0.24 0.06 0.47-0.03c0.2-0.09 0.36-0.26 0.46-0.45q0.15-0.26 0.23-0.55 0.08-0.28 0.11-0.56 0.02-0.18 0.02-0.35 0-0.15-0.01-0.29 0.02-0.06 0.03-0.11c0.02-0.14-0.04-0.27-0.18-0.31-0.13-0.04-0.28 0.04-0.3 0.17q-0.03 0.12-0.05 0.24 0 0.12 0.01 0.24 0 0.2-0.02 0.39-0.06 0.37-0.19 0.72-0.06 0.14-0.15 0.27-0.05 0.06-0.11 0.1-0.03 0.02-0.06 0.04-0.01 0-0.03 0.01-0.03 0-0.06-0.01-0.05-0.01-0.11-0.03-0.02-0.01-0.05-0.03 0 0-0.01-0.01-0.01-0.01-0.01-0.01 0-0.01 0-0.02-0.01-0.04-0.01-0.09-0.01-0.15-0.14-0.24c-0.1-0.07-0.23-0.02-0.31 0.05q-0.06 0.06-0.1 0.14-0.17 0.2-0.37 0.36-0.12 0.08-0.24 0.14-0.08 0.02-0.15 0.03 0.03 0 0.05 0-0.13 0.02-0.26 0.01-0.02 0-0.04-0.01 0 0-0.01 0 0.06-0.13 0.14-0.25 0.13-0.23 0.29-0.44-0.01 0.01-0.01 0.01 0.01-0.01 0.01-0.02 0.01-0.01 0.02-0.03 0 0.01-0.01 0.02 0.02-0.03 0.05-0.06 0.11-0.14 0.24-0.28 0.07-0.07 0.07-0.18 0-0.1-0.07-0.17-0.08-0.08-0.18-0.08-0.1 0.01-0.18 0.08 0 0 0 0 0 0 0 0 0 0 0 0-0.01 0.01-0.02 0.02-0.01 0.01-0.02 0.01 0 0 0 0-0.18 0.14-0.37 0.28 0 0 0 0 0 0 0 0-0.02 0.02-0.05 0.04 0 0 0 0-0.18 0.14-0.36 0.28 0 0 0 0 0 0-0.01 0-0.02 0.02-0.04 0.04 0-0.01 0.01-0.01-0.05 0.04-0.09 0.07 0.02-0.02 0.05-0.04-0.29 0.23-0.62 0.39-0.13 0.05-0.26 0.08-0.08 0-0.15 0-0.05-0.01-0.1-0.03 0.03-0.17 0.1-0.32-0.01 0.02-0.02 0.05 0.15-0.35 0.37-0.65-0.01 0.01-0.02 0.03 0.01-0.02 0.02-0.03 0.03-0.03 0.06-0.06c0.06-0.05 0.14-0.11 0.16-0.2q0.01-0.06 0-0.13-0.02-0.06-0.07-0.11c-0.06-0.06-0.16-0.09-0.24-0.06q-0.16 0.06-0.26 0.2 0 0.01-0.01 0.02-0.05 0.04-0.1 0.08-0.26 0.23-0.54 0.44-0.21 0.16-0.45 0.28-0.11 0.04-0.21 0.07-0.13 0.01-0.25 0 0.03 0.01 0.07 0.01-0.05 0-0.09-0.01 0.03-0.13 0.09-0.25 0.23-0.49 0.56-0.93 0.24-0.31 0.55-0.57 0.01 0 0.02-0.01c0.11-0.04 0.21-0.1 0.23-0.21q0.02-0.1-0.02-0.19-0.06-0.09-0.15-0.12c-0.1-0.03-0.2 0.02-0.28 0.07q-0.17 0.04-0.34 0.07 0.04-0.01 0.07-0.01-0.19 0.02-0.37 0.01 0.01 0 0.03 0-0.02 0-0.05 0-0.01 0-0.02-0.01 0.01 0 0.02 0-0.01 0-0.01 0 0.01 0 0.02 0-0.07 0-0.13-0.03 0-0.03 0.01-0.05 0.04-0.09 0.09-0.16 0.05-0.06 0.11-0.11 0.24-0.17 0.48-0.33c0.11-0.08 0.16-0.22 0.09-0.35q-0.08-0.11-0.23-0.12-0.06 0-0.11 0.03z"/>
  </g>
  <g id="left-arm">
    <path class="s0" d="m16.74 20.06q-0.08 0.05-0.11 0.15-0.03 0.1 0.02 0.2 0.04 0.05 0.07 0.11 0.03 0.06 0.04 0.13 0.01 0.11 0 0.22 0-0.03 0.01-0.07-0.02 0.16-0.08 0.31-0.04 0.07-0.09 0.15-0.07 0.09-0.16 0.16-0.13 0.1-0.28 0.17-0.11 0.03-0.22 0.05-0.09 0.01-0.17 0-0.16-0.03-0.32-0.09-0.11-0.05-0.22-0.13-0.04-0.03-0.09-0.06 0.02 0.02 0.04 0.03-0.02-0.02-0.04-0.03-0.01-0.01-0.02-0.01 0.01 0 0.02 0.01-0.03-0.03-0.05-0.05-0.08-0.07-0.17-0.1-0.1-0.02-0.19 0.03-0.12 0.07-0.12 0.21 0 0.11 0.05 0.2 0.04 0.11 0.06 0.24 0.01 0.05 0.01 0.11 0.02 0.19 0 0.4-0.03 0.11-0.06 0.21-0.07 0.14-0.16 0.27-0.07 0.07-0.14 0.14-0.07 0.05-0.15 0.08-0.07 0.03-0.14 0.04-0.08 0-0.17 0-0.04-0.01-0.08-0.03-0.39-0.2-0.74-0.45-0.06-0.06-0.14-0.09c-0.12-0.03-0.24 0.03-0.3 0.12-0.04 0.08-0.04 0.18-0.06 0.27q-0.09 0.47-0.25 0.93-0.03 0.05-0.06 0.11-0.05 0.05-0.11 0.09 0.03-0.02 0.05-0.04-0.04 0.03-0.09 0.05-0.02 0.01-0.04 0.02-0.01 0-0.01 0-0.11-0.02-0.22-0.06-0.11-0.05-0.21-0.12-0.03-0.02-0.05-0.04-0.15-0.24-0.26-0.51c0.07-0.08 0.1-0.2 0.03-0.29-0.07-0.11-0.13-0.23-0.26-0.27q-0.12-0.03-0.22 0.03-0.13 0.1-0.14 0.25 0 0.13 0.04 0.25 0.03 0.07 0.06 0.15 0.04 0.11 0.1 0.22 0.11 0.31 0.33 0.56 0.07 0.07 0.16 0.12 0.05 0.03 0.1 0.05 0.12 0.07 0.26 0.11 0.13 0.04 0.27 0.05 0.13 0.01 0.23-0.04 0.12-0.05 0.23-0.14 0.1-0.08 0.17-0.18 0.07-0.1 0.12-0.22 0.08-0.24 0.15-0.48 0.04-0.16 0.07-0.33 0.05 0.03 0.09 0.05c0.24 0.15 0.48 0.33 0.77 0.35q0.14 0.02 0.28 0 0.07-0.01 0.14-0.03 0.1-0.03 0.2-0.08 0.17-0.1 0.31-0.24 0.1-0.12 0.18-0.24 0.11-0.19 0.17-0.39 0.08-0.32 0.05-0.65 0.23 0.1 0.48 0.13 0.09 0.02 0.18 0.02 0.12-0.01 0.24-0.04 0.16-0.03 0.31-0.1 0.21-0.1 0.38-0.25c0.19-0.15 0.3-0.37 0.38-0.59q0.07-0.22 0.07-0.44 0-0.17-0.06-0.33-0.04-0.13-0.12-0.25-0.06-0.08-0.15-0.11-0.04-0.01-0.07-0.01-0.07 0-0.13 0.03z"/>
    <path class="s0" d="m16.6 21.38q-0.14 0.05-0.21 0.17c-0.09 0.11-0.02 0.28 0.09 0.35q0.09 0.05 0.19 0.02 0.05-0.02 0.08-0.04 0.05 0.02 0.1 0.05 0.09 0.08 0.16 0.16 0.09 0.13 0.15 0.27 0-0.02-0.01-0.03 0.05 0.12 0.08 0.25 0 0.07 0 0.13-0.03 0.01-0.07 0-0.1-0.02-0.19-0.05-0.05-0.02-0.08-0.05-0.04-0.02-0.09-0.05-0.16-0.08-0.3 0.04c-0.09 0.1-0.1 0.27 0 0.36q0.17 0.14 0.3 0.3 0-0.01 0-0.01 0 0.01 0.01 0.02 0.01 0.01 0.03 0.03-0.01-0.01-0.02-0.02 0.11 0.16 0.19 0.33 0.03 0.1 0.05 0.2 0.01 0.09 0 0.17-0.01 0.07-0.04 0.13 0 0.01-0.01 0.02-0.01 0.02-0.03 0.03-0.01 0.01-0.03 0.02-0.04 0.02-0.07 0.02-0.12 0.01-0.23-0.01 0.01 0.01 0.01 0.01 0 0-0.01-0.01-0.03 0-0.05 0 0.01 0 0.03 0-0.07-0.01-0.13-0.02-0.18-0.03-0.36-0.09 0.03 0.01 0.06 0.03-0.19-0.09-0.37-0.21 0 0 0.01 0.01-0.01-0.01-0.01-0.01 0 0 0 0 0 0 0 0-0.01-0.01-0.01-0.01 0 0 0.01 0-0.02-0.01-0.03-0.02-0.08-0.08-0.19-0.08c-0.08-0.01-0.17 0.05-0.21 0.12q-0.08 0.17 0.04 0.31 0.02 0.02 0.04 0.03 0 0.01 0.01 0.02 0.02 0.03 0.04 0.07 0.02 0.08 0.04 0.16 0.05 0.2 0.09 0.41 0.03 0.25 0.01 0.5-0.02 0.11-0.05 0.22-0.01 0.01-0.02 0.03-0.03 0-0.05-0.01-0.11-0.02-0.21-0.06-0.17-0.07-0.32-0.18-0.13-0.11-0.24-0.24 0 0.01 0.01 0.02-0.01-0.01-0.01-0.02-0.02-0.01-0.03-0.03 0.01 0.01 0.02 0.02-0.06-0.07-0.11-0.15-0.04-0.18-0.21-0.26c-0.16-0.05-0.31 0.09-0.32 0.25q0.01 0.1 0.07 0.2 0.01 0.17 0 0.34-0.01 0.38-0.05 0.75 0-0.03 0.01-0.07-0.03 0.2-0.09 0.38-0.03 0.06-0.07 0.12-0.02 0.02-0.04 0.04-0.04 0.03-0.09 0.05-0.02 0.01-0.04 0.01-0.05 0.01-0.1 0-0.1-0.02-0.19-0.04-0.12-0.06-0.23-0.14-0.11-0.09-0.21-0.21 0.01 0.02 0.02 0.03-0.01-0.01-0.02-0.03-0.01-0.01-0.02-0.02 0.01 0.01 0.02 0.02-0.24-0.35-0.42-0.74 0.01 0.03 0.02 0.06-0.16-0.37-0.22-0.77-0.01-0.1 0-0.2 0.02-0.12 0.05-0.24c0.03-0.13-0.04-0.27-0.17-0.3-0.13-0.04-0.29 0.04-0.31 0.17q-0.06 0.22-0.08 0.44 0 0.12 0.02 0.25 0.02 0.1 0.04 0.21 0.05 0.19 0.11 0.38 0.14 0.35 0.33 0.67 0.06 0.1 0.12 0.21 0.09 0.14 0.2 0.27 0.14 0.15 0.32 0.27 0.16 0.11 0.34 0.16 0.07 0.03 0.14 0.04 0.16 0.03 0.32 0 0.12-0.02 0.23-0.07 0.12-0.06 0.2-0.16 0.1-0.1 0.16-0.23 0.07-0.15 0.11-0.3 0.04-0.2 0.05-0.4 0.02-0.18 0.03-0.37 0.04 0.04 0.08 0.06 0.22 0.17 0.48 0.25 0.22 0.09 0.46 0.06c0.27-0.05 0.39-0.32 0.43-0.56q0.07-0.37 0.01-0.74-0.02-0.13-0.04-0.26 0.14 0.04 0.3 0.07c0.23 0.04 0.48 0.08 0.7-0.01q0.13-0.05 0.24-0.15c0.1-0.08 0.15-0.22 0.18-0.34q0.03-0.11 0.04-0.22 0-0.11-0.02-0.22-0.02-0.13-0.06-0.26-0.06-0.13-0.13-0.26 0.11-0.02 0.2-0.09 0.13-0.13 0.16-0.3 0.03-0.22-0.02-0.43-0.03-0.14-0.1-0.27-0.06-0.12-0.13-0.22-0.12-0.19-0.29-0.33-0.15-0.12-0.33-0.18-0.06-0.02-0.13-0.02-0.06 0-0.12 0.02z"/>
  </g>
  <g id="legs">
    <path class="s0" d="m11.84 41.66q0.04 0.39 0.09 0.76 0.08 0.52 0.21 1.03 0.05 0.19 0.11 0.4 0.03 0.11 0.07 0.23 0.04 0.1 0.1 0.18 0.04 0.04 0.09 0.07 0.07 0.04 0.15 0.04 0.09-0.01 0.18-0.04 0.06-0.02 0.13-0.04 0.04-0.01 0.08-0.03 0.03-0.01 0.06-0.02 0.1-0.04 0.19-0.13 0.18-0.12 0.33-0.28 0.1-0.1 0.18-0.22 0.15-0.21 0.29-0.43 0.01-0.02 0.03-0.05 0.05 0.13 0.12 0.27 0.13 0.25 0.3 0.48 0.06 0.08 0.13 0.15 0.07 0.06 0.14 0.12 0.03 0.01 0.06 0.03 0.05 0.03 0.11 0.05 0.07 0.01 0.13 0.02 0.12 0.02 0.23 0.01 0.13-0.01 0.26-0.04 0.03-0.01 0.06-0.03 0.07-0.02 0.13-0.07 0.08-0.04 0.15-0.11 0.16-0.15 0.3-0.32 0.16-0.18 0.29-0.38 0.02-0.02 0.04-0.05 0.1 0.25 0.24 0.48 0.07 0.12 0.14 0.25c0.21 0.3 0.56 0.53 0.93 0.48 0.28-0.03 0.49-0.21 0.68-0.4q0.22-0.26 0.37-0.57 0.06-0.12 0.12-0.26 0.01 0.02 0.01 0.03 0.13 0.22 0.32 0.4 0.17 0.17 0.37 0.28 0.2 0.11 0.42 0.14 0.13 0.03 0.26 0.02 0.23-0.01 0.45-0.12 0.13-0.07 0.23-0.16 0.15-0.13 0.28-0.28 0.04-0.06 0.08-0.12 0.07 0.17 0.16 0.33 0.1 0.22 0.28 0.39 0.1 0.09 0.23 0.15 0.11 0.05 0.22 0.08 0.22 0.06 0.45 0.01 0.15-0.04 0.3-0.13 0.13-0.07 0.25-0.17 0.12-0.09 0.23-0.19 0.17-0.18 0.32-0.39 0.07-0.09 0.13-0.18 0.03 0.07 0.07 0.13 0.23 0.43 0.64 0.7 0.09 0.05 0.18 0.09 0.12 0.04 0.24 0.05 0.08 0.01 0.16-0.01 0.13-0.03 0.24-0.09 0.09-0.06 0.17-0.14 0.12-0.11 0.2-0.26 0.05-0.08 0.09-0.15 0.02-0.05 0.05-0.1 0.07 0.15 0.18 0.28 0.15 0.16 0.37 0.24 0.11 0.05 0.24 0.07 0.16 0.02 0.31-0.01 0.14-0.03 0.26-0.11 0.13-0.08 0.23-0.2 0.17-0.2 0.27-0.46 0.14-0.38 0.21-0.79 0.05-0.29 0.07-0.58 0-0.09 0-0.18-0.02-0.16-0.13-0.29c-0.09-0.1-0.26-0.09-0.35 0-0.09 0.09-0.09 0.23-0.02 0.33q0 0.09-0.01 0.19-0.01 0.19-0.04 0.38 0.01-0.04 0.01-0.07-0.06 0.45-0.23 0.88-0.02 0.04-0.04 0.08-0.05 0.09-0.11 0.18-0.04 0.04-0.09 0.08-0.04 0.03-0.08 0.05-0.05 0.02-0.11 0.03-0.02 0-0.04 0-0.07-0.01-0.14-0.03-0.08-0.04-0.16-0.08-0.04-0.04-0.08-0.09-0.05-0.07-0.09-0.15-0.05-0.14-0.07-0.28-0.01-0.15-0.01-0.3 0.01-0.15 0-0.3c-0.03-0.14-0.19-0.2-0.31-0.17-0.17 0.03-0.19 0.2-0.23 0.34q-0.1 0.34-0.23 0.68-0.1 0.21-0.24 0.4-0.03 0.04-0.06 0.07 0.01-0.01 0.02-0.02-0.01 0.01-0.02 0.02-0.02 0.01-0.03 0.02 0.01-0.01 0.02-0.02-0.03 0.03-0.07 0.05-0.03 0.01-0.06 0.01-0.01 0-0.03 0-0.05-0.01-0.1-0.02-0.08-0.04-0.15-0.1-0.14-0.11-0.25-0.24 0.01 0.01 0.01 0.02-0.01-0.02-0.02-0.03-0.01-0.01-0.02-0.02 0.01 0 0.02 0.01-0.12-0.16-0.2-0.33 0 0.01 0.01 0.03-0.01-0.02-0.01-0.04-0.01-0.01-0.02-0.02 0.01 0.01 0.01 0.02-0.03-0.1-0.06-0.2-0.01-0.09-0.01-0.17-0.01-0.07-0.02-0.14-0.02-0.07-0.07-0.14c-0.07-0.09-0.22-0.09-0.31-0.04-0.1 0.06-0.14 0.19-0.18 0.3q-0.05 0.11-0.1 0.22-0.13 0.22-0.29 0.41-0.09 0.12-0.19 0.22-0.09 0.08-0.18 0.16 0 0 0 0-0.13 0.09-0.27 0.17-0.07 0.03-0.15 0.04-0.05 0.01-0.11 0-0.09-0.02-0.17-0.06-0.06-0.03-0.11-0.06-0.04-0.04-0.08-0.08-0.11-0.18-0.19-0.37-0.05-0.13-0.09-0.26-0.03-0.1-0.05-0.19c-0.03-0.12-0.05-0.28-0.14-0.37-0.08-0.08-0.21-0.09-0.31-0.03-0.08 0.04-0.11 0.13-0.14 0.21q-0.04 0.12-0.08 0.23-0.06 0.15-0.15 0.29-0.12 0.12-0.25 0.24-0.08 0.06-0.17 0.11-0.07 0.02-0.15 0.04-0.09 0.01-0.19 0-0.1-0.03-0.2-0.06 0.03 0.01 0.06 0.03-0.14-0.06-0.26-0.15 0.01 0.01 0.02 0.02-0.01-0.01-0.03-0.02-0.01-0.01-0.02-0.01 0.01 0 0.01 0-0.12-0.1-0.23-0.23-0.14-0.19-0.23-0.4 0.01 0.03 0.02 0.05-0.04-0.11-0.09-0.21-0.03-0.08-0.08-0.13-0.03-0.03-0.07-0.05-0.09-0.04-0.19-0.02c-0.13 0.02-0.18 0.15-0.23 0.25q-0.03 0.09-0.07 0.18 0.01-0.03 0.03-0.06-0.08 0.19-0.17 0.37-0.12 0.26-0.28 0.49-0.11 0.13-0.23 0.23 0.01-0.01 0.02-0.01-0.02 0.01-0.03 0.02-0.01 0.01-0.02 0.02 0.01-0.01 0.01-0.02-0.05 0.04-0.11 0.06 0.03-0.01 0.06-0.02-0.06 0.02-0.12 0.04-0.04 0-0.08 0-0.06-0.02-0.12-0.04-0.04-0.02-0.08-0.05-0.08-0.06-0.15-0.14-0.2-0.3-0.35-0.62-0.05-0.13-0.09-0.25-0.01-0.07-0.03-0.13-0.01-0.12-0.07-0.22-0.04-0.05-0.09-0.09-0.09-0.04-0.19-0.02c-0.11 0.01-0.17 0.11-0.2 0.2q-0.04 0.08-0.09 0.15-0.11 0.2-0.26 0.39 0 0 0.01-0.01-0.01 0.01-0.02 0.02-0.01 0.02-0.02 0.03 0 0 0 0-0.19 0.25-0.43 0.47-0.05 0.04-0.11 0.07-0.03 0.01-0.06 0.01-0.11 0.02-0.22 0.01 0.03 0 0.07 0.01-0.06-0.01-0.12-0.02-0.04-0.02-0.08-0.05-0.06-0.06-0.12-0.12-0.1-0.15-0.19-0.31-0.11-0.21-0.21-0.43 0 0 0.01 0.01-0.07-0.15-0.13-0.3c-0.05-0.1-0.12-0.21-0.24-0.24q-0.14-0.02-0.24 0.07-0.05 0.04-0.07 0.09-0.05 0.13-0.11 0.27 0.02-0.03 0.03-0.06-0.17 0.35-0.39 0.66-0.04 0.05-0.08 0.1-0.15 0.15-0.32 0.28 0.02-0.02 0.05-0.04-0.07 0.07-0.15 0.11-0.07 0.02-0.13 0.04-0.06-0.18-0.1-0.36-0.09-0.32-0.16-0.64-0.08-0.36-0.12-0.72 0 0.03 0.01 0.07-0.04-0.26-0.06-0.52 0-0.1-0.07-0.17-0.08-0.08-0.18-0.08c-0.13 0-0.26 0.11-0.25 0.25z"/>
  </g>
</svg>