<svg viewBox="0 0 42 60" xmlns="http://www.w3.org/2000/svg">
  <style>
    .s0 { fill: #161616 }
  </style>
  <g id="head">
    <path class="s0" d="m18.24 11.94q-0.03 0.03-0.05 0.07 0 0 0 0.01-0.03 0.04-0.06 0.08-0.13 0.23-0.24 0.45-0.23 0.47-0.54 0.88 0.02-0.02 0.04-0.04-0.04 0.04-0.07 0.09 0-0.01 0.01-0.02-0.1 0.13-0.2 0.25-0.15 0.16-0.32 0.3-0.17 0.13-0.34 0.25-0.42 0.3-0.89 0.51-0.36 0.12-0.73 0.17-0.18 0.02-0.36 0.03c-0.14 0-0.25 0.11-0.25 0.25 0 0.13 0.11 0.25 0.25 0.25 0.44-0.01 0.89-0.08 1.3-0.25q0.17-0.07 0.33-0.16 0.24-0.12 0.46-0.26 0.23-0.15 0.44-0.32 0.22-0.17 0.41-0.37 0.15-0.17 0.29-0.34-0.01 0.01-0.02 0.02 0.15-0.19 0.29-0.39 0.13-0.23 0.26-0.46 0.13-0.25 0.27-0.5 0.04-0.08 0.09-0.16 0.01-0.01 0.02-0.02 0.02-0.04 0.04-0.07c0.06-0.12 0.03-0.27-0.09-0.34q-0.06-0.04-0.13-0.04-0.14 0-0.21 0.13z"/>
    <path class="s0" d="m15.81 6.97q-0.22 0.05-0.43 0.16-0.34 0.17-0.64 0.41-0.47 0.32-0.88 0.71-0.36 0.35-0.64 0.76-0.09 0.11-0.16 0.23-0.15 0.22-0.28 0.45-0.05 0.1-0.09 0.2-0.03 0.09-0.07 0.18-0.03 0.12-0.07 0.24-0.09 0.37-0.14 0.74-0.06 0.45 0 0.89 0.03 0.23 0.09 0.45 0.17 0.57 0.41 1.11-0.01-0.01-0.01-0.02 0.13 0.31 0.29 0.61 0.16 0.27 0.35 0.52 0.26 0.37 0.62 0.64 0 0 0 0 0.15 0.12 0.31 0.23c0.11 0.08 0.28 0.02 0.34-0.09q0.05-0.09 0.03-0.19-0.03-0.1-0.12-0.15-0.14-0.1-0.27-0.2 0 0 0.01 0.01-0.03-0.02-0.05-0.03 0.01 0 0.02 0.01-0.01-0.01-0.02-0.01-0.01-0.02-0.03-0.03 0.02 0.01 0.03 0.02-0.25-0.22-0.46-0.49-0.14-0.19-0.27-0.4-0.14-0.23-0.25-0.48-0.06-0.13-0.11-0.25 0.01 0.02 0.02 0.05-0.16-0.37-0.28-0.75-0.07-0.19-0.11-0.39-0.03-0.13-0.05-0.25 0-0.06-0.01-0.13-0.02-0.29 0.01-0.58 0.04-0.29 0.1-0.57 0.03-0.13 0.07-0.26 0.04-0.12 0.08-0.24 0.11-0.24 0.25-0.46 0.1-0.14 0.19-0.28 0.11-0.16 0.23-0.31 0 0.01 0 0.01 0.18-0.24 0.39-0.44 0.24-0.22 0.49-0.42 0 0 0 0 0.01 0 0.01-0.01 0.02-0.01 0.04-0.03-0.01 0.01-0.01 0.01 0.3-0.24 0.62-0.44 0.17-0.11 0.35-0.19 0 0.01-0.01 0.01 0.13-0.05 0.27-0.08 0.04 0.04 0.11 0.06 0.09 0.02 0.19-0.03c0.11-0.06 0.16-0.23 0.09-0.34q-0.1-0.15-0.27-0.19-0.04 0-0.09 0-0.09 0-0.19 0.02z"/>
    <path class="s0" d="m16.38 7q-0.14 0.09-0.24 0.23-0.1 0.12-0.18 0.26-0.17 0.27-0.26 0.58-0.05 0.14-0.08 0.28-0.07 0.28-0.14 0.57-0.1 0.39-0.07 0.79 0.02 0.23 0.08 0.45 0.06 0.19 0.14 0.36 0.14 0.31 0.37 0.56 0.26 0.27 0.56 0.49 0.24 0.18 0.5 0.32 0.12 0.06 0.25 0.11 0.24 0.1 0.47 0.2-0.02-0.01-0.04-0.02 0.08 0.04 0.15 0.07-0.02-0.02-0.05-0.03 0.25 0.11 0.5 0.22 0.09 0.05 0.19 0.02 0.09-0.03 0.15-0.11 0.05-0.1 0.02-0.19c-0.01-0.06-0.06-0.13-0.11-0.15q-0.32-0.14-0.64-0.28 0.03 0.01 0.06 0.03-0.28-0.12-0.56-0.24 0.03 0.02 0.05 0.03-0.37-0.17-0.7-0.42-0.29-0.22-0.53-0.5-0.15-0.21-0.25-0.45 0.01 0.02 0.02 0.03-0.09-0.23-0.13-0.47 0 0.02 0 0.05 0-0.03 0-0.06 0 0 0-0.01 0 0.01 0 0.01-0.02-0.19 0-0.37 0.08-0.44 0.2-0.88 0.05-0.23 0.13-0.45 0.1-0.24 0.25-0.44 0.07-0.09 0.15-0.17c0.11-0.07 0.15-0.22 0.08-0.33q-0.08-0.12-0.22-0.13-0.06 0-0.12 0.04z"/>
    <path class="s0" d="m20.01 10.51q-0.46 0.01-0.91 0.12-0.36 0.1-0.68 0.27-0.24 0.14-0.46 0.33-0.13 0.11-0.24 0.25-0.13 0.18-0.25 0.38c-0.07 0.11-0.02 0.27 0.09 0.34 0.12 0.07 0.27 0.03 0.34-0.09q0.11-0.18 0.23-0.35 0.13-0.14 0.28-0.25 0.22-0.17 0.48-0.28-0.03 0.01-0.06 0.02 0.39-0.16 0.8-0.22-0.01 0-0.02 0 0.03 0 0.05 0 0.01 0 0.02 0-0.01 0-0.01 0 0.37-0.04 0.74-0.01 0.61 0.09 1.19 0.33-0.03-0.02-0.06-0.03 0.36 0.15 0.68 0.38 0.28 0.25 0.5 0.55 0-0.01 0-0.01 0.01 0.01 0.02 0.03 0.01 0.01 0.02 0.02-0.01-0.01-0.01-0.01 0.12 0.16 0.22 0.33 0.13 0.21 0.22 0.43 0.12 0.34 0.22 0.68 0.1 0.37 0.2 0.74 0.11 0.47 0.18 0.95 0-0.01 0-0.02 0.03 0.25 0.07 0.5c0.03 0.13 0.19 0.21 0.31 0.17 0.14-0.03 0.2-0.17 0.18-0.3q-0.04-0.18-0.06-0.36 0 0.01 0 0.02-0.06-0.46-0.16-0.92-0.15-0.64-0.35-1.28-0.21-0.71-0.67-1.28-0.25-0.33-0.56-0.61-0.22-0.17-0.47-0.3-0.43-0.23-0.9-0.36-0.36-0.09-0.73-0.15-0.15-0.02-0.3-0.02-0.07 0-0.14 0.01z"/>
    <path class="s0" d="m25.48 12.31c-0.09 0.01-0.15 0.11-0.18 0.18q-0.02 0.08-0.02 0.15 0 0.07 0 0.15-0.03 0.08-0.06 0.17-0.08 0.26-0.18 0.52 0.01-0.03 0.02-0.06-0.16 0.36-0.34 0.72-0.16 0.35-0.31 0.71-0.11 0.27-0.25 0.54-0.07 0.15-0.15 0.29-0.07 0.12-0.15 0.24-0.02 0.03-0.05 0.05-0.09 0.06-0.19 0.11c-0.11 0.07-0.15 0.23-0.09 0.35 0.07 0.11 0.23 0.15 0.35 0.09q0.14-0.08 0.28-0.19 0.07-0.06 0.12-0.14 0.07-0.09 0.12-0.2 0.14-0.24 0.27-0.49 0.13-0.27 0.24-0.55 0.13-0.3 0.27-0.61 0.15-0.31 0.29-0.62 0.03 0.09 0.07 0.18 0.12 0.33 0.26 0.64 0-0.01-0.01-0.01 0.19 0.44 0.35 0.9 0.13 0.35 0.23 0.71 0.09 0.35 0.15 0.71 0.08 0.37 0.13 0.74 0-0.01 0-0.02 0.04 0.32 0.06 0.65 0.01 0.24 0 0.49 0-0.01 0-0.02 0 0.01 0 0.02 0 0.02-0.01 0.05 0-0.02 0.01-0.04-0.03 0.15-0.08 0.3-0.05 0.12-0.13 0.23-0.05 0.07-0.11 0.12-0.18 0.12-0.38 0.21-0.16 0.06-0.33 0.08 0.04 0 0.07-0.01-0.21 0.03-0.43 0.02 0.01 0 0.02 0-0.01 0-0.02 0-0.02-0.01-0.05-0.01 0.03 0 0.05 0.01-0.12-0.03-0.24-0.07-0.11-0.06-0.22-0.14-0.17-0.14-0.34-0.28-0.1-0.1-0.23-0.17-0.19-0.11-0.42-0.05c-0.13 0.03-0.21 0.18-0.17 0.31 0.04 0.13 0.17 0.21 0.31 0.17q0.01 0 0.02 0 0 0 0 0 0 0 0 0 0.06 0.03 0.1 0.06 0.19 0.16 0.38 0.32 0.15 0.12 0.31 0.21 0.18 0.09 0.38 0.12 0.37 0.05 0.73-0.03 0.16-0.03 0.3-0.09 0.29-0.12 0.52-0.31 0.1-0.1 0.18-0.22 0.08-0.11 0.14-0.24 0.13-0.29 0.14-0.61 0.02-0.32-0.01-0.63-0.04-0.44-0.12-0.89-0.06-0.35-0.13-0.71-0.08-0.38-0.2-0.75-0.14-0.43-0.3-0.85-0.16-0.4-0.34-0.81 0.01 0.02 0.02 0.05-0.14-0.33-0.24-0.68-0.07-0.26-0.1-0.53 0 0.01 0 0.01 0 0 0-0.01c0.04-0.13 0.07-0.28 0-0.41q-0.04-0.06-0.11-0.1-0.05-0.04-0.12-0.04-0.04 0-0.08 0.01z"/>
    <path class="s0" d="m14.03 14.75q-0.13 0.08-0.12 0.23-0.02 0.04-0.04 0.08-0.11 0.23-0.22 0.46-0.15 0.3-0.25 0.63-0.08 0.26-0.16 0.51-0.13 0.4-0.27 0.8-0.09 0.28-0.15 0.57-0.06 0.33-0.1 0.67 0-0.04 0.01-0.07c-0.08 0.52-0.17 1.05-0.16 1.58 0.01 0.53 0.08 1.05 0.15 1.58q0-0.01 0-0.01 0.03 0.18 0.05 0.37 0-0.03-0.01-0.07 0.08 0.6 0.19 1.18 0.1 0.46 0.19 0.93 0.08 0.36 0.24 0.7 0.07 0.13 0.16 0.26 0.09 0.13 0.19 0.26 0.07 0.07 0.16 0.13 0.28 0.2 0.61 0.31 0.32 0.11 0.65 0.22 0.42 0.15 0.84 0.28 0.4 0.14 0.79 0.27 0.28 0.1 0.57 0.19 0.24 0.08 0.48 0.17 0.19 0.07 0.36 0.18 0.05 0.04 0.09 0.09 0.05 0.07 0.08 0.16-0.01-0.03-0.02-0.06c0.08 0.19 0.15 0.38 0.3 0.53q0.18 0.17 0.42 0.27-0.02-0.01-0.04-0.02 0.08 0.03 0.16 0.06 0.13 0.03 0.26 0.05 0.22 0.02 0.44-0.01 0.19-0.02 0.39-0.06 0.31-0.09 0.61-0.24 0.19-0.08 0.36-0.21 0.29-0.19 0.57-0.42c0.33-0.27 0.63-0.57 0.96-0.84q0.32-0.24 0.67-0.41-0.01 0-0.02 0.01 0.01-0.01 0.03-0.02 0.01 0 0.03-0.01-0.01 0-0.02 0.01 0.25-0.1 0.49-0.2 0.41-0.17 0.79-0.4c0.26-0.16 0.47-0.38 0.66-0.61q0.23-0.28 0.35-0.62 0.05-0.12 0.08-0.25 0.03-0.13 0.04-0.27 0.02-0.15 0.03-0.3 0-0.31-0.02-0.62-0.03-0.38-0.12-0.74-0.09-0.41-0.2-0.82-0.12-0.36-0.22-0.72-0.07-0.24-0.13-0.47-0.05-0.21-0.16-0.41c-0.06-0.12-0.23-0.15-0.34-0.09-0.12 0.08-0.15 0.22-0.09 0.35q0.04 0.06 0.07 0.13 0.05 0.16 0.08 0.32 0.04 0.16 0.09 0.33 0.08 0.28 0.17 0.56 0.12 0.37 0.2 0.75 0.08 0.33 0.14 0.67-0.01-0.02-0.01-0.03 0.01 0.03 0.01 0.06 0 0 0 0.01 0-0.01 0-0.01 0.02 0.21 0.03 0.41 0.01 0.25-0.01 0.49 0-0.03 0.01-0.06-0.03 0.22-0.08 0.42-0.03 0.11-0.07 0.21 0.01-0.01 0.02-0.03-0.1 0.2-0.23 0.39-0.2 0.24-0.43 0.43-0.16 0.12-0.33 0.21-0.31 0.16-0.63 0.3 0.03-0.01 0.06-0.02-0.26 0.1-0.51 0.2-0.27 0.12-0.52 0.29-0.29 0.22-0.57 0.46-0.37 0.34-0.75 0.66 0.03-0.02 0.06-0.04-0.25 0.19-0.5 0.36-0.16 0.1-0.33 0.18 0 0 0-0.01-0.21 0.1-0.44 0.17-0.13 0.03-0.26 0.05-0.08 0.01-0.15 0.01-0.13 0.01-0.25 0-0.12-0.02-0.24-0.06-0.02 0-0.03-0.01-0.1-0.04-0.18-0.1-0.05-0.04-0.08-0.08-0.07-0.1-0.11-0.2 0.01 0.03 0.03 0.06-0.06-0.15-0.13-0.29-0.07-0.14-0.19-0.24-0.21-0.17-0.45-0.27-0.29-0.12-0.59-0.21-0.36-0.11-0.7-0.23-0.62-0.21-1.24-0.42-0.35-0.12-0.7-0.24-0.19-0.07-0.37-0.13 0 0 0.01 0-0.2-0.08-0.37-0.21-0.05-0.04-0.09-0.08 0.01 0 0.01 0.01-0.01-0.01-0.01-0.02-0.01-0.01-0.03-0.03 0.01 0.01 0.02 0.02-0.1-0.13-0.19-0.28-0.05-0.09-0.1-0.2 0.01 0.02 0.02 0.04c-0.14-0.34-0.2-0.71-0.27-1.07q-0.06-0.3-0.12-0.6-0.08-0.42-0.13-0.84 0 0.03 0.01 0.06-0.01-0.04-0.01-0.08 0 0 0 0 0-0.01-0.01-0.03 0-0.02 0-0.03 0 0.01 0 0.01-0.04-0.31-0.08-0.63 0 0.03 0.01 0.06-0.08-0.49-0.1-1-0.03-0.5 0.04-1-0.01 0.03-0.01 0.06 0.06-0.48 0.13-0.95 0.06-0.49 0.21-0.94 0.11-0.29 0.21-0.58 0.09-0.26 0.17-0.53 0.07-0.25 0.16-0.5 0.12-0.26 0.25-0.52 0.09-0.18 0.16-0.38 0.04-0.12-0.02-0.24-0.05-0.09-0.15-0.12-0.03 0-0.06 0-0.07-0.01-0.14 0.03z"/>
    <path fill-rule="evenodd" class="s0" d="m17.32 18.82q0.07 0 0.13 0.03c0.11 0.05 0.16 0.19 0.12 0.3q0 0.02-0.02 0.05 0 0.02 0 0.04 0 0.11-0.01 0.23-0.03 0.18-0.11 0.35-0.07 0.16-0.16 0.3-0.12 0.19-0.29 0.33-0.16 0.14-0.34 0.25-0.1 0.06-0.21 0.09-0.1 0.03-0.2 0.04-0.12 0.01-0.24 0.02-0.23 0.01-0.47 0-0.32-0.02-0.66-0.05-0.34-0.01-0.64-0.17-0.12-0.07-0.21-0.16-0.06-0.08-0.12-0.16-0.07-0.11-0.11-0.23-0.04-0.14-0.05-0.28-0.02-0.09-0.01-0.17 0.01-0.13 0.1-0.23 0.04-0.04 0.1-0.06 0.08-0.09 0.2-0.1 0.49-0.03 0.98-0.08 0 0 0 0 0 0 0 0 0 0 0 0 0 0 0 0 0 0 0 0 0.04-0.01 0.07-0.01-0.01 0-0.02 0c0.37-0.05 0.73-0.14 1.1-0.18q0.45-0.05 0.91-0.1-0.01 0-0.01 0 0.01 0 0.02 0 0.07-0.05 0.15-0.05zm-2.22 0.34q0 0 0 0 0 0 0 0 0 0 0 0zm1.33 0.28q0.01 0 0.02 0-0.01 0-0.02 0-0.03 0-0.05 0.01 0.01 0 0.02 0-0.58 0.09-1.17 0.19-0.5 0.06-1.01 0.1 0 0.01 0.01 0.03 0.01 0.11 0.04 0.21 0.04 0.06 0.08 0.11 0.02 0.03 0.05 0.05 0.07 0.06 0.15 0.1 0.1 0.03 0.19 0.05 0.21 0.02 0.4 0.03 0.23 0.02 0.45 0.03 0.3 0.01 0.6-0.01 0.06-0.01 0.12-0.03 0.12-0.06 0.23-0.14-0.01 0-0.01 0.01 0.01-0.01 0.03-0.02 0.01-0.01 0.02-0.02-0.01 0-0.02 0.01 0.13-0.1 0.24-0.23 0.1-0.14 0.18-0.3-0.01 0-0.01 0.01 0.05-0.12 0.08-0.25-0.01 0-0.03 0-0.29 0.03-0.59 0.06z"/>
    <path fill-rule="evenodd" class="s0" d="m22.66 17.68q0.14 0.01 0.22 0.14c0.05 0.07 0.05 0.16 0.05 0.25q0.01 0.1 0.01 0.2c-0.02 0.32-0.07 0.63-0.24 0.9q-0.2 0.31-0.53 0.47-0.23 0.12-0.47 0.19-0.33 0.09-0.68 0.15-0.24 0.05-0.48 0.1-0.25 0.04-0.5 0.06-0.13 0-0.26 0-0.19 0.01-0.37-0.04-0.19-0.08-0.37-0.17-0.16-0.08-0.28-0.21-0.14-0.15-0.18-0.35-0.03-0.16-0.02-0.33 0.01-0.13 0.1-0.2 0.05-0.17 0.24-0.19 0.18-0.01 0.36-0.02 0 0 0 0 0.03-0.01 0.05-0.01-0.02 0-0.04 0.01 0.13-0.03 0.26-0.07 0.2-0.05 0.4-0.11 0.51-0.15 1.01-0.32 0.47-0.14 0.96-0.24 0.3-0.05 0.57-0.15 0.06-0.02 0.12-0.05 0.03-0.01 0.07-0.01zm-3.4 0.95q-0.01 0-0.01 0 0 0 0.01 0zm-0.21 0.51q0 0.04 0.01 0.08 0.01 0.05 0.02 0.1 0.02 0.03 0.04 0.06 0.02 0.02 0.04 0.03 0.09 0.06 0.18 0.11 0.08 0.04 0.16 0.08 0.07 0.03 0.14 0.04 0.18 0.01 0.36 0 0.13-0.01 0.25-0.02-0.01 0-0.01 0 0.37-0.06 0.74-0.14 0.45-0.07 0.86-0.23 0 0 0 0 0.14-0.06 0.26-0.15 0.07-0.06 0.13-0.13-0.01 0.01-0.01 0.03 0.01-0.02 0.01-0.03 0.01-0.01 0.02-0.03-0.01 0.01-0.01 0.03 0.05-0.09 0.1-0.19 0.06-0.15 0.08-0.31 0 0.01 0 0.03 0-0.02 0-0.05 0.01-0.01 0.01-0.02 0 0.01-0.01 0.02 0.01-0.08 0.01-0.16-0.18 0.05-0.37 0.08-0.55 0.11-1.08 0.27-0.57 0.19-1.14 0.36-0.19 0.05-0.37 0.09-0.21 0.05-0.42 0.05z"/>
    <path class="s0" d="m20.34 18.51c-0.13 0.03-0.2 0.17-0.17 0.3q0.02 0.16 0.08 0.31 0.03 0.09 0.09 0.16 0.09 0.09 0.22 0.09 0.1-0.01 0.18-0.05 0.09-0.06 0.14-0.14 0.04-0.07 0.06-0.15 0.02-0.1 0.01-0.2-0.01-0.1-0.08-0.18-0.07-0.07-0.17-0.07-0.05 0-0.09 0.02-0.08-0.1-0.2-0.1-0.04 0-0.07 0.01z"/>
    <path class="s0" d="m15.35 19.41c-0.12 0.03-0.22 0.17-0.18 0.3q0.03 0.08 0.06 0.15 0.02 0.09 0.04 0.17c0.03 0.13 0.13 0.26 0.27 0.31q0.12 0.03 0.23-0.03 0.1-0.07 0.14-0.19 0.02-0.09 0.03-0.19 0-0.08-0.01-0.16 0-0.1-0.07-0.18-0.08-0.07-0.18-0.07-0.02 0-0.05 0.01-0.03-0.06-0.09-0.1-0.06-0.03-0.12-0.03-0.04 0-0.07 0.01z"/>
    <path class="s0" d="m17.43 20.78q-0.2 0.22-0.42 0.41 0.01-0.01 0.02-0.01-0.02 0.01-0.04 0.03-0.01 0-0.01 0.01 0-0.01 0-0.01c-0.19 0.14-0.38 0.28-0.53 0.46q-0.07 0.09-0.12 0.2-0.06 0.12-0.08 0.26 0 0.12 0.03 0.22 0.04 0.12 0.13 0.21 0.14 0.14 0.33 0.21 0.19 0.08 0.39 0.08 0.22-0.02 0.39-0.15 0.19-0.16 0.37-0.32 0.08-0.07 0.18-0.12 0.2-0.08 0.41-0.11 0.18-0.01 0.36-0.01 0.29 0 0.5-0.19c0.14-0.14 0.2-0.35 0.18-0.54-0.02-0.22-0.15-0.46-0.38-0.52-0.13-0.03-0.27 0.05-0.31 0.18-0.03 0.12 0.04 0.26 0.17 0.3q0 0.01 0.01 0.02 0.01 0.03 0.01 0.05 0 0.03 0 0.06-0.01 0.03-0.02 0.06-0.01 0.02-0.02 0.04 0 0-0.01 0.01-0.01 0.01-0.03 0.01-0.02 0.01-0.04 0.02-0.19 0-0.39 0.01-0.23 0.02-0.46 0.09-0.23 0.07-0.43 0.22-0.11 0.08-0.21 0.17-0.08 0.08-0.16 0.16-0.04 0.02-0.08 0.04-0.02 0.01-0.05 0.01-0.03 0.01-0.07 0-0.08-0.02-0.16-0.05-0.05-0.02-0.09-0.06-0.02-0.01-0.04-0.03 0 0 0 0 0-0.01 0-0.01 0-0.02 0-0.04 0-0.03 0.01-0.06 0.02-0.04 0.05-0.08 0.09-0.12 0.21-0.21 0.01-0.01 0.02-0.02 0.01-0.01 0.03-0.02-0.01 0-0.01 0.01 0.18-0.13 0.34-0.27 0.2-0.17 0.37-0.37c0.1-0.09 0.1-0.25 0-0.35q-0.07-0.07-0.18-0.07-0.1 0-0.17 0.07z"/>
    <path class="s0" d="m23.49 22.78q-0.16 0.02-0.3 0.02-0.2 0.01-0.4 0.03-0.37 0.04-0.73 0.07-0.41 0.03-0.81 0.09 0.03-0.01 0.07-0.01-0.67 0.09-1.31 0.25-0.75 0.19-1.49 0.41-0.75 0.21-1.51 0.39-0.39 0.09-0.78 0.2-0.3 0.07-0.6 0.17-0.11 0.04-0.21 0.1-0.09 0.04-0.12 0.14-0.02 0.1 0.03 0.2 0.05 0.08 0.15 0.11 0.1 0.02 0.19-0.02 0.05-0.03 0.1-0.05c0.55-0.18 1.12-0.31 1.69-0.45q0.3-0.07 0.61-0.15 0.33-0.08 0.66-0.18 0.7-0.21 1.41-0.39 0.58-0.14 1.17-0.23-0.01 0-0.03 0 0.02 0 0.04 0 0.01-0.01 0.03-0.01-0.02 0-0.03 0.01 0.06-0.01 0.13-0.02 0 0-0.01 0 0.32-0.04 0.64-0.06 0.37-0.04 0.74-0.07 0.18-0.02 0.37-0.03 0.14 0 0.3-0.02 0.1 0 0.17-0.07 0.08-0.07 0.08-0.18 0-0.1-0.08-0.17-0.07-0.07-0.16-0.08-0.01 0-0.01 0z"/>
    <path class="s0" d="m20.32 21.9c-0.09 0.09-0.1 0.26 0 0.35q0 0.01 0 0.01 0 0 0-0.01 0 0.01 0 0.01 0.01 0.03 0.03 0.05-0.02-0.02-0.03-0.04 0.03 0.07 0.04 0.15 0.04 0.39 0.06 0.77c0.01 0.14 0.11 0.25 0.25 0.25 0.13 0 0.26-0.11 0.25-0.25q-0.02-0.35-0.05-0.7-0.01-0.17-0.06-0.33-0.04-0.15-0.14-0.26-0.08-0.07-0.18-0.07-0.09 0-0.17 0.07z"/>
    <path class="s0" d="m21.62 21.62q-0.03 0-0.05 0-0.04 0-0.07 0-0.17 0.01-0.33 0.03 0 0 0.01 0-0.01 0-0.02 0-0.02 0-0.05 0 0.01 0 0.01 0-0.17 0.03-0.33 0.06-0.21 0.03-0.42 0.09-0.09 0.04-0.15 0.12-0.05 0.09-0.02 0.19c0.03 0.12 0.18 0.22 0.31 0.18q0.19-0.06 0.39-0.09 0.16-0.03 0.33-0.06-0.04 0.01-0.07 0.01 0.05-0.01 0.1-0.01-0.03 0-0.07 0.01 0.16-0.03 0.32-0.03 0.04 0 0.07 0 0.08 0.01 0.16-0.01c0.13-0.04 0.21-0.17 0.17-0.31-0.03-0.11-0.13-0.18-0.24-0.18q-0.03 0-0.05 0z"/>
    <path class="s0" d="m21.67 21.6c-0.04 0.04-0.08 0.12-0.07 0.17q0.05 0.32 0.1 0.65 0.04 0.24 0.12 0.49c0.04 0.13 0.17 0.21 0.31 0.17 0.12-0.04 0.21-0.18 0.17-0.31q-0.06-0.19-0.1-0.39-0.03-0.16-0.05-0.32-0.03-0.14-0.05-0.28 0 0 0-0.01-0.01-0.1-0.08-0.17-0.07-0.07-0.17-0.08-0.11 0.01-0.18 0.08z"/>
    <path class="s0" d="m20.35 24.39q-0.13 0.07-0.26 0.14-0.22 0.12-0.41 0.25-0.2 0.13-0.39 0.27-0.16 0.11-0.32 0.19-0.11 0.04-0.23 0.06-0.09 0.01-0.18 0-0.03-0.01-0.06-0.02-0.02 0-0.04-0.01-0.02-0.02-0.04-0.04-0.01-0.02-0.02-0.03-0.03-0.11-0.05-0.22-0.03-0.16-0.07-0.33c-0.03-0.13-0.18-0.21-0.3-0.17-0.14 0.04-0.21 0.17-0.18 0.31 0.06 0.27 0.08 0.58 0.27 0.8 0.21 0.22 0.54 0.24 0.83 0.19q0.24-0.05 0.45-0.18 0.22-0.13 0.42-0.28 0.25-0.17 0.5-0.32 0.17-0.09 0.33-0.18c0.12-0.07 0.16-0.22 0.09-0.34q-0.08-0.12-0.22-0.13-0.06 0-0.12 0.04z"/>
    <path class="s0" d="m19.84 26.47q-0.04 0.01-0.08 0.03-0.1 0.02-0.15 0.11-0.05 0.09-0.03 0.19 0.03 0.1 0.12 0.15c0.05 0.03 0.13 0.05 0.19 0.03q0.04-0.02 0.09-0.02c0.13-0.03 0.2-0.19 0.17-0.31-0.03-0.12-0.13-0.18-0.25-0.18q-0.03 0-0.06 0z"/>
    <path class="s0" d="m25.22 15.43q-0.05 0.31-0.12 0.61-0.05 0.23-0.11 0.46-0.07 0.3-0.19 0.59 0.01-0.02 0.02-0.04-0.01 0.03-0.03 0.05 0 0.01 0 0.01 0 0 0-0.01-0.07 0.16-0.17 0.3-0.03 0.03-0.06 0.06-0.01 0.01-0.03 0.02-0.1 0.05-0.13 0.16-0.03 0.1 0.02 0.19 0.06 0.09 0.15 0.12c0.08 0.03 0.16-0.01 0.23-0.03q0.14-0.04 0.28-0.07 0.04 0 0.08 0 0.05 0.02 0.09 0.03-0.02 0-0.04-0.01 0.04 0.02 0.08 0.04 0.02 0.02 0.04 0.05 0.02 0.01 0.03 0.03 0.01 0.03 0.01 0.06 0 0.01 0 0.02 0 0.02-0.01 0.03-0.01 0.03-0.03 0.06-0.01 0.01-0.02 0.03-0.01 0-0.01 0-0.03 0.01-0.07 0.02-0.04 0-0.08 0.01-0.1 0-0.18 0.07-0.07 0.07-0.07 0.18c0 0.12 0.12 0.26 0.25 0.25q0.06-0.01 0.11-0.02 0.15-0.01 0.28-0.07 0.14-0.08 0.23-0.22 0.05-0.09 0.08-0.18 0.03-0.11 0.02-0.23-0.02-0.18-0.13-0.34-0.05-0.06-0.11-0.12-0.13-0.1-0.29-0.15-0.06-0.03-0.12-0.03 0.12-0.26 0.2-0.54 0.08-0.29 0.15-0.57 0.03-0.12 0.05-0.25 0.05-0.22 0.08-0.43 0.03-0.1-0.02-0.19-0.05-0.09-0.15-0.12-0.03-0.01-0.06-0.01c-0.11 0-0.23 0.07-0.25 0.18z"/>
    <path class="s0" d="m20.66 15.53q-0.12 0.01-0.24 0.04-0.11 0.03-0.22 0.09-0.23 0.1-0.45 0.24-0.25 0.16-0.45 0.38-0.17 0.18-0.32 0.37-0.17 0.2-0.31 0.41-0.16 0.2-0.29 0.43-0.1 0.19-0.22 0.37 0.01-0.01 0.02-0.02-0.01 0.02-0.02 0.03-0.01 0.01-0.02 0.02 0-0.01 0.01-0.01-0.05 0.06-0.11 0.11-0.05 0.03-0.09 0.06-0.3-0.04-0.57-0.15-0.27-0.14-0.53-0.29-0.31-0.18-0.64-0.31-0.2-0.08-0.4-0.15-0.16-0.05-0.33-0.05-0.14-0.01-0.29 0.02-0.17 0.03-0.32 0.1 0 0 0.01-0.01-0.29 0.12-0.56 0.28-0.11 0.06-0.21 0.14-0.18 0.12-0.32 0.28c-0.1 0.09-0.1 0.25 0 0.35 0.1 0.1 0.26 0.1 0.35 0q0.09-0.09 0.18-0.17 0.34-0.25 0.73-0.41-0.03 0.01-0.06 0.03 0.05-0.03 0.11-0.05-0.03 0.02-0.06 0.03 0.12-0.05 0.24-0.09 0.15-0.01 0.29 0 0.11 0.03 0.21 0.07 0.15 0.05 0.3 0.11 0.24 0.11 0.47 0.23 0.22 0.13 0.44 0.25 0.28 0.15 0.57 0.22 0.13 0.03 0.25 0.05 0.14 0.04 0.27 0.01 0.19-0.07 0.33-0.22 0.17-0.15 0.28-0.36 0.15-0.28 0.33-0.54 0.14-0.19 0.28-0.38 0.12-0.15 0.25-0.29 0.17-0.19 0.36-0.35-0.01 0-0.02 0.01 0.01-0.01 0.02-0.02 0.01 0 0.02-0.01-0.01 0.01-0.01 0.01 0.15-0.1 0.3-0.18 0.13-0.08 0.26-0.14 0.12-0.04 0.25-0.06-0.03 0.01-0.07 0.02 0.21-0.03 0.42-0.01 0 0 0 0 0 0 0 0 0 0 0 0 0 0 0.01 0 0.02 0 0.05 0.01-0.03-0.01-0.05-0.01 0.31 0.06 0.6 0.18-0.03-0.01-0.07-0.02 0.05 0.02 0.09 0.05c0.12 0.07 0.28 0.02 0.34-0.09 0.07-0.13 0.03-0.27-0.09-0.35q-0.17-0.1-0.37-0.15-0.22-0.08-0.45-0.11 0.01 0 0.02 0-0.13-0.02-0.26-0.02-0.12 0-0.24 0.02z"/>
    <path class="s0" d="m19 14.64q-0.24 0.21-0.45 0.46c-0.23 0.28-0.41 0.59-0.63 0.89q-0.23 0.29-0.53 0.53-0.02 0.01-0.04 0.03 0 0 0 0-0.06-0.02-0.11-0.03-0.16-0.08-0.32-0.18-0.07-0.04-0.15-0.1-0.12-0.07-0.25-0.11-0.1-0.03-0.19 0.02-0.09 0.05-0.12 0.15-0.02 0.11 0.03 0.19 0.05 0.09 0.15 0.12 0.03 0.01 0.06 0.03-0.02-0.01-0.04-0.02 0.14 0.07 0.26 0.16 0.14 0.08 0.29 0.15 0.13 0.07 0.27 0.1 0.08 0.02 0.16 0.02 0.11-0.01 0.21-0.06 0.07-0.05 0.14-0.11 0.07-0.06 0.14-0.12 0.13-0.11 0.24-0.24 0.2-0.21 0.36-0.46 0.08-0.11 0.16-0.23 0.1-0.16 0.21-0.31 0.23-0.28 0.5-0.52c0.1-0.09 0.09-0.26 0-0.36q-0.07-0.07-0.17-0.07-0.1 0-0.18 0.07z"/>
    <path class="s0" d="m22.11 13.38q-0.03 0.1-0.06 0.19-0.03 0.1-0.04 0.22-0.01 0.09-0.02 0.17 0 0.23 0.03 0.46 0.04 0.3 0.16 0.58 0.07 0.13 0.16 0.23 0.06 0.09 0.15 0.14 0.1 0.05 0.2 0.02 0.09-0.02 0.15-0.11 0.05-0.09 0.02-0.19-0.03-0.1-0.11-0.15-0.01 0-0.01-0.01-0.01 0-0.02-0.01 0.01 0 0.01 0.01 0 0 0 0-0.01-0.01-0.02-0.03-0.01-0.01-0.01-0.02 0 0.01 0.01 0.01-0.07-0.08-0.11-0.18-0.07-0.23-0.1-0.46 0.01 0.04 0.01 0.07-0.03-0.21-0.01-0.43 0.01-0.11 0.04-0.23 0.03-0.07 0.05-0.15c0.04-0.12-0.04-0.27-0.17-0.3q-0.03-0.01-0.06-0.01c-0.11 0-0.21 0.07-0.25 0.18z"/>
  </g>
  <g id="body">
    <path class="s0" d="m14.01 28.42q-0.07 0.11-0.12 0.22-0.01 0.03-0.02 0.06-0.07 0.14-0.09 0.29-0.03 0.17-0.05 0.34-0.01 0.14-0.02 0.28-0.01 0.34-0.01 0.67 0 0.58 0.18 1.13 0.1 0.28 0.23 0.55 0.16 0.3 0.36 0.58 0.28 0.41 0.67 0.73 0.27 0.23 0.56 0.43 0.28 0.18 0.62 0.22 0.3 0.05 0.6 0.06 0.24 0.01 0.48 0 0.42-0.01 0.81-0.13 0.33-0.09 0.65-0.22 0.18-0.09 0.36-0.19 0.15-0.07 0.29-0.14 0.16-0.07 0.3-0.16 0.09-0.06 0.12-0.15 0.03-0.11-0.03-0.19c-0.06-0.11-0.23-0.18-0.34-0.09q-0.1 0.07-0.22 0.11-0.11 0.06-0.22 0.11-0.23 0.13-0.47 0.24-0.18 0.08-0.36 0.14-0.27 0.09-0.55 0.14 0.02 0 0.03 0-0.02 0-0.04 0-0.01 0-0.03 0.01 0.01-0.01 0.02-0.01-0.31 0.03-0.63 0.04-0.34-0.01-0.67-0.05 0 0 0.01 0-0.06-0.01-0.12-0.02-0.1-0.03-0.19-0.06-0.12-0.06-0.23-0.14-0.08-0.05-0.16-0.11-0.13-0.11-0.26-0.21-0.29-0.25-0.52-0.54-0.32-0.44-0.53-0.93-0.06-0.16-0.12-0.34-0.04-0.17-0.07-0.34 0 0.01 0 0.03 0-0.03 0-0.06-0.01 0-0.01-0.01 0 0.01 0.01 0.01-0.03-0.29-0.03-0.59 0-0.17 0-0.33 0.01-0.28 0.04-0.56 0 0.01 0 0.02 0-0.01 0-0.03 0.01-0.02 0.01-0.04 0 0.02-0.01 0.04 0.01-0.05 0.02-0.1 0.02-0.13 0.07-0.25 0.05-0.1 0.11-0.2c0.07-0.12 0.02-0.28-0.09-0.35q-0.06-0.03-0.13-0.03-0.14 0-0.21 0.12z"/>
    <path class="s0" d="m20.38 29.27q-0.06 0.08-0.07 0.18-0.02 0.16-0.04 0.32 0 0 0-0.01-0.06 0.31-0.05 0.64 0.03 0.36 0.14 0.72 0.09 0.31 0.27 0.59 0.19 0.3 0.39 0.58 0.21 0.3 0.48 0.53 0.2 0.16 0.41 0.28 0.22 0.13 0.44 0.23 0.22 0.1 0.44 0.16 0.34 0.08 0.67 0.1 0.33 0.04 0.66 0 0.38-0.05 0.76-0.15 0.6-0.16 1.19-0.37 0.13-0.05 0.25-0.09c0.12-0.05 0.23-0.1 0.31-0.21q0.07-0.07 0.08-0.17 0-0.11-0.08-0.18-0.07-0.07-0.17-0.07-0.11 0-0.18 0.07-0.02 0.02-0.04 0.04-0.02 0.01-0.04 0.02-0.39 0.16-0.8 0.28-0.63 0.22-1.29 0.33 0.02 0 0.04 0-0.12 0.01-0.24 0.02-0.14 0-0.28-0.01-0.27-0.01-0.53-0.05-0.29-0.07-0.55-0.18 0.02 0.01 0.04 0.02-0.15-0.07-0.3-0.15-0.2-0.11-0.39-0.24-0.23-0.18-0.41-0.42-0.17-0.23-0.33-0.47-0.13-0.19-0.23-0.4 0 0 0 0.01-0.14-0.35-0.2-0.73 0 0.01 0 0.02-0.03-0.23 0-0.46 0.04-0.3 0.08-0.6c0.01-0.06-0.03-0.13-0.07-0.18q-0.08-0.07-0.18-0.07-0.1 0-0.18 0.07z"/>
    <path class="s0" d="m16.97 33.7c-0.11 0.07-0.16 0.23-0.09 0.35q0.25 0.4 0.54 0.78 0.13 0.16 0.28 0.29 0.22 0.22 0.48 0.4 0.17 0.11 0.36 0.18 0.17 0.07 0.34 0.1 0.26 0.06 0.53 0.08 0 0 0 0 0.01 0.03 0.03 0.05 0.05 0.15 0.11 0.3 0.05 0.17 0.08 0.35 0.07 0.27 0.11 0.54 0-0.04-0.01-0.07 0.01 0.14 0.02 0.29 0.03 0.09 0.12 0.15 0.09 0.05 0.19 0.02 0.1-0.03 0.15-0.11 0.04-0.08 0.03-0.15 0-0.08 0-0.16-0.02-0.12-0.04-0.25-0.04-0.2-0.08-0.4-0.05-0.19-0.1-0.37-0.08-0.26-0.21-0.5-0.09-0.13-0.25-0.17-0.09-0.02-0.19-0.02-0.07-0.01-0.15-0.02 0.04 0.01 0.07 0.01-0.32-0.04-0.61-0.15-0.17-0.08-0.33-0.18 0.02 0.01 0.03 0.02-0.02-0.01-0.03-0.02-0.01-0.01-0.02-0.01 0.01 0 0.01 0-0.21-0.17-0.4-0.36-0.11-0.12-0.2-0.24-0.23-0.32-0.43-0.64-0.08-0.12-0.22-0.12-0.06 0-0.12 0.03z"/>
    <path class="s0" d="m27.68 36.03q-0.04 0.02-0.09 0.04-0.05 0.04-0.11 0.09-0.07 0.06-0.15 0.13-0.13 0.08-0.28 0.15-0.14 0.07-0.27 0.17-0.27 0.18-0.56 0.32 0 0 0.01-0.01-0.26 0.11-0.53 0.17-0.28 0.07-0.57 0.11 0.01 0 0.01 0-0.52 0.06-1.03 0.13 0.03-0.01 0.07-0.01-0.45 0.06-0.9 0.1-0.41 0.04-0.83 0.03-0.35 0.01-0.7 0-0.3 0-0.6-0.04 0.03 0.01 0.07 0.01-0.36-0.06-0.71-0.15-0.37-0.08-0.74-0.12-0.1 0-0.18 0.07-0.07 0.08-0.07 0.18 0 0.1 0.07 0.17 0.08 0.07 0.18 0.08 0.11 0.01 0.22 0.02 0.29 0.05 0.57 0.12 0.18 0.05 0.35 0.09 0.26 0.04 0.51 0.06 0.29 0.01 0.58 0.01 0.34 0.01 0.68 0 0.38-0.01 0.76-0.04 0.46-0.05 0.92-0.12-0.04 0.01-0.07 0.01 0.69-0.07 1.37-0.19 0.5-0.09 0.96-0.32 0.29-0.16 0.56-0.35c0.11-0.07 0.23-0.11 0.34-0.18q0.17-0.12 0.33-0.26 0.01 0 0.02-0.01-0.01 0-0.01 0 0 0 0 0 0 0 0 0-0.01 0.01-0.01 0.01 0.07-0.03 0.11-0.11 0.06-0.08 0.03-0.19-0.03-0.09-0.12-0.15-0.05-0.03-0.13-0.03-0.03 0-0.06 0.01z"/>
    <path class="s0" d="m19.47 37.12q-0.01 0.69 0 1.38 0 0.23 0.01 0.46 0 0 0 0-0.19 0.12-0.37 0.27-0.16 0.13-0.31 0.27-0.24 0.23-0.47 0.47-0.46 0.47-0.9 0.95-0.48 0.54-0.92 1.12-0.37 0.49-0.72 1-0.38 0.52-0.74 1.06-0.31 0.46-0.56 0.96-0.13 0.25-0.13 0.53 0.01 0.23 0.08 0.45 0.09 0.31 0.18 0.64 0.21 0.78 0.41 1.56c0.12 0.47 0.25 0.96 0.46 1.4q0.15 0.31 0.33 0.6 0.09 0.14 0.18 0.28 0.13 0.17 0.26 0.33 0.16 0.18 0.32 0.36 0.2 0.21 0.41 0.42c0.08 0.08 0.18 0.17 0.3 0.17 0.16 0 0.26-0.12 0.29-0.27q0.02-0.09-0.03-0.19-0.05-0.08-0.15-0.11-0.06-0.02-0.11-0.01-0.16-0.15-0.3-0.31-0.26-0.28-0.5-0.57-0.19-0.26-0.35-0.54-0.15-0.26-0.28-0.54-0.16-0.44-0.28-0.9-0.13-0.5-0.26-1-0.13-0.49-0.26-0.99c-0.07-0.24-0.16-0.48-0.2-0.73q0-0.06 0-0.12 0.01-0.08 0.04-0.17 0.15-0.31 0.33-0.6 0.11-0.19 0.23-0.37 0.15-0.21 0.3-0.43 0.26-0.4 0.55-0.78 0.29-0.42 0.59-0.82 0 0 0 0 0.05-0.06 0.09-0.12 0 0 0 0.01 0-0.01 0-0.01 0.02-0.02 0.03-0.04-0.01 0.01-0.02 0.03 0.29-0.38 0.61-0.74 0.36-0.41 0.72-0.8 0.32-0.34 0.65-0.66 0.27-0.26 0.56-0.5-0.01 0.01-0.03 0.03 0.12-0.1 0.26-0.18 0.09-0.01 0.15-0.07 0.05-0.05 0.07-0.12 0.01-0.07 0-0.13 0-0.03-0.01-0.06-0.01-0.11-0.01-0.22 0-0.21 0-0.41-0.01-0.62 0-1.24c0-0.14-0.12-0.25-0.25-0.25-0.14 0-0.25 0.11-0.25 0.25z"/>
    <path class="s0" d="m15.22 33c-0.08 0.08-0.1 0.21-0.04 0.3q-0.05 0.24-0.14 0.47-0.07 0.14-0.17 0.27-0.17 0.2-0.37 0.37-0.1 0.09-0.19 0.18-0.12 0.11-0.23 0.23-0.07 0.08-0.1 0.18-0.03 0.14 0.05 0.26 0.05 0.09 0.11 0.16 0.04 0.06 0.07 0.1 0.18 0.27 0.31 0.55 0.1 0.27 0.17 0.56 0.11 0.42 0.17 0.84 0 0 0 0 0.01 0.12 0.02 0.23 0.01 0.15 0.01 0.3-0.01 0.27-0.05 0.55 0 0 0 0 0 0 0 0.01 0 0.03 0 0.05 0-0.01 0-0.02-0.06 0.38-0.14 0.75-0.06 0.29-0.17 0.57-0.3 0.66-0.74 1.22-0.06 0.07-0.12 0.13c-0.06 0.08-0.15 0.16-0.14 0.27q0 0.11 0.08 0.19 0.08 0.07 0.2 0.08 0.11 0 0.22 0 0.3 0 0.6-0.03 0.26-0.02 0.52-0.01 0.17 0.03 0.33 0.09 0.04 0.02 0.07 0.04 0.05 0.05 0.1 0.11 0.05 0.07 0.09 0.14-0.01 0-0.01-0.01 0 0.01 0.01 0.01 0.01 0.03 0.02 0.05-0.01-0.02-0.02-0.04 0.03 0.06 0.04 0.13 0 0.02 0 0.03-0.06 0.21-0.15 0.4 0.01-0.02 0.02-0.04-0.05 0.12-0.1 0.24-0.1 0.17-0.19 0.35c-0.07 0.12-0.03 0.27 0.09 0.34 0.11 0.07 0.27 0.03 0.34-0.09q0.12-0.2 0.22-0.41 0.1-0.23 0.19-0.47 0.07-0.15 0.08-0.32 0-0.13-0.04-0.25-0.06-0.17-0.16-0.31-0.05-0.08-0.11-0.14-0.03-0.03-0.05-0.06-0.1-0.09-0.24-0.15-0.29-0.14-0.62-0.15-0.2 0-0.4 0.02-0.19 0.02-0.37 0.02 0.01-0.02 0.03-0.05 0.21-0.29 0.39-0.59 0.24-0.4 0.38-0.84 0.08-0.25 0.13-0.52 0.06-0.3 0.1-0.61 0.05-0.32 0.06-0.63 0.01-0.15 0.01-0.31-0.01-0.17-0.04-0.34-0.03-0.32-0.11-0.64-0.08-0.33-0.17-0.65-0.11-0.35-0.31-0.66-0.07-0.11-0.14-0.21-0.05-0.07-0.11-0.15 0.08-0.08 0.16-0.16 0.11-0.1 0.22-0.21 0.11-0.09 0.22-0.19 0.14-0.14 0.26-0.32 0.17-0.28 0.25-0.6 0.06-0.2 0.08-0.41c0-0.1-0.05-0.22-0.14-0.27q-0.07-0.03-0.13-0.03-0.12 0-0.21 0.1z"/>
  </g>
  <g id="right-arm">
    <path class="s0" d="m25.75 21.84c-0.14 0-0.25 0.11-0.25 0.25 0 0.13 0.11 0.25 0.25 0.25q0.31-0.01 0.62 0 0.29 0.01 0.58 0.05-0.01 0-0.01 0 0.34 0.05 0.67 0.13 0.43 0.1 0.83 0.25 0.31 0.11 0.6 0.23 0.09 0.04 0.17 0.08 0.18 0.09 0.34 0.19 0.1 0.1 0.2 0.2 0.1 0.11 0.19 0.21 0.2 0.23 0.39 0.47 0.25 0.33 0.48 0.69 0.07 0.11 0.14 0.22 0.02 0.05 0.05 0.09 0.03 0.06 0.08 0.11 0.07 0.07 0.17 0.07 0.11 0 0.18-0.07 0.07-0.07 0.07-0.18 0-0.1-0.07-0.18 0 0 0 0-0.04-0.07-0.09-0.15-0.1-0.16-0.2-0.31-0.15-0.25-0.32-0.48-0.19-0.26-0.41-0.5-0.12-0.14-0.24-0.27-0.07-0.08-0.14-0.15-0.08-0.08-0.17-0.15-0.21-0.17-0.47-0.28-0.15-0.07-0.31-0.13-0.25-0.1-0.5-0.19-0.49-0.18-1-0.29-0.44-0.1-0.9-0.14-0.24-0.02-0.47-0.02-0.12-0.01-0.24-0.01-0.11 0-0.22 0.01z"/>
    <path class="s0" d="m32.18 24.96q-0.68 0.03-1.36 0.05c-0.14 0-0.25 0.11-0.25 0.25 0 0.13 0.11 0.25 0.25 0.25q0.59-0.02 1.19-0.04 0.46-0.03 0.91 0.01 0 0-0.01 0 0.35 0.06 0.67 0.17 0.23 0.11 0.45 0.27-0.01-0.01-0.02-0.02 0.1 0.08 0.19 0.17 0.11 0.11 0.2 0.23 0 0 0 0 0.08 0.11 0.16 0.21 0.06 0.08 0.11 0.17 0.1 0.14 0.17 0.3 0.06 0.17 0.12 0.35 0.09 0.3 0.13 0.62 0 0 0 0 0.02 0.13 0.04 0.25 0.01 0.1 0.02 0.21 0.01 0.16-0.01 0.32-0.03 0.16-0.08 0.32-0.06 0.21-0.14 0.41-0.05 0.14-0.11 0.27-0.21 0.46-0.47 0.89-0.25 0.45-0.55 0.86-0.18 0.26-0.41 0.48c-0.09 0.08-0.12 0.21-0.06 0.31 0.07 0.12 0.23 0.17 0.34 0.09q0.11-0.07 0.19-0.17 0.15-0.17 0.29-0.35 0.17-0.22 0.32-0.45 0.18-0.27 0.33-0.55 0.17-0.28 0.31-0.56 0.08-0.17 0.16-0.34 0.08-0.17 0.14-0.35 0.15-0.38 0.23-0.78 0.05-0.27 0-0.55-0.02-0.17-0.04-0.35-0.05-0.36-0.15-0.72-0.08-0.3-0.22-0.58-0.1-0.18-0.23-0.35-0.09-0.14-0.19-0.26-0.22-0.3-0.52-0.52-0.25-0.18-0.53-0.29-0.27-0.11-0.55-0.16-0.39-0.08-0.77-0.07-0.13 0-0.25 0z"/>
    <path class="s0" d="m28.88 30.89q-0.09 0.06-0.18 0.12-0.03 0.02-0.05 0.04-0.02 0.02-0.05 0.04-0.07 0.05-0.11 0.12-0.19 0.24-0.34 0.5-0.09 0.14-0.18 0.28-0.27 0.44-0.44 0.92-0.11 0.28-0.15 0.57-0.06 0.3-0.1 0.6-0.01 0.13-0.02 0.26 0 0.32 0.05 0.63c0.06 0.41 0.18 0.81 0.31 1.2q0.15 0.5 0.44 0.93 0.28 0.42 0.68 0.73 0.24 0.2 0.49 0.39 0.28 0.19 0.59 0.3 0.2 0.06 0.39 0.12 0.03 0.02 0.06 0.04c0.11 0.08 0.27 0.02 0.34-0.09q0.05-0.09 0.02-0.19-0.03-0.1-0.11-0.15c-0.11-0.08-0.24-0.11-0.36-0.15q-0.17-0.05-0.32-0.11 0.02 0.01 0.04 0.02-0.03-0.01-0.06-0.03 0 0 0 0 0 0 0 0-0.1-0.04-0.19-0.1-0.18-0.11-0.35-0.25 0.01 0.01 0.01 0.02-0.01-0.01-0.02-0.02-0.01-0.01-0.03-0.02 0.01 0 0.01 0-0.08-0.06-0.16-0.13-0.24-0.2-0.45-0.43 0.01 0.02 0.03 0.04-0.02-0.02-0.03-0.04-0.01-0.01-0.01-0.01 0 0 0.01 0.01-0.14-0.2-0.27-0.4-0.12-0.2-0.21-0.42 0.02 0.03 0.03 0.06-0.09-0.25-0.17-0.5-0.16-0.52-0.24-1.07 0 0.02 0 0.03 0-0.02 0-0.03-0.01-0.02-0.01-0.04 0 0.01 0.01 0.03-0.02-0.2-0.02-0.4 0.01-0.13 0.02-0.24 0.04-0.31 0.11-0.61 0.03-0.1 0.05-0.2 0.02-0.09 0.05-0.17 0.03-0.11 0.08-0.21 0.12-0.27 0.26-0.51 0.26-0.44 0.55-0.86 0 0.01-0.01 0.01 0.03-0.03 0.06-0.06 0.1-0.07 0.2-0.14c0.11-0.07 0.16-0.22 0.09-0.34q-0.08-0.12-0.22-0.12-0.07 0-0.12 0.03z"/>
    <path class="s0" d="m33.05 31.71c-0.06 0.11-0.03 0.27 0.09 0.34q0.15 0.07 0.28 0.16 0 0-0.01-0.01 0.01 0.01 0.02 0.02 0.01 0 0.01 0 0 0 0 0 0 0 0 0 0.01 0.01 0.02 0.01-0.01 0-0.02-0.01 0.22 0.2 0.39 0.43 0.18 0.24 0.33 0.49 0.09 0.14 0.16 0.28 0.09 0.19 0.17 0.38 0.03 0.09 0.06 0.17 0.02 0.01 0.03 0.03 0.09 0.09 0.12 0.22 0.01 0.1 0.02 0.2 0-0.03-0.01-0.06 0.03 0.17 0.05 0.34 0.01 0.14 0.01 0.29 0.01 0.15 0.02 0.3 0 0.18-0.02 0.36-0.01 0.18-0.03 0.35 0-0.01 0-0.02 0 0.02 0 0.03 0 0 0 0.01 0-0.01 0 0 0 0.02 0 0.03 0-0.01 0-0.02-0.03 0.16-0.07 0.31-0.06 0.24-0.14 0.48-0.14 0.41-0.31 0.82 0.01-0.04 0.02-0.07-0.12 0.27-0.26 0.52-0.07 0.18-0.19 0.34-0.04 0.05-0.08 0.11-0.04 0.05-0.07 0.09-0.06 0.08-0.13 0.14 0 0-0.01 0-0.14 0.14-0.29 0.27-0.01 0-0.01 0 0 0.01 0 0.01 0 0 0 0 0 0.04 0.01 0.09 0.05 0.07 0.13 0.12 0.12 0.06 0.26 0.03 0.17-0.06 0.3-0.19c0.2-0.21 0.34-0.46 0.48-0.7q0.09-0.15 0.17-0.3 0.07-0.13 0.12-0.27 0.13-0.29 0.23-0.58 0.12-0.33 0.23-0.67 0.08-0.28 0.11-0.56 0.01-0.14 0.02-0.29 0.01-0.11 0.02-0.23 0.01-0.2 0-0.41-0.01-0.22-0.06-0.44-0.04-0.29-0.1-0.58-0.05-0.17-0.11-0.33-0.06-0.14-0.13-0.28-0.01-0.02-0.02-0.04-0.03-0.06-0.04-0.12-0.12-0.24-0.26-0.46-0.13-0.22-0.29-0.44-0.09-0.11-0.17-0.21-0.13-0.16-0.27-0.3-0.2-0.16-0.43-0.27-0.07-0.03-0.13-0.03-0.14 0-0.22 0.12z"/>
    <path class="s0" d="m30.39 38.17q-0.12 0-0.23 0.01-0.08 0.02-0.16 0.05-0.14 0.08-0.24 0.2-0.08 0.1-0.15 0.21-0.11 0.15-0.21 0.31-0.2 0.33-0.38 0.67-0.34 0.65-0.52 1.36-0.08 0.36-0.14 0.74-0.01 0.1-0.03 0.19-0.04 0.33-0.09 0.67-0.02 0.24-0.05 0.48-0.03 0.22 0 0.44 0.01 0.12 0.04 0.24 0.04 0.12 0.08 0.24 0.13 0.33 0.3 0.63 0.06 0.1 0.11 0.2 0.09 0.14 0.18 0.29 0.29 0.46 0.61 0.89 0.22 0.3 0.48 0.56 0.09 0.1 0.19 0.18 0.16 0.11 0.34 0.05c0.13-0.04 0.22-0.17 0.18-0.3-0.03-0.12-0.15-0.2-0.27-0.19q-0.26-0.25-0.48-0.53-0.3-0.41-0.57-0.84-0.14-0.2-0.26-0.43-0.08-0.14-0.15-0.28-0.1-0.19-0.18-0.37 0 0 0 0.01-0.04-0.09-0.06-0.19-0.04-0.11-0.05-0.23-0.01-0.23 0.02-0.45 0.02-0.15 0.03-0.3 0.05-0.39 0.11-0.77 0.04-0.31 0.1-0.62 0.06-0.27 0.14-0.55 0.09-0.25 0.2-0.49-0.02 0.03-0.03 0.06 0.35-0.81 0.87-1.53 0.04-0.05 0.09-0.09 0 0 0.01-0.01 0.02 0 0.04-0.01 0.06 0 0.13 0c0.14-0.01 0.25-0.12 0.25-0.25 0-0.13-0.11-0.25-0.24-0.25q-0.01 0-0.01 0z"/>
    <path class="s0" d="m33.43 38.83q0.05 0.05 0.1 0.1 0.23 0.23 0.43 0.48 0.14 0.17 0.28 0.35-0.01-0.01-0.01-0.02 0.09 0.13 0.18 0.26 0.09 0.14 0.17 0.29 0.04 0.09 0.07 0.19 0.09 0.26 0.13 0.53 0.06 0.27 0.09 0.53 0.01 0.08 0.02 0.16 0.02 0.28 0 0.56-0.01 0.2-0.04 0.39-0.03 0.21-0.06 0.41-0.01 0.07-0.03 0.13-0.04 0.17-0.08 0.33-0.11 0.43-0.25 0.84 0 0 0-0.01 0 0.01-0.01 0.02 0 0 0 0 0 0 0 0-0.01 0.02-0.01 0.04 0-0.01 0.01-0.03-0.11 0.25-0.21 0.51 0.01-0.03 0.02-0.06-0.09 0.2-0.19 0.39-0.12 0.23-0.24 0.46-0.15 0.3-0.34 0.59-0.01 0-0.02 0.01-0.08 0.05-0.11 0.14-0.02 0.1 0.02 0.2c0.04 0.08 0.14 0.13 0.23 0.13q0.12-0.01 0.2-0.1 0.15-0.15 0.24-0.34 0.19-0.33 0.37-0.68 0.08-0.16 0.16-0.32 0.08-0.17 0.16-0.34-0.02 0.03-0.03 0.06 0.09-0.22 0.19-0.45 0 0 0 0 0.12-0.3 0.21-0.61 0.1-0.38 0.19-0.76 0.04-0.18 0.06-0.36 0.02-0.17 0.04-0.32 0.03-0.33 0.03-0.66 0-0.15-0.03-0.31 0-0.08-0.01-0.15-0.06-0.45-0.17-0.89-0.05-0.2-0.14-0.39-0.06-0.16-0.16-0.32-0.2-0.29-0.42-0.57-0.17-0.21-0.35-0.43-0.17-0.18-0.35-0.35-0.16 0.2-0.34 0.37z"/>
    <path class="s0" d="m30.29 46.25q-0.04 0.01-0.09 0.01-0.05 0.02-0.11 0.05-0.06 0.03-0.12 0.06c-0.11 0.07-0.15 0.23-0.09 0.34q0.02 0.03 0.04 0.05-0.03 0.05-0.05 0.1-0.12 0.23-0.24 0.46-0.27 0.56-0.54 1.11-0.24 0.51-0.46 1.03-0.13 0.28-0.14 0.59-0.01 0.32 0.17 0.59 0.09 0.11 0.19 0.21 0.16 0.14 0.35 0.2 0.2 0.07 0.41 0.06 0.16-0.02 0.31-0.07 0.18-0.06 0.37-0.1 0.08-0.01 0.16-0.01c0.22 0 0.41-0.09 0.61-0.17q0.09-0.06 0.11-0.15 0.03-0.1-0.02-0.2-0.06-0.08-0.15-0.11-0.1-0.02-0.19 0.02-0.05 0.02-0.09 0.04 0.04-0.01 0.07-0.02-0.1 0.04-0.2 0.06-0.02 0.03-0.06 0.05-0.19 0.08-0.38 0-0.06 0.02-0.11 0.03-0.23 0.08-0.45 0.13-0.01 0-0.01 0-0.01 0-0.03 0 0.01 0 0.03 0-0.05 0-0.1 0 0 0-0.01 0-0.08-0.02-0.15-0.04-0.05-0.03-0.1-0.07-0.07-0.05-0.13-0.12-0.04-0.06-0.07-0.12-0.02-0.06-0.03-0.13-0.01-0.09 0-0.18 0.05-0.18 0.11-0.35 0.5-1.1 1.04-2.18 0.12-0.24 0.24-0.47 0.05-0.1 0.09-0.2 0.05-0.08 0.07-0.17 0.02-0.11-0.03-0.2c-0.03-0.06-0.12-0.13-0.2-0.13q-0.01 0-0.02 0z"/>
    <path class="s0" d="m30.91 49.57c-0.05 0.03-0.11 0.09-0.12 0.14q-0.03 0.22-0.04 0.43c0 0.15 0.01 0.32 0.08 0.45q0.06 0.11 0.16 0.2 0.16 0.13 0.34 0.22 0.16 0.09 0.32 0.15 0.12 0.04 0.24 0.05 0.2 0.03 0.39 0 0 0 0 0 0 0 0.01 0 0.01 0 0.03 0-0.01 0-0.02 0 0.28-0.03 0.54-0.14 0.28-0.12 0.52-0.29c0.12-0.07 0.17-0.21 0.09-0.34-0.06-0.11-0.22-0.16-0.34-0.09q-0.2 0.15-0.43 0.25-0.2 0.07-0.41 0.11-0.02 0-0.03 0.01 0.01-0.01 0.01-0.01-0.16 0.03-0.33 0.01-0.07-0.02-0.15-0.04-0.2-0.1-0.39-0.22-0.05-0.04-0.1-0.09 0 0 0 0-0.02-0.04-0.02-0.09-0.02-0.21 0.01-0.43 0 0.03-0.01 0.07 0.01-0.04 0.01-0.07 0.03-0.11-0.02-0.19-0.05-0.09-0.15-0.12-0.04-0.01-0.07-0.01-0.07 0-0.12 0.04z"/>
    <path class="s0" d="m33.18 46.46c0 0.14 0.11 0.24 0.25 0.25q0.04 0 0.09 0.01-0.02 0-0.03 0 0.23 0.03 0.44 0.11 0.1 0.05 0.19 0.11 0.09 0.08 0.19 0.17 0.15 0.13 0.28 0.27 0.08 0.11 0.13 0.23 0.04 0.1 0.06 0.2 0 0.12-0.01 0.24 0 0 0-0.01 0 0.01 0 0.02 0 0.02-0.01 0.05 0-0.02 0.01-0.03-0.04 0.19-0.06 0.38c-0.03 0.18-0.06 0.4 0.12 0.52q0.14 0.07 0.29 0.04 0.11-0.01 0.23-0.03 0.22-0.05 0.44-0.09-0.03 0.01-0.07 0.01 0.31-0.04 0.61 0 0.18 0.04 0.35 0.09 0.06 0.03 0.12 0.07 0.03 0.03 0.06 0.06 0.02 0.03 0.03 0.05 0 0.01 0.01 0.02 0 0.01 0 0.03-0.01 0.04-0.03 0.08-0.02 0.05-0.06 0.1-0.08 0.1-0.19 0.18-0.25 0.18-0.53 0.33-0.28 0.16-0.58 0.29-0.34 0.14-0.68 0.24-0.24 0.06-0.47 0.11-0.14 0.02-0.27 0-0.14-0.03-0.27-0.09 0.02 0.01 0.04 0.02-0.06-0.03-0.11-0.05 0.01 0 0.02 0.01-0.02-0.01-0.03-0.01-0.02-0.01-0.03-0.02 0.01 0.01 0.02 0.01-0.14-0.06-0.26-0.15-0.06-0.05-0.1-0.1-0.01-0.01-0.01-0.02 0-0.01 0.01-0.02 0 0-0.01 0.01 0.03-0.03 0.05-0.06 0.07-0.07 0.07-0.17 0-0.11-0.07-0.18c-0.09-0.09-0.27-0.11-0.35 0q-0.06 0.07-0.12 0.14-0.04 0.06-0.06 0.12-0.03 0.07-0.03 0.15 0 0.13 0.07 0.26 0.05 0.09 0.14 0.17 0.1 0.1 0.22 0.17 0.16 0.1 0.34 0.17-0.03-0.01-0.06-0.02 0.18 0.08 0.37 0.14 0.14 0.03 0.29 0.03 0.14 0 0.28-0.03 0.15-0.03 0.3-0.07 0.39-0.1 0.77-0.25 0.35-0.14 0.68-0.32c0.37-0.2 0.78-0.41 1.02-0.77q0.11-0.18 0.13-0.38 0-0.22-0.12-0.4c-0.2-0.27-0.53-0.37-0.84-0.43q-0.39-0.06-0.78 0-0.23 0.04-0.46 0.09 0.03-0.16 0.05-0.32 0.03-0.18 0.03-0.36-0.03-0.3-0.17-0.56-0.07-0.12-0.15-0.23-0.09-0.1-0.2-0.19c-0.17-0.16-0.33-0.32-0.54-0.43q-0.37-0.19-0.79-0.21-0.01 0-0.01 0c-0.14 0-0.24 0.12-0.24 0.25z"/>
  </g>
  <g id="left-arm">
    <path class="s0" d="m13.55 23.88q-0.1 0.01-0.19 0.03-0.12 0.02-0.23 0.07-0.09 0.04-0.19 0.1-0.09 0.05-0.19 0.1-0.43 0.24-0.76 0.61-0.24 0.3-0.37 0.67-0.07 0.18-0.11 0.36-0.04 0.24-0.07 0.48-0.03 0.28-0.03 0.56c0 0.12-0.02 0.27 0.02 0.39 0.04 0.13 0.17 0.21 0.31 0.18 0.13-0.04 0.21-0.18 0.17-0.31q0-0.01 0-0.01 0-0.15 0-0.3 0-0.29 0.04-0.58 0 0 0 0 0.02-0.18 0.06-0.36 0.04-0.15 0.1-0.3 0.09-0.21 0.22-0.41 0.15-0.18 0.34-0.33 0.15-0.11 0.32-0.2 0.19-0.12 0.39-0.22-0.02 0.01-0.04 0.02 0.08-0.03 0.16-0.04 0.02 0 0.05-0.01c0.14 0 0.25-0.1 0.25-0.25 0-0.12-0.11-0.25-0.24-0.25q0 0-0.01 0z"/>
    <path class="s0" d="m11.74 27.18q-0.1 0.04-0.2 0.08-0.08 0.03-0.17 0.07-0.14 0.07-0.29 0.15-0.12 0.06-0.24 0.14-0.06 0.05-0.11 0.11-0.08 0.09-0.13 0.19-0.24 0.41-0.38 0.86-0.14 0.49-0.16 0.99-0.04 0.52 0.03 1.03 0.06 0.37 0.15 0.74 0.07 0.32 0.2 0.62 0.19 0.5 0.47 0.94 0.22 0.36 0.45 0.72 0.09 0.13 0.2 0.26 0.12 0.14 0.31 0.2c0.13 0.05 0.27-0.05 0.31-0.17q0.02-0.1-0.03-0.19-0.06-0.09-0.15-0.12-0.01 0-0.01 0 0.02 0.01 0.04 0.02-0.03-0.02-0.06-0.03-0.04-0.05-0.08-0.09-0.22-0.32-0.42-0.65-0.28-0.43-0.5-0.9 0 0.01 0.01 0.02-0.15-0.35-0.25-0.71-0.09-0.4-0.16-0.8 0 0.01 0 0.03 0-0.03 0-0.06 0 0 0-0.01 0 0.01 0 0.01-0.06-0.62 0.02-1.24 0 0.04-0.01 0.07 0.07-0.46 0.24-0.89-0.01 0.02-0.02 0.04 0.01-0.02 0.03-0.05 0 0 0-0.01 0 0.01 0 0.01 0.12-0.24 0.25-0.47 0.03-0.03 0.05-0.06 0.24-0.15 0.49-0.27-0.02 0.01-0.05 0.02 0.15-0.06 0.3-0.12c0.13-0.04 0.22-0.16 0.18-0.3-0.03-0.11-0.14-0.19-0.25-0.19q-0.03 0-0.06 0.01z"/>
    <path class="s0" d="m12.08 33.86q-0.14 0.04-0.27 0.11-0.09 0.05-0.16 0.13-0.23 0.22-0.41 0.5-0.19 0.26-0.37 0.53-0.17 0.27-0.31 0.56-0.13 0.27-0.23 0.54-0.13 0.38-0.23 0.76-0.16 0.68-0.17 1.38-0.01 0.33 0.03 0.65 0.02 0.18 0.05 0.36 0.05 0.28 0.15 0.56 0.2 0.65 0.49 1.27 0.25 0.52 0.53 1.03 0.06 0.13 0.14 0.24 0.06 0.11 0.16 0.19 0.1 0.06 0.21 0.06c0.14 0.01 0.25-0.11 0.25-0.25 0-0.12-0.08-0.21-0.18-0.24q-0.06-0.08-0.1-0.17-0.13-0.23-0.25-0.46-0.27-0.5-0.49-1.01-0.12-0.3-0.22-0.61-0.07-0.19-0.12-0.37-0.08-0.26-0.11-0.52 0 0.03 0.01 0.07-0.06-0.45-0.04-0.91 0.02-0.42 0.07-0.84 0.06-0.26 0.13-0.52 0.04-0.14 0.09-0.29 0.06-0.16 0.11-0.32 0.07-0.17 0.15-0.35 0.1-0.19 0.2-0.38 0.12-0.19 0.25-0.37 0.16-0.25 0.34-0.49-0.01 0.01-0.02 0.02 0.13-0.17 0.29-0.31 0.02-0.02 0.05-0.03 0.06-0.02 0.11-0.03c0.13-0.04 0.21-0.18 0.18-0.31-0.03-0.11-0.14-0.19-0.25-0.19q-0.03 0-0.06 0.01z"/>
    <path class="s0" d="m11.98 42q-0.29 0.27-0.58 0.53-0.15 0.15-0.27 0.31-0.17 0.26-0.26 0.56-0.12 0.37-0.12 0.77 0.01 0.23 0.05 0.45 0.03 0.23 0.1 0.44 0.09 0.3 0.21 0.58 0.07 0.15 0.16 0.28 0.15 0.25 0.4 0.4c0.23 0.13 0.5 0.15 0.76 0.11q0.35-0.05 0.68-0.21 0.17-0.1 0.34-0.21 0.19-0.11 0.38-0.21c0.12-0.06 0.15-0.23 0.09-0.35-0.07-0.12-0.22-0.15-0.34-0.09q-0.21 0.11-0.41 0.24-0.19 0.12-0.38 0.22-0.24 0.09-0.48 0.12-0.1 0.01-0.19 0.01-0.08-0.02-0.16-0.04-0.05-0.02-0.09-0.06-0.08-0.06-0.14-0.14-0.11-0.15-0.19-0.33 0.01 0.04 0.02 0.07-0.12-0.29-0.2-0.59-0.06-0.22-0.09-0.44 0 0 0 0-0.04-0.29 0-0.59 0.05-0.24 0.14-0.47 0.08-0.16 0.19-0.32-0.01 0.01-0.01 0.01 0 0 0.01-0.01 0.01-0.02 0.03-0.04-0.01 0.02-0.03 0.03 0.11-0.11 0.23-0.22 0.25-0.22 0.5-0.45c0.1-0.1 0.1-0.26 0-0.36q-0.07-0.07-0.17-0.07-0.1 0-0.18 0.07z"/>
    <path class="s0" d="m12.72 43.26q0.03 0.4 0.06 0.79 0.01 0.16 0.03 0.31 0 0.11 0.04 0.22 0.02 0.06 0.06 0.11 0.07 0.07 0.14 0.14 0.08 0.08 0.15 0.16 0.11 0.11 0.22 0.21 0.29 0.24 0.66 0.35 0.16 0.04 0.32 0.06 0.12 0.03 0.24 0 0.13-0.05 0.22-0.15c0.09-0.09 0.09-0.25 0-0.35-0.1-0.1-0.26-0.1-0.36 0q-0.01 0.01-0.01 0.01-0.01 0-0.02 0 0.01 0 0.02 0 0 0 0 0-0.22-0.03-0.43-0.11-0.14-0.06-0.27-0.15-0.1-0.09-0.19-0.18-0.15-0.15-0.29-0.29 0-0.02 0-0.04 0 0.02 0 0.03-0.02-0.2-0.04-0.41-0.03-0.36-0.05-0.71-0.01-0.1-0.08-0.18-0.07-0.07-0.17-0.07c-0.13 0-0.27 0.11-0.25 0.25z"/>
  </g>
  <g id="legs">
    <path class="s0" d="m21.84 39.64c-0.01 0.24-0.04 0.48-0.01 0.72q0.04 0.14 0.14 0.24 0.14 0.12 0.3 0.18 0.23 0.1 0.47 0.16 0.19 0.03 0.37 0.03c0.13 0 0.25-0.12 0.25-0.25 0-0.14-0.12-0.25-0.25-0.25q-0.12 0-0.23-0.02-0.22-0.05-0.43-0.13-0.05-0.02-0.1-0.05-0.02-0.02-0.03-0.03 0 0 0-0.01-0.01-0.3 0.02-0.59c0.01-0.14-0.12-0.25-0.25-0.25-0.14 0-0.24 0.11-0.25 0.25z"/>
    <path class="s0" d="m23.65 40.03q-0.11 0.1-0.22 0.2-0.12 0.14-0.23 0.29-0.13 0.17-0.26 0.35-0.02 0.03-0.04 0.05 0.01 0 0.01-0.01-0.01 0.02-0.03 0.04 0 0.01-0.01 0.01 0 0 0.01 0-0.29 0.36-0.58 0.73-0.15 0.19-0.29 0.38-0.18 0.26-0.34 0.54-0.37 0.59-0.7 1.2-0.16 0.3-0.29 0.61-0.14 0.3-0.26 0.62-0.03 0.1-0.06 0.2-0.03 0.12-0.01 0.25c0.02 0.1 0.1 0.18 0.16 0.26q0.16 0.23 0.27 0.5-0.01-0.02-0.01-0.03 0.17 0.41 0.33 0.81-0.01-0.03-0.02-0.06 0.07 0.18 0.15 0.35-0.01 0-0.01-0.01 0.03 0.06 0.06 0.13-0.02-0.03-0.03-0.06 0.19 0.48 0.42 0.95 0.08 0.15 0.16 0.3 0.11 0.18 0.25 0.34 0.11 0.14 0.22 0.29 0.11 0.14 0.23 0.27 0.35 0.41 0.75 0.78 0.21 0.19 0.44 0.36 0.22 0.17 0.44 0.35-0.02-0.03-0.05-0.04 0.05 0.03 0.09 0.06 0.01 0.01 0.01 0.01 0 0 0-0.01 0.01 0.02 0.03 0.03 0 0-0.01 0 0.22 0.17 0.45 0.35 0.16 0.12 0.35 0.21 0.16 0.08 0.33 0.13c0.14 0.04 0.29 0.06 0.42-0.02 0.12-0.07 0.16-0.22 0.09-0.35-0.06-0.1-0.2-0.15-0.32-0.1q-0.12-0.03-0.23-0.07-0.26-0.13-0.49-0.31-0.18-0.15-0.36-0.29 0.02 0.02 0.05 0.04-0.23-0.18-0.46-0.35-0.22-0.17-0.43-0.35-0.2-0.19-0.39-0.39-0.24-0.27-0.48-0.54-0.2-0.24-0.39-0.48 0.03 0.02 0.04 0.04-0.13-0.18-0.24-0.38-0.05-0.1-0.09-0.19-0.11-0.22-0.21-0.44-0.09-0.22-0.19-0.45 0.01 0.01 0.01 0.02-0.07-0.16-0.14-0.33 0.02 0.03 0.03 0.06-0.04-0.09-0.08-0.18 0.01 0.03 0.03 0.06-0.2-0.49-0.41-0.97-0.05-0.12-0.13-0.23-0.07-0.1-0.15-0.2 0 0 0 0 0.01 0.01 0.02 0.02-0.01-0.01-0.02-0.02 0.04-0.12 0.09-0.25 0.08-0.21 0.17-0.41-0.02 0.03-0.03 0.06 0.15-0.36 0.33-0.69 0.21-0.39 0.43-0.76 0.22-0.39 0.47-0.77 0.19-0.28 0.4-0.55 0 0 0 0 0.02-0.03 0.04-0.05 0.29-0.37 0.58-0.75-0.01 0.02-0.03 0.03 0.22-0.28 0.43-0.55 0.13-0.16 0.29-0.29c0.1-0.09 0.09-0.26 0-0.35q-0.08-0.07-0.18-0.07-0.11 0-0.18 0.07z"/>
    <path class="s0" d="m28.41 42.13q-0.27 0.27-0.52 0.55-0.19 0.22-0.37 0.43-0.44 0.49-0.88 0.98-0.09 0.12-0.17 0.24-0.07 0.09-0.1 0.19-0.04 0.11-0.06 0.23-0.03 0.29 0.02 0.58 0-0.01 0-0.02 0.05 0.4 0.14 0.81 0.06 0.28 0.17 0.55 0.11 0.31 0.25 0.62c0.17 0.35 0.38 0.68 0.58 1.02q0.11 0.19 0.21 0.39c0.06 0.11 0.12 0.23 0.22 0.31q0.07 0.07 0.17 0.07 0.11 0 0.18-0.07 0.07-0.07 0.07-0.18 0.01-0.1-0.07-0.17-0.02-0.02-0.03-0.03-0.08-0.13-0.15-0.27-0.12-0.22-0.25-0.44-0.15-0.26-0.31-0.52-0.14-0.26-0.25-0.52-0.2-0.45-0.32-0.93-0.07-0.31-0.11-0.63 0 0.01 0 0.01 0-0.02 0-0.05 0-0.01-0.01-0.01 0 0 0 0 0-0.01 0-0.02 0.01 0.02 0.01 0.04-0.04-0.25-0.02-0.49 0.01-0.05 0.02-0.11 0.04-0.08 0.1-0.15-0.01 0-0.01 0.01 0-0.01 0.01-0.02 0.01-0.02 0.03-0.03-0.01 0.01-0.02 0.02 0.12-0.14 0.24-0.28 0.29-0.32 0.57-0.64 0.22-0.25 0.44-0.5 0.28-0.32 0.58-0.62c0.09-0.1 0.09-0.26 0-0.35q-0.08-0.08-0.18-0.08-0.1 0-0.18 0.08z"/>
    <path class="s0" d="m27.83 48.86c-0.03 0.12 0.05 0.27 0.18 0.3q0.11 0.02 0.21 0.06 0.02 0.01 0.04 0.02 0.08 0.08 0.16 0.14 0.07 0.07 0.17 0.08 0.11 0 0.18-0.08 0.07-0.07 0.07-0.17 0-0.11-0.07-0.18c-0.1-0.08-0.19-0.18-0.3-0.25q-0.16-0.07-0.33-0.1-0.03-0.01-0.06-0.01-0.18 0.01-0.25 0.19z"/>
    <path class="s0" d="m29.66 50.72c-0.12 0.07-0.15 0.22-0.09 0.34q0.05 0.09 0.1 0.18 0.02 0 0.03 0 0.09-0.01 0.17 0.04 0.09 0.06 0.13 0.16 0.02 0.08-0.01 0.15-0.04 0.11-0.12 0.17 0.01 0.04 0.05 0.08 0.1 0.09 0.24 0.06 0.06-0.02 0.11-0.06 0.07-0.08 0.07-0.18 0 0 0 0 0.01-0.04-0.01-0.08-0.02-0.14-0.06-0.27-0.11-0.26-0.26-0.5-0.08-0.12-0.22-0.12-0.07 0-0.13 0.03z"/>
    <path class="s0" d="m28.83 50.7q-0.27 0-0.53 0.02c-0.47 0.05-0.93 0.18-1.4 0.27q-0.21 0.04-0.42 0.08-0.4 0.09-0.81 0.19c-0.13 0.03-0.21 0.18-0.17 0.31 0.03 0.13 0.17 0.2 0.3 0.17q0.38-0.09 0.75-0.18 0.18-0.03 0.37-0.07c0.4-0.07 0.8-0.18 1.2-0.25q-0.01 0.01-0.03 0.01 0.03-0.01 0.07-0.01 0.33-0.04 0.67-0.04 0.26 0 0.52 0.02-0.01 0-0.01 0 0.09 0.01 0.18 0.03 0.07-0.01 0.15-0.01 0.01 0 0.03 0 0.09-0.01 0.17 0.04 0.02 0.01 0.04 0.03c0.1 0 0.2-0.05 0.24-0.14q0.05-0.09 0.03-0.19-0.03-0.1-0.12-0.15-0.08-0.05-0.18-0.03-0.3-0.05-0.61-0.09-0.14-0.01-0.28-0.01-0.08 0-0.16 0z"/>
    <path class="s0" d="m29.86 51.24q-0.01 0.01-0.02 0.02 0.02 0.01 0.03 0.02 0.09 0.06 0.13 0.16 0.02 0.08-0.01 0.15-0.05 0.13-0.16 0.2-0.05 0.03-0.1 0.05-0.14 0.08-0.29 0.12 0 0.01 0 0.01 0 0-0.01 0-0.01 0.01-0.02 0.02-0.1 0.1-0.21 0.19-0.24 0.17-0.5 0.31-0.35 0.19-0.73 0.36 0.03-0.01 0.06-0.02-0.27 0.1-0.54 0.2-0.38 0.15-0.72 0.38-0.24 0.14-0.47 0.29-0.14 0.1-0.3 0.19-0.01 0.01-0.02 0.01-0.02 0.01-0.03 0.01 0.01 0 0.03-0.01-0.05 0.02-0.11 0.03 0 0-0.01 0-0.07-0.02-0.15-0.04-0.09-0.05-0.16-0.1-0.05-0.04-0.08-0.08-0.01 0-0.01 0 0 0 0-0.01-0.07-0.1-0.13-0.22c-0.06-0.15-0.08-0.36-0.27-0.41q-0.15-0.03-0.29 0.05-0.07 0.04-0.15 0.09-0.4 0.23-0.82 0.42 0.02-0.01 0.04-0.02-0.44 0.19-0.91 0.27-0.25 0.02-0.51-0.02 0.03 0 0.07 0.01-0.1-0.01-0.2-0.03 0.11-0.07 0.22-0.12 0.27-0.13 0.55-0.24-0.03 0.01-0.06 0.02 0.37-0.16 0.75-0.25 0.02-0.01 0.05-0.02c0.06-0.02 0.08-0.04 0.12-0.07 0.05-0.04 0.08-0.12 0.08-0.18q-0.01-0.11-0.08-0.18c-0.05-0.06-0.13-0.08-0.2-0.1q-0.07-0.01-0.14-0.04-0.11-0.06-0.21-0.13 0 0 0 0 0 0 0.01-0.01 0.24-0.17 0.52-0.29-0.03 0.01-0.06 0.02 0.35-0.15 0.72-0.22 0.23-0.02 0.47-0.01 0.37 0 0.75 0.03c0.13 0 0.25-0.12 0.25-0.25 0-0.15-0.12-0.25-0.25-0.25q-0.46-0.03-0.93-0.03-0.32-0.01-0.62 0.07-0.47 0.12-0.89 0.36-0.16 0.09-0.3 0.21-0.12 0.09-0.17 0.22-0.06 0.16 0.02 0.31 0.07 0.15 0.18 0.25-0.4 0.16-0.79 0.34-0.14 0.06-0.27 0.14-0.06 0.04-0.13 0.1-0.07 0.06-0.13 0.14-0.06 0.1-0.07 0.22 0.01 0.11 0.07 0.2 0.14 0.17 0.35 0.22 0.16 0.04 0.32 0.06 0.18 0.02 0.35 0.03c0.27 0 0.54-0.07 0.8-0.15q0.43-0.14 0.82-0.34 0.24-0.12 0.47-0.25 0.04 0.09 0.08 0.16 0.1 0.2 0.26 0.34 0.19 0.16 0.43 0.24 0.13 0.04 0.26 0.04 0.1-0.01 0.19-0.04 0.06-0.02 0.12-0.05c0.19-0.07 0.35-0.2 0.52-0.31q0.21-0.14 0.44-0.27 0.21-0.14 0.45-0.24-0.01 0-0.02 0 0.2-0.08 0.41-0.15 0.26-0.09 0.5-0.22 0.19-0.09 0.37-0.18 0-0.01 0-0.01 0 0 0 0.01 0-0.01 0.01-0.01 0.07-0.05 0.14-0.09 0.08-0.05 0.15-0.09 0.09-0.06 0.17-0.11 0.06-0.03 0.12-0.07 0.05-0.04 0.11-0.08 0.04-0.05 0.09-0.11 0.05-0.05 0.12-0.09 0.03-0.02 0.05-0.04 0.08-0.07 0.15-0.14 0.14-0.16 0.22-0.37 0.03-0.07 0.06-0.14 0.02-0.07 0.03-0.13c0-0.05-0.02-0.13-0.05-0.16q-0.07-0.1-0.18-0.13-0.04 0-0.07 0-0.07 0-0.13 0.03z"/>
    <path class="s0" d="m20.61 50.38q-0.18 0.04-0.36 0.08-0.43 0.11-0.85 0.25-0.46 0.14-0.92 0.28-0.55 0.17-1.09 0.31c-0.14 0.03-0.21 0.18-0.18 0.31 0.04 0.13 0.18 0.21 0.31 0.17q0.5-0.13 1-0.28 0.48-0.15 0.95-0.29 0.44-0.14 0.88-0.26 0.19-0.05 0.39-0.08c0.14-0.04 0.21-0.19 0.17-0.31-0.03-0.12-0.13-0.19-0.24-0.19q-0.03 0-0.06 0.01z"/>
    <path class="s0" d="m20.33 45.41q-0.11 0.09-0.2 0.18-0.22 0.22-0.43 0.47-0.07 0.08-0.14 0.16-0.1 0.1-0.2 0.22-0.06 0.07-0.1 0.16-0.03 0.09-0.04 0.19 0.01 0.08 0.02 0.17 0.01 0.06 0.02 0.12 0.08 0.3 0.21 0.59 0.19 0.5 0.34 1.02 0.09 0.28 0.19 0.55 0.12 0.34 0.25 0.68 0.11 0.28 0.26 0.53 0.09 0.12 0.22 0.18 0.11 0.07 0.22 0.13c0.12 0.06 0.27 0.03 0.35-0.09 0.06-0.12 0.02-0.28-0.09-0.34q-0.14-0.08-0.28-0.16-0.12-0.2-0.21-0.42-0.19-0.5-0.37-1.01-0.13-0.41-0.26-0.82-0.13-0.35-0.26-0.7-0.07-0.19-0.1-0.38 0-0.03 0-0.06 0.01-0.02 0.01-0.03 0.1-0.11 0.2-0.21 0.11-0.12 0.21-0.24 0.23-0.27 0.49-0.5 0.07-0.01 0.12-0.04 0.09-0.05 0.12-0.15 0.02-0.1-0.03-0.19-0.05-0.09-0.15-0.11-0.05-0.02-0.09-0.02-0.16 0.01-0.28 0.12z"/>
    <path class="s0" d="m20.53 50.56q-0.09 0.05-0.12 0.15-0.03 0.1 0.03 0.19 0.07 0.1 0.16 0.18 0.08 0.06 0.14 0.12 0.01 0.01 0.02 0.03 0.02 0.09 0.04 0.19 0-0.01 0-0.03 0.02 0.18 0.02 0.35-0.01 0.02-0.01 0.04-0.01 0.01-0.02 0.03-0.01 0.01-0.03 0.02-0.03 0.02-0.07 0.04 0.02 0 0.03-0.01-0.01 0.01-0.03 0.01-0.01 0.01-0.03 0.02 0.02-0.01 0.03-0.02-0.19 0.08-0.39 0.13-0.24 0.05-0.48 0.08c-0.48 0.1-0.93 0.3-1.39 0.48q-0.47 0.19-0.95 0.36-0.56 0.18-1.14 0.35-0.57 0.19-1.14 0.38-0.22 0.07-0.45 0.12-0.17 0.04-0.34 0.06 0.02-0.01 0.03-0.01-0.29 0.05-0.59 0.03-0.09-0.01-0.18-0.04-0.06-0.03-0.11-0.06-0.04-0.03-0.07-0.07-0.02-0.03-0.04-0.06-0.01-0.05-0.03-0.1 0-0.09 0-0.19-0.01-0.12-0.02-0.24-0.02-0.12-0.11-0.2c-0.07-0.08-0.18-0.1-0.28-0.1q-0.16-0.01-0.3-0.01-0.16-0.01-0.33-0.03-0.35-0.05-0.7-0.18 0.03-0.01 0.06-0.03 0.2-0.07 0.4-0.12 0.24-0.06 0.48-0.1-0.02 0-0.03 0 0.02 0 0.04 0 0.01 0 0.02 0-0.01 0-0.02 0 0.29-0.03 0.58 0 0.11 0.01 0.22 0.03 0.2 0.03 0.32-0.13 0.06-0.14 0-0.26-0.04-0.07-0.09-0.12-0.1-0.07-0.18-0.16-0.01-0.02-0.02-0.03 0-0.02-0.01-0.03 0-0.01 0-0.02 0.01 0 0.01 0 0.01-0.02 0.02-0.04 0.02-0.02 0.04-0.04 0.05-0.03 0.1-0.06 0.05-0.02 0.1-0.03 0.1-0.01 0.2 0 0.25 0.04 0.48 0.14-0.03-0.01-0.06-0.02 0.41 0.17 0.8 0.39c0.11 0.07 0.23 0.15 0.37 0.14q0.16-0.02 0.33-0.03 0.41-0.05 0.82-0.11 0.24-0.04 0.48-0.09 0.15-0.04 0.31-0.07-0.03 0.01-0.07 0.02 0.08-0.01 0.15-0.01 0.07 0.02 0.13 0.04c0.14 0.04 0.28-0.05 0.31-0.17 0.04-0.14-0.04-0.27-0.17-0.31q-0.17-0.06-0.36-0.06-0.17 0.01-0.33 0.05-0.39 0.09-0.78 0.15 0.01 0 0.02 0-0.24 0.03-0.47 0.05-0.1 0.01-0.2 0.02-0.09 0.02-0.18 0.02-0.07-0.04-0.15-0.09-0.11-0.07-0.23-0.13-0.21-0.11-0.42-0.2c-0.29-0.13-0.58-0.24-0.89-0.24-0.3 0-0.61 0.14-0.77 0.4q-0.08 0.14-0.09 0.29 0 0.1 0.04 0.19-0.27 0-0.53 0.04-0.36 0.06-0.7 0.17-0.23 0.06-0.42 0.19-0.06 0.05-0.12 0.1-0.07 0.08-0.1 0.18c-0.02 0.05-0.02 0.14 0 0.19q0.04 0.11 0.11 0.2 0.07 0.07 0.16 0.12 0.17 0.08 0.35 0.13 0.17 0.05 0.35 0.08 0.25 0.05 0.52 0.07 0.15 0.01 0.31 0.01 0 0.14 0.01 0.28 0.03 0.25 0.19 0.46 0.23 0.25 0.56 0.31 0.3 0.05 0.6 0.01 0.41-0.03 0.81-0.13c0.47-0.14 0.92-0.32 1.39-0.46 0.45-0.14 0.9-0.25 1.34-0.42q0.56-0.21 1.12-0.44 0.4-0.17 0.83-0.28 0.34-0.07 0.68-0.13 0.15-0.04 0.29-0.09c0.15-0.06 0.31-0.12 0.42-0.24q0.08-0.11 0.13-0.23 0.02-0.08 0.03-0.16 0-0.05 0-0.12-0.01-0.17-0.03-0.34-0.03-0.19-0.12-0.36c-0.08-0.13-0.21-0.2-0.31-0.3q-0.05-0.08-0.14-0.11-0.03-0.01-0.07-0.01-0.06 0.01-0.12 0.04z"/>
  </g>
</svg>