<svg version="1.2" xmlns="http://www.w3.org/2000/svg" viewBox="0 0 90 104" width="90" height="104">
  <style>
    .s0 { fill: #161616 }

    /* Animation pivot helpers — each group rotates around its anatomical joint */
    #head      { transform-box: fill-box; transform-origin: 50% 100%; }
    #left-arm  { transform-box: fill-box; transform-origin: 100% 0%; }
    #right-arm { transform-box: fill-box; transform-origin: 0%   0%; }
    #body      { transform-box: fill-box; transform-origin: 50%  50%; }
    #legs      { transform-box: fill-box; transform-origin: 50%  0%; }
  </style>

  <!-- ═══ LEGS (9 paths) ═══ -->
  <g id="legs">
    <path id="&lt;Path&gt;" class="s0" d="m28.46 64.46q-0.07 0.07-0.08 0.17c-0.04 0.44 0 0.88 0.04 1.31q0.03 0.28 0.06 0.56 0.08 0.65 0.18 1.3 0.19 1.25 0.39 2.51 0.19 1.27 0.41 2.54 0.1 0.58 0.2 1.17 0.06 0.35 0.12 0.7 0.05 0.33 0.09 0.65 0-0.03-0.01-0.07 0.06 0.45 0.11 0.9 0.03 0.2 0.04 0.41 0 0.04 0 0.08c0 0.13 0.11 0.25 0.25 0.25 0.13 0 0.24-0.11 0.25-0.25q-0.01-0.27-0.01-0.55 0-0.09-0.05-0.15-0.01-0.03-0.01-0.06-0.07-0.67-0.18-1.33-0.1-0.67-0.23-1.34-0.1-0.59-0.2-1.18-0.21-1.3-0.41-2.61-0.21-1.35-0.41-2.7 0 0.01 0 0.02 0-0.03-0.01-0.06 0 0 0-0.01 0 0 0 0.01-0.03-0.31-0.06-0.62c-0.05-0.49-0.11-0.98-0.06-1.48 0.01-0.13-0.12-0.25-0.25-0.25q-0.1 0.01-0.17 0.08z"/>
    <path id="&lt;Path&gt;" class="s0" d="m54.64 64.33c-0.07 1.02-0.01 2.04-0.03 3.07q-0.02 0.65-0.06 1.29-0.05 0.73-0.09 1.47c-0.05 0.89-0.02 1.8-0.03 2.7q-0.03 0.73-0.08 1.46-0.04 0.72-0.04 1.44 0 0.15 0 0.3-0.03 0.02-0.05 0.06-0.05 0.09-0.03 0.2 0.02 0.1 0.03 0.21 0-0.03-0.01-0.07 0.01 0.11 0.04 0.21 0.06 0.17 0.24 0.18c0.1 0.01 0.23-0.08 0.24-0.18q0.03-0.15 0.03-0.31 0-0.25 0.01-0.49 0.01-0.34 0.01-0.68 0-0.38 0.02-0.76 0.02-0.35 0.05-0.71 0.02-0.37 0.03-0.74 0.01-0.67 0.01-1.35 0-0.68 0.02-1.37 0.05-0.73 0.1-1.46 0.03-0.66 0.05-1.32 0.02-0.71 0.01-1.42-0.02-0.87 0.03-1.73c0.01-0.14-0.12-0.25-0.25-0.25-0.14 0-0.24 0.11-0.25 0.25z"/>
    <path id="&lt;Path&gt;" class="s0" d="m36.62 67.14q-0.1 0.03-0.15 0.12c-0.06 0.11-0.03 0.28 0.09 0.34q0.3 0.15 0.61 0.26 0.4 0.13 0.81 0.21 0.33 0.07 0.66 0.13 0.37 0.05 0.74 0.11 0.36 0.05 0.73 0.1 0.32 0.03 0.64 0.06 0.32 0.03 0.64 0.04 0.38 0.02 0.76 0.03 0.43-0.01 0.86-0.01 0.62-0.01 1.24-0.01 0.74-0.01 1.48-0.02 0.54-0.01 1.08-0.12 0 0.02 0 0.03-0.02 0.24 0.02 0.48 0.04 0.37 0.08 0.75 0.08 0.64 0.08 1.28 0 0.68-0.07 1.36-0.06 0.62-0.13 1.24-0.05 0.64-0.08 1.29-0.04 0.52-0.07 1.04-0.01 0.34 0 0.69-0.01 0.1 0.02 0.2 0.05 0.15 0.19 0.22c0.13 0.07 0.29 0.07 0.44 0.08q0.19 0.01 0.38 0.02 0.34 0.02 0.67 0.07c0.48 0.06 0.96 0.05 1.44 0.06q0.34 0 0.67-0.02 0.44-0.04 0.87-0.11-0.01 0-0.02 0 0.08-0.01 0.16-0.02 0.43-0.05 0.87-0.07 0.28-0.02 0.55 0 0.25 0.05 0.51 0.13 0.26 0.08 0.53 0.08 0.26 0 0.51-0.01 0.18 0 0.34-0.07 0.13-0.06 0.17-0.2 0.04-0.19-0.02-0.38c-0.04-0.12-0.18-0.21-0.31-0.17-0.13 0.04-0.21 0.18-0.18 0.31q0 0 0 0.01-0.15 0.01-0.31 0.01-0.21 0.01-0.42-0.02 0.02 0 0.03 0.01-0.2-0.04-0.4-0.11-0.27-0.08-0.56-0.1-0.27-0.01-0.53 0.01-0.48 0.03-0.95 0.09 0.01 0 0.02 0-0.24 0.03-0.48 0.07 0.01 0 0.02-0.01-0.26 0.04-0.53 0.06-0.25 0.01-0.5 0.01-0.6 0-1.2-0.03-0.21-0.02-0.4-0.05-0.28-0.03-0.55-0.05-0.25-0.01-0.51-0.03-0.01 0-0.02 0-0.01-0.23 0-0.46 0.01-0.46 0.05-0.93 0.03-0.52 0.06-1.04 0.04-0.59 0.11-1.17 0.06-0.58 0.1-1.16 0.04-0.62 0.02-1.24-0.02-0.59-0.1-1.19-0.04-0.29-0.07-0.59-0.02-0.21 0-0.41 0.01-0.03 0.02-0.06 0-0.01 0-0.02 0.01-0.01 0.03-0.02c0.09-0.05 0.21-0.11 0.22-0.22q0.04-0.14-0.06-0.24-0.05-0.05-0.11-0.07-0.07-0.02-0.13 0-0.07 0.02-0.13 0.05-0.1 0.03-0.19 0.06-0.3 0.09-0.6 0.13 0.01 0 0.02 0-0.02 0.01-0.05 0.01-0.01 0-0.02 0 0.01 0 0.02 0-0.77 0.06-1.53 0.05-0.88 0.01-1.75 0.02-0.46 0-0.91 0.01-0.24-0.01-0.47-0.02-0.23-0.01-0.47-0.01-0.17-0.01-0.35-0.03-0.28-0.03-0.54-0.05-0.19-0.02-0.38-0.05-0.24-0.03-0.47-0.06 0.03 0.01 0.07 0.01-0.44-0.07-0.88-0.14-0.26-0.05-0.52-0.1-0.57-0.1-1.11-0.32 0.03 0.01 0.06 0.02-0.14-0.06-0.26-0.12-0.07-0.03-0.14-0.03-0.03 0-0.06 0z"/>
    <path id="&lt;Path&gt;" class="s0" d="m38.17 67.94q-0.01 1.1 0.04 2.21 0.01 0.4 0.04 0.8 0.02 0.46 0.07 0.92 0.07 0.68 0.22 1.34c0.11 0.48 0.23 0.95 0.3 1.43q0-0.01 0-0.02 0.06 0.44 0.07 0.87 0.02 0.24 0 0.48-0.01 0.05-0.03 0.1c-0.03 0.13 0.05 0.27 0.18 0.31 0.13 0.03 0.27-0.05 0.31-0.18q0.04-0.16 0.05-0.33 0-0.19-0.01-0.38-0.02-0.62-0.12-1.23-0.11-0.57-0.25-1.14-0.12-0.51-0.2-1.02-0.09-0.86-0.12-1.72-0.03-0.55-0.04-1.1-0.02-0.67-0.01-1.34c0-0.14-0.11-0.25-0.25-0.25-0.14 0-0.25 0.11-0.25 0.25z"/>
    <path id="&lt;Path&gt;" class="s0" d="m39.21 76.01q-0.01 0.06-0.02 0.11-0.01 0-0.02 0.01-0.17 0.01-0.33 0-0.14 0-0.29-0.01-0.46-0.02-0.93 0.06-0.25 0.05-0.5 0.12-0.29 0.07-0.57 0.14-0.44 0.11-0.88 0.23-0.22 0.05-0.44 0.11-0.23 0.05-0.47 0.08 0.03-0.01 0.06-0.01-0.13 0.01-0.26 0.03-0.28 0.03-0.55 0.01-0.23-0.01-0.47-0.03-0.39-0.03-0.78-0.08 0.03 0.01 0.07 0.01-0.33-0.05-0.65-0.13-0.3-0.07-0.61-0.14-0.28-0.05-0.57-0.1-0.37-0.07-0.72-0.2c-0.12-0.05-0.27 0.05-0.3 0.17-0.04 0.14 0.04 0.27 0.17 0.31q0.36 0.13 0.74 0.21 0.33 0.05 0.66 0.12 0.33 0.07 0.66 0.15 0.42 0.1 0.84 0.14 0.26 0.02 0.52 0.04 0.16 0.02 0.32 0.03 0.26 0.02 0.53 0 0.24-0.01 0.47-0.05 0.16-0.02 0.32-0.05 0.35-0.07 0.71-0.17 0.58-0.15 1.15-0.3 0.39-0.1 0.79-0.17 0.26-0.03 0.52-0.03 0.18 0 0.37 0.01 0.21 0.01 0.41 0 0.19-0.01 0.34-0.1 0.04-0.03 0.07-0.07 0.05-0.06 0.08-0.13 0.04-0.09 0.05-0.19 0.02-0.09-0.03-0.19-0.05-0.08-0.15-0.11-0.03-0.01-0.06-0.01c-0.11 0-0.23 0.07-0.25 0.18z"/>
    <path id="&lt;Path&gt;" class="s0" d="m38.5 76.09c-0.13 0.03-0.21 0.17-0.18 0.3q0.04 0.14 0.17 0.17 0.02 0.05 0.04 0.1 0.06 0.1 0.1 0.21 0-0.01 0-0.02 0 0.01 0.01 0.03 0.01 0.01 0.01 0.03 0-0.01 0-0.01 0.09 0.21 0.13 0.43 0.01 0.32 0.03 0.64 0.04 0.34 0.1 0.67 0-0.02 0-0.03 0 0.02 0 0.04 0 0.01 0.01 0.03-0.01-0.01-0.01-0.02 0.02 0.24 0.03 0.47-0.16-0.01-0.32 0.01-0.22 0.01-0.44 0.04-0.16 0.04-0.31 0.06-0.17 0.02-0.34 0.02-0.3-0.01-0.59 0.02-0.14 0.02-0.29 0.03-0.12 0-0.25 0.01-0.14 0-0.29 0.01 0.01-0.08 0.02-0.15 0.02-0.19 0.04-0.38 0.02-0.17 0.03-0.35c0.01-0.11 0.02-0.24-0.01-0.34q-0.05-0.14-0.2-0.2-0.09-0.03-0.18 0.01-0.17 0.06-0.33 0.13c-0.25 0.14-0.35 0.41-0.51 0.62q-0.11 0.14-0.26 0.26-0.17 0.13-0.37 0.22-0.21 0.08-0.43 0.12-0.41 0.09-0.82 0.16-0.24 0.02-0.48 0.01-0.26 0-0.51 0-0.49-0.02-0.97-0.09 0 0 0 0.01-0.26-0.04-0.51-0.08 0.03 0.01 0.07 0.02-0.54-0.08-1.09-0.12-0.27-0.01-0.52-0.02-0.26-0.01-0.51-0.04 0 0 0.01 0-0.01 0-0.02 0-0.02 0-0.05 0 0.03 0 0.05 0-0.32-0.06-0.64-0.12-0.17-0.04-0.34-0.07-0.16-0.02-0.32-0.04-0.62-0.07-1.24-0.12 0.04 0 0.07 0.01-0.25-0.04-0.49-0.1-0.23-0.07-0.45-0.16-0.37-0.11-0.72-0.25 0.01 0 0.01 0-0.2-0.09-0.37-0.21-0.02-0.02-0.04-0.03 0.02-0.01 0.04-0.02 0.11-0.06 0.21-0.1-0.03 0.01-0.06 0.02 0.47-0.19 0.96-0.26-0.02 0-0.03 0 0.29-0.04 0.59-0.06 0.23-0.01 0.46-0.01 0.52-0.01 1.04-0.03 0.62-0.01 1.25-0.07 0.58-0.06 1.17-0.16 0 0-0.01 0 0.33-0.04 0.66-0.08 0.36-0.05 0.71-0.1 0.25-0.01 0.51-0.02c0.13 0 0.25-0.11 0.25-0.25 0-0.13-0.12-0.25-0.25-0.25q-0.24 0-0.48 0.02-0.17 0.02-0.35 0.05-0.21 0.03-0.42 0.06 0.04-0.01 0.07-0.01-0.36 0.04-0.72 0.09-0.45 0.06-0.89 0.13-0.31 0.03-0.63 0.05-0.27 0.02-0.54 0.03-0.5 0.02-0.99 0.03-0.47 0-0.93 0.03-0.48 0.02-0.95 0.13-0.28 0.07-0.55 0.18-0.17 0.07-0.33 0.14c-0.08 0.04-0.18 0.08-0.24 0.16q-0.11 0.12-0.1 0.29 0.03 0.21 0.19 0.35 0.22 0.21 0.5 0.32 0.27 0.13 0.56 0.22 0.33 0.12 0.66 0.23 0.43 0.13 0.87 0.16 0.57 0.04 1.14 0.11-0.01-0.01-0.02-0.01 0.4 0.08 0.78 0.16 0.41 0.08 0.81 0.1 0.36 0.02 0.73 0.03 0.36 0.02 0.71 0.07 0 0-0.01 0 0.1 0.01 0.2 0.02 0.47 0.08 0.96 0.12 0.41 0.04 0.82 0.04 0.22 0.01 0.43 0 0.22 0 0.43-0.03 0.23-0.03 0.47-0.09 0.24-0.05 0.48-0.1 0.23-0.05 0.44-0.15 0.21-0.11 0.4-0.26 0.1-0.08 0.2-0.17 0.1-0.1 0.18-0.21 0.11-0.18 0.22-0.36 0.03-0.03 0.06-0.05 0-0.01 0.01-0.01-0.01 0.08-0.02 0.17-0.02 0.27-0.06 0.55c-0.01 0.16-0.04 0.39 0.09 0.5 0.15 0.13 0.35 0.1 0.53 0.09q0.31 0 0.61-0.03 0.17-0.02 0.35-0.03 0.18 0 0.35 0 0.26 0 0.51-0.05 0.17-0.03 0.34-0.06-0.01 0-0.02 0 0.02 0 0.03 0 0.01 0 0.01 0 0 0-0.01 0 0.24-0.02 0.48-0.02 0.11 0 0.21 0.01 0.04 0 0.09 0 0.14-0.01 0.22-0.13c0.05-0.07 0.04-0.16 0.03-0.24q-0.01-0.16-0.01-0.33c0-0.31-0.07-0.61-0.12-0.91q0.01 0.03 0.02 0.07-0.04-0.31-0.05-0.62 0-0.17-0.03-0.34-0.04-0.16-0.09-0.3-0.1-0.25-0.22-0.49-0.04-0.1-0.11-0.18-0.1-0.1-0.23-0.1-0.05 0-0.1 0.02z"/>
    <path id="&lt;Path&gt;" class="s0" d="m47.2 76.6q-0.1 0.08-0.19 0.17-0.11 0.12-0.19 0.26-0.15 0.24-0.26 0.51 0.01-0.03 0.03-0.06-0.12 0.26-0.17 0.54-0.06 0.24-0.08 0.48 0 0.22 0.06 0.43 0.03 0.11 0.06 0.22 0.06 0.2 0.1 0.4 0 0.11 0.01 0.22 0 0.14 0.06 0.27 0.05 0.08 0.12 0.15 0.09 0.09 0.2 0.12 0.13 0.02 0.25-0.03 0.08-0.02 0.17-0.04 0.19-0.04 0.38-0.07-0.01 0-0.02 0 0.04-0.01 0.07-0.01 0.02 0 0.03 0 0 0-0.01 0 0.02-0.01 0.04-0.01-0.01 0-0.02 0 0.26-0.02 0.53-0.02 0.38 0 0.76 0.03 0.29 0.03 0.59 0.06 0.35 0.02 0.69 0.05 0.23 0.03 0.44 0.11 0.13 0.05 0.24 0.12 0.09 0.07 0.2 0.11 0.11 0.03 0.21-0.02c0.06-0.03 0.11-0.11 0.13-0.17q0.01-0.09 0-0.18-0.01-0.13-0.02-0.27-0.03-0.47-0.11-0.93-0.04-0.19-0.08-0.38-0.04-0.16-0.06-0.31 0.11 0.05 0.23 0.1-0.01 0-0.01 0 0.19 0.08 0.37 0.18 0.19 0.11 0.36 0.24 0.31 0.26 0.62 0.52 0.19 0.16 0.4 0.3 0.13 0.1 0.28 0.17 0.13 0.06 0.26 0.09 0.33 0.09 0.66 0.14 0.26 0.04 0.51 0.03 0.43-0.01 0.86-0.01 0.7 0 1.4 0.02 0.68 0.02 1.36 0.03 0.67-0.02 1.33-0.05 0.72-0.02 1.44-0.07 0.29-0.03 0.59-0.07 0.32-0.03 0.64-0.06 0.26-0.01 0.51-0.03 0.25-0.02 0.49-0.05 0.3-0.05 0.6-0.11 0.29-0.06 0.57-0.13 0.32-0.08 0.62-0.22 0.09-0.05 0.15-0.12 0.05-0.05 0.08-0.12 0.01-0.05 0.02-0.1-0.01-0.08-0.04-0.14-0.02-0.04-0.06-0.08-0.06-0.08-0.15-0.14-0.13-0.08-0.27-0.12-0.17-0.07-0.34-0.12-0.42-0.13-0.86-0.21-0.54-0.11-1.08-0.19-0.26-0.03-0.52-0.06-0.3-0.03-0.59-0.08 0.03 0.01 0.07 0.02-0.22-0.04-0.44-0.06 0.02 0 0.05 0-0.26-0.03-0.51-0.08-0.24-0.03-0.48-0.08-0.5-0.1-0.98-0.22-0.86-0.2-1.72-0.36-0.43-0.07-0.86-0.13-0.36-0.05-0.72-0.07-0.24-0.01-0.48 0-0.44-0.01-0.88-0.07 0.03 0.01 0.07 0.01-0.22-0.03-0.44-0.06-0.1-0.03-0.19 0.02-0.09 0.05-0.12 0.15c-0.03 0.12 0.04 0.28 0.18 0.31q0.42 0.07 0.84 0.11 0.3 0.03 0.6 0.03 0.19 0 0.39 0 0.26 0.01 0.52 0.04-0.01 0-0.01 0 0.56 0.07 1.11 0.17 0.56 0.1 1.11 0.23 0.63 0.15 1.27 0.28 0.62 0.13 1.25 0.22-0.03-0.01-0.06-0.01 0.38 0.05 0.75 0.1 0.35 0.04 0.69 0.08-0.03-0.01-0.07-0.01c0.77 0.12 1.55 0.23 2.27 0.51q-0.12 0.04-0.26 0.07-0.2 0.06-0.41 0.11-0.41 0.09-0.83 0.15-0.42 0.04-0.84 0.06-0.56 0.05-1.11 0.11-0.67 0.06-1.34 0.08-0.62 0.02-1.23 0.05-0.63 0.02-1.26-0.01-0.65-0.02-1.29-0.03-0.51-0.01-1.02 0-0.41 0.02-0.81-0.01 0.02 0.01 0.04 0.01-0.39-0.06-0.76-0.17-0.18-0.09-0.34-0.21-0.11-0.08-0.22-0.16 0 0 0.01 0.01-0.02-0.02-0.04-0.03 0-0.01-0.01-0.01c-0.29-0.23-0.56-0.5-0.87-0.71-0.28-0.2-0.6-0.33-0.93-0.46q0.03 0.01 0.07 0.02-0.1-0.03-0.18-0.08-0.09-0.05-0.18-0.11-0.13-0.07-0.26 0-0.11 0.08-0.12 0.22-0.02 0.11 0.01 0.22 0.01 0.09 0.02 0.18 0.02 0.1 0.04 0.2 0.03 0.17 0.07 0.34 0.07 0.29 0.11 0.58 0.03 0.25 0.05 0.51-0.16-0.08-0.34-0.12-0.19-0.04-0.4-0.06-0.33-0.02-0.65-0.05-0.48-0.05-0.97-0.08-0.3-0.01-0.59-0.01-0.24 0.01-0.47 0.05 0.03-0.01 0.07-0.02-0.23 0.03-0.46 0.08-0.11 0.03-0.23 0.06 0-0.02 0-0.03-0.01-0.09-0.01-0.18-0.02-0.23-0.08-0.45-0.08-0.25-0.13-0.51-0.01-0.09 0-0.19 0.05-0.39 0.19-0.75-0.01 0.01-0.02 0.03 0.01-0.01 0.01-0.03 0 0 0.01-0.01 0 0.01-0.01 0.01 0.01-0.02 0.02-0.04 0 0.01-0.01 0.03 0.11-0.26 0.28-0.5 0.1-0.12 0.23-0.22c0.1-0.1 0.09-0.26 0-0.36q-0.08-0.07-0.17-0.07-0.1 0-0.18 0.07z"/>
    <path id="&lt;Path&gt;" class="s0" d="m60.83 58.96c-0.13 0.03-0.22 0.18-0.17 0.31q0.1 0.32 0.21 0.64 0.08 0.21 0.11 0.42 0 0 0-0.01 0.1 0.9 0.09 1.8 0.01 0.43-0.02 0.86-0.03 0.39-0.07 0.79-0.01 0.03-0.01 0.06 0-0.01 0-0.03-0.11 0.7-0.23 1.4-0.08 0.53-0.16 1.07-0.02-0.27-0.05-0.53-0.09-0.8-0.24-1.59-0.08-0.36-0.16-0.72-0.07-0.35-0.11-0.69 0 0.03 0 0.05-0.07-0.51-0.12-1.02c-0.02-0.17-0.04-0.35-0.12-0.51-0.07-0.15-0.28-0.15-0.39-0.05-0.11 0.1-0.11 0.26-0.14 0.4q-0.02 0.17-0.05 0.36-0.04 0.39-0.07 0.78-0.03 0.37-0.06 0.74-0.04 0.38-0.09 0.76 0-0.02 0.01-0.04-0.11 0.68-0.17 1.37-0.05 0.65-0.12 1.29 0-0.03 0.01-0.07-0.06 0.36-0.14 0.71-0.02-0.56-0.07-1.11-0.06-0.65-0.13-1.29-0.06-0.71-0.09-1.41-0.02-0.73-0.03-1.45 0-0.17 0-0.35c0-0.13 0-0.29-0.07-0.41q-0.09-0.13-0.25-0.14-0.16 0.01-0.25 0.15-0.07 0.1-0.11 0.21-0.04 0.12-0.07 0.25-0.17 0.69-0.28 1.39-0.13 0.68-0.25 1.35-0.14 0.67-0.25 1.34-0.08 0.54-0.16 1.09-0.01 0.12-0.03 0.24-0.04-0.26-0.08-0.51-0.08-0.48-0.18-0.96-0.13-0.6-0.23-1.2 0 0.02 0 0.03 0-0.02-0.01-0.05 0-0.01 0-0.01 0 0 0 0.01-0.02-0.29 0-0.59 0.02-0.16-0.02-0.32c-0.04-0.14-0.16-0.23-0.31-0.23-0.14 0.01-0.25 0.12-0.25 0.25q0 0.12 0.09 0.19-0.01 0.17-0.02 0.33-0.01 0.26 0.04 0.52 0.05 0.33 0.11 0.65 0.07 0.35 0.15 0.7 0.12 0.59 0.21 1.19 0-0.01 0-0.02 0.06 0.58 0.14 1.15 0.02 0.18 0.06 0.36 0.03 0.07 0.06 0.15c0.03 0.08 0.14 0.14 0.23 0.13q0.15-0.01 0.23-0.12 0.04-0.07 0.05-0.15 0.04-0.15 0.06-0.31 0.05-0.31 0.09-0.61-0.01 0.03-0.02 0.07 0.09-0.59 0.18-1.18 0.12-0.87 0.29-1.74 0.16-0.86 0.32-1.73 0.02-0.14 0.05-0.27 0 0.07 0 0.15 0.03 1.11 0.14 2.22 0.04 0.46 0.09 0.93 0.04 0.5 0.07 0.99 0.02 0.58 0.06 1.17 0.01 0.22 0.04 0.44c0.01 0.12 0.02 0.25 0.11 0.34 0.08 0.09 0.2 0.09 0.3 0.04 0.12-0.06 0.16-0.22 0.19-0.34q0.03-0.14 0.05-0.28 0.09-0.47 0.2-0.95 0.07-0.32 0.13-0.65 0.07-0.4 0.1-0.81 0.04-0.43 0.07-0.85 0.04-0.42 0.1-0.84 0 0.01 0 0.01 0.1-0.68 0.17-1.37 0-0.03 0-0.06 0.03 0.14 0.06 0.28 0.09 0.45 0.18 0.91 0.1 0.5 0.17 1.02-0.01-0.02-0.01-0.03 0.06 0.46 0.1 0.93 0.03 0.46 0.06 0.92 0.01 0.39-0.01 0.79-0.01 0.11-0.02 0.22-0.01 0.16 0.13 0.26c0.09 0.06 0.22 0.03 0.3-0.04 0.08-0.07 0.1-0.2 0.12-0.29q0.03-0.13 0.06-0.25 0.12-0.46 0.23-0.92 0.12-0.65 0.2-1.31 0.11-0.73 0.24-1.47 0.11-0.67 0.16-1.35 0.03-0.69 0-1.39-0.01-0.35-0.03-0.71-0.01-0.35-0.08-0.68-0.04-0.2-0.11-0.38-0.1-0.31-0.2-0.62-0.07-0.17-0.24-0.18-0.04 0-0.07 0.01z"/>
    <path id="&lt;Path&gt;" class="s0" d="m21.15 59.08c-0.1 0.06-0.15 0.16-0.2 0.26q-0.04 0.09-0.02 0.2 0.03 0.09 0.11 0.15 0.02 0 0.04 0.01-0.01 0.07-0.01 0.13-0.03 0.44-0.05 0.88-0.03 0.53-0.03 1.07 0.02 0.52 0.09 1.04 0-0.01 0-0.02 0.12 0.84 0.3 1.67 0.12 0.59 0.31 1.16 0.05 0.18 0.12 0.36 0.02 0.07 0.05 0.14 0.04 0.13 0.16 0.21c0.11 0.08 0.27 0.03 0.34-0.09q0.05-0.1 0.06-0.21 0.03-0.33 0.07-0.64-0.01 0.03-0.01 0.06 0.14-0.93 0.39-1.84 0.18-0.79 0.47-1.53 0 0.01 0 0.01 0 0 0-0.01 0.06 0.43 0.12 0.86 0.09 0.51 0.16 1.03 0-0.01 0-0.02 0.01 0.06 0.02 0.11-0.01-0.03-0.01-0.06 0.06 0.5 0.13 1 0.06 0.45 0.16 0.9 0.06 0.28 0.12 0.55 0.01 0.1 0.02 0.19 0.01 0.04 0.02 0.1 0.01 0.07 0.05 0.14 0.05 0.09 0.16 0.12 0.1 0.03 0.19-0.02c0.1-0.06 0.13-0.16 0.16-0.25q0.09-0.34 0.13-0.68 0.04-0.47 0.08-0.94 0.04-0.54 0.11-1.07 0 0.01 0 0.02 0-0.05 0.01-0.1 0 0.01 0 0.01 0.02-0.11 0.03-0.21 0.02 0.2 0.04 0.41c0.04 0.48 0.08 0.95 0.2 1.41q0.11 0.41 0.27 0.81 0.09 0.26 0.23 0.49 0.09 0.14 0.21 0.27 0.06 0.06 0.13 0.1c0.03 0.02 0.1 0.04 0.13 0.04q0.04-0.01 0.08-0.01 0.06-0.02 0.11-0.07 0.09-0.08 0.11-0.21 0.03-0.11 0.05-0.22 0.06-0.22 0.11-0.44 0.16-0.56 0.32-1.13 0.07-0.25 0.15-0.51 0.05-0.14 0.08-0.28 0.02-0.07 0.03-0.13 0-0.05 0.01-0.09-0.01-0.08-0.04-0.14-0.05-0.09-0.15-0.12-0.1-0.02-0.19 0.03-0.09 0.05-0.12 0.15-0.01 0.04 0 0.08-0.05 0.22-0.12 0.43-0.08 0.24-0.15 0.48-0.14 0.52-0.28 1.03-0.05 0.18-0.1 0.37 0 0.01 0 0.01-0.05-0.09-0.09-0.18 0.01 0.01 0.01 0.02-0.1-0.25-0.19-0.5-0.06-0.21-0.12-0.41-0.07-0.3-0.11-0.6-0.05-0.47-0.09-0.94-0.05-0.48-0.08-0.96-0.02-0.52-0.04-1.04 0-0.18-0.02-0.37-0.01-0.07-0.03-0.14-0.04-0.13-0.17-0.17c-0.11-0.03-0.24 0.02-0.29 0.11q-0.04 0.16-0.06 0.31 0.01-0.03 0.01-0.07-0.06 0.44-0.12 0.87 0-0.02 0.01-0.05c-0.07 0.52-0.19 1.03-0.26 1.55q0-0.01 0-0.02-0.06 0.52-0.11 1.05-0.02 0.2-0.03 0.41-0.06-0.26-0.09-0.52 0 0 0 0.01-0.06-0.5-0.13-0.99 0.01 0.02 0.01 0.04-0.13-0.85-0.26-1.7 0 0.03 0.01 0.06-0.03-0.24-0.07-0.48-0.02-0.13-0.03-0.25-0.02-0.1-0.04-0.2-0.02-0.07-0.04-0.13c-0.08-0.1-0.19-0.17-0.32-0.13-0.11 0.03-0.17 0.12-0.22 0.21q-0.23 0.45-0.4 0.92-0.16 0.47-0.28 0.94-0.13 0.49-0.25 0.98-0.1 0.45-0.18 0.91-0.03-0.11-0.06-0.22-0.26-1.02-0.4-2.07 0 0.02 0 0.04-0.01-0.05-0.01-0.09 0 0 0 0.01 0-0.02-0.01-0.04 0-0.02 0-0.03 0 0 0 0.01-0.04-0.34-0.06-0.68-0.02-0.35-0.01-0.7 0.03-0.67 0.07-1.34 0.01-0.22 0.02-0.43 0.01-0.06 0.01-0.13-0.01-0.11-0.05-0.21-0.08-0.15-0.25-0.15-0.07 0-0.14 0.04z"/>
  </g>

  <!-- ═══ BODY (6 paths) ═══ -->
  <g id="body">
    <path id="&lt;Compound Path&gt;" fill-rule="evenodd" class="s0" d="m40.83 48.63q0.19 0 0.38 0 0.17 0 0.35 0.02 0.18 0.03 0.37 0.06 0.19 0.03 0.38 0.08 0.15 0.04 0.3 0.1 0.18 0.07 0.34 0.18 0.17 0.1 0.34 0.21 0.18 0.12 0.32 0.28 0.14 0.15 0.26 0.31 0.09 0.12 0.17 0.26 0.06 0.13 0.12 0.26 0.13 0.3 0.21 0.61 0.07 0.38 0 0.76-0.04 0.24-0.13 0.47-0.06 0.17-0.13 0.33-0.09 0.19-0.18 0.37-0.1 0.17-0.22 0.33-0.26 0.37-0.61 0.65-0.21 0.17-0.44 0.31-0.18 0.1-0.38 0.17c-0.25 0.09-0.52 0.18-0.79 0.19q-0.46 0.03-0.91-0.08-0.16-0.04-0.3-0.09-0.1-0.04-0.19-0.09-0.1-0.05-0.2-0.1-0.13-0.08-0.27-0.17-0.17-0.12-0.32-0.27-0.12-0.13-0.23-0.26 0.01 0 0.02 0.01-0.02-0.02-0.04-0.05-0.19-0.25-0.34-0.52-0.1-0.2-0.18-0.4-0.09-0.23-0.18-0.47-0.14-0.4-0.15-0.83 0-0.27 0.07-0.53 0.07-0.2 0.19-0.38 0.11-0.16 0.22-0.31 0.15-0.23 0.36-0.4 0.16-0.12 0.33-0.24 0.1-0.09 0.21-0.17 0.08-0.05 0.16-0.1 0-0.07 0.03-0.15 0.06-0.08 0.16-0.11 0.07-0.01 0.14-0.04 0.17-0.09 0.36-0.15 0.19-0.05 0.4-0.05zm-0.22 0.51q-0.05 0.01-0.1 0.03-0.1 0.06-0.2 0.1-0.09 0.04-0.18 0.07 0 0.14-0.12 0.22-0.1 0.05-0.19 0.11-0.11 0.09-0.22 0.17-0.1 0.07-0.2 0.15-0.14 0.11-0.24 0.23-0.11 0.16-0.22 0.31-0.08 0.12-0.15 0.25-0.06 0.13-0.08 0.28-0.02 0.19 0 0.37 0 0-0.01-0.02 0.01 0.02 0.01 0.04 0.09 0.5 0.29 0.95 0 0 0 0 0.01 0.02 0.02 0.05 0 0 0.01 0.01 0 0-0.01 0 0.18 0.39 0.44 0.74-0.01-0.01-0.01-0.01 0.01 0.01 0.02 0.03 0 0 0 0 0.01 0.01 0.01 0.01 0 0 0 0 0 0 0.01 0.01 0.17 0.2 0.36 0.36 0.18 0.12 0.37 0.23 0.11 0.06 0.22 0.11 0.24 0.09 0.5 0.13 0.3 0.03 0.6 0.01 0.36-0.06 0.69-0.2 0.28-0.14 0.52-0.33 0.15-0.11 0.28-0.25 0.12-0.13 0.24-0.28 0.13-0.17 0.24-0.37 0.1-0.19 0.19-0.39-0.01 0.01-0.01 0.02 0.06-0.14 0.1-0.28 0.08-0.24 0.12-0.48-0.01 0.03-0.02 0.06 0.03-0.17 0.01-0.34-0.08-0.39-0.24-0.75 0.01 0.03 0.02 0.06-0.1-0.24-0.25-0.44-0.01-0.01-0.02-0.03 0 0.01 0 0.01-0.14-0.18-0.31-0.33-0.18-0.12-0.36-0.23-0.13-0.09-0.27-0.16-0.09-0.03-0.18-0.06-0.13-0.04-0.26-0.07-0.25-0.06-0.52-0.1 0.03 0.01 0.07 0.02-0.23-0.03-0.46-0.03-0.26-0.01-0.51 0.01zm-1.9 2.29q0 0.01 0 0.01 0 0 0-0.01zm0.29 0.97q0.01 0.01 0.01 0.02 0-0.01-0.01-0.02zm0.02 0.06q0-0.01 0-0.01 0 0.01 0 0.01zm0.43 0.73q-0.02-0.02-0.03-0.04 0.01 0.02 0.03 0.04zm0.03 0.04q0-0.01-0.01-0.01 0 0 0 0-0.01-0.01-0.01-0.02 0.01 0.01 0.02 0.03zm4.21-0.95q-0.01 0.02-0.02 0.04 0.01-0.02 0.02-0.04zm-0.28-2.19q0.01 0.01 0.01 0.01 0 0-0.01-0.01zm-3.91 3.16q-0.01 0-0.01 0 0 0 0.01 0z"/>
    <path id="&lt;Compound Path&gt;" fill-rule="evenodd" class="s0" d="m41.68 41.2q0.11 0 0.18 0.07 0.09 0.1 0.07 0.22 0.06 0.06 0.09 0.13 0.01 0.02 0.02 0.04 0.06 0.01 0.12 0.01 0.17 0.02 0.34 0.07 0.24 0.08 0.47 0.21 0.39 0.23 0.68 0.59-0.01-0.01-0.01-0.01 0.01 0.01 0.02 0.03 0 0 0.01 0.01 0.1 0.13 0.17 0.29 0.05 0.14 0.06 0.3 0.03 0.23-0.07 0.43c-0.09 0.18-0.27 0.31-0.44 0.42q-0.06 0.03-0.13 0.04-0.07 0.02-0.14 0.02-0.08 0-0.15-0.01-0.26-0.04-0.49-0.14-0.1-0.04-0.19-0.1-0.07-0.05-0.13-0.11-0.1-0.11-0.19-0.23-0.09-0.14-0.17-0.28-0.02 0.13-0.05 0.26-0.13 0.57-0.3 1.13-0.19 0.58-0.39 1.16-0.05 0.15-0.11 0.3c-0.05 0.1-0.09 0.2-0.22 0.24-0.1 0.03-0.23-0.02-0.28-0.12q-0.03-0.06-0.04-0.13 0-0.03 0.01-0.05 0.01-0.08 0.03-0.16 0.04-0.17 0.08-0.34 0.03-0.12 0.15-0.16 0.11-0.33 0.22-0.67 0.13-0.39 0.23-0.79 0.12-0.46 0.21-0.94-0.11 0.07-0.23 0.13-0.22 0.1-0.46 0.1-0.13 0-0.25-0.02-0.07-0.01-0.14-0.03-0.07-0.03-0.14-0.07-0.07-0.04-0.12-0.1-0.05-0.06-0.08-0.14-0.04-0.1-0.02-0.2 0.02-0.18 0.11-0.33 0.21-0.33 0.53-0.54 0.24-0.14 0.5-0.23 0.19-0.07 0.38-0.14 0 0 0.01-0.01 0.04-0.04 0.08-0.08 0.07-0.07 0.17-0.07zm-0.26 0.16q0 0 0 0 0 0 0 0 0 0 0 0zm-0.03 0.02q0.01-0.01 0.03-0.02-0.02 0.01-0.03 0.02zm-0.37 0.66q0.01 0 0.02-0.01-0.17 0.08-0.33 0.19-0.11 0.09-0.2 0.2-0.05 0.07-0.09 0.15-0.01 0.03-0.02 0.05 0.06 0.02 0.13 0.03 0.09 0.01 0.18 0.01 0.09-0.02 0.17-0.05 0.12-0.05 0.23-0.13 0.15-0.13 0.28-0.28 0 0 0-0.01 0-0.07-0.01-0.14 0-0.08 0.02-0.15-0.17 0.06-0.35 0.13 0.01-0.01 0.02-0.01-0.01 0.01-0.03 0.01-0.01 0.01-0.02 0.01zm0.02-0.01q0.01 0 0.01 0 0 0-0.01 0 0 0 0 0zm0.92 0.16q0.05 0.28 0.16 0.55-0.01-0.03-0.02-0.06 0.14 0.31 0.34 0.6 0.06 0.07 0.13 0.13 0.05 0.03 0.1 0.05 0.19 0.07 0.39 0.11 0.04 0 0.07 0 0.01 0 0.03-0.01 0.02-0.01 0.04-0.02 0.09-0.08 0.17-0.16 0.01-0.01 0.01-0.02 0.02-0.04 0.02-0.08 0.01-0.06 0-0.11-0.01-0.08-0.04-0.15-0.04-0.09-0.1-0.16 0 0 0.01 0-0.01-0.01-0.02-0.02 0.01 0.01 0.01 0.02-0.15-0.18-0.34-0.33-0.22-0.17-0.47-0.28-0.15-0.05-0.31-0.08-0.08-0.01-0.17-0.01 0 0.02-0.01 0.03zm1.31 0.67q0 0.01 0 0.01 0-0.01 0-0.01zm-1.89-1.48q0 0 0.01 0-0.01 0-0.01 0z"/>
    <path id="&lt;Path&gt;" class="s0" d="m41.7 42.17q-0.07 0.07-0.07 0.18 0.13 1.22 0.23 2.44 0.05 0.63 0.06 1.26 0.01 0.28 0.01 0.56 0 0.06 0 0.12 0 0.08 0 0.16-0.02 0.15 0.07 0.25c0.12 0.14 0.38 0.07 0.42-0.11q0.02-0.15 0.01-0.3 0.01-0.02 0.01-0.03 0-0.04-0.01-0.07 0-0.26 0-0.52-0.01-0.6-0.06-1.2-0.05-0.53-0.1-1.07-0.06-0.74-0.14-1.49-0.01-0.1-0.08-0.18-0.07-0.07-0.17-0.07-0.1 0-0.18 0.07z"/>
    <path id="&lt;Path&gt;" class="s0" d="m43.11 47.55q-0.18 0.12-0.33 0.28-0.37 0.34-0.74 0.68c-0.1 0.09-0.09 0.25 0 0.35 0.1 0.1 0.25 0.09 0.36 0q0.3-0.28 0.6-0.56 0.18-0.16 0.35-0.32 0.01 0 0.01 0c0.12-0.07 0.16-0.22 0.09-0.34q-0.08-0.12-0.22-0.13-0.06 0-0.12 0.04z"/>
    <path id="&lt;Path&gt;" class="s0" d="m39.43 47.85c-0.11 0.07-0.15 0.22-0.09 0.34q0.04 0.06 0.07 0.12 0.08 0.25 0.13 0.51 0.02 0.11 0.05 0.23 0.03 0.11 0.11 0.19 0.08 0.07 0.18 0.08 0.06 0 0.12-0.02c0.13-0.04 0.21-0.17 0.17-0.31q-0.03-0.1-0.12-0.15-0.01-0.06-0.03-0.12-0.02-0.13-0.05-0.26-0.03-0.14-0.07-0.27-0.05-0.13-0.12-0.25-0.08-0.12-0.22-0.13-0.07 0-0.13 0.04z"/>
    <path id="&lt;Path&gt;" class="s0" d="m41.4 49.45q-0.25 0.01-0.5 0.07-0.28 0.05-0.54 0.17 0.03-0.02 0.06-0.03-0.2 0.08-0.37 0.2-0.11 0.07-0.2 0.16-0.09 0.1-0.17 0.21 0-0.01 0.01-0.01-0.14 0.18-0.24 0.39-0.05 0.11-0.08 0.23-0.04 0.18 0.02 0.37c0.03 0.13 0.18 0.21 0.3 0.17 0.14-0.04 0.21-0.17 0.18-0.31q-0.01-0.04-0.02-0.09 0 0 0-0.01 0.01-0.04 0.03-0.09 0.08-0.2 0.22-0.38-0.01 0-0.01 0.01 0-0.01 0-0.01 0 0.01 0 0.01 0-0.01 0.01-0.01 0.01-0.02 0.03-0.04-0.01 0.01-0.02 0.03 0.09-0.11 0.2-0.2 0.13-0.1 0.28-0.16-0.03 0.01-0.06 0.02 0.04-0.02 0.08-0.03 0.31-0.12 0.64-0.16-0.03 0-0.07 0.01 0.16-0.03 0.31-0.02 0.03 0 0.06 0.01 0.03 0.02 0.05 0.03 0.03 0.03 0.05 0.05 0.02 0.02 0.03 0.05 0 0.01 0.01 0.03 0 0.06 0 0.12-0.01 0.02-0.01 0.04-0.02 0.02-0.03 0.05-0.05 0.05-0.1 0.1-0.01 0.01-0.03 0.02-0.16 0.04-0.33 0.06-0.1 0.02-0.19 0.06-0.12 0.07-0.19 0.17-0.12 0.19-0.16 0.42-0.04 0.15-0.04 0.31 0 0.16 0.08 0.3c0.09 0.17 0.27 0.28 0.45 0.3q0.15 0.03 0.32 0.01 0.16-0.01 0.33-0.07 0.3-0.12 0.54-0.36 0.11-0.11 0.2-0.26 0.04-0.08 0.08-0.15 0-0.01 0.01-0.01 0.02-0.01 0.04-0.02 0.05 0 0.09 0.01 0.06 0.01 0.12 0.03 0.04 0.02 0.08 0.04 0.04 0.04 0.07 0.08 0.02 0.03 0.04 0.07 0.02 0.06 0.04 0.12 0 0.08 0 0.16-0.02 0.1-0.06 0.2-0.07 0.17-0.18 0.33-0.21 0.24-0.47 0.44-0.13 0.1-0.29 0.18 0.01 0 0.01 0-0.01 0-0.01 0-0.02 0.01-0.03 0.02-0.01 0-0.01 0-0.23 0.09-0.46 0.12-0.11 0.02-0.22 0.01-0.11-0.02-0.22-0.06 0.01 0 0.01 0-0.12-0.05-0.23-0.12-0.07-0.06-0.12-0.12-0.09-0.13-0.15-0.27c-0.06-0.12-0.23-0.15-0.34-0.09-0.13 0.07-0.16 0.22-0.09 0.34q0.11 0.28 0.32 0.47 0.24 0.2 0.53 0.29 0.33 0.11 0.67 0.03 0.27-0.05 0.53-0.16-0.03 0.01-0.06 0.03 0.15-0.06 0.28-0.14 0.14-0.09 0.26-0.19 0.16-0.13 0.3-0.27 0.12-0.11 0.21-0.24 0.08-0.12 0.14-0.24 0.06-0.12 0.11-0.24 0.06-0.15 0.07-0.31 0.01-0.17-0.03-0.33-0.04-0.2-0.17-0.36-0.2-0.24-0.51-0.3c-0.21-0.04-0.43-0.03-0.61 0.11-0.12 0.11-0.17 0.27-0.25 0.39q-0.07 0.08-0.15 0.14-0.01 0.01-0.03 0.03 0.01-0.01 0.02-0.02-0.11 0.08-0.24 0.15-0.09 0.03-0.19 0.04 0.01 0 0.01 0-0.11 0.01-0.23 0-0.02 0-0.05-0.01-0.01-0.01-0.02-0.01-0.01-0.01-0.01-0.02-0.01-0.01-0.02-0.02 0-0.02-0.01-0.04 0-0.07 0.01-0.13 0.01-0.11 0.05-0.21 0.02-0.06 0.06-0.12 0 0 0.01-0.01 0.13-0.03 0.25-0.04 0.09-0.02 0.18-0.04 0.12-0.04 0.22-0.13 0.06-0.05 0.1-0.11 0.08-0.08 0.13-0.17 0.11-0.26 0.05-0.53c-0.02-0.14-0.12-0.27-0.22-0.36q-0.12-0.1-0.26-0.15-0.1-0.04-0.22-0.03-0.04 0-0.07 0z"/>
  </g>

  <!-- ═══ RIGHT-ARM (5 paths) ═══ -->
  <g id="right-arm">
    <path id="&lt;Path&gt;" class="s0" d="m50.1 38.23q-0.07 0.01-0.14 0c-0.14 0-0.25 0.12-0.25 0.25 0 0.14 0.11 0.25 0.25 0.25q0.12 0 0.25 0 0.08 0 0.17 0.01-0.03 0-0.07-0.01c0.17 0.02 0.33 0.09 0.49 0.14q0.27 0.06 0.54 0.12 0.23 0.05 0.46 0.08 0.06 0.01 0.13 0.02-0.14 0.14-0.26 0.31-0.15 0.19-0.28 0.39-0.21 0.34-0.44 0.66 0.01-0.01 0.01-0.01-0.01 0.01-0.02 0.03-0.01 0.01-0.02 0.02 0.01-0.01 0.01-0.02-0.37 0.47-0.75 0.92-0.23 0.27-0.45 0.54-0.23 0.27-0.45 0.52-0.23 0.28-0.46 0.55-0.23 0.27-0.48 0.53-0.5 0.56-1.01 1.1-0.23 0.24-0.46 0.49-0.24 0.28-0.48 0.55-0.5 0.53-1.02 1.03-0.98 0.93-2.04 1.77-0.05 0.03-0.09 0.07 0.01 0 0.01-0.01-0.01 0.01-0.03 0.02-0.01 0.01-0.02 0.02 0.01 0 0.01-0.01-0.09 0.07-0.18 0.14-0.17 0.12-0.35 0.22-0.02 0.01-0.05 0.02-0.07 0-0.14 0c-0.14 0-0.25 0.11-0.25 0.25 0 0.14 0.11 0.25 0.25 0.25q0.09 0 0.18-0.01 0.15-0.01 0.28-0.08 0.1-0.06 0.19-0.13 0.09-0.05 0.17-0.11 0.14-0.1 0.28-0.21 0.47-0.38 0.94-0.77 0.55-0.47 1.08-0.97 0.51-0.49 1-1 0.48-0.54 0.97-1.07 0.5-0.52 0.99-1.06 0.22-0.25 0.44-0.5 0.25-0.27 0.48-0.56 0.47-0.55 0.93-1.09 0.28-0.33 0.55-0.67 0.26-0.3 0.5-0.62c0.22-0.3 0.4-0.63 0.62-0.93q0.13-0.16 0.29-0.3 0.09-0.07 0.17-0.15 0.07-0.06 0.13-0.13 0.04-0.07 0.03-0.14 0-0.11-0.07-0.19-0.07-0.07-0.17-0.1-0.1-0.02-0.2-0.02-0.11-0.01-0.22-0.02 0.03 0 0.07 0.01-0.29-0.04-0.56-0.09-0.27-0.06-0.54-0.12-0.15-0.04-0.29-0.09-0.12-0.04-0.24-0.07-0.13-0.02-0.25-0.02-0.02 0-0.04 0-0.05 0-0.1 0z"/>
    <path id="&lt;Path&gt;" class="s0" d="m49.6 38.38q-0.36 0.79-0.77 1.54c-0.07 0.12-0.03 0.27 0.09 0.34 0.11 0.07 0.27 0.03 0.34-0.09q0.42-0.75 0.77-1.54 0.05-0.09 0.03-0.19-0.04-0.1-0.12-0.15-0.06-0.03-0.13-0.03-0.14 0-0.21 0.12z"/>
    <path id="&lt;Path&gt;" class="s0" d="m50.71 38.84q-0.25 0.48-0.51 0.95-0.09 0.16-0.17 0.32-0.07 0.14-0.16 0.27c-0.08 0.1-0.07 0.25 0.02 0.34 0.09 0.1 0.25 0.1 0.35 0q0.1-0.11 0.16-0.25 0.1-0.19 0.2-0.37 0.27-0.5 0.54-1.01c0.06-0.12 0.03-0.27-0.09-0.34q-0.06-0.04-0.13-0.04-0.14 0-0.21 0.13z"/>
    <path id="&lt;Path&gt;" class="s0" d="m55.61 42.59q-0.12 0.18-0.21 0.36c-0.07 0.13-0.04 0.28 0.09 0.35q0.01 0.01 0.03 0.01-0.01 0.23-0.03 0.45-0.04 0.66-0.05 1.33 0 0.43-0.01 0.86 0 0.08 0.01 0.15 0.01 0.26 0.02 0.52 0 0.3 0.02 0.6 0.04 0.44 0.08 0.88 0.06 0.7 0.16 1.39 0.04 0.32 0.09 0.63 0.05 0.37 0.11 0.74 0.11 0.69 0.22 1.38 0.11 0.73 0.21 1.47 0.07 0.61 0.14 1.23 0.01 0.08 0.01 0.16 0.01 0.21 0.02 0.42 0.02 0.21 0.03 0.43 0 0.07 0.01 0.15 0 0.32 0 0.65 0 0.21 0 0.42 0 0.08 0 0.15-0.03 0.38-0.05 0.76-0.01 0.24-0.02 0.48-0.06 0.62-0.13 1.24-0.07 0.71-0.15 1.42-0.07 0.59-0.13 1.18-0.04 0.3-0.06 0.61 0 0.21-0.02 0.43-0.01 0.05-0.02 0.11-0.01 0.01-0.02 0.03-0.01 0-0.01 0.01-0.29 0.09-0.59 0.13-0.68 0.15-1.35 0.3-0.72 0.15-1.45 0.26-0.75 0.12-1.49 0.24-0.67 0.1-1.35 0.21-0.81 0.13-1.63 0.27-0.7 0.13-1.39 0.27-0.69 0.13-1.37 0.23 0.01-0.01 0.02-0.01-0.4 0.06-0.79 0.09-0.4 0.04-0.8 0.06-0.71 0.02-1.41-0.05-0.1-0.01-0.2-0.05-0.02-0.01-0.04-0.03-0.03-0.02-0.05-0.04-0.05-0.08-0.09-0.16-0.12-0.33-0.2-0.67-0.03-0.12-0.06-0.25-0.04-0.15-0.06-0.31 0 0.01 0 0.02 0-0.01 0-0.02-0.01-0.02-0.01-0.04 0 0.02 0.01 0.04-0.06-0.83-0.09-1.65c-0.01-0.14-0.11-0.25-0.25-0.25-0.13 0-0.26 0.11-0.25 0.25q0.03 0.53 0.05 1.06 0.01 0.37 0.06 0.74 0.03 0.2 0.09 0.4 0.07 0.31 0.16 0.62 0.09 0.34 0.31 0.6 0.12 0.11 0.26 0.16 0.22 0.08 0.46 0.09 1.32 0.1 2.64-0.07 0.75-0.1 1.49-0.23 0.37-0.07 0.74-0.15 0.44-0.08 0.87-0.16 0.87-0.15 1.74-0.29 0.77-0.12 1.55-0.24 0.8-0.13 1.6-0.26 0.33-0.06 0.66-0.12 0.43-0.07 0.84-0.17 0.62-0.14 1.25-0.27 0.13-0.03 0.25-0.07c0.07-0.03 0.17-0.06 0.22-0.12q0.13-0.15 0.18-0.33 0.03-0.14 0.03-0.29 0.01-0.16 0.01-0.32 0.03-0.4 0.07-0.79 0.1-0.81 0.19-1.62 0.07-0.6 0.13-1.19 0.04-0.45 0.08-0.9 0.02-0.31 0.03-0.62 0.03-0.31 0.04-0.61 0-0.45 0-0.9 0-0.14 0-0.28 0-0.11-0.02-0.22-0.02-0.45-0.04-0.89-0.02-0.25-0.06-0.5-0.04-0.41-0.09-0.83-0.04-0.29-0.09-0.58-0.06-0.46-0.13-0.91-0.11-0.71-0.22-1.41-0.1-0.65-0.2-1.3 0 0.01 0 0.02-0.06-0.51-0.12-1.01-0.04-0.41-0.07-0.82-0.02-0.23-0.04-0.46-0.01-0.15-0.01-0.3-0.02-0.32-0.03-0.64-0.01-0.15-0.01-0.3 0.01-0.52 0.01-1.05 0.01-0.4 0.03-0.81 0.02-0.41 0.05-0.82 0.01-0.18 0.02-0.37 0.01-0.1-0.01-0.19c-0.02-0.08-0.09-0.16-0.17-0.18h-0.01q-0.03 0-0.07 0-0.1-0.01-0.17 0.06z"/>
    <path id="&lt;Path&gt;" class="s0" d="m51.98 39.48c-0.04 0.13 0.04 0.28 0.17 0.31q0.97 0.2 1.94 0.37 0.86 0.15 1.73 0.27 0.41 0.06 0.83 0.11 0.38 0.05 0.77 0.06 0.28 0.01 0.56 0.01 0.02 0 0.04 0 0 0.14 0 0.27 0.02 0.34 0.05 0.68 0.07 0.78 0.17 1.55 0.05 0.35 0.13 0.69 0.09 0.42 0.21 0.82 0.19 0.69 0.4 1.36 0.24 0.8 0.48 1.59 0.06 0.18 0.1 0.37 0.05 0.19 0.1 0.37 0.04 0.16 0.06 0.31 0.06 0.29 0.12 0.59 0.07 0.33 0.12 0.68 0.07 0.38 0.14 0.76 0.06 0.37 0.13 0.75 0.08 0.42 0.18 0.84 0.09 0.35 0.19 0.71 0.11 0.39 0.24 0.78 0.1 0.28 0.18 0.56 0.05 0.22 0.11 0.44 0.08 0.31 0.13 0.62-0.01-0.02-0.01-0.03c0.11 0.79 0.12 1.59 0.12 2.38q0.01 0.43 0.02 0.85 0 0.12 0 0.24 0 0-0.01 0-0.12-0.01-0.24 0-0.57 0.06-1.13 0.16c-0.54 0.1-1.07 0.22-1.61 0.3q0 0 0.01 0-0.02 0-0.03 0-0.02 0-0.04 0 0.01 0 0.01 0-0.35 0.04-0.69 0.04-0.14 0-0.29 0-0.16 0-0.33 0.03-0.03 0-0.05 0-0.03-0.01-0.06-0.01-0.12-0.02-0.24-0.01-0.18 0.02-0.37 0.04c-0.05 0.01-0.12 0.07-0.14 0.12q-0.06 0.09-0.03 0.19 0.03 0.1 0.12 0.15 0.09 0.05 0.19 0.03 0.02-0.01 0.04-0.01 0 0-0.01 0 0.16-0.03 0.33-0.03 0.08 0.02 0.15 0.03 0.1 0 0.19-0.02 0.18-0.01 0.36-0.01 0.09 0 0.18 0 0.41 0 0.8-0.05 0 0-0.01 0 0.5-0.08 1-0.18 0.32-0.06 0.65-0.13 0.39-0.06 0.79-0.12 0.14-0.02 0.28-0.02 0.08-0.01 0.16-0.01c0.1 0 0.22 0.02 0.33-0.02q0.14-0.05 0.19-0.19 0.02-0.09 0.01-0.17-0.02-0.23-0.02-0.46 0-0.75-0.02-1.5-0.01-0.42-0.03-0.83-0.02-0.4-0.08-0.79-0.04-0.37-0.14-0.72-0.06-0.22-0.11-0.45-0.05-0.16-0.1-0.31-0.11-0.35-0.22-0.7-0.11-0.37-0.21-0.75-0.06-0.23-0.12-0.46-0.04-0.2-0.08-0.39-0.15-0.77-0.28-1.54-0.08-0.42-0.15-0.84-0.08-0.45-0.18-0.89-0.07-0.33-0.16-0.64-0.09-0.35-0.2-0.69-0.21-0.66-0.41-1.32-0.21-0.69-0.4-1.39-0.17-0.62-0.27-1.27 0.01 0.02 0.01 0.03-0.09-0.75-0.16-1.5-0.04-0.34-0.05-0.67 0-0.16 0-0.33 0.02-0.1 0-0.19-0.03-0.1-0.11-0.16-0.07-0.03-0.14-0.03-0.06 0-0.12 0-0.15 0-0.31 0-0.33 0-0.67-0.02-0.34-0.02-0.68-0.07 0.01 0 0.01 0-1.01-0.13-2.02-0.3-1.1-0.19-2.2-0.41-0.03-0.01-0.06-0.01-0.18 0-0.24 0.18z"/>
  </g>

  <!-- ═══ LEFT-ARM (7 paths) ═══ -->
  <g id="left-arm">
    <path id="&lt;Path&gt;" class="s0" d="m36.86 35.64q-0.02 0.26-0.02 0.53 0.01 0.26 0.01 0.53 0 0.35 0.01 0.71 0.04 0.52 0.08 1.05 0.01 0.16 0.02 0.32 0.02 0.15 0.04 0.29 0.07 0.48 0.14 0.96 0.02 0.11 0.04 0.22 0.06 0.27 0.11 0.53 0.04 0.16 0.09 0.33 0.03 0.13 0.07 0.26 0.13 0.41 0.26 0.81 0.5 1.48 1.08 2.93 0.29 0.7 0.59 1.38 0.27 0.61 0.55 1.21 0.21 0.53 0.49 1.03 0.08 0.13 0.17 0.25 0.1 0.14 0.25 0.22 0.09 0.04 0.18 0.04 0.11 0 0.2-0.05c0.1-0.05 0.17-0.15 0.23-0.24q0.07-0.11 0.14-0.22 0.1-0.17 0.22-0.32c0.27-0.34 0.6-0.63 0.89-0.95q0.21-0.22 0.41-0.44 0.27-0.31 0.54-0.63 0.5-0.6 0.98-1.23 0.5-0.66 1-1.32-0.01 0.02-0.03 0.04 0.05-0.06 0.1-0.13 0 0.01 0 0.01 0.01-0.01 0.01-0.02 0.01-0.02 0.03-0.03-0.01 0-0.01 0.01 0.08-0.11 0.16-0.22 0 0.01 0 0.01 0.26-0.33 0.49-0.67 0.23-0.36 0.46-0.72 0.24-0.41 0.47-0.83 0.21-0.36 0.47-0.69 0.3-0.38 0.58-0.76 0.2-0.3 0.38-0.59 0.09-0.11 0.14-0.23 0.06-0.13 0.1-0.27 0.04-0.14 0.04-0.29 0-0.1-0.05-0.19c-0.07-0.11-0.19-0.13-0.31-0.12q-0.11 0-0.18 0.07-0.07 0.08-0.07 0.18 0 0.1 0.07 0.18 0.01 0.01 0.02 0.02-0.02 0.1-0.06 0.21-0.06 0.09-0.12 0.18-0.08 0.12-0.16 0.25-0.24 0.37-0.52 0.73 0.01-0.01 0.01-0.01-0.11 0.14-0.23 0.29-0.17 0.21-0.32 0.44-0.29 0.45-0.54 0.91-0.24 0.42-0.5 0.82-0.11 0.17-0.23 0.34-0.14 0.19-0.28 0.38-0.02 0.03-0.04 0.05 0.01-0.01 0.02-0.03-0.02 0.03-0.05 0.06-0.11 0.15-0.22 0.3 0.02-0.03 0.04-0.06-0.69 0.9-1.37 1.79 0.01 0 0.01-0.01-0.01 0.01-0.02 0.03-0.01 0.01-0.02 0.02 0.01-0.01 0.02-0.02-0.21 0.27-0.43 0.54-0.22 0.27-0.45 0.53-0.42 0.48-0.86 0.95-0.24 0.24-0.48 0.48-0.19 0.2-0.34 0.42-0.12 0.16-0.23 0.33-0.06 0.09-0.12 0.18-0.02-0.02-0.04-0.05-0.15-0.21-0.27-0.44-0.2-0.43-0.39-0.87-0.19-0.42-0.39-0.84-0.21-0.48-0.42-0.96 0.01 0.01 0.01 0.01-0.34-0.84-0.66-1.68-0.3-0.77-0.56-1.55-0.14-0.42-0.28-0.83-0.06-0.19-0.11-0.39-0.07-0.22-0.13-0.45-0.09-0.43-0.16-0.86-0.08-0.51-0.15-1.02-0.05-0.74-0.1-1.48-0.01-0.07 0-0.15-0.01-0.27-0.01-0.54 0-0.22-0.01-0.43 0-0.27 0.02-0.53c0-0.14-0.12-0.25-0.25-0.25-0.14 0-0.25 0.11-0.25 0.25z"/>
    <path id="&lt;Path&gt;" class="s0" d="m36.46 35.18q-0.31 0.09-0.61 0.21-0.26 0.1-0.53 0.13 0.01 0 0.03 0-0.03 0.01-0.05 0.01-0.01 0-0.02 0 0.01 0 0.01 0-0.37 0.03-0.74-0.01-0.3-0.03-0.6-0.04-0.18-0.01-0.35 0.01-0.09 0.02-0.17 0.09-0.09 0.1-0.1 0.23 0 0.14 0.06 0.27 0.08 0.22 0.18 0.44 0.24 0.6 0.41 1.23 0.2 0.7 0.39 1.4 0.17 0.63 0.34 1.25 0.16 0.68 0.35 1.36 0.06 0.22 0.14 0.44 0.09 0.25 0.2 0.49 0.21 0.47 0.44 0.94 0.25 0.49 0.51 0.97 0.22 0.41 0.47 0.8 0.23 0.35 0.49 0.68 0.31 0.42 0.6 0.86 0.25 0.37 0.47 0.76 0.24 0.44 0.44 0.9-0.01-0.03-0.02-0.06 0.16 0.37 0.29 0.75 0.05 0.16 0.1 0.33 0.02 0.1 0.11 0.15 0.12 0.07 0.25 0c0.12-0.05 0.13-0.18 0.14-0.29q0.01-0.11 0.01-0.22c0-0.1-0.07-0.2-0.17-0.23q-0.01-0.02-0.01-0.04-0.19-0.51-0.43-1-0.11-0.23-0.22-0.45-0.14-0.25-0.3-0.49-0.28-0.46-0.6-0.9-0.3-0.42-0.6-0.82-0.29-0.43-0.53-0.88-0.28-0.51-0.56-1.04-0.25-0.52-0.48-1.05 0 0.01 0.01 0.03-0.09-0.22-0.17-0.44-0.07-0.2-0.12-0.39-0.13-0.46-0.24-0.93-0.12-0.48-0.24-0.95-0.11-0.4-0.22-0.8-0.26-0.95-0.54-1.89-0.15-0.41-0.32-0.81-0.04-0.1-0.08-0.2 0.05 0 0.1 0 0.16 0.01 0.31 0.02 0.36 0.04 0.72 0.05 0.41-0.01 0.81-0.12c0.26-0.07 0.51-0.21 0.78-0.27 0.13-0.03 0.21-0.18 0.17-0.3-0.03-0.12-0.13-0.19-0.24-0.19q-0.03 0-0.07 0.01z"/>
    <path id="&lt;Path&gt;" class="s0" d="m37.06 36.92q-0.08 0.08-0.08 0.18 0.03 0.26 0.06 0.51 0.01 0.15 0.04 0.3 0.05 0.25 0.13 0.51 0.07 0.25 0.16 0.49 0.12 0.28 0.29 0.53 0.33 0.53 0.79 0.94c0.36 0.3 0.78 0.5 1.21 0.68q-0.02-0.01-0.03-0.01 0.28 0.12 0.56 0.22 0.33 0.12 0.66 0.18 0.28 0.06 0.56 0.12 0.39 0.08 0.8 0.12 0.3 0.03 0.6 0.02 0.34 0.01 0.67 0 0.57-0.03 1.14-0.09 0 0 0.01 0 0.03 0 0.06 0-0.01 0-0.02 0c0.65-0.09 1.26-0.3 1.87-0.51q0.33-0.12 0.64-0.27 0.12-0.07 0.25-0.14 0.1-0.05 0.21-0.1 0.13-0.05 0.21-0.17c0.07-0.11 0.02-0.28-0.09-0.34-0.11-0.07-0.24-0.04-0.32 0.05q-0.1 0.05-0.21 0.1-0.09 0.05-0.19 0.1-0.18 0.1-0.36 0.18 0.03-0.01 0.06-0.02-0.41 0.16-0.84 0.3-0.64 0.22-1.31 0.33 0.01 0 0.02 0-0.01 0-0.03 0-0.01 0-0.02 0 0 0 0.01 0-0.02 0-0.04 0.01-0.59 0.06-1.17 0.07-0.34 0.01-0.68 0-0.33 0-0.66-0.04 0.01 0 0.01 0-0.31-0.04-0.62-0.11-0.24-0.06-0.49-0.1-0.55-0.13-1.07-0.35 0.03 0.01 0.06 0.02-0.06-0.02-0.11-0.05 0 0 0.01 0.01-0.49-0.21-0.93-0.51-0.33-0.26-0.59-0.6-0.26-0.33-0.44-0.72 0.01 0.03 0.02 0.06-0.1-0.27-0.19-0.55-0.08-0.29-0.13-0.58-0.03-0.29-0.07-0.59 0-0.1-0.07-0.18-0.07-0.07-0.18-0.07-0.1 0-0.17 0.07z"/>
    <path id="&lt;Path&gt;" class="s0" d="m34.58 35.81c-0.04 0.04-0.08 0.11-0.07 0.17q0.07 0.57 0.14 1.13 0.03 0.21 0.06 0.43c0.01 0.08 0.01 0.18 0.05 0.26 0.12 0.18 0.4 0.14 0.46-0.06q0.03-0.11 0.06-0.21c0.03-0.11-0.02-0.22-0.11-0.28q-0.08-0.63-0.16-1.27 0-0.1-0.07-0.17-0.08-0.07-0.18-0.08-0.1 0.01-0.18 0.08z"/>
    <path id="&lt;Path&gt;" class="s0" d="m35.89 35.66q-0.02 0.04-0.04 0.09-0.03 0.05-0.04 0.11-0.01 0.03-0.02 0.07 0 0.13 0.02 0.26 0.04 0.35 0.08 0.7 0.03 0.2 0.08 0.38 0.03 0.12 0.13 0.19c0.08 0.04 0.19 0.05 0.27-0.01q0.08-0.05 0.11-0.15 0.03-0.1-0.02-0.19-0.01-0.01-0.02-0.03-0.01-0.03-0.02-0.06-0.03-0.16-0.06-0.32 0.01 0.03 0.02 0.07-0.02-0.16-0.04-0.31-0.01-0.12-0.03-0.25 0-0.01 0-0.02-0.02-0.11-0.02-0.21 0.02-0.03 0.04-0.06c0.06-0.12 0.03-0.28-0.09-0.35q-0.06-0.03-0.13-0.03-0.14 0-0.22 0.12z"/>
    <path id="&lt;Path&gt;" class="s0" d="m30.78 39.95q-0.08 0.05-0.11 0.15-0.08 0.46-0.23 0.91-0.11 0.33-0.23 0.65-0.17 0.48-0.33 0.96-0.24 0.65-0.47 1.31-0.28 0.8-0.54 1.6-0.16 0.47-0.31 0.94-0.09 0.3-0.18 0.6-0.23 0.75-0.45 1.51-0.15 0.53-0.29 1.05-0.08 0.27-0.15 0.54-0.22 0.91-0.44 1.83-0.06 0.26-0.11 0.53-0.12 0.58-0.24 1.15-0.09 0.42-0.15 0.84-0.07 0.42-0.14 0.83-0.03 0.18-0.06 0.35 0-0.01 0-0.02-0.1 0.78-0.2 1.56 0-0.01 0-0.01-0.03 0.29-0.05 0.58-0.05 0.42-0.08 0.85-0.07 0.82-0.11 1.65-0.05 0.83-0.08 1.67-0.02 0.38-0.03 0.76-0.01 0.23 0 0.46 0 0.17 0.07 0.33 0.08 0.15 0.19 0.26 0.26 0.27 0.59 0.43 0.32 0.13 0.64 0.23 0.16 0.05 0.32 0.09 0.23 0.06 0.46 0.1 0.17 0.03 0.33 0.06 0.19 0.03 0.37 0.05 0.38 0.05 0.75 0.08 0.35 0.03 0.71 0.06 0.28 0.02 0.56 0.04 0.62 0.03 1.25 0.05 1.1 0.04 2.21 0.05 0.78 0.02 1.56 0.01c0.68-0.01 1.34-0.12 2.02-0.22q0.54-0.09 1.09-0.2 0.34-0.07 0.68-0.13 0.28-0.05 0.56-0.09 0.37-0.04 0.74-0.07 0.11-0.01 0.22-0.02 0.03 0.12 0.13 0.18 0.03 0.02 0.07 0.03 0.04 0.01 0.08 0.01 0.09 0 0.16-0.04 0.04-0.02 0.08-0.05 0.03-0.02 0.06-0.04 0.07-0.04 0.11-0.11 0.06-0.09 0.03-0.2c-0.01-0.08-0.09-0.15-0.16-0.18q-0.12-0.05-0.24-0.07-0.27-0.04-0.54-0.01-0.44 0.03-0.87 0.09-0.28 0.04-0.55 0.09-0.3 0.05-0.58 0.11-0.49 0.09-0.98 0.18-0.25 0.04-0.5 0.08-0.23 0.03-0.46 0.07 0.02 0 0.03 0-0.02 0-0.04 0 0.01 0 0.01 0-0.01 0-0.03 0 0.01 0 0.01 0-0.01 0-0.02 0 0.01 0 0.01 0-0.56 0.06-1.12 0.09-0.39 0.01-0.78 0-0.47-0.01-0.93-0.02-0.91 0-1.81-0.03-0.89-0.03-1.78-0.08-0.47-0.03-0.93-0.07-0.37-0.04-0.75-0.08-0.26-0.04-0.53-0.08-0.22-0.04-0.44-0.09-0.1-0.02-0.21-0.06-0.11-0.03-0.23-0.07-0.24-0.07-0.48-0.16-0.19-0.09-0.36-0.2 0 0 0-0.01 0 0 0 0.01 0-0.01 0-0.01-0.12-0.1-0.22-0.22-0.03-0.03-0.04-0.07-0.01-0.03-0.02-0.07-0.01-0.16 0-0.31 0-0.38 0.02-0.76 0.04-0.83 0.08-1.66 0.02-0.42 0.05-0.85-0.01-0.36 0.05-0.72 0-0.1 0.01-0.2 0.03-0.31 0.06-0.63 0.03-0.39 0.07-0.78 0 0 0 0.01 0.1-0.79 0.2-1.56 0 0.01 0 0.01 0-0.02 0.01-0.04 0 0.01-0.01 0.02 0.14-0.86 0.29-1.72 0.05-0.27 0.11-0.54 0.12-0.56 0.24-1.14 0.17-0.77 0.37-1.53 0.06-0.29 0.14-0.58 0.12-0.42 0.23-0.84 0.2-0.73 0.42-1.47 0.23-0.79 0.48-1.57 0.26-0.81 0.54-1.62 0.3-0.86 0.6-1.71 0.16-0.46 0.32-0.92 0.09-0.26 0.18-0.51 0.11-0.31 0.21-0.63 0.12-0.36 0.18-0.75 0.02-0.1-0.03-0.19-0.05-0.09-0.15-0.11-0.03-0.02-0.07-0.02-0.06 0-0.12 0.04z"/>
    <path id="&lt;Path&gt;" class="s0" d="m33.79 36.27q-0.09 0.01-0.19 0.03 0.01 0 0.02 0-0.34 0.04-0.68 0.09 0.01 0 0.02 0-0.36 0.04-0.72 0.07-0.4 0.05-0.81 0.07-0.37 0.01-0.75 0.01-0.37 0-0.74 0-0.17-0.01-0.34 0-0.24-0.01-0.44 0.1-0.19 0.14-0.27 0.36-0.09 0.22-0.17 0.44-0.13 0.31-0.27 0.6-0.17 0.34-0.36 0.65-0.19 0.34-0.39 0.67-0.26 0.4-0.51 0.81-0.4 0.66-0.82 1.3-0.49 0.75-0.97 1.5-0.48 0.73-0.94 1.47-0.14 0.22-0.27 0.45-0.26 0.47-0.53 0.93-0.14 0.25-0.26 0.5-0.23 0.46-0.47 0.92-0.13 0.28-0.25 0.55-0.2 0.46-0.41 0.93-0.08 0.19-0.16 0.38-0.18 0.47-0.37 0.92-0.25 0.66-0.48 1.33-0.23 0.67-0.44 1.34-0.2 0.65-0.4 1.3-0.17 0.56-0.35 1.13-0.11 0.37-0.22 0.75-0.1 0.35-0.18 0.69-0.03 0.13-0.06 0.26-0.04 0.18-0.07 0.36-0.06 0.39-0.11 0.78-0.04 0.28-0.05 0.56-0.01 0.06 0 0.13 0 0.02 0 0.05 0 0 0 0.01c-0.05 0.07-0.05 0.19 0 0.27q0.06 0.08 0.14 0.13 0.09 0.05 0.19 0.08 0.21 0.05 0.43 0.08 0.36 0.06 0.72 0.11 0.66 0.12 1.32 0.18 0.51 0.02 1.01 0.03 0.41 0.03 0.83 0.04 0.55-0.01 1.09-0.12 0.34-0.07 0.67-0.14 0.34-0.07 0.67-0.16 0.01 0 0.01 0 0.02-0.2 0.06-0.4 0-0.07 0-0.14-0.35 0.1-0.71 0.19-0.26 0.05-0.52 0.1-0.41 0.09-0.82 0.15-0.01 0-0.02 0 0 0 0.01 0c-0.4 0.04-0.8 0-1.2-0.01q-0.36-0.02-0.72-0.03-0.42-0.01-0.84-0.06 0.04 0 0.07 0.01-0.6-0.09-1.2-0.19-0.28-0.04-0.55-0.08-0.06-0.02-0.13-0.03-0.01-0.04-0.01-0.09-0.01-0.15 0.01-0.3 0.03-0.3 0.06-0.61 0.04-0.25 0.09-0.51 0.05-0.28 0.12-0.55 0.08-0.32 0.17-0.65 0.08-0.26 0.16-0.52 0.34-1.15 0.7-2.29 0.16-0.53 0.33-1.05 0.07-0.22 0.14-0.43 0.1-0.28 0.2-0.57 0.17-0.5 0.37-0.99 0.24-0.61 0.49-1.22-0.01 0.02-0.02 0.03 0.32-0.72 0.65-1.45 0.05-0.11 0.11-0.21 0.12-0.24 0.24-0.48 0.13-0.24 0.25-0.48 0.05-0.11 0.11-0.22 0.22-0.38 0.43-0.75 0.16-0.3 0.34-0.59 0.44-0.71 0.89-1.41 0.49-0.76 0.98-1.51 0.46-0.7 0.9-1.41 0.43-0.68 0.83-1.37 0.2-0.32 0.38-0.64 0.16-0.33 0.3-0.67 0.09-0.2 0.17-0.4 0.03-0.1 0.08-0.2 0.01-0.05 0.04-0.09 0.01-0.01 0.02-0.02 0.01-0.01 0.02-0.02 0.03-0.01 0.05-0.01 0.1-0.01 0.2 0 0.17 0 0.34 0 0.59 0 1.17 0 0.58-0.01 1.16-0.09 0.65-0.07 1.31-0.16-0.03 0-0.05 0 0.15-0.02 0.31-0.04 0.1-0.02 0.15-0.11 0.05-0.1 0.02-0.2-0.03-0.1-0.11-0.15-0.06-0.03-0.13-0.03-0.03 0-0.07 0.01z"/>
  </g>

  <!-- ═══ HEAD (18 paths) ═══ -->
  <g id="head">
    <path id="&lt;Path&gt;" class="s0" d="m56.39 16.94q-0.36 0.03-0.72 0.06-0.35 0.04-0.69 0.12-0.36 0.06-0.71 0.15-0.38 0.11-0.75 0.22-0.35 0.11-0.69 0.21-0.4 0.12-0.78 0.25-0.41 0.15-0.82 0.29-0.16 0.07-0.32 0.13-0.27 0.11-0.54 0.22-0.33 0.13-0.66 0.28-0.18 0.08-0.36 0.16-0.14 0.07-0.28 0.14-0.24 0.12-0.49 0.24-0.1 0.05-0.21 0.11-0.44 0.25-0.89 0.5-0.27 0.16-0.55 0.34-0.33 0.21-0.65 0.43-0.33 0.22-0.64 0.46-0.37 0.27-0.73 0.54-0.15 0.12-0.29 0.24-0.16 0.14-0.32 0.26-0.05 0.05-0.11 0.11-0.09 0.09-0.19 0.19-0.13 0.12-0.26 0.25-0.26 0.26-0.51 0.54-0.18 0.2-0.36 0.41-0.11 0.12-0.21 0.25-0.5 0.66-1 1.32-0.26 0.34-0.53 0.68-0.08 0.1-0.17 0.2-0.2 0.24-0.41 0.48-0.27 0.3-0.56 0.59-0.25 0.25-0.52 0.47-0.38 0.28-0.78 0.53-0.4 0.23-0.81 0.45-0.98 0.57-1.8 1.35-0.34 0.31-0.58 0.69-0.12 0.19-0.22 0.4-0.32 0.58-0.52 1.22-0.09 0.27-0.12 0.55-0.02 0.11-0.02 0.22 0 0.11 0.02 0.21 0.01 0.12 0.04 0.23 0.02 0.11 0.06 0.21 0.04 0.1 0.09 0.2 0.04 0.07 0.1 0.15 0.05 0.05 0.09 0.11 0.18 0.24 0.37 0.46 0.17 0.18 0.38 0.32 0.26 0.21 0.55 0.38 0.24 0.13 0.49 0.23 0.41 0.15 0.84 0.2 0.1 0.02 0.19-0.03 0.09-0.05 0.12-0.15 0.02-0.1-0.03-0.19c-0.02-0.05-0.09-0.11-0.15-0.12q-0.26-0.03-0.52-0.09-0.24-0.07-0.46-0.17 0.03 0.01 0.05 0.03-0.22-0.11-0.43-0.23-0.21-0.14-0.4-0.29 0 0 0.01 0.01-0.09-0.07-0.16-0.14-0.18-0.16-0.33-0.36-0.07-0.08-0.13-0.17-0.04-0.04-0.07-0.08-0.09-0.12-0.14-0.26 0.01 0.03 0.02 0.06-0.06-0.18-0.09-0.37 0-0.02-0.01-0.04-0.01-0.14 0.01-0.28 0.04-0.24 0.11-0.47 0.08-0.25 0.18-0.49-0.01 0.03-0.02 0.06 0.19-0.46 0.43-0.89 0.11-0.21 0.24-0.39 0.33-0.37 0.71-0.69 0.18-0.14 0.35-0.28-0.01 0.01-0.02 0.01 0.02-0.01 0.04-0.03 0 0.01-0.01 0.01 0.01 0 0.01-0.01 0.18-0.14 0.36-0.27 0.2-0.14 0.42-0.26 0.37-0.22 0.74-0.42 0.46-0.26 0.89-0.57 0.19-0.14 0.38-0.29 0.07-0.06 0.14-0.13 0.1-0.08 0.19-0.17 0.22-0.23 0.44-0.46 0.15-0.16 0.3-0.33 0.22-0.25 0.44-0.51 0.16-0.2 0.31-0.4 0.66-0.85 1.3-1.71 0.26-0.3 0.52-0.59 0.25-0.29 0.52-0.55 0.26-0.27 0.54-0.53 0.13-0.11 0.26-0.21 0.14-0.12 0.3-0.25 0.32-0.24 0.64-0.49 0.31-0.22 0.62-0.44 0.11-0.08 0.23-0.16 0.16-0.11 0.33-0.21 0.23-0.15 0.46-0.29 0.08-0.06 0.16-0.11 0.43-0.24 0.87-0.48 0.27-0.16 0.56-0.29 0.3-0.15 0.61-0.3 0.39-0.17 0.78-0.35 0 0.01-0.01 0.01 0.01-0.01 0.01-0.01 0.03-0.01 0.06-0.02-0.01 0-0.02 0.01 0.35-0.14 0.7-0.28 0.3-0.12 0.6-0.22 0.63-0.22 1.27-0.42 0.69-0.22 1.38-0.41 0.33-0.08 0.66-0.14 0.29-0.06 0.58-0.1 0.32-0.03 0.63-0.05 0.31-0.03 0.62-0.01 0.12 0.02 0.25 0.06 0.11 0.06 0.21 0.13 0.11 0.09 0.19 0.2 0.18 0.25 0.29 0.54 0.04 0.1 0.08 0.2 0.06 0.2 0.08 0.41 0-0.01 0-0.02 0.01 0.02 0.01 0.05 0 0.01 0 0.01 0.03 0.22 0.04 0.45 0.01 0.18 0.01 0.37 0 0.2-0.01 0.41-0.01 0.16-0.03 0.33-0.08 0.41-0.18 0.82-0.07 0.25-0.13 0.5-0.08 0.27-0.16 0.54-0.16 0.52-0.32 1.05-0.15 0.49-0.29 0.98-0.07 0.24-0.12 0.48-0.07 0.23-0.13 0.47-0.06 0.3-0.1 0.59-0.08 0.6-0.06 1.2c0.02 0.54 0.16 1.06 0.32 1.57q0.07 0.23 0.14 0.45 0.06 0.15 0.1 0.32 0.11 0.37 0.16 0.75-0.01-0.01-0.01-0.03 0.06 0.46 0.08 0.92 0.02 0.29 0.02 0.58-0.01 0.5-0.03 0.99-0.02 0.55-0.02 1.11 0 0.23-0.01 0.46-0.02 0.27-0.05 0.54 0-0.01 0-0.01 0 0.01 0 0.03 0 0.02 0 0.03 0 0 0-0.01-0.03 0.19-0.07 0.38-0.05 0.23-0.14 0.44-0.09 0.19-0.22 0.37 0.02-0.02 0.04-0.04-0.09 0.11-0.19 0.23-0.09 0.09-0.19 0.17 0.02-0.01 0.04-0.02-0.02 0.02-0.04 0.03-0.01 0.01-0.02 0.01 0.01 0 0.01-0.01-0.28 0.19-0.59 0.35-0.2 0.1-0.42 0.19 0.02 0 0.04-0.01-0.3 0.11-0.6 0.21-0.2 0.06-0.39 0.1-0.17 0.05-0.35 0.08-0.74 0.15-1.48 0.26-1.45 0.25-2.9 0.47 0.02 0 0.04-0.01-0.42 0.07-0.85 0.08-0.22 0-0.44-0.01-0.15-0.01-0.3-0.03 0.01 0 0.02 0-0.01 0-0.02 0-0.02 0-0.05 0 0.02 0 0.03 0-0.41-0.06-0.81-0.2 0-0.01 0-0.01-0.04-0.03-0.09-0.04-0.1-0.03-0.19 0.02c-0.11 0.07-0.17 0.23-0.09 0.34q0.06 0.09 0.15 0.13 0.08 0.04 0.17 0.06 0.23 0.08 0.47 0.13 0.31 0.07 0.61 0.09 0.19 0.01 0.37 0.02 0.34 0.01 0.67-0.03 0.78-0.09 1.56-0.23 0.79-0.13 1.58-0.26 0.34-0.05 0.67-0.11 0.38-0.06 0.77-0.14 0.25-0.05 0.5-0.1 0.16-0.04 0.32-0.08 0.38-0.11 0.75-0.26 0.32-0.12 0.62-0.29 0.28-0.13 0.53-0.32 0.16-0.12 0.29-0.27 0.13-0.14 0.23-0.29 0.08-0.12 0.14-0.25 0.16-0.31 0.23-0.64 0.08-0.4 0.12-0.81 0.04-0.39 0.03-0.77 0-0.45 0.01-0.9 0.02-0.37 0.03-0.74 0-0.21 0.01-0.43 0-0.22-0.01-0.45-0.02-0.23-0.03-0.46-0.03-0.49-0.12-0.99-0.07-0.4-0.21-0.78-0.06-0.18-0.12-0.37-0.19-0.61-0.3-1.24-0.02-0.29-0.02-0.58 0-0.38 0.04-0.76 0 0 0 0.01 0-0.01 0.01-0.01 0-0.01 0-0.02 0 0 0 0.01 0.03-0.24 0.08-0.48 0.03-0.18 0.09-0.37 0.04-0.19 0.09-0.38 0.04-0.17 0.09-0.33 0.25-0.84 0.51-1.68 0.11-0.37 0.22-0.74 0.1-0.37 0.19-0.74c0.11-0.46 0.21-0.92 0.21-1.4q0-0.44-0.04-0.87-0.03-0.42-0.17-0.82-0.07-0.21-0.17-0.41c-0.15-0.33-0.4-0.65-0.74-0.82q-0.21-0.11-0.43-0.14-0.16-0.02-0.31-0.02-0.18 0-0.35 0.01z"/>
    <path id="&lt;Path&gt;" class="s0" d="m41.14 34.43q-0.14 0.04-0.27 0.11-0.2 0.12-0.38 0.26-0.42 0.29-0.82 0.62-0.19 0.16-0.37 0.31-0.24 0.21-0.46 0.42-0.17 0.16-0.3 0.36c-0.11 0.2-0.13 0.41-0.15 0.63q-0.01 0.24 0.04 0.47 0.02 0.06 0.05 0.13 0.05 0.09 0.11 0.17 0.12 0.13 0.28 0.22 0.14 0.07 0.28 0.1 0.2 0.06 0.41 0.06 0.24 0.01 0.48-0.04 0.37-0.06 0.71-0.18 0.21-0.07 0.42-0.11c0.13-0.03 0.2-0.19 0.17-0.31-0.04-0.14-0.17-0.2-0.3-0.18q-0.23 0.06-0.44 0.13-0.41 0.13-0.84 0.19 0.03 0 0.06-0.01-0.2 0.02-0.4 0-0.12-0.02-0.24-0.06-0.08-0.04-0.15-0.09-0.04-0.03-0.07-0.07-0.02-0.02-0.03-0.05-0.02-0.04-0.03-0.08-0.02-0.23 0.01-0.46-0.01 0.01-0.01 0.02 0-0.01 0.01-0.03 0-0.02 0-0.04 0 0.02 0 0.04 0.01-0.06 0.03-0.12 0.03-0.08 0.08-0.15 0.13-0.15 0.28-0.28 0.17-0.16 0.35-0.32 0.3-0.26 0.61-0.5 0.24-0.19 0.48-0.36 0.21-0.17 0.44-0.29 0.04-0.01 0.09-0.03 0.09-0.03 0.15-0.11 0.05-0.1 0.02-0.2c-0.02-0.1-0.13-0.18-0.23-0.18q-0.04 0-0.07 0.01z"/>
    <path id="&lt;Path&gt;" class="s0" d="m46.26 36.63q-0.18 0.19-0.37 0.37-0.36 0.36-0.77 0.68 0 0 0.01 0-0.01 0-0.03 0.01-0.01 0.01-0.03 0.02 0.01 0 0.01 0-0.35 0.26-0.71 0.5-0.38 0.25-0.8 0.45-0.22 0.08-0.45 0.14-0.23 0.06-0.46 0.1 0.04-0.01 0.07-0.01-0.34 0.04-0.68-0.01-0.15-0.03-0.29-0.07-0.06-0.03-0.11-0.07-0.03-0.02-0.06-0.05-0.01-0.03-0.03-0.06-0.01-0.04-0.02-0.09-0.01-0.17 0.01-0.34 0.01-0.2 0.04-0.41-0.01 0.03-0.01 0.07 0.03-0.21 0.09-0.4 0.02-0.04 0.04-0.07 0.03-0.04 0.08-0.07-0.03 0.02-0.06 0.04 0.01 0 0.02-0.01 0.09-0.05 0.12-0.15 0.02-0.1-0.03-0.19-0.05-0.09-0.15-0.12-0.1-0.03-0.19 0.03-0.09 0.06-0.17 0.14-0.11 0.14-0.15 0.3-0.06 0.17-0.08 0.34-0.05 0.32-0.06 0.64-0.01 0.15 0.01 0.3 0.02 0.1 0.06 0.2 0.05 0.11 0.13 0.2 0.1 0.12 0.24 0.19 0.16 0.08 0.34 0.11 0.19 0.04 0.39 0.05 0.24 0.03 0.47 0 0.33-0.04 0.65-0.13 0.37-0.1 0.72-0.28 0.29-0.15 0.57-0.34 0.31-0.2 0.61-0.43 0.56-0.41 1.06-0.89 0.13-0.13 0.26-0.27c0.06-0.06 0.15-0.13 0.17-0.22q0.02-0.1-0.03-0.19-0.05-0.09-0.15-0.12-0.03-0.01-0.06-0.01-0.14 0.01-0.22 0.12z"/>
    <path id="&lt;Path&gt;" class="s0" d="m43.3 29.13c-0.07 0.12-0.02 0.27 0.09 0.34 0.23 0.14 0.5 0.21 0.76 0.29q0.39 0.14 0.77 0.28 0.53 0.23 1.05 0.47 0.26 0.11 0.52 0.21 0.24 0.1 0.49 0.19 0.27 0.09 0.54 0.16 0.27 0.06 0.54 0.1 0.28 0.04 0.56 0.09 0.15 0.03 0.29 0.06 0.17 0.03 0.34 0.08 0.47 0.12 0.93 0.27 0.23 0.07 0.48 0.13 0.3 0.07 0.6 0.09c0.32 0.02 0.64-0.03 0.96-0.04q0.23-0.02 0.46 0 0.1 0.02 0.21 0.05c0.13 0.03 0.27-0.05 0.31-0.18 0.03-0.13-0.05-0.27-0.18-0.31q-0.17-0.04-0.35-0.06-0.15-0.01-0.31-0.01-0.27 0.01-0.54 0.03-0.38 0.03-0.75 0-0.58-0.1-1.13-0.3-0.28-0.09-0.56-0.15-0.17-0.04-0.33-0.08-0.19-0.05-0.38-0.07-0.3-0.05-0.6-0.1-0.31-0.05-0.62-0.14-0.64-0.2-1.26-0.46 0.03 0.01 0.07 0.02-0.29-0.13-0.57-0.25-0.11-0.06-0.22-0.11-0.19-0.09-0.39-0.16c-0.44-0.17-0.9-0.3-1.34-0.48q-0.05-0.02-0.1-0.05-0.06-0.03-0.12-0.03-0.14 0-0.22 0.12z"/>
    <path id="&lt;Path&gt;" class="s0" d="m52.82 31.08q0.01 0.1 0.02 0.19 0.02 0.1 0.03 0.2 0.04 0.21 0.08 0.42-0.01-0.03-0.01-0.05 0.01 0.03 0.01 0.06 0.03 0.25 0.05 0.5 0.02 0.17 0.02 0.34-0.01 0.01-0.01 0.01-0.13 0.13-0.04 0.31c0.06 0.11 0.22 0.16 0.34 0.09q0.14-0.09 0.18-0.25c0.04-0.13 0.02-0.29 0.02-0.42q-0.03-0.32-0.07-0.64-0.06-0.35-0.11-0.7 0 0.02 0 0.04-0.01-0.05-0.01-0.1c0.01-0.14-0.11-0.25-0.25-0.25-0.14 0-0.24 0.11-0.25 0.25z"/>
    <path id="&lt;Path&gt;" class="s0" d="m52.95 31.72q-0.12 0.13-0.25 0.25-0.15 0.1-0.3 0.17-0.2 0.11-0.41 0.2 0.02-0.01 0.03-0.02-0.03 0.02-0.06 0.03 0 0 0.01-0.01-0.35 0.15-0.69 0.29 0.03-0.01 0.06-0.02-0.63 0.27-1.27 0.56 0.01-0.01 0.02-0.01-0.58 0.24-1.19 0.43-0.41 0.15-0.84 0.23 0.03-0.01 0.06-0.02-0.34 0.04-0.68 0.01-0.36-0.05-0.71-0.15-0.43-0.11-0.83-0.28 0.02 0.01 0.05 0.03-0.33-0.16-0.65-0.31-0.4-0.19-0.79-0.37c-0.33-0.16-0.63-0.37-0.97-0.5-0.13-0.04-0.27 0.06-0.31 0.18-0.03 0.14 0.05 0.26 0.18 0.31q0.01 0 0.02 0 0.35 0.17 0.68 0.37 0.27 0.13 0.55 0.26 0.32 0.15 0.65 0.31 0.53 0.26 1.09 0.43 0.5 0.15 1.01 0.22 0.18 0.02 0.36 0.02 0.27 0 0.54-0.05 0.34-0.07 0.66-0.19 0.46-0.14 0.91-0.31 0.59-0.23 1.17-0.51 0.22-0.1 0.45-0.19-0.04 0.01-0.07 0.02 0.07-0.03 0.15-0.06-0.04 0.02-0.07 0.03 0.34-0.14 0.69-0.28-0.03 0.01-0.06 0.02 0.33-0.13 0.65-0.31 0.15-0.09 0.29-0.2 0.11-0.1 0.22-0.22c0.1-0.1 0.1-0.26 0-0.36q-0.08-0.07-0.18-0.07-0.1 0-0.17 0.07z"/>
    <path id="&lt;Path&gt;" class="s0" d="m44.07 29.71q0.02 0.43 0.05 0.86 0.02 0.32 0.07 0.64 0.04 0.29 0.11 0.58 0.04 0.15 0.11 0.29 0.04 0.09 0.12 0.14 0.1 0.06 0.22 0.04c0.14-0.03 0.19-0.17 0.24-0.29q0.06-0.15 0.12-0.3-0.01 0.03-0.02 0.06 0.08-0.2 0.19-0.37 0.02-0.02 0.04-0.04 0.13 0.07 0.26 0.13 0.24 0.13 0.49 0.22 0.31 0.12 0.64 0.18 0.42 0.09 0.84 0.13 0 0 0.01 0 0.03 0 0.06 0.01-0.01 0-0.02-0.01 0.24 0.05 0.48 0.1 0.18 0.03 0.36 0.03-0.01 0.1-0.01 0.21-0.02 0.18 0 0.36 0 0.11 0.01 0.21 0 0.14 0.04 0.26 0.05 0.13 0.16 0.21 0.15 0.08 0.3 0.01 0.06-0.03 0.11-0.07 0.09-0.07 0.19-0.13 0.18-0.13 0.35-0.26 0.2-0.14 0.39-0.29 0.2-0.15 0.4-0.31 0.27-0.22 0.58-0.38 0 0 0.01 0 0.01-0.01 0.02-0.01-0.01 0-0.02 0.01 0 0 0.01 0 0.09-0.04 0.14-0.12 0.06-0.09 0.03-0.19-0.03-0.1-0.12-0.15-0.09-0.05-0.19-0.03-0.3 0.14-0.57 0.33-0.24 0.18-0.47 0.36-0.3 0.23-0.6 0.45-0.13 0.1-0.27 0.19-0.03-0.33 0.01-0.66 0.03-0.13 0.01-0.25-0.04-0.17-0.21-0.23-0.11-0.02-0.23-0.02-0.15 0-0.29-0.01-0.14-0.03-0.29-0.06-0.34-0.06-0.68-0.1 0.04 0.01 0.07 0.01-0.42-0.05-0.82-0.16-0.2-0.06-0.39-0.14-0.24-0.1-0.47-0.23-0.11-0.06-0.23-0.1-0.16-0.05-0.31 0.03-0.14 0.09-0.22 0.22-0.08 0.11-0.14 0.22-0.01 0.03-0.02 0.05-0.03-0.15-0.06-0.3 0.01 0.03 0.01 0.07-0.03-0.27-0.05-0.54-0.03-0.43-0.05-0.86c-0.01-0.13-0.11-0.25-0.25-0.25-0.13 0-0.26 0.12-0.25 0.25z"/>
    <path id="&lt;Path&gt;" class="s0" d="m46.14 31.39q-0.09 0.06-0.12 0.15-0.07 0.21-0.16 0.42-0.16 0.32-0.37 0.61-0.1 0.13-0.22 0.24-0.06 0.05-0.12 0.09-0.08 0.07-0.11 0.17c-0.05 0.13 0.05 0.27 0.17 0.31q0.1 0.02 0.2-0.03 0.03-0.03 0.06-0.06 0.06-0.05 0.12-0.1 0.09-0.07 0.17-0.16 0.13-0.16 0.24-0.32 0.14-0.2 0.25-0.41 0.15-0.3 0.26-0.62c0.04-0.13-0.06-0.28-0.18-0.31q-0.03-0.01-0.06-0.01-0.07 0-0.13 0.03z"/>
    <path id="&lt;Path&gt;" class="s0" d="m51.53 23.09q-0.08 0.03-0.16 0.07-0.25 0.13-0.49 0.25-0.34 0.17-0.67 0.36-0.32 0.2-0.64 0.43-0.6 0.43-1.19 0.89-0.31 0.23-0.64 0.44-0.29 0.19-0.58 0.37-0.63 0.38-1.25 0.78-0.48 0.32-0.93 0.68-0.28 0.21-0.53 0.46-0.1 0.1-0.17 0.23c-0.03 0.06-0.03 0.07-0.04 0.14q0 0.04 0.01 0.08c0.01 0.08 0.09 0.15 0.15 0.18q0.06 0.04 0.13 0.07 0.12 0.04 0.25 0.09 0.14 0.06 0.3 0.1 0.44 0.09 0.9 0.07 0.5 0.01 1-0.03 0.19-0.01 0.39-0.05 0.17-0.04 0.34-0.1c0.13-0.03 0.21-0.17 0.17-0.31-0.03-0.13-0.17-0.21-0.31-0.17q-0.23 0.07-0.46 0.12-0.38 0.04-0.76 0.04-0.48 0.02-0.96-0.02 0.04 0 0.07 0.01-0.19-0.03-0.37-0.08-0.12-0.03-0.22-0.08 0.07-0.07 0.14-0.13 0.24-0.21 0.48-0.4 0 0 0 0.01 0.01-0.01 0.02-0.02 0.01-0.01 0.03-0.02-0.01 0-0.02 0.01 0.29-0.22 0.6-0.42 0.42-0.28 0.85-0.53 0.41-0.26 0.81-0.51 0.44-0.28 0.85-0.58 0.41-0.3 0.81-0.61 0.42-0.31 0.86-0.6 0.42-0.27 0.88-0.49 0.24-0.13 0.48-0.25 0.01 0 0.02 0 0-0.01 0.01-0.01-0.01 0.01-0.02 0.01 0.08-0.01 0.15-0.07 0.08-0.07 0.08-0.18 0-0.11-0.07-0.18-0.08-0.07-0.18-0.07-0.01-0.01-0.02-0.01-0.05 0.01-0.1 0.03z"/>
    <path id="&lt;Compound Path&gt;" fill-rule="evenodd" class="s0" d="m46.38 21.98q0.01 0 0.02 0 0.11 0.01 0.23 0.03 0.09 0.03 0.18 0.06 0.24 0.1 0.47 0.22 0.26 0.14 0.5 0.31 0.28 0.18 0.53 0.39 0.23 0.2 0.42 0.43 0.15 0.19 0.27 0.38 0.1 0.14 0.17 0.28 0.1 0.16 0.13 0.33 0.02 0.12 0 0.24-0.03 0.09-0.07 0.16-0.11 0.16-0.29 0.22-0.17 0.04-0.34 0.04-0.14 0.01-0.27 0-0.39-0.05-0.77-0.15-0.35-0.07-0.67-0.2-0.17-0.07-0.31-0.17-0.15-0.12-0.26-0.27-0.11-0.14-0.17-0.3-0.07-0.17-0.09-0.34 0 0.01 0 0.01-0.02-0.18-0.01-0.37 0.02-0.22 0.06-0.43 0.03-0.15 0.08-0.29 0.02-0.07 0.05-0.14-0.01-0.01-0.02-0.01-0.07-0.08-0.07-0.18c0-0.12 0.11-0.25 0.23-0.25zm-0.32 1.67q0.01 0.03 0.01 0.05 0-0.02-0.01-0.05zm0.5-0.47q-0.02 0.2 0 0.41 0 0.01 0 0.01 0.02 0.11 0.05 0.21 0.05 0.1 0.12 0.19 0.06 0.08 0.13 0.14 0.11 0.07 0.22 0.12-0.03-0.01-0.06-0.02 0.29 0.12 0.61 0.19 0.33 0.08 0.66 0.14 0.21 0.02 0.41 0 0.05-0.01 0.09-0.02 0.01 0 0.01-0.01 0 0 0.01-0.01 0-0.01 0-0.01 0-0.01 0-0.02-0.01-0.04-0.02-0.09-0.07-0.13-0.15-0.25-0.11-0.18-0.24-0.35-0.01-0.01-0.01-0.02 0 0 0 0.01-0.09-0.13-0.2-0.24-0.15-0.15-0.32-0.29-0.31-0.23-0.63-0.42-0.25-0.16-0.53-0.28-0.03 0.09-0.06 0.17-0.06 0.22-0.09 0.44zm1.86 0.66q0-0.01 0-0.01 0 0 0 0.01z"/>
    <path id="&lt;Compound Path&gt;" fill-rule="evenodd" class="s0" d="m52.65 24.75q0.08 0 0.17 0.01 0.22 0 0.45 0.04 0.29 0.04 0.59 0.1 0.45 0.11 0.88 0.29 0.23 0.08 0.45 0.22 0.11 0.07 0.22 0.16 0.08 0.06 0.13 0.14c0.07 0.15 0.03 0.31-0.01 0.46q-0.16 0.47-0.47 0.86-0.13 0.19-0.3 0.34-0.13 0.11-0.28 0.19-0.28 0.14-0.58 0.17-0.19 0.03-0.38 0.02-0.46-0.05-0.92-0.17-0.38-0.07-0.71-0.26-0.16-0.09-0.28-0.22-0.06-0.07-0.11-0.15-0.09-0.14-0.15-0.29-0.16-0.39-0.2-0.81-0.01-0.2-0.02-0.4c-0.1 0.02-0.21-0.02-0.26-0.11-0.07-0.12-0.03-0.27 0.09-0.34q0.2-0.12 0.43-0.15 0.32-0.05 0.64-0.07 0.31-0.02 0.62-0.03zm-1.02 0.57q-0.01 0-0.01 0 0.02 0.28 0.03 0.55 0.06 0.34 0.18 0.65 0.05 0.11 0.12 0.21 0.06 0.06 0.13 0.12 0.11 0.07 0.23 0.12 0.23 0.09 0.48 0.15 0.31 0.07 0.63 0.11 0.19 0.03 0.39 0.01 0.18-0.03 0.35-0.08 0.12-0.06 0.23-0.14 0.12-0.1 0.22-0.22 0.23-0.29 0.39-0.62-0.01 0.01-0.01 0.02 0.05-0.13 0.08-0.26-0.01-0.02-0.03-0.03-0.01-0.01-0.03-0.02-0.18-0.13-0.39-0.22 0 0 0 0-0.16-0.06-0.31-0.11-0.19-0.07-0.38-0.13-0.4-0.09-0.81-0.15-0.22-0.03-0.44-0.02-0.2 0-0.4 0.01-0.33 0.01-0.65 0.05zm1.79 1.91q-0.02 0-0.04 0 0.03 0.01 0.07 0.01-0.02 0-0.03-0.01zm1.57-1.03q-0.01 0.02-0.02 0.04 0.01-0.02 0.02-0.04zm0.02-0.31q0.02 0.01 0.03 0.02-0.02-0.01-0.03-0.02 0 0 0 0zm-0.39-0.22q0.01 0.01 0.02 0.01-0.01 0-0.02-0.01zm-2.99-0.35z"/>
    <path id="&lt;Path&gt;" class="s0" d="m52.42 25.18q-0.16 0.26-0.32 0.53-0.08 0.12-0.09 0.26 0.01 0.08 0 0.15c0 0.15 0.11 0.3 0.27 0.29q0.08 0 0.15-0.04 0.09-0.06 0.15-0.14 0.09-0.08 0.16-0.16 0.21-0.25 0.37-0.53c0.07-0.11 0.03-0.27-0.09-0.34q-0.08-0.04-0.17-0.03-0.03-0.05-0.08-0.08-0.06-0.04-0.13-0.03-0.13 0-0.22 0.12z"/>
    <path id="&lt;Path&gt;" class="s0" d="m47.27 22.86q-0.14 0.22-0.28 0.44-0.06 0.09-0.11 0.19-0.06 0.12-0.07 0.26c-0.01 0.13 0.09 0.24 0.21 0.28 0.1 0.03 0.21-0.01 0.29-0.06q0.13-0.08 0.25-0.19 0.23-0.19 0.39-0.46c0.06-0.12 0.02-0.27-0.09-0.34q-0.06-0.03-0.12-0.03-0.03-0.12-0.12-0.18-0.07-0.04-0.13-0.04-0.14 0.01-0.22 0.13z"/>
    <path id="&lt;Path&gt;" class="s0" d="m52.4 18.47q-0.44 0.01-0.87 0.09-0.58 0.1-1.14 0.26-0.16 0.04-0.32 0.09-0.17 0.05-0.34 0.11-0.17 0.08-0.33 0.16c-0.12 0.07-0.16 0.23-0.09 0.35 0.07 0.12 0.22 0.15 0.34 0.08q0.1-0.05 0.19-0.09 0.27-0.1 0.53-0.18 0.24-0.07 0.48-0.13 0.52-0.13 1.04-0.2 0.22-0.03 0.43-0.03 0.18-0.01 0.35 0 0.08 0.01 0.15 0.04 0.02 0.01 0.03 0.02 0 0 0.01 0 0 0.02 0.01 0.03 0.02 0.27-0.01 0.53 0.01-0.04 0.01-0.07-0.07 0.41-0.21 0.82-0.13 0.38-0.29 0.76 0.01 0 0.01 0-0.18 0.4-0.36 0.79-0.07 0.15-0.15 0.3-0.04 0.08-0.05 0.17c-0.01 0.14 0.12 0.25 0.25 0.25 0.1 0.01 0.19-0.06 0.26-0.13q0.12-0.11 0.23-0.23 0.4-0.42 0.86-0.76 0.46-0.35 0.94-0.66 0.4-0.26 0.83-0.45 0 0-0.01 0 0.39-0.18 0.82-0.24 0.15-0.02 0.3-0.01 0.05 0.01 0.1 0.03 0.05 0.03 0.09 0.06 0.03 0.02 0.06 0.06 0.02 0.03 0.03 0.06 0.06 0.17 0.08 0.36 0-0.03-0.01-0.07 0.02 0.18 0.02 0.35 0 0.08 0 0.16-0.01 0.09-0.02 0.17 0 0 0 0.01 0 0.03-0.01 0.05 0-0.01 0.01-0.02-0.03 0.18-0.07 0.36-0.04 0.19-0.1 0.36-0.05 0.17-0.11 0.34-0.07 0.19-0.15 0.37 0 0 0-0.01-0.13 0.32-0.29 0.62c-0.07 0.13-0.17 0.25-0.21 0.39-0.06 0.2 0.11 0.41 0.32 0.4 0.12-0.01 0.22-0.07 0.34-0.09q0.01 0 0.03 0 0.07 0.09 0.11 0.2 0.07 0.15 0.14 0.3 0-0.01-0.01-0.02 0.01 0.04 0.02 0.08 0 0.03 0 0.07c-0.01 0.13 0.13 0.25 0.25 0.25q0.11 0 0.18-0.08 0.07-0.07 0.07-0.17c0.02-0.16-0.04-0.3-0.1-0.44q-0.09-0.21-0.2-0.41-0.08-0.14-0.23-0.23-0.12-0.06-0.25-0.05 0.05-0.08 0.09-0.17 0.12-0.26 0.23-0.53 0.14-0.34 0.25-0.68 0.05-0.16 0.1-0.32 0.03-0.16 0.05-0.31 0.03-0.2 0.05-0.39 0.02-0.18 0.01-0.37-0.01-0.14-0.03-0.29-0.02-0.16-0.07-0.31-0.06-0.19-0.2-0.33-0.1-0.1-0.23-0.16-0.17-0.09-0.36-0.1-0.16-0.01-0.33 0.01-0.15 0.02-0.29 0.05-0.38 0.1-0.74 0.26-0.55 0.26-1.06 0.61-0.54 0.36-1.05 0.77 0.08-0.16 0.14-0.33 0.1-0.26 0.19-0.53 0.12-0.33 0.2-0.68 0.05-0.34 0.03-0.69-0.01-0.16-0.07-0.31-0.09-0.15-0.24-0.22-0.27-0.12-0.57-0.11-0.05 0-0.09 0z"/>
    <path id="&lt;Path&gt;" class="s0" d="m59.57 23.15q-0.07 0.07-0.11 0.16-0.05 0.1-0.11 0.2-0.21 0.35-0.45 0.7-0.29 0.45-0.58 0.92-0.17 0.26-0.33 0.53-0.15 0.24-0.33 0.46 0.01 0 0.01-0.01-0.19 0.25-0.43 0.47 0.01-0.01 0.02-0.02-0.01 0.01-0.03 0.02-0.01 0.01-0.02 0.02 0.01-0.01 0.02-0.02-0.23 0.14-0.46 0.27c-0.11 0.08-0.16 0.23-0.09 0.35 0.06 0.11 0.23 0.16 0.34 0.09q0.14-0.09 0.29-0.17 0.19-0.1 0.35-0.25 0.24-0.22 0.44-0.49 0.11-0.16 0.22-0.32 0.14-0.2 0.26-0.41 0.34-0.55 0.69-1.1-0.08 0.83-0.13 1.65-0.04 0.47-0.03 0.94-0.01 0.41 0.03 0.82 0.03 0.26 0.09 0.52 0.03 0.13 0.06 0.27 0.01 0.05 0.01 0.1-0.01 0.02-0.02 0.04 0 0.01 0 0.01-0.03 0.04-0.06 0.06-0.07 0.05-0.14 0.08-0.16 0.06-0.33 0.09 0.04-0.01 0.07-0.01-0.04 0-0.08 0.01 0.01 0 0.01 0-0.33 0.04-0.66 0.01-0.01 0-0.01 0-0.02-0.05-0.06-0.09-0.07-0.08-0.17-0.08-0.11 0-0.18 0.08-0.09 0.09-0.1 0.22 0 0.13 0.09 0.22 0.09 0.08 0.19 0.11 0.11 0.03 0.22 0.04 0.39 0.04 0.78-0.03-0.04 0.01-0.07 0.01 0.15-0.02 0.3-0.05 0.14-0.04 0.27-0.1 0.17-0.09 0.3-0.23 0.14-0.17 0.15-0.4-0.01-0.11-0.02-0.21-0.02-0.09-0.05-0.19-0.05-0.23-0.09-0.46 0 0.01 0 0.02 0-0.02 0-0.04 0-0.01 0-0.03 0 0.01 0 0.02-0.03-0.37-0.03-0.74-0.01-0.47 0.02-0.95 0.05-0.82 0.13-1.65 0 0.01 0 0.01 0.06-0.42 0.14-0.84 0.06-0.23 0.09-0.45c0.01-0.09-0.05-0.18-0.12-0.22q-0.06-0.04-0.13-0.04-0.1 0-0.17 0.08z"/>
    <path id="&lt;Path&gt;" class="s0" d="m58.34 26.34q-0.11 0.18-0.22 0.36-0.12 0.22-0.22 0.43-0.07 0.17-0.14 0.33c-0.03 0.1 0 0.22 0.07 0.29q0.1 0.09 0.23 0.07 0.06 0 0.11 0 0.07 0.01 0.13 0.03 0.03 0.01 0.05 0.03 0 0 0.01 0 0 0.02 0.01 0.03 0 0 0 0.01 0.01 0.04 0 0.07-0.02 0.13-0.06 0.26-0.04 0.09-0.09 0.17-0.04 0.04-0.08 0.07-0.03 0.03-0.07 0.05-0.01 0-0.02 0-0.01 0-0.02 0-0.01 0-0.02 0-0.01-0.01-0.03-0.02-0.01-0.01-0.02-0.02-0.01-0.01-0.01-0.02-0.02-0.05-0.03-0.11c-0.04-0.13-0.18-0.21-0.31-0.18-0.13 0.04-0.21 0.18-0.18 0.31q0.02 0.08 0.05 0.15 0.05 0.11 0.12 0.2 0.07 0.07 0.15 0.12 0.13 0.06 0.27 0.07 0.15 0.01 0.27-0.05 0.1-0.05 0.18-0.12 0.15-0.13 0.24-0.3 0.1-0.19 0.14-0.4 0.02-0.11 0.03-0.22 0-0.15-0.07-0.29-0.07-0.12-0.18-0.19-0.1-0.08-0.23-0.11-0.02-0.01-0.04-0.01 0.07-0.16 0.15-0.31 0.12-0.23 0.26-0.45c0.08-0.11 0.03-0.27-0.09-0.34q-0.05-0.03-0.12-0.03-0.13 0-0.22 0.12z"/>
    <path id="&lt;Path&gt;" class="s0" d="m47.48 16.78q-0.05 0.03-0.09 0.07-0.05 0.02-0.09 0.05-0.17 0.08-0.34 0.18-0.18 0.12-0.35 0.25-0.29 0.22-0.56 0.49-0.29 0.28-0.57 0.57-0.22 0.21-0.45 0.43-0.23 0.21-0.48 0.41-0.26 0.23-0.54 0.44c-0.45 0.35-0.96 0.61-1.39 0.98q-0.29 0.24-0.52 0.55-0.11 0.14-0.21 0.31-0.1 0.17-0.17 0.36-0.12 0.37-0.12 0.77-0.01 0.3 0.12 0.59 0.04 0.07 0.1 0.14 0.03 0.02 0.05 0.04 0.05 0.04 0.11 0.07 0.07 0.04 0.16 0.06 0.24 0.05 0.48-0.01c0.21-0.03 0.41-0.1 0.62-0.13q-0.03 0.01-0.07 0.01 0.11-0.01 0.22-0.02 0.09 0.01 0.18 0.02c0.14 0.01 0.25-0.12 0.25-0.25q0-0.1-0.07-0.18-0.07-0.07-0.18-0.07-0.1-0.01-0.2-0.02-0.15 0.01-0.28 0.04-0.33 0.06-0.65 0.13-0.07 0-0.13 0-0.06-0.01-0.11-0.03-0.01 0-0.02-0.01-0.01-0.01-0.02-0.03-0.05-0.13-0.07-0.28 0.01 0.04 0.01 0.07-0.01-0.19 0.01-0.39 0-0.03 0.01-0.06 0 0.02-0.01 0.04 0.04-0.23 0.13-0.44-0.01 0.02-0.02 0.04 0.1-0.23 0.25-0.43 0.11-0.14 0.23-0.28 0.2-0.2 0.42-0.37 0.46-0.31 0.91-0.62 0.52-0.36 0.99-0.78 0.21-0.18 0.42-0.37 0.2-0.18 0.39-0.37c0.34-0.33 0.64-0.68 1.01-0.97q-0.01 0-0.02 0.01 0.01-0.01 0.02-0.02 0.01 0 0.02-0.01 0 0-0.01 0 0.01 0 0.01 0-0.1 0.21-0.17 0.43-0.08 0.24-0.14 0.49-0.08 0.28-0.15 0.57-0.13 0.52-0.24 1.04-0.04 0.15-0.07 0.31-0.03 0.17-0.03 0.34c-0.01 0.14 0.12 0.25 0.25 0.25 0.14 0 0.24-0.11 0.25-0.25q0-0.1 0.01-0.2 0.04-0.2 0.09-0.41 0.08-0.37 0.17-0.74 0.09-0.4 0.2-0.8 0.1-0.36 0.23-0.71 0.11-0.26 0.25-0.52 0.07-0.14 0.17-0.28 0.09-0.03 0.15-0.1 0.07-0.06 0.09-0.15 0.02-0.1-0.03-0.19-0.07-0.12-0.22-0.13-0.1 0.01-0.19 0.07z"/>
    <path id="&lt;Path&gt;" class="s0" d="m45.39 19.88c-0.36 0.17-0.65 0.47-0.83 0.82q-0.08 0.16-0.13 0.33-0.05 0.17-0.07 0.33-0.01 0.11 0 0.22-0.06-0.02-0.11-0.04-0.11-0.04-0.22-0.08-0.14-0.03-0.29-0.03-0.2 0-0.38 0.05-0.03 0.01-0.06 0.02-0.11 0.05-0.22 0.1-0.09 0.05-0.12 0.15-0.02 0.1 0.03 0.19 0.05 0.09 0.15 0.11 0.1 0.03 0.19-0.02 0.08-0.03 0.16-0.07 0.06-0.01 0.12-0.02 0.12-0.01 0.25-0.01 0.14 0.04 0.28 0.1 0.15 0.05 0.31 0.11 0.08 0.04 0.16 0.05 0.16 0 0.25-0.14c0.06-0.12 0.03-0.25 0.01-0.38q0 0.01 0 0.02 0-0.02 0-0.05 0 0 0-0.01 0 0 0 0.01-0.02-0.16 0-0.32 0.03-0.13 0.07-0.25 0.08-0.2 0.21-0.37 0.1-0.12 0.22-0.23 0.12-0.09 0.27-0.16c0.12-0.06 0.16-0.23 0.09-0.34q-0.05-0.09-0.15-0.12-0.03 0-0.06 0-0.07 0-0.13 0.03z"/>
  </g>

</svg>